<svg width="500" height="500" viewBox="0 0 500 500" fill="none" xmlns="http://www.w3.org/2000/svg">
<g clip-path="url(#clip0_6343_2075)">
<path d="M500 0H0V500H500V0Z" fill="white"/>
<g opacity="0.35">
<path d="M446.104 300.171C438.701 273.614 462.235 272.589 462.752 238.369C462.964 224.373 455.296 210.119 436.848 203.581C427.782 200.368 418.744 198.159 410.677 193.05C392.294 181.406 392.626 159.252 387.611 140.366C376.597 98.8836 290.317 65.9046 247.411 66.9766C216.481 67.7486 202.212 82.6566 174.013 108.911C154.719 126.875 120.724 125.246 130.63 171.659C139.453 212.999 118.638 209.929 99.577 225.191C80.556 240.421 66.627 258.588 74.197 279.207C82.545 301.944 31.446 314.993 22.333 344.466C16.152 364.457 48.621 366.146 70.718 366.146C92.815 366.146 281.876 364.446 361.843 366.811C383.366 367.448 452.037 373.31 461.751 346.479C468.363 328.217 451.274 318.717 446.104 300.171Z" fill="#C3ECFE"/>
</g>
<path d="M470.648 291.899C454.667 329.091 423.879 359.445 386.971 375.902" stroke="#C3ECFE" stroke-width="1.393" stroke-miterlimit="10"/>
<path d="M465.957 301.793C471.538 297.148 475.357 290.436 476.5 283.266C476.78 281.508 476.837 279.507 475.656 278.176C475.331 277.81 474.902 277.508 474.415 277.458C473.631 277.379 472.941 277.955 472.418 278.544C469.642 281.664 468.679 285.978 468.202 290.127C467.726 294.275 466.818 297.319 465.957 301.793Z" fill="#C3ECFE"/>
<path d="M458.369 314.464C461.65 307.987 462.494 300.31 460.7 293.274C460.26 291.55 459.519 289.689 457.906 288.936C457.463 288.729 456.949 288.621 456.482 288.769C455.731 289.007 455.326 289.81 455.079 290.558C453.768 294.523 454.595 298.866 455.802 302.863C457.011 306.862 457.385 310.015 458.369 314.464Z" fill="#C3ECFE"/>
<path d="M447.202 330.049C451.25 324.021 453.027 316.506 452.106 309.303C451.881 307.538 451.372 305.601 449.864 304.656C449.449 304.396 448.952 304.227 448.471 304.317C447.696 304.461 447.197 305.209 446.86 305.921C445.074 309.696 445.364 314.107 446.074 318.222C446.784 322.337 446.77 325.513 447.202 330.049Z" fill="#C3ECFE"/>
<path d="M434.369 343.706C438.417 337.678 440.194 330.163 439.273 322.96C439.047 321.195 438.539 319.258 437.031 318.313C436.616 318.053 436.119 317.884 435.638 317.973C434.863 318.118 434.364 318.865 434.027 319.577C432.241 323.352 432.531 327.763 433.241 331.878C433.951 335.994 433.936 339.17 434.369 343.706Z" fill="#C3ECFE"/>
<path d="M415.147 359.467C419.798 353.891 422.343 346.6 422.174 339.341C422.132 337.562 421.827 335.582 420.425 334.486C420.04 334.185 419.563 333.965 419.075 334.004C418.29 334.068 417.715 334.759 417.306 335.433C415.139 339.002 414.97 343.42 415.25 347.587C415.529 351.753 415.186 354.91 415.147 359.467Z" fill="#C3ECFE"/>
<path d="M400.087 369.534C404.662 364.569 407.616 357.645 408.242 350.419C408.395 348.648 408.344 346.646 407.26 345.387C406.962 345.041 406.577 344.764 406.155 344.743C405.476 344.71 404.91 345.326 404.489 345.944C402.254 349.221 401.64 353.585 401.438 357.754C401.234 361.926 400.605 365.017 400.087 369.534Z" fill="#C3ECFE"/>
<path d="M454.566 320.044C461.931 321.258 469.876 319.734 476.498 315.836C478.121 314.881 479.803 313.59 480.147 311.79C480.241 311.295 480.217 310.762 479.949 310.353C479.516 309.695 478.604 309.546 477.787 309.534C473.459 309.469 469.299 311.602 465.585 314C461.871 316.398 458.792 317.726 454.566 320.044Z" fill="#C3ECFE"/>
<path d="M445.544 331.837C452.406 334.774 460.485 335.191 467.846 332.987C469.65 332.447 471.592 331.595 472.355 329.929C472.565 329.471 472.669 328.947 472.506 328.486C472.243 327.743 471.392 327.381 470.602 327.175C466.414 326.079 461.866 327.157 457.687 328.599C453.508 330.04 450.201 330.595 445.544 331.837Z" fill="#C3ECFE"/>
<path d="M432.064 345.59C438.2 349.841 446.032 351.865 453.685 351.178C455.561 351.01 457.633 350.563 458.715 349.084C459.012 348.677 459.219 348.185 459.151 347.701C459.042 346.92 458.281 346.396 457.548 346.035C453.664 344.123 448.992 344.27 444.609 344.846C440.227 345.423 436.876 345.305 432.064 345.59Z" fill="#C3ECFE"/>
<path d="M413.21 361.474C420.136 364.258 428.222 364.495 435.532 362.127C437.324 361.547 439.246 360.652 439.972 358.969C440.172 358.507 440.264 357.981 440.09 357.523C439.81 356.786 438.952 356.444 438.157 356.254C433.946 355.251 429.423 356.43 425.277 357.965C421.132 359.5 417.838 360.128 413.21 361.474Z" fill="#C3ECFE"/>
<path d="M397.964 370.576C402.895 376.18 410.009 380.031 417.602 381.208C419.463 381.497 421.582 381.563 422.988 380.387C423.374 380.064 423.694 379.636 423.745 379.149C423.827 378.365 423.215 377.673 422.59 377.146C419.281 374.355 414.711 373.371 410.319 372.875C405.926 372.38 402.702 371.458 397.964 370.576Z" fill="#C3ECFE"/>
<path d="M380.286 213.66C380.09 213.65 379.928 213.495 379.914 213.294L379.774 211.305C379.758 211.088 379.922 210.899 380.14 210.884C380.355 210.863 380.545 211.032 380.561 211.25L380.701 213.239C380.717 213.456 380.553 213.645 380.335 213.66C380.319 213.66 380.303 213.66 380.286 213.66Z" fill="#599FD2"/>
<path d="M389.22 304.052L383.963 304.422L378.114 219.664L380.742 219.479L383.371 219.295L389.22 304.052Z" fill="#C3ECFE"/>
<path d="M380.782 212.44L379.72 212.515L378.114 219.663L383.371 219.294L380.782 212.44Z" fill="#C3ECFE"/>
<path d="M123.565 233.533C132.913 284.618 168.529 330.166 215.853 351.557" stroke="#C3ECFE" stroke-width="1.393" stroke-miterlimit="10"/>
<path d="M125.932 244.225C121.527 238.452 119.3 231.058 119.785 223.813C119.904 222.037 120.294 220.073 121.743 219.039C122.141 218.755 122.627 218.556 123.113 218.616C123.895 218.714 124.439 219.43 124.818 220.12C126.828 223.78 126.806 228.201 126.345 232.351C125.884 236.501 126.09 239.671 125.932 244.225Z" fill="#C3ECFE"/>
<path d="M130.505 258.268C128.751 251.222 129.639 243.55 132.957 237.092C133.77 235.509 134.908 233.861 136.648 233.486C137.126 233.383 137.651 233.393 138.073 233.641C138.752 234.041 138.967 234.913 139.042 235.698C139.436 239.855 137.662 243.904 135.593 247.532C133.524 251.159 132.456 254.15 130.505 258.268Z" fill="#C3ECFE"/>
<path d="M137.916 275.951C135.314 269.172 135.258 261.45 137.761 254.634C138.374 252.964 139.302 251.189 140.983 250.604C141.445 250.443 141.968 250.389 142.416 250.584C143.139 250.898 143.459 251.737 143.629 252.507C144.528 256.585 143.262 260.821 141.653 264.674C140.043 268.526 139.349 271.626 137.916 275.951Z" fill="#C3ECFE"/>
<path d="M147.381 292.125C144.779 285.346 144.722 277.624 147.226 270.808C147.839 269.138 148.767 267.363 150.448 266.778C150.91 266.617 151.433 266.563 151.881 266.758C152.604 267.072 152.924 267.912 153.094 268.681C153.993 272.759 152.727 276.995 151.118 280.848C149.508 284.701 148.814 287.8 147.381 292.125Z" fill="#C3ECFE"/>
<path d="M162.604 311.776C159.314 305.303 158.458 297.628 160.242 290.59C160.679 288.865 161.418 287.004 163.029 286.248C163.472 286.04 163.986 285.932 164.453 286.079C165.204 286.316 165.61 287.118 165.858 287.866C167.175 291.829 166.354 296.173 165.153 300.172C163.951 304.171 163.582 307.326 162.604 311.776Z" fill="#C3ECFE"/>
<path d="M175.041 324.948C171.688 319.088 170.352 311.679 171.354 304.496C171.599 302.736 172.096 300.796 173.433 299.81C173.801 299.539 174.238 299.355 174.654 299.429C175.324 299.548 175.737 300.275 176.01 300.972C177.458 304.665 177.083 309.056 176.351 313.165C175.62 317.275 175.544 320.429 175.041 324.948Z" fill="#C3ECFE"/>
<path d="M132.967 264.554C125.517 264.095 118.112 260.838 112.526 255.562C111.157 254.269 109.805 252.636 109.871 250.804C109.889 250.301 110.031 249.786 110.385 249.447C110.954 248.902 111.876 248.961 112.675 249.131C116.909 250.033 120.488 253.04 123.574 256.205C126.659 259.371 129.364 261.352 132.967 264.554Z" fill="#C3ECFE"/>
<path d="M139.134 278.063C131.79 279.396 123.821 278.001 117.137 274.211C115.499 273.282 113.796 272.019 113.423 270.225C113.321 269.732 113.336 269.198 113.598 268.785C114.02 268.12 114.93 267.957 115.746 267.931C120.073 267.797 124.266 269.861 128.018 272.199C131.771 274.535 134.871 275.813 139.134 278.063Z" fill="#C3ECFE"/>
<path d="M149.206 294.476C142.277 297.252 134.19 297.479 126.883 295.102C125.092 294.52 123.171 293.623 122.447 291.939C122.248 291.476 122.156 290.95 122.33 290.493C122.61 289.757 123.469 289.415 124.264 289.227C128.476 288.23 132.998 289.414 137.142 290.953C141.286 292.493 144.579 293.125 149.206 294.476Z" fill="#C3ECFE"/>
<path d="M164.046 314.163C156.674 315.333 148.738 313.76 142.14 309.823C140.523 308.858 138.848 307.557 138.516 305.755C138.425 305.26 138.452 304.726 138.723 304.319C139.16 303.663 140.073 303.52 140.89 303.513C145.219 303.475 149.365 305.632 153.064 308.053C156.763 310.473 159.834 311.819 164.046 314.163Z" fill="#C3ECFE"/>
<path d="M176.879 326.437C170.823 330.8 163.029 332.969 155.365 332.423C153.487 332.289 151.406 331.881 150.297 330.422C149.992 330.021 149.777 329.532 149.835 329.047C149.93 328.265 150.681 327.726 151.407 327.352C155.255 325.369 159.929 325.429 164.322 325.925C168.714 326.42 172.063 326.24 176.879 326.437Z" fill="#C3ECFE"/>
<path d="M31.4453 304.867C83.3253 302.5 135.709 326.974 167.183 368.284" stroke="#C3ECFE" stroke-width="1.393" stroke-miterlimit="10"/>
<path d="M42.3957 304.772C35.7817 301.777 28.0757 301.268 21.1247 303.367C19.4207 303.882 17.5947 304.704 16.9127 306.347C16.7247 306.799 16.6397 307.317 16.8087 307.777C17.0797 308.517 17.8987 308.886 18.6577 309.101C22.6757 310.238 26.9787 309.222 30.9197 307.841C34.8597 306.46 37.9937 305.949 42.3957 304.772Z" fill="#C3ECFE"/>
<path d="M57.1072 306.073C49.8472 305.947 42.5712 308.535 37.0232 313.219C35.6632 314.367 34.3132 315.846 34.3382 317.625C34.3452 318.114 34.4732 318.624 34.8092 318.979C35.3512 319.551 36.2502 319.565 37.0312 319.461C41.1702 318.911 44.7182 316.273 47.7882 313.442C50.8582 310.611 53.5322 308.899 57.1072 306.073Z" fill="#C3ECFE"/>
<path d="M76.0025 309.322C68.8125 308.309 61.2745 309.989 55.1955 313.959C53.7055 314.932 52.1845 316.235 51.9925 318.004C51.9395 318.49 52.0035 319.012 52.2945 319.405C52.7625 320.039 53.6525 320.162 54.4405 320.155C58.6165 320.115 62.4595 317.93 65.8525 315.496C69.2455 313.062 72.1095 311.69 76.0025 309.322Z" fill="#C3ECFE"/>
<path d="M93.8892 314.912C86.6992 313.899 79.1612 315.579 73.0822 319.549C71.5922 320.522 70.0712 321.825 69.8782 323.594C69.8252 324.08 69.8892 324.602 70.1802 324.995C70.6482 325.629 71.5382 325.752 72.3262 325.745C76.5022 325.705 80.3452 323.52 83.7382 321.086C87.1322 318.653 89.9962 317.281 93.8892 314.912Z" fill="#C3ECFE"/>
<path d="M116.458 325.333C109.412 323.581 101.741 324.471 95.2828 327.79C93.6998 328.604 92.0518 329.742 91.6778 331.481C91.5748 331.959 91.5848 332.485 91.8328 332.906C92.2328 333.585 93.1058 333.8 93.8898 333.874C98.0468 334.267 102.096 332.492 105.723 330.422C109.35 328.353 112.341 327.285 116.458 325.333Z" fill="#C3ECFE"/>
<path d="M132.087 334.492C125.624 332.541 118.104 332.904 111.33 335.493C109.67 336.127 107.891 337.047 107.231 338.572C107.05 338.991 106.968 339.459 107.134 339.847C107.4 340.473 108.202 340.712 108.942 340.822C112.866 341.403 117.061 340.052 120.901 338.415C124.74 336.779 127.796 335.997 132.087 334.492Z" fill="#C3ECFE"/>
<path d="M63.7858 307.06C61.6658 299.903 56.8278 293.419 50.4318 289.161C48.8638 288.117 46.9688 287.167 45.1998 287.643C44.7138 287.774 44.2438 288.028 43.9928 288.448C43.5888 289.125 43.8538 290.01 44.1988 290.75C46.0288 294.673 49.7618 297.486 53.5398 299.781C57.3188 302.077 59.8568 304.268 63.7858 307.06Z" fill="#C3ECFE"/>
<path d="M78.3349 310.034C77.9839 302.578 74.8339 295.126 69.6399 289.465C68.3669 288.077 66.7529 286.702 64.9209 286.742C64.4179 286.753 63.9009 286.888 63.5569 287.236C63.0039 287.797 63.0489 288.72 63.2079 289.521C64.0489 293.768 67.0029 297.39 70.1229 300.521C73.2429 303.652 75.1849 306.385 78.3349 310.034Z" fill="#C3ECFE"/>
<path d="M96.5903 316.162C97.7383 308.786 96.1433 300.855 92.1863 294.269C91.2163 292.654 89.9113 290.984 88.1083 290.657C87.6123 290.567 87.0793 290.596 86.6733 290.868C86.0183 291.307 85.8783 292.22 85.8733 293.037C85.8473 297.366 88.0173 301.506 90.4483 305.198C92.8783 308.89 94.2343 311.957 96.5903 316.162Z" fill="#C3ECFE"/>
<path d="M119.108 326.2C118.592 318.754 115.277 311.374 109.958 305.829C108.654 304.47 107.011 303.131 105.18 303.211C104.677 303.233 104.163 303.379 103.827 303.735C103.286 304.308 103.352 305.23 103.528 306.028C104.463 310.255 107.497 313.811 110.686 316.872C113.876 319.933 115.878 322.623 119.108 326.2Z" fill="#C3ECFE"/>
<path d="M133.95 335.948C136.841 329.066 137.203 320.984 134.95 313.639C134.398 311.839 133.533 309.903 131.862 309.15C131.403 308.943 130.878 308.843 130.418 309.009C129.677 309.277 129.321 310.13 129.119 310.922C128.051 315.117 129.159 319.658 130.629 323.827C132.1 327.996 132.677 331.299 133.95 335.948Z" fill="#C3ECFE"/>
<path d="M195.403 326.819C187.889 319.792 177.274 316.207 167.037 317.241C160.104 317.941 152.544 321.646 151.018 328.445C150.291 331.683 150.546 335.979 147.481 337.251C144.481 338.496 141.584 335.406 138.504 334.373C133.378 332.653 127.528 338.514 129.257 343.637C130.043 345.966 132.015 347.996 131.851 350.449C131.628 353.79 127.499 355.531 124.191 355.012C120.883 354.493 117.963 352.562 114.718 351.736C111.473 350.91 107.271 351.738 106.132 354.886C105.111 357.708 106.873 361.499 104.657 363.523C103.708 364.39 102.334 364.569 101.054 364.69C72.9597 367.357 42.0187 372.397 45.1627 377.388C46.0227 378.752 48.2187 378.318 49.8307 378.293C109.628 377.357 163.946 376.465 223.723 378.299" fill="#C3ECFE"/>
<path d="M363.544 232.89L381.271 302.402L377.899 303.262L355.966 234.823" fill="#88D2FF"/>
<path d="M347.14 234.476C338.088 236.784 328.454 229.764 325.664 218.826C322.875 207.888 327.971 197.112 337.023 194.803C346.075 192.495 355.709 199.515 358.498 210.453C361.288 221.391 356.192 232.168 347.14 234.476ZM338.574 200.886C332.876 202.339 329.812 209.692 331.746 217.276C333.68 224.86 339.89 229.848 345.588 228.394C351.286 226.941 354.349 219.588 352.415 212.004C350.482 204.42 344.272 199.433 338.574 200.886Z" fill="#9BDFFF"/>
<path d="M356.46 215.158C356.754 216.311 361.85 236.294 361.85 236.294C362.121 237.357 361.479 238.439 360.416 238.71C359.353 238.981 358.271 238.339 358 237.276L357.391 234.888C357.391 234.888 354.561 228.851 346.736 231.34C346.736 231.34 356.069 230.174 356.386 230.197C356.703 230.221 356.166 214.005 356.46 215.158Z" fill="#C0EDFF"/>
<path d="M361.191 241.751C358.453 242.449 355.658 240.79 354.959 238.052C354.959 238.052 354.636 236.389 353.989 235.47C352.975 234.031 350.908 233.49 347.125 234.455L346.168 229.112C348.156 228.475 349.586 227.517 351.185 227.629C352.042 227.524 352.754 227.439 353.35 227.369C353.344 225.732 353.312 223.574 353.287 221.92C353.262 220.161 355.544 218.185 355.538 216.922C355.529 214.656 353.206 212.367 356.018 211.991L358.784 211.623L364.891 235.521C365.589 238.258 363.93 241.053 361.191 241.751Z" fill="#9BDFFF"/>
<path d="M366.153 232.26L366.205 303.997L369.685 303.994L373.973 232.254" fill="#88D2FF"/>
<path d="M365.481 209.273C365.473 197.985 373.067 188.796 382.408 188.79C391.75 188.783 399.357 197.961 399.365 209.249C399.373 220.537 391.779 229.726 382.438 229.733C373.097 229.738 365.489 220.561 365.481 209.273ZM371.758 209.268C371.764 217.095 376.554 223.459 382.434 223.455C388.314 223.451 393.095 217.079 393.089 209.253C393.083 201.426 388.293 195.062 382.413 195.067C376.533 195.07 371.752 201.441 371.758 209.268Z" fill="#9BDFFF"/>
<path d="M368.622 213.327C368.623 214.517 368.638 235.139 368.638 235.139C368.639 236.236 369.529 237.125 370.626 237.124C371.723 237.123 372.612 236.233 372.611 235.136L372.609 232.672C372.609 232.672 373.855 226.122 382.053 226.594C382.053 226.594 372.722 227.777 372.42 227.878C372.119 227.98 368.621 212.137 368.622 213.327Z" fill="#C0EDFF"/>
<path d="M370.628 240.262C373.454 240.26 375.751 237.96 375.749 235.134C375.749 235.134 375.65 233.442 376.049 232.392C376.674 230.747 378.544 229.71 382.447 229.707L382.051 224.293C379.967 224.169 378.344 223.594 376.822 224.099C375.966 224.21 375.255 224.303 374.66 224.384C374.261 222.797 373.756 220.698 373.371 219.089C372.959 217.379 370.259 216.03 369.952 214.805C369.399 212.608 371.082 209.814 368.265 210.147L365.494 210.476L365.5 235.142C365.502 237.967 367.803 240.264 370.628 240.262Z" fill="#9BDFFF"/>
<path d="M396.354 291.306L387.332 289.677L401.346 212.081C401.461 211.445 402.069 211.023 402.705 211.138L409.425 212.352C410.061 212.467 410.483 213.075 410.368 213.711L396.354 291.306Z" fill="#88D2FF"/>
<path d="M409.021 221.168L399.999 219.539L401.346 212.082C401.461 211.446 402.069 211.024 402.705 211.139L409.425 212.353C410.06 212.468 410.483 213.076 410.368 213.712L409.021 221.168Z" fill="#FE7D90"/>
<g opacity="0.5">
<path d="M399.995 219.531L399.507 222.232L408.53 223.862L409.018 221.16L399.995 219.531Z" fill="#599FD2"/>
</g>
<path d="M434.795 229.436L420.072 223.633L388.675 303.287L403.398 309.09L434.795 229.436Z" fill="#C3ECFE"/>
<path d="M428.943 230.118L433.796 232.031" stroke="#CCF3FF" stroke-width="1.393" stroke-miterlimit="10"/>
<path d="M427.312 234.256L432.165 236.168" stroke="#CCF3FF" stroke-width="1.393" stroke-miterlimit="10"/>
<path d="M425.682 238.394L430.534 240.307" stroke="#CCF3FF" stroke-width="1.393" stroke-miterlimit="10"/>
<path d="M421.677 241.595L428.904 244.444" stroke="#CCF3FF" stroke-width="1.393" stroke-miterlimit="10"/>
<path d="M422.42 246.668L427.273 248.581" stroke="#CCF3FF" stroke-width="1.393" stroke-miterlimit="10"/>
<path d="M420.789 250.807L425.642 252.72" stroke="#CCF3FF" stroke-width="1.393" stroke-miterlimit="10"/>
<path d="M419.158 254.944L424.011 256.856" stroke="#CCF3FF" stroke-width="1.393" stroke-miterlimit="10"/>
<path d="M415.154 258.146L422.38 260.994" stroke="#CCF3FF" stroke-width="1.393" stroke-miterlimit="10"/>
<path d="M415.896 263.219L420.748 265.132" stroke="#CCF3FF" stroke-width="1.393" stroke-miterlimit="10"/>
<path d="M414.266 267.357L419.119 269.269" stroke="#CCF3FF" stroke-width="1.393" stroke-miterlimit="10"/>
<path d="M412.635 271.494L417.488 273.407" stroke="#CCF3FF" stroke-width="1.393" stroke-miterlimit="10"/>
<path d="M408.63 274.696L415.857 277.545" stroke="#CCF3FF" stroke-width="1.393" stroke-miterlimit="10"/>
<path d="M409.374 279.77L414.226 281.683" stroke="#CCF3FF" stroke-width="1.393" stroke-miterlimit="10"/>
<path d="M407.743 283.907L412.595 285.82" stroke="#CCF3FF" stroke-width="1.393" stroke-miterlimit="10"/>
<path d="M406.112 288.045L410.964 289.957" stroke="#CCF3FF" stroke-width="1.393" stroke-miterlimit="10"/>
<path d="M402.106 291.247L409.332 294.095" stroke="#CCF3FF" stroke-width="1.393" stroke-miterlimit="10"/>
<path d="M402.85 296.32L407.703 298.232" stroke="#CCF3FF" stroke-width="1.393" stroke-miterlimit="10"/>
<path d="M401.219 300.457L406.072 302.37" stroke="#CCF3FF" stroke-width="1.393" stroke-miterlimit="10"/>
<path d="M399.588 304.595L404.441 306.508" stroke="#CCF3FF" stroke-width="1.393" stroke-miterlimit="10"/>
<path d="M414.181 381.821H340.763L328.432 270.757C328.275 269.345 329.381 268.11 330.802 268.11H424.144C425.565 268.11 426.67 269.345 426.513 270.757L414.181 381.821Z" fill="#9BDFFF"/>
<path d="M322.117 386.661C366.338 387.263 410.559 387.866 454.781 388.468C456.265 388.488 460.942 387.041 452.882 381.843C446.055 377.441 424.478 381.401 424.478 381.401C424.478 381.401 429.501 379.387 429.477 376.789C429.454 374.19 427.484 371.906 425.119 370.828C422.754 369.75 420.061 369.672 417.466 369.82C412.186 370.122 406.957 371.292 402.052 373.269C404.133 371.989 404.768 368.851 403.348 366.863C401.928 364.875 398.753 364.458 396.868 366.011C400.182 361.523 405.306 341.632 389.559 332.865C369.821 321.877 354.831 330.919 351.633 337.532C350.011 331.041 342.563 326.126 337.658 324.908C326.471 322.13 319.183 322.954 308.739 327.831C305.044 329.556 300.097 335.449 297.641 338.704C293.794 343.802 293.194 350.582 292.983 356.965C292.824 361.756 292.802 366.551 292.918 371.343" fill="#CCF3FF"/>
<path opacity="0.4" d="M347.958 393.731C347.958 396.023 303.419 397.882 248.477 397.882C193.535 397.882 148.996 396.024 148.996 393.731C148.996 391.438 193.535 389.58 248.477 389.58C303.419 389.58 347.958 391.439 347.958 393.731Z" fill="#A1D7E5"/>
<path d="M250.371 104.175C244.857 104.175 240.388 108.645 240.388 114.158V126.953H260.355C260.355 126.953 260.355 116.791 260.355 114.158C260.355 108.645 255.885 104.175 250.371 104.175ZM250.371 119.888C247.278 119.888 244.77 117.38 244.77 114.287C244.77 111.194 247.277 108.686 250.371 108.686C253.465 108.686 255.972 111.194 255.972 114.287C255.973 117.381 253.465 119.888 250.371 119.888Z" fill="#E8505B"/>
<g opacity="0.45">
<path d="M255.973 114.286C255.973 111.193 253.465 108.685 250.372 108.685C250.084 108.685 249.807 108.728 249.531 108.77C250.372 108.445 250.414 108.226 251.804 108.226C254.897 108.226 257.405 110.734 257.405 113.827C257.405 116.632 255.974 118.152 253.812 118.707C255.011 117.679 255.973 115.99 255.973 114.286ZM243.438 125.675V112.88C243.438 109.407 244.945 106.352 247.635 104.563C243.453 105.754 240.388 109.594 240.388 114.157V126.952H260.355C260.355 126.952 260.355 126.453 260.355 125.675H243.438Z" fill="#B03D44"/>
</g>
<path d="M332.823 393.685H164.131C158.751 393.685 154.389 389.323 154.389 383.943V137.367C154.389 131.987 158.75 127.625 164.131 127.625H332.822C338.202 127.625 342.564 131.986 342.564 137.367V383.943C342.564 389.324 338.203 393.685 332.823 393.685Z" fill="#3E89CC"/>
<path d="M331.657 138.061H165.296V383.251H331.657V138.061Z" fill="#C3ECFE"/>
<path d="M325.261 145.551H171.693V375.759H325.261V145.551Z" fill="white"/>
<path d="M309 132.03V142.03H187.95V132.03C187.95 131.3 188.06 130.6 188.27 129.94C189.16 127.08 191.83 125.01 194.97 125.01H301.98C305.86 125.01 309 128.15 309 132.03Z" fill="#E8505B"/>
<path opacity="0.45" d="M309 139.53V142.03H187.95V134.79C187.95 132.85 188.06 131.25 188.27 129.94C189.16 127.08 191.83 125.01 194.97 125.01H195.83C193.98 126.79 192.63 129.51 192.63 132.29V139.53H309Z" fill="#B03D44"/>
<g opacity="0.15">
<path d="M214.281 170.024H239.226" stroke="#0964AF" stroke-width="3.1215" stroke-miterlimit="10" stroke-linecap="round" stroke-linejoin="round"/>
<path d="M295.205 177.977H314.172" stroke="#0964AF" stroke-width="3.1215" stroke-miterlimit="10" stroke-linecap="round" stroke-linejoin="round"/>
<path d="M214.281 177.977H286.986" stroke="#0964AF" stroke-width="3.1215" stroke-miterlimit="10" stroke-linecap="round" stroke-linejoin="round"/>
<path d="M214.281 185.93H314.172" stroke="#0964AF" stroke-width="3.1215" stroke-miterlimit="10" stroke-linecap="round" stroke-linejoin="round"/>
<path d="M282.421 193.883H314.172" stroke="#0964AF" stroke-width="3.1215" stroke-miterlimit="10" stroke-linecap="round" stroke-linejoin="round"/>
<path d="M214.281 193.883H274.518" stroke="#0964AF" stroke-width="3.1215" stroke-miterlimit="10" stroke-linecap="round" stroke-linejoin="round"/>
<path d="M247.412 170.024H314.172" stroke="#0964AF" stroke-width="3.1215" stroke-miterlimit="10" stroke-linecap="round" stroke-linejoin="round"/>
</g>
<g opacity="0.15">
<path d="M214.281 227.193H239.226" stroke="#0964AF" stroke-width="3.1215" stroke-miterlimit="10" stroke-linecap="round" stroke-linejoin="round"/>
<path d="M295.205 235.146H314.172" stroke="#0964AF" stroke-width="3.1215" stroke-miterlimit="10" stroke-linecap="round" stroke-linejoin="round"/>
<path d="M214.281 235.146H286.986" stroke="#0964AF" stroke-width="3.1215" stroke-miterlimit="10" stroke-linecap="round" stroke-linejoin="round"/>
<path d="M214.281 243.1H314.172" stroke="#0964AF" stroke-width="3.1215" stroke-miterlimit="10" stroke-linecap="round" stroke-linejoin="round"/>
<path d="M282.421 251.053H314.172" stroke="#0964AF" stroke-width="3.1215" stroke-miterlimit="10" stroke-linecap="round" stroke-linejoin="round"/>
<path d="M214.281 251.053H274.518" stroke="#0964AF" stroke-width="3.1215" stroke-miterlimit="10" stroke-linecap="round" stroke-linejoin="round"/>
<path d="M247.412 227.193H314.172" stroke="#0964AF" stroke-width="3.1215" stroke-miterlimit="10" stroke-linecap="round" stroke-linejoin="round"/>
</g>
<g opacity="0.15">
<path d="M214.281 282.363H239.226" stroke="#0964AF" stroke-width="3.1215" stroke-miterlimit="10" stroke-linecap="round" stroke-linejoin="round"/>
<path d="M295.205 290.316H314.172" stroke="#0964AF" stroke-width="3.1215" stroke-miterlimit="10" stroke-linecap="round" stroke-linejoin="round"/>
<path d="M214.281 290.316H286.986" stroke="#0964AF" stroke-width="3.1215" stroke-miterlimit="10" stroke-linecap="round" stroke-linejoin="round"/>
<path d="M214.281 298.27H314.172" stroke="#0964AF" stroke-width="3.1215" stroke-miterlimit="10" stroke-linecap="round" stroke-linejoin="round"/>
<path d="M282.421 306.222H314.172" stroke="#0964AF" stroke-width="3.1215" stroke-miterlimit="10" stroke-linecap="round" stroke-linejoin="round"/>
<path d="M214.281 306.222H274.518" stroke="#0964AF" stroke-width="3.1215" stroke-miterlimit="10" stroke-linecap="round" stroke-linejoin="round"/>
<path d="M247.412 282.363H314.172" stroke="#0964AF" stroke-width="3.1215" stroke-miterlimit="10" stroke-linecap="round" stroke-linejoin="round"/>
</g>
<g opacity="0.15">
<path d="M214.281 338.533H239.226" stroke="#0964AF" stroke-width="3.1215" stroke-miterlimit="10" stroke-linecap="round" stroke-linejoin="round"/>
<path d="M295.205 346.485H314.172" stroke="#0964AF" stroke-width="3.1215" stroke-miterlimit="10" stroke-linecap="round" stroke-linejoin="round"/>
<path d="M214.281 346.485H286.986" stroke="#0964AF" stroke-width="3.1215" stroke-miterlimit="10" stroke-linecap="round" stroke-linejoin="round"/>
<path d="M214.281 354.438H314.172" stroke="#0964AF" stroke-width="3.1215" stroke-miterlimit="10" stroke-linecap="round" stroke-linejoin="round"/>
<path d="M282.421 362.392H314.172" stroke="#0964AF" stroke-width="3.1215" stroke-miterlimit="10" stroke-linecap="round" stroke-linejoin="round"/>
<path d="M214.281 362.392H274.518" stroke="#0964AF" stroke-width="3.1215" stroke-miterlimit="10" stroke-linecap="round" stroke-linejoin="round"/>
<path d="M247.412 338.533H314.172" stroke="#0964AF" stroke-width="3.1215" stroke-miterlimit="10" stroke-linecap="round" stroke-linejoin="round"/>
</g>
<path d="M203.756 190.492H185.091C183.93 190.492 182.989 189.551 182.989 188.39V169.725C182.989 168.564 183.93 167.623 185.091 167.623H203.755C204.916 167.623 205.857 168.564 205.857 169.725V188.39C205.858 189.551 204.917 190.492 203.756 190.492Z" stroke="#2396B5" stroke-width="1.1566" stroke-miterlimit="10"/>
<path d="M203.756 247.476H185.092C183.931 247.476 182.99 246.535 182.99 245.374V226.709C182.99 225.548 183.931 224.607 185.092 224.607H203.756C204.917 224.607 205.858 225.548 205.858 226.709V245.374C205.858 246.535 204.917 247.476 203.756 247.476Z" stroke="#2396B5" stroke-width="1.1566" stroke-miterlimit="10"/>
<path d="M203.756 304.461H185.092C183.931 304.461 182.99 303.52 182.99 302.359V283.695C182.99 282.534 183.931 281.593 185.092 281.593H203.756C204.917 281.593 205.858 282.534 205.858 283.695V302.359C205.858 303.52 204.917 304.461 203.756 304.461Z" stroke="#2396B5" stroke-width="1.1566" stroke-miterlimit="10"/>
<path d="M203.756 361.444H185.091C183.93 361.444 182.989 360.503 182.989 359.342V340.678C182.989 339.517 183.93 338.576 185.091 338.576H203.755C204.916 338.576 205.857 339.517 205.857 340.678V359.342C205.858 360.503 204.917 361.444 203.756 361.444Z" stroke="#2396B5" stroke-width="1.1566" stroke-miterlimit="10"/>
<path d="M185.805 175.032L194.425 185.442L211.01 159.273" stroke="#FFA829" stroke-width="3.4699" stroke-miterlimit="10" stroke-linecap="round" stroke-linejoin="round"/>
<path d="M185.805 231.542L194.425 241.952L211.01 215.783" stroke="#FFA829" stroke-width="3.4699" stroke-miterlimit="10" stroke-linecap="round" stroke-linejoin="round"/>
<path d="M122.247 248.136C122.247 248.136 122.677 250.99 122.949 251.239C122.949 251.239 122.676 251.715 121.861 251.76" fill="#FFB392"/>
<path opacity="0.4" d="M143.63 393.957C143.63 395.144 132.95 396.105 119.776 396.105C106.602 396.105 95.9219 395.143 95.9219 393.957C95.9219 392.77 106.602 391.809 119.776 391.809C132.95 391.809 143.63 392.771 143.63 393.957Z" fill="#A1D7E5"/>
<path d="M130.674 261.459L125.402 284.615C125.258 285.246 125.684 285.866 126.325 285.958L142.734 288.314C143.305 288.396 143.844 288.026 143.972 287.463L149.244 264.307C149.388 263.676 148.962 263.056 148.321 262.964L131.912 260.608C131.341 260.526 130.802 260.896 130.674 261.459Z" fill="#57C6F2"/>
<path d="M131.701 262.206L126.653 284.376L142.946 286.716L147.993 264.545L131.701 262.206Z" fill="#E5F8FF"/>
<path d="M146.267 266.179L132.422 264.191" stroke="#A1D2F0" stroke-width="0.5742" stroke-miterlimit="10" stroke-linecap="round" stroke-linejoin="round"/>
<path d="M145.801 268.274L131.956 266.286" stroke="#A1D2F0" stroke-width="0.5742" stroke-miterlimit="10" stroke-linecap="round" stroke-linejoin="round"/>
<path d="M140.038 270.012L131.386 268.77" stroke="#A1D2F0" stroke-width="0.5742" stroke-miterlimit="10" stroke-linecap="round" stroke-linejoin="round"/>
<path d="M139.423 271.813L130.771 270.57" stroke="#A1D2F0" stroke-width="0.5742" stroke-miterlimit="10" stroke-linecap="round" stroke-linejoin="round"/>
<path d="M138.807 273.614L130.155 272.371" stroke="#A1D2F0" stroke-width="0.5742" stroke-miterlimit="10" stroke-linecap="round" stroke-linejoin="round"/>
<path d="M141.98 283.568L133.327 282.325" stroke="#A1D2F0" stroke-width="0.5742" stroke-miterlimit="10" stroke-linecap="round" stroke-linejoin="round"/>
<path d="M124.36 284.892C125.289 284.454 125.98 283.644 126.641 282.857C127.293 282.081 127.945 281.305 128.597 280.529C128.854 280.223 129.124 279.888 129.153 279.489C128.06 279.4 127.356 280.82 126.263 280.904C126.772 279.104 127.503 277.368 128.434 275.746C128.661 275.35 128.908 274.889 128.747 274.462C127.566 274.913 126.571 275.753 125.71 276.68C125.105 277.331 124.554 278.032 124.064 278.773C122.621 280.956 121.728 283.462 121.119 286.007" fill="#F2A181"/>
<path d="M119.656 303.543L107.94 293.658C107.94 293.658 102.487 301.053 104.541 308.188C105.551 311.696 106.819 313.436 107.37 315.101C107.884 316.656 111.411 338.67 111.148 340.279C110.885 341.889 108.991 346.392 108.269 351.128C107.4 356.824 107.547 375.381 106.873 380.302C106.199 385.222 110.743 386.055 110.993 384.39C113.129 370.162 118.77 347.99 119.559 340.877C120.348 333.763 120.028 320.737 119.656 303.543Z" fill="#FFBE9D"/>
<path d="M119.69 317.563L114.595 329.255C116.743 332.884 117.985 337.167 118.15 341.51C118.235 343.766 118.037 346.026 118.099 348.282C118.103 348.442 118.126 348.614 118.168 348.773C118.851 345.429 119.36 342.672 119.559 340.877C120.117 335.852 120.12 327.864 119.943 317.551C119.858 317.554 119.775 317.55 119.69 317.563Z" fill="#F2A181"/>
<path d="M111.781 379.82C111.781 379.82 110.69 384.983 110.984 385.64C111.278 386.298 112.333 388.21 113.414 388.902C114.548 389.627 117.06 390.49 117.261 390.804C117.462 391.119 117.475 391.577 117.117 391.858C116.192 392.585 114.586 392.939 113.536 392.766C110.13 392.204 109.778 390.698 107.794 390.457C107.452 390.415 106.817 390.922 105.869 390.437C104.921 389.952 104.461 389.076 104.542 388.252C104.683 386.83 105.481 385.658 106.05 384.606C106.619 383.554 107.019 378.741 107.019 378.741" fill="#FFBE9D"/>
<path d="M117.383 392.107C117.631 391.682 117.695 391.039 117.463 390.882C117.143 390.664 116.003 389.91 115.343 389.606C114.682 389.302 113.635 389.034 114.004 389.233C114.373 389.432 113.694 390.178 113.075 390.14C110.94 390.009 109.366 388.591 108.15 388.286C106.395 387.847 105.66 385.775 105.583 385.439C105.251 385.65 104.479 387.318 104.323 387.843C104.182 388.317 103.928 389.184 104.063 389.678C104.156 390.019 104.363 390.706 104.258 391.428C104.258 391.428 104.604 391.694 105.52 391.883C106.1 392.003 106.878 391.903 106.878 391.903L107.029 390.801C107.029 390.801 107.507 390.782 108.115 390.908C108.723 391.034 109.715 391.612 109.774 391.683C110.018 391.974 110.213 392.504 110.535 392.667C111.388 393.097 112.248 393.302 113.335 393.365C115.623 393.498 116.959 392.833 117.383 392.107Z" fill="#1B227A"/>
<path d="M135.655 391.892C135.403 391.614 132.689 391.172 131.416 390.641C130.203 390.134 128.734 388.505 128.448 387.814C128.162 387.123 128.228 383.62 128.264 382.149C128.518 372.018 130.39 347.26 130.661 341.331C131.132 331.026 129.794 320.389 125.829 303.845L111.065 292.514C111.065 292.514 106.93 300.201 108.315 307.55C109.118 311.814 112.655 312.47 113.253 314.127C113.851 315.784 122.784 342.503 122.784 342.503C122.784 342.503 121.046 348.279 120.945 354.608C120.859 360.01 123.309 376.306 123.763 382.514C123.817 383.727 124.025 386.631 123.668 387.556C123.23 388.689 122.113 390.02 122.17 391.448C122.202 392.276 122.801 393.067 123.848 393.392C124.894 393.717 125.477 393.112 125.837 393.097C127.918 393.011 128.495 394.442 132.089 394.441C133.197 394.441 134.804 393.828 135.656 392.958C135.984 392.622 135.906 392.171 135.655 391.892Z" fill="#FFBE9D"/>
<path d="M135.964 393.161C136.16 392.7 136.134 392.055 135.874 391.937C135.513 391.774 134.231 391.214 133.506 391.022C132.781 390.829 131.663 390.736 132.072 390.873C132.481 391.01 131.885 391.858 131.242 391.921C129.021 392.141 127.196 390.995 125.898 390.894C124.025 390.748 123.338 388.819 123.21 388.5C122.897 388.763 121.973 390.538 121.885 391.083C121.806 391.575 121.667 392.473 121.876 392.94C122.021 393.262 122.331 393.907 122.324 394.638C122.324 394.638 122.718 394.844 123.69 394.881C124.305 394.905 125.095 394.678 125.095 394.678V393.563C125.095 393.563 125.585 393.467 126.23 393.491C126.875 393.516 127.671 393.845 128.061 394.138C128.366 394.368 128.687 394.755 129.047 394.845C130.086 395.106 130.833 395.181 131.963 395.066C134.344 394.824 135.629 393.948 135.964 393.161Z" fill="#1B227A"/>
<path d="M108.248 292.415C107.246 293.515 103.675 299.466 103.637 304.309C103.599 309.152 105.143 312.302 105.477 313.269C106.391 315.916 108.092 318.283 108.092 318.767C108.092 319.251 110.754 319.586 116.402 319.231C126.837 318.574 130.671 316.616 130.671 316.616C130.671 316.616 131.012 312.275 129.942 302.856C129.434 298.383 125.625 291.3 125.625 291.3" fill="#1B227A"/>
<path d="M98.7275 273.064C98.7275 273.064 100.409 281.415 100.85 282.901C101.291 284.387 103.472 293.823 105.538 293.659C107.605 293.495 118.924 284.045 118.924 284.045L117.321 280.839L107.358 285.589C107.358 285.589 106.458 274.803 105.668 272.234" fill="#FFBE9D"/>
<path d="M102.58 278.204C103.634 281.932 105.796 285.861 106.443 288.752C106.573 289.333 113.472 286.824 113.488 284.233" fill="#F2A181"/>
<path d="M105.478 261.489C105.478 261.489 102.174 261.841 100.499 263.123C96.2266 266.391 99.5326 278.256 99.5326 278.256C99.5326 278.256 99.3216 278.889 102.19 278.728C105.058 278.567 107.357 277.751 107.357 277.751L106.528 268.03" fill="#E8505B"/>
<path d="M101.696 268.206C101.696 268.206 101.334 275.181 102.596 278.701C103.845 278.676 104.936 278.394 104.936 278.394L101.696 268.206Z" fill="#B03D44"/>
<path d="M121.268 239.599C123.259 242.18 122.865 245.811 122.374 249.033C122.126 250.662 121.878 252.292 121.629 253.921C121.511 254.695 121.354 255.541 120.751 256.04C120.143 256.544 119.273 256.535 118.485 256.501C118.493 257.849 118.501 259.198 118.509 260.547C116.202 260.603 113.894 260.612 111.587 260.575C111.586 259.631 111.38 258.687 110.988 257.828C109.859 257.806 109.105 256.674 108.663 255.635C108.153 254.437 107.782 253.185 107.424 251.934C106.948 250.273 106.489 248.586 106.446 246.858C106.402 245.131 106.813 243.335 107.91 242C108.658 241.09 109.678 240.444 110.722 239.899C112.153 239.152 113.872 238.563 115.348 239.217" fill="#FFBE9D"/>
<path d="M118.881 251.896C118.608 250.54 118.628 249.776 119.072 248.873C119.219 248.574 119.413 248.292 119.678 248.106C120.037 247.854 120.514 247.805 120.911 247.978C121.17 248.091 121.384 248.302 121.531 248.556C122.002 246.735 122.1 244.794 121.964 242.903C121.749 239.904 119.941 237.586 117.301 236.501C112.414 234.493 105.392 236.477 103.408 241.274C101.909 244.897 102.669 250.127 105.539 253.164C108.08 255.853 111.734 256.248 115.107 255.694C116.833 255.411 119.496 255.581 120.389 253.234C120.458 253.053 120.303 252.872 120.119 252.886C119.418 252.94 118.931 252.147 118.881 251.896Z" fill="#1B227A"/>
<path d="M119.256 245.517C119.438 245.802 119.395 246.184 119.565 246.476C119.851 246.965 120.232 247.142 120.746 247.381C121.575 247.766 121.381 248.973 121.357 249.513C121.983 249.097 122.084 247.964 122.235 247.389C122.405 246.743 122.513 246.08 122.701 245.439C122.884 244.816 123.201 244.228 123.26 243.572C123.463 241.306 122.041 238.643 120.323 237.371C119.072 236.445 117.163 236.483 115.75 237.425C115.155 237.822 114.708 238.421 114.444 239.086C114.331 239.371 114.253 239.704 114.393 239.977" fill="#1B227A"/>
<path d="M108.149 261.519C108.266 260.729 108.48 259.808 109.215 259.496C109.419 259.41 109.643 259.383 109.864 259.358C112.115 259.109 114.381 259.002 116.645 259.038C117.582 259.053 118.551 259.101 119.389 259.519C120.703 260.176 121.426 261.592 122.061 262.917" fill="#B03D44"/>
<path d="M127.218 290.474C126.903 290.008 126.177 289.452 125.916 288.939C125.291 287.71 124.744 282.533 124.959 281.211C125.189 279.793 126.444 279.031 127.01 275.876C127.739 271.812 126.073 268.653 125.141 267.3C123.824 265.387 124.605 265.398 124.154 263.054C124.073 262.632 123.978 262.181 123.689 261.887C123.404 261.597 121.441 260.7 121.056 260.64C117.396 260.073 115.244 260.516 111.544 260.678C109.714 260.758 107.886 260.972 106.089 261.368C104.1 261.807 102.367 262.334 101.958 265.033C101.325 269.208 101.857 273.428 103.126 277.388C103.967 280.012 108.99 289.092 107.745 290.849C107.461 291.251 106.749 292.013 106.663 292.514C106.348 294.349 110.494 294.994 112.269 295.14C114.972 295.362 118.075 295.213 120.785 295.086C122.838 294.99 127.329 294.273 127.648 291.737C127.71 291.24 127.464 290.838 127.218 290.474Z" fill="#E8505B"/>
<path d="M126.437 276.662C126.438 277.4 126.025 278.39 125.892 278.779C125.377 279.044 123.335 279.483 122.163 278.948C121.906 276.509 120.477 271.813 120.477 271.813C120.477 271.813 126.436 275.979 126.437 276.662Z" fill="#B03D44"/>
<path d="M123.814 274.961C123.814 274.961 130.575 291.3 133.509 291.3C135.643 291.3 140.875 276.217 140.875 276.217L137.569 274.652L133.882 280.969L130.149 269.187" fill="#FFBE9D"/>
<path d="M136.912 275.777C136.912 275.777 138.008 274.051 137.928 272.827C137.897 272.36 137.62 270.139 137.852 269.702C138.084 269.265 138.64 267.836 138.957 267.558C139.275 267.28 140.449 266.833 140.736 267.032C141.023 267.231 141.381 266.317 141.857 266.397C142.333 266.476 142.73 266.873 142.73 267.31C142.73 267.747 143.365 267.826 143.445 268.144C143.524 268.462 143.485 268.74 143.604 268.978C143.723 269.216 144.074 269.098 144.2 269.693C144.315 270.237 144.16 270.289 144.2 270.566C144.24 270.844 144.478 270.818 144.399 271.347C144.32 271.876 143.957 272.563 143.64 273.158C143.322 273.753 142.666 274.499 141.796 275.025C141.366 275.285 141.131 275.739 140.721 276.51" fill="#FFBE9D"/>
<path d="M138.73 263.15C138.646 263.02 138.416 262.802 138.147 262.992C137.877 263.182 137.959 263.509 138.017 263.641C138.076 263.773 140.016 268.166 140.016 268.166C140.016 268.166 140.178 268.352 140.487 268.08C140.823 267.784 140.715 267.636 140.715 267.636C140.715 267.636 138.813 263.28 138.73 263.15Z" fill="#1B227A"/>
<path d="M140.835 267.346C140.454 268.025 140.014 268.243 139.616 268.617C139.305 268.91 139.343 269.098 139.001 269.399C139.602 269.354 139.499 268.999 140.279 268.437C140.64 268.177 141.013 267.894 141.084 267.451C141.108 267.298 140.927 267.216 140.835 267.346Z" fill="#F2A181"/>
<path d="M117.596 260.389C119.357 260.48 124.483 259.581 127.331 262.561C129.717 265.057 131.085 271.601 132.045 274.255C129.654 276.692 127.351 278.657 123.729 277.866C123.592 277.764 121.795 272.108 120.487 271.605" fill="#E8505B"/>
<path d="M130.681 312.274C130.681 312.274 131.844 340.228 131.632 342.266C131.42 344.304 129.152 382.899 129.152 382.899C129.152 382.899 124.495 383.714 121.706 382.899C121.706 382.899 118.108 352.843 121.706 343.478L120.107 334.504C120.107 334.504 120.346 341.179 120.107 342.538C119.869 343.897 112.672 381.948 112.672 381.948C112.672 381.948 107.91 381.821 105.736 379.914C105.736 379.914 105.058 353.477 110.018 342.357L105.479 313.268L108.094 305.866L130.681 312.274Z" fill="#1B227A"/>
<path d="M120.107 334.504C119.442 330.205 115.34 314.956 115.165 314.589C112.922 312.851 110.873 311.319 110.127 309.87C111.352 313.547 113.712 313.737 114.595 315.64C116.776 320.338 115.11 319.302 120.203 335.043" fill="#170D54"/>
<path d="M100.078 260.204C99.9729 261.691 100.277 263.177 100.301 264.668C100.325 266.159 100.005 267.767 98.9099 268.779C97.8149 269.791 95.7829 269.831 95.0049 268.559C95.7919 270.203 97.4869 271.309 99.2809 271.635C101.074 271.961 102.945 271.574 104.602 270.815C109.006 268.797 111.939 264.182 111.802 259.327C111.69 255.336 108.659 251.479 104.426 253.577C101.945 254.807 100.272 257.463 100.078 260.204Z" fill="#1B227A"/>
<path d="M260.104 471.811C259.672 472.254 259.301 472.742 258.996 473.264L258.531 473.023C258.464 472.725 258.182 472.52 257.872 472.557C257.541 472.596 257.305 472.896 257.343 473.227C257.382 473.558 257.682 473.795 258.013 473.756C258.079 473.748 258.14 473.73 258.197 473.704L258.648 473.938C258.397 474.492 258.215 475.077 258.109 475.682L258.856 475.814C259.086 474.508 259.706 473.307 260.648 472.341L260.104 471.811Z" fill="#A5B7C6"/>
<path d="M265.592 469.509C265.421 469.509 265.251 469.515 265.082 469.526L265.008 468.9C265.196 468.751 265.304 468.511 265.274 468.255C265.228 467.862 264.872 467.581 264.479 467.627C264.086 467.673 263.805 468.029 263.851 468.422C263.881 468.676 264.04 468.883 264.255 468.986L264.329 469.61C263.615 469.726 262.926 469.942 262.269 470.256L262.596 470.94C263.53 470.493 264.538 470.267 265.591 470.267C266.087 470.267 266.584 470.32 267.066 470.425L267.227 469.684C266.692 469.568 266.142 469.509 265.592 469.509Z" fill="#A5B7C6"/>
<path d="M272.194 472.057C272.525 472.017 272.76 471.715 272.72 471.385C272.68 471.054 272.379 470.819 272.048 470.859C271.739 470.897 271.513 471.163 271.518 471.468L271.102 471.831C270.684 471.401 270.213 471.018 269.694 470.692L269.29 471.333C270.424 472.048 271.311 473.059 271.853 474.258L272.543 473.945C272.292 473.391 271.976 472.873 271.601 472.4L272.003 472.049C272.065 472.061 272.129 472.065 272.194 472.057Z" fill="#A5B7C6"/>
<path d="M265.044 479.718C264.658 479.741 264.269 479.753 263.887 479.753C263.007 479.753 262.154 479.692 261.409 479.574C261.019 479.512 260.563 479.419 260.139 479.282C261.185 481.143 263.208 482.407 265.527 482.407C268.382 482.407 270.789 480.491 271.477 477.903C270.795 478.352 269.972 478.728 269.018 479.026C267.839 479.393 266.463 479.633 265.044 479.718Z" fill="#A5B7C6"/>
<path d="M265.592 471.026C262.24 471.026 259.512 473.692 259.512 476.969C259.512 477.395 259.558 477.818 259.649 478.23C260.322 478.713 262.355 479.12 264.997 478.961C267.876 478.788 270.294 478.004 271.669 476.802C271.663 476.607 271.648 476.412 271.624 476.22C271.244 473.259 268.65 471.026 265.592 471.026ZM263.432 477.54C262.412 477.54 261.582 476.71 261.582 475.69C261.582 474.67 262.412 473.84 263.432 473.84C264.452 473.84 265.282 474.67 265.282 475.69C265.282 476.711 264.452 477.54 263.432 477.54ZM268.17 476.632C267.42 476.632 266.81 476.022 266.81 475.272C266.81 474.522 267.42 473.911 268.17 473.911C268.92 473.911 269.531 474.521 269.531 475.272C269.53 476.022 268.92 476.632 268.17 476.632Z" fill="#A5B7C6"/>
<path d="M281.595 472.893C281.3 472.777 280.79 472.584 280.213 472.656C279.662 472.725 279.369 472.997 279.369 473.663V474.529H281.597V476.246H279.369V481.701H277.437V476.246H276.097V474.529H277.437V473.641C277.437 471.961 278.333 470.858 280.005 470.858C280.648 470.858 281.162 470.98 281.595 471.166V472.893Z" fill="#A5B7C6"/>
<path d="M286.298 476.225C286.121 476.195 285.94 476.179 285.772 476.179C284.876 476.179 284.262 476.727 284.262 477.792V481.7H282.33V474.528H284.203V475.313C284.654 474.64 285.343 474.336 286.224 474.336C286.638 474.336 287.072 474.464 287.318 474.673L286.298 476.225Z" fill="#A5B7C6"/>
<path d="M293.965 478.103C293.965 478.325 293.95 478.592 293.928 478.754H288.843C289.05 479.79 289.776 480.242 290.686 480.242C291.308 480.242 291.981 479.99 292.499 479.554L293.632 480.797C292.818 481.545 291.782 481.885 290.575 481.885C288.377 481.885 286.852 480.39 286.852 478.132C286.852 475.874 288.332 474.335 290.479 474.335C292.544 474.336 293.958 475.868 293.965 478.103ZM288.851 477.437H292.026C291.849 476.519 291.293 476.001 290.464 476.001C289.554 476.001 289.021 476.549 288.851 477.437Z" fill="#A5B7C6"/>
<path d="M301.618 478.103C301.618 478.325 301.603 478.592 301.581 478.754H296.496C296.703 479.79 297.429 480.242 298.339 480.242C298.961 480.242 299.634 479.99 300.153 479.554L301.285 480.797C300.471 481.545 299.435 481.885 298.228 481.885C296.03 481.885 294.505 480.39 294.505 478.132C294.505 475.874 295.985 474.335 298.132 474.335C300.197 474.336 301.611 475.868 301.618 478.103ZM296.504 477.437H299.679C299.501 476.519 298.946 476.001 298.117 476.001C297.207 476.001 296.674 476.549 296.504 477.437Z" fill="#A5B7C6"/>
<path d="M309.964 478.11C309.964 480.264 308.469 481.885 306.493 481.885C305.531 481.885 304.85 481.507 304.384 480.952V484.66H302.46V474.527H304.347V475.319C304.813 474.734 305.502 474.335 306.486 474.335C308.469 474.336 309.964 475.956 309.964 478.11ZM304.287 478.11C304.287 479.242 305.035 480.086 306.13 480.086C307.27 480.086 307.98 479.205 307.98 478.11C307.98 477.015 307.27 476.134 306.13 476.134C305.035 476.134 304.287 476.978 304.287 478.11Z" fill="#A5B7C6"/>
<path d="M313.068 472.182C313.068 472.878 312.528 473.411 311.832 473.411C311.136 473.411 310.603 472.878 310.603 472.182C310.603 471.486 311.136 470.939 311.832 470.939C312.527 470.938 313.068 471.486 313.068 472.182ZM312.809 481.7H310.877V474.528H312.809V481.7Z" fill="#A5B7C6"/>
<path d="M316.032 477.082L318.733 474.528H321.101L317.622 477.903L321.123 481.7H318.747L316.031 478.799V481.7H314.1V471.042H316.032V477.082Z" fill="#A5B7C6"/>
<path d="M184.412 481.635V480.58C183.885 481.298 183.021 481.81 182.025 481.81C180.179 481.81 178.876 480.404 178.876 478.104C178.876 475.848 180.165 474.383 182.025 474.383C182.977 474.383 183.841 474.852 184.412 475.628V471.863H185.511V481.633H184.412V481.635ZM184.412 479.716V476.508C184.017 475.893 183.167 475.365 182.288 475.365C180.867 475.365 180.018 476.537 180.018 478.104C180.018 479.671 180.868 480.828 182.288 480.828C183.168 480.829 184.017 480.332 184.412 479.716Z" fill="#A5B7C6"/>
<path d="M186.932 478.091C186.932 476.04 188.397 474.385 190.418 474.385C192.557 474.385 193.816 476.055 193.816 478.179V478.458H188.089C188.177 479.791 189.114 480.904 190.638 480.904C191.443 480.904 192.264 480.582 192.82 480.011L193.347 480.729C192.644 481.432 191.692 481.813 190.535 481.813C188.44 481.812 186.932 480.303 186.932 478.091ZM190.403 475.294C188.894 475.294 188.147 476.568 188.089 477.652H192.732C192.718 476.597 192.015 475.294 190.403 475.294Z" fill="#A5B7C6"/>
<path d="M194.607 480.698L195.178 479.907C195.647 480.449 196.54 480.918 197.507 480.918C198.591 480.918 199.177 480.405 199.177 479.702C199.177 477.989 194.797 479.043 194.797 476.421C194.797 475.323 195.749 474.385 197.433 474.385C198.634 474.385 199.484 474.839 200.055 475.41L199.542 476.172C199.118 475.659 198.341 475.278 197.433 475.278C196.466 475.278 195.866 475.761 195.866 476.391C195.866 477.943 200.246 476.918 200.246 479.672C200.246 480.859 199.294 481.81 197.463 481.81C196.306 481.812 195.325 481.46 194.607 480.698Z" fill="#A5B7C6"/>
<path d="M201.477 472.817C201.477 472.407 201.814 472.07 202.209 472.07C202.619 472.07 202.956 472.407 202.956 472.817C202.956 473.227 202.619 473.549 202.209 473.549C201.814 473.549 201.477 473.227 201.477 472.817ZM201.667 481.635V474.56H202.766V481.635H201.667Z" fill="#A5B7C6"/>
<path d="M204.582 483.452L205.138 482.632C205.724 483.335 206.427 483.599 207.438 483.599C208.61 483.599 209.708 483.028 209.708 481.475V480.464C209.195 481.182 208.331 481.724 207.335 481.724C205.49 481.724 204.186 480.347 204.186 478.062C204.186 475.792 205.475 474.386 207.335 474.386C208.287 474.386 209.137 474.855 209.708 475.631V474.562H210.806V481.432C210.806 483.776 209.165 484.508 207.437 484.508C206.237 484.507 205.417 484.273 204.582 483.452ZM209.709 479.6V476.509C209.328 475.894 208.479 475.366 207.6 475.366C206.179 475.366 205.33 476.494 205.33 478.061C205.33 479.614 206.179 480.756 207.6 480.756C208.478 480.757 209.328 480.215 209.709 479.6Z" fill="#A5B7C6"/>
<path d="M217.413 481.635V477.006C217.413 475.761 216.783 475.365 215.831 475.365C214.966 475.365 214.146 475.892 213.736 476.464V481.634H212.637V474.559H213.736V475.584C214.234 474.998 215.2 474.383 216.255 474.383C217.735 474.383 218.511 475.13 218.511 476.668V481.634H217.413V481.635Z" fill="#A5B7C6"/>
<path d="M219.932 478.091C219.932 476.04 221.397 474.385 223.418 474.385C225.557 474.385 226.816 476.055 226.816 478.179V478.458H221.089C221.177 479.791 222.114 480.904 223.638 480.904C224.444 480.904 225.264 480.582 225.821 480.011L226.348 480.729C225.645 481.432 224.693 481.813 223.536 481.813C221.441 481.812 219.932 480.303 219.932 478.091ZM223.404 475.294C221.895 475.294 221.148 476.568 221.09 477.652H225.733C225.718 476.597 225.015 475.294 223.404 475.294Z" fill="#A5B7C6"/>
<path d="M233.35 481.635V480.58C232.823 481.298 231.958 481.81 230.962 481.81C229.116 481.81 227.812 480.404 227.812 478.104C227.812 475.848 229.102 474.383 230.962 474.383C231.914 474.383 232.779 474.852 233.35 475.628V471.863H234.447V481.633H233.35V481.635ZM233.35 479.716V476.508C232.954 475.893 232.104 475.365 231.225 475.365C229.804 475.365 228.955 476.537 228.955 478.104C228.955 479.671 229.804 480.828 231.225 480.828C232.104 480.829 232.954 480.332 233.35 479.716Z" fill="#A5B7C6"/>
<path d="M239.692 481.635V471.865H240.79V475.63C241.362 474.854 242.211 474.385 243.178 474.385C245.023 474.385 246.327 475.85 246.327 478.106C246.327 480.405 245.023 481.812 243.178 481.812C242.182 481.812 241.318 481.299 240.79 480.582V481.637H239.692V481.635ZM242.9 480.829C244.336 480.829 245.185 479.672 245.185 478.105C245.185 476.537 244.335 475.366 242.9 475.366C242.036 475.366 241.172 475.893 240.791 476.509V479.717C241.171 480.332 242.036 480.829 242.9 480.829Z" fill="#A5B7C6"/>
<path d="M247.528 483.408C247.689 483.481 247.953 483.525 248.129 483.525C248.612 483.525 248.934 483.364 249.184 482.778L249.653 481.709L246.694 474.561H247.881L250.239 480.362L252.583 474.561H253.784L250.239 483.071C249.814 484.096 249.096 484.492 248.159 484.506C247.925 484.506 247.558 484.462 247.354 484.403L247.528 483.408Z" fill="#A5B7C6"/>
</g>
<defs>
<clipPath id="clip0_6343_2075">
<rect width="500" height="500" fill="white"/>
</clipPath>
</defs>
</svg>
