<svg width="500" height="500" viewBox="0 0 500 500" fill="none" xmlns="http://www.w3.org/2000/svg">
<g clip-path="url(#clip0_6343_4780)">
<path d="M500 0H0V500H500V0Z" fill="white"/>
<path d="M394.685 386.253C386.878 394.472 379.491 399.773 373.655 403.961C305.049 453.186 223.87 438.837 206.617 435.333C181.14 430.158 131.893 420.156 96.2888 378.286C42.4223 314.94 50.8101 215.141 92.5926 149.262C100.235 137.211 140.606 70.3286 222.66 59.6027C272.317 53.1116 330.203 66.2035 372.121 101.323C460.113 175.042 453.849 323.968 394.685 386.253Z" fill="url(#paint0_linear_6343_4780)"/>
<path d="M252.516 163.31L259.695 158.99C263.189 160.752 266.989 161.969 270.975 162.538L274.392 170.182C274.512 170.45 274.789 170.612 275.082 170.587L285.093 169.7C285.385 169.674 285.629 169.465 285.7 169.18L287.721 161.054C291.545 159.793 295.072 157.927 298.202 155.579L306.029 158.57C306.303 158.674 306.614 158.594 306.802 158.369L313.254 150.663C313.443 150.437 313.467 150.117 313.316 149.866L308.996 142.687C310.758 139.193 311.975 135.393 312.543 131.406L320.188 127.989C320.456 127.869 320.618 127.592 320.592 127.3L319.706 117.289C319.68 116.996 319.471 116.752 319.186 116.681L311.06 114.661C309.799 110.836 307.934 107.309 305.585 104.18L308.576 96.3527C308.681 96.0784 308.6 95.7678 308.375 95.5793L300.669 89.1275C300.444 88.9388 300.124 88.914 299.872 89.0654L292.693 93.3855C289.199 91.6237 285.399 90.4067 281.412 89.8379L277.995 82.1936C277.875 81.9255 277.598 81.763 277.306 81.7888L267.295 82.6757C267.002 82.7015 266.758 82.9102 266.687 83.1953L264.667 91.3213C260.842 92.582 257.315 94.448 254.185 96.7964L246.359 93.8057C246.084 93.7008 245.774 93.7817 245.585 94.0069L239.133 101.713C238.945 101.938 238.92 102.258 239.071 102.51L243.391 109.689C241.629 113.183 240.412 116.983 239.844 120.969L232.199 124.387C231.931 124.506 231.769 124.783 231.795 125.076L232.681 135.087C232.707 135.379 232.916 135.623 233.201 135.694L241.327 137.715C242.588 141.539 244.454 145.066 246.802 148.196L243.811 156.023C243.707 156.297 243.787 156.607 244.012 156.796L251.718 163.248C251.944 163.436 252.264 163.461 252.516 163.31Z" fill="url(#paint1_linear_6343_4780)"/>
<path d="M273.675 135.455C270.724 134.649 268.203 132.452 267.122 129.352C265.377 124.35 268.027 118.861 273.029 117.116C275.452 116.271 278.059 116.42 280.37 117.535C282.681 118.651 284.419 120.6 285.264 123.023C286.11 125.446 285.961 128.053 284.845 130.364C283.729 132.675 281.78 134.414 279.358 135.259L279.357 135.259C277.456 135.922 275.484 135.95 273.675 135.455ZM278.349 118.232C276.757 117.796 275.072 117.851 273.479 118.407C269.189 119.903 266.916 124.611 268.412 128.902C269.909 133.192 274.618 135.465 278.907 133.968L278.907 133.968C283.198 132.471 285.471 127.763 283.974 123.474C283.249 121.395 281.758 119.723 279.776 118.766C279.313 118.543 278.835 118.365 278.349 118.232Z" fill="#91B3FA"/>
<g opacity="0.64">
<path d="M234.182 162.144C233.854 162.054 233.549 161.866 233.316 161.584C232.719 160.861 232.133 160.114 231.577 159.364C231.014 158.607 231.171 157.537 231.929 156.974C232.686 156.411 233.757 156.569 234.319 157.326C234.842 158.029 235.39 158.73 235.95 159.408C236.551 160.136 236.449 161.213 235.721 161.813C235.276 162.181 234.7 162.285 234.182 162.144Z" fill="white"/>
<path d="M227.697 152.229C227.248 152.106 226.85 151.801 226.623 151.352C225.755 149.637 224.965 147.853 224.277 146.05C223.94 145.168 224.382 144.181 225.263 143.844C226.144 143.508 227.132 143.949 227.469 144.831C228.116 146.524 228.857 148.198 229.672 149.809C230.098 150.651 229.761 151.679 228.919 152.105C228.526 152.304 228.091 152.336 227.697 152.229ZM222.89 138.319C222.285 138.154 221.795 137.662 221.664 137.005C221.285 135.113 221.004 133.181 220.827 131.265C220.74 130.325 221.432 129.493 222.371 129.406C223.31 129.32 224.143 130.011 224.23 130.951C224.396 132.748 224.66 134.56 225.015 136.336C225.199 137.261 224.599 138.161 223.674 138.346C223.405 138.4 223.138 138.387 222.89 138.319ZM222.014 123.628C221.239 123.416 220.698 122.677 220.763 121.846C220.914 119.927 221.169 117.993 221.521 116.096C221.693 115.168 222.585 114.556 223.513 114.728C224.438 114.901 225.053 115.792 224.881 116.719C224.551 118.499 224.312 120.314 224.17 122.114C224.096 123.055 223.273 123.758 222.332 123.684C222.223 123.675 222.116 123.656 222.014 123.628ZM225.171 109.255C225.123 109.243 225.076 109.227 225.029 109.21C224.144 108.885 223.69 107.902 224.016 107.017C224.681 105.208 225.449 103.415 226.298 101.687C226.714 100.84 227.739 100.49 228.585 100.906C229.431 101.322 229.781 102.346 229.365 103.193C228.568 104.815 227.847 106.499 227.223 108.197C226.914 109.036 226.017 109.487 225.171 109.255ZM232.079 96.2642C231.887 96.2117 231.701 96.1246 231.53 96.0014C230.765 95.4491 230.592 94.381 231.144 93.6159C232.273 92.0528 233.495 90.533 234.778 89.0981C235.407 88.3948 236.487 88.3328 237.191 88.9634C237.894 89.5923 237.955 90.6722 237.325 91.3759C236.122 92.7223 234.974 94.1488 233.915 95.6157C233.486 96.2099 232.747 96.4466 232.079 96.2642ZM242.238 85.6239C241.899 85.5313 241.586 85.334 241.351 85.0381C240.764 84.2991 240.888 83.2244 241.627 82.6378C243.137 81.4399 244.726 80.3096 246.351 79.2779C247.147 78.7722 248.203 79.0071 248.709 79.8045C249.215 80.6014 248.979 81.6572 248.183 82.1628C246.658 83.1306 245.167 84.1909 243.751 85.3147C243.308 85.6661 242.744 85.7624 242.238 85.6239ZM254.909 78.1487C254.419 78.0147 253.993 77.6645 253.782 77.1595C253.418 76.2886 253.829 75.288 254.699 74.9239C255.739 74.4893 256.811 74.0785 257.885 73.7033C258.634 73.4419 259.398 73.1936 260.155 72.9653C261.058 72.6912 262.011 73.2028 262.284 74.1066C262.557 75.0098 262.046 75.9632 261.143 76.236C260.432 76.4508 259.714 76.6841 259.01 76.9298C258.001 77.2822 256.994 77.6682 256.017 78.0764C255.652 78.2293 255.263 78.2455 254.909 78.1487ZM269.127 74.3554C268.479 74.1783 267.97 73.6261 267.882 72.9184C267.765 71.9818 268.429 71.1281 269.366 71.0113C271.279 70.7728 273.226 70.6333 275.152 70.5969C276.098 70.5809 276.874 71.33 276.892 72.2731C276.91 73.2164 276.16 73.9958 275.216 74.0138C273.409 74.0479 271.583 74.1784 269.789 74.4023C269.56 74.4309 269.337 74.4127 269.127 74.3554Z" fill="white"/>
<path d="M283.867 74.5643C283.041 74.3386 282.498 73.5245 282.63 72.6579C282.773 71.7251 283.645 71.0852 284.578 71.2279C285.497 71.3687 286.43 71.5364 287.352 71.7257C288.272 71.9156 288.871 72.8189 288.681 73.7437C288.491 74.6679 287.588 75.2631 286.663 75.073C285.798 74.8948 284.922 74.7375 284.06 74.6054C283.994 74.5953 283.929 74.5815 283.867 74.5643Z" fill="white"/>
</g>
<g opacity="0.64">
<path d="M321.549 99.4496C321.146 99.3397 320.783 99.0829 320.546 98.7C320.087 97.9569 319.6 97.2122 319.098 96.4862C318.561 95.7099 318.756 94.646 319.532 94.1095C320.308 93.5722 321.372 93.7662 321.909 94.5436C322.443 95.3168 322.963 96.1106 323.453 96.9031C323.949 97.7057 323.701 98.7585 322.898 99.2546C322.478 99.5143 321.99 99.5701 321.549 99.4496Z" fill="white"/>
<path d="M274.105 181.702C273.361 181.499 272.825 180.807 272.849 180.002C272.879 179.059 273.666 178.318 274.61 178.346C276.387 178.401 278.187 178.363 279.962 178.233C280.902 178.164 281.721 178.871 281.79 179.812C281.859 180.753 281.152 181.572 280.211 181.641C278.319 181.779 276.399 181.82 274.505 181.762C274.367 181.758 274.233 181.737 274.105 181.702ZM288.507 180.184C287.928 180.026 287.45 179.567 287.297 178.942C287.072 178.026 287.633 177.101 288.549 176.876C290.168 176.479 291.792 175.998 293.376 175.445L293.681 175.338C294.57 175.022 295.547 175.486 295.864 176.375C296.18 177.264 295.716 178.241 294.827 178.557L294.501 178.672C292.815 179.26 291.087 179.772 289.363 180.195C289.071 180.266 288.778 180.258 288.507 180.184ZM301.986 174.9C301.558 174.783 301.176 174.5 300.943 174.082C300.485 173.257 300.782 172.217 301.606 171.758C303.16 170.894 304.686 169.94 306.141 168.921C306.915 168.38 307.979 168.567 308.521 169.341C309.062 170.114 308.874 171.179 308.101 171.721C306.55 172.806 304.923 173.824 303.267 174.745C302.861 174.971 302.402 175.013 301.986 174.9ZM313.565 166.222C313.284 166.146 313.02 165.996 312.801 165.775C312.138 165.103 312.145 164.021 312.817 163.358C314.082 162.11 315.297 160.781 316.428 159.408C317.028 158.679 318.104 158.575 318.833 159.176C319.562 159.776 319.665 160.853 319.065 161.581C317.86 163.044 316.565 164.461 315.217 165.791C314.767 166.235 314.134 166.378 313.565 166.222ZM322.411 154.763C322.273 154.725 322.138 154.67 322.007 154.595C321.19 154.123 320.909 153.079 321.38 152.261C322.268 150.721 323.087 149.116 323.815 147.491C324.2 146.63 325.213 146.243 326.072 146.63C326.934 147.015 327.319 148.026 326.934 148.887C326.159 150.618 325.287 152.327 324.341 153.968C323.944 154.655 323.143 154.963 322.411 154.763ZM327.9 141.365C326.998 141.119 326.461 140.193 326.697 139.286C327.146 137.566 327.509 135.802 327.779 134.043C327.922 133.11 328.793 132.47 329.726 132.612C330.666 132.756 331.299 133.627 331.156 134.56C330.87 136.435 330.482 138.315 330.004 140.148C329.766 141.061 328.833 141.608 327.919 141.37C327.913 141.369 327.906 141.367 327.9 141.365ZM329.628 126.991C328.913 126.796 328.383 126.148 328.37 125.37C328.343 123.593 328.221 121.795 328.009 120.028C327.896 119.091 328.565 118.241 329.502 118.128C330.439 118.015 331.289 118.684 331.402 119.621C331.627 121.505 331.757 123.421 331.787 125.316C331.802 126.26 331.049 127.036 330.106 127.051C329.94 127.054 329.78 127.033 329.628 126.991ZM327.446 112.677C326.893 112.526 326.429 112.1 326.256 111.51C326.011 110.676 325.74 109.833 325.452 109.005C325.154 108.151 324.829 107.292 324.486 106.452C324.13 105.578 324.55 104.581 325.424 104.225C326.298 103.868 327.295 104.288 327.651 105.162C328.015 106.056 328.361 106.971 328.678 107.88C328.986 108.761 329.274 109.658 329.535 110.547C329.801 111.452 329.282 112.402 328.377 112.667C328.062 112.76 327.741 112.758 327.446 112.677Z" fill="white"/>
<path d="M262.493 180.065C261.596 179.82 261.058 178.9 261.289 177.995C261.522 177.081 262.452 176.528 263.366 176.761C264.214 176.978 265.082 177.175 265.945 177.349C266.873 177.539 267.469 178.436 267.283 179.361C267.097 180.286 266.196 180.885 265.271 180.699C264.351 180.514 263.426 180.303 262.522 180.072C262.513 180.07 262.503 180.067 262.493 180.065Z" fill="white"/>
</g>
<path d="M272.99 150.913C272.667 150.825 272.45 150.511 272.493 150.17C272.497 150.137 272.503 150.105 272.512 150.074C272.6 149.751 272.914 149.533 273.256 149.576C274.908 149.782 276.596 149.811 278.273 149.663C290.26 148.601 299.378 138.692 299.751 126.953C299.78 126.015 299.754 125.065 299.67 124.108C298.523 111.164 287.06 101.567 274.115 102.712C267.844 103.267 262.165 106.231 258.124 111.058C255.91 113.703 254.333 116.732 253.45 119.963C252.722 122.629 252.467 125.432 252.719 128.267C253.095 132.523 254.615 136.589 257.113 140.026C257.24 140.201 257.272 140.415 257.219 140.609C257.18 140.753 257.093 140.886 256.962 140.981C256.657 141.203 256.229 141.135 256.007 140.829C253.364 137.192 251.756 132.889 251.357 128.387C251.092 125.388 251.361 122.422 252.131 119.602C253.065 116.184 254.734 112.978 257.076 110.181C261.352 105.074 267.36 101.938 273.994 101.35C287.69 100.137 299.818 110.293 301.031 123.987C301.299 127.013 301.012 129.963 300.255 132.735C297.584 142.509 289.064 150.079 278.394 151.024C276.764 151.169 275.124 151.154 273.511 150.982C273.462 150.976 273.413 150.971 273.364 150.966C273.272 150.955 273.179 150.944 273.087 150.932C273.053 150.928 273.021 150.922 272.99 150.913Z" fill="#91B3FA"/>
<g opacity="0.64">
<path d="M58.4146 166.84C58.0846 166.54 57.9115 166.082 57.9957 165.611C58.1234 164.896 58.2604 164.182 58.4063 163.469C58.5551 162.743 59.2643 162.275 59.9904 162.424C60.7166 162.572 61.1843 163.282 61.0358 164.008C60.8943 164.699 60.7615 165.39 60.638 166.082C60.5078 166.812 59.8107 167.298 59.0811 167.168C58.8227 167.122 58.595 167.005 58.4146 166.84Z" fill="white"/>
<path d="M60.4614 158.092C60.0942 157.758 59.9274 157.232 60.0751 156.723C60.472 155.359 60.9079 153.987 61.3709 152.647C61.6132 151.946 62.3772 151.574 63.0776 151.816C63.7777 152.06 64.1501 152.822 63.908 153.523C63.4591 154.821 63.0369 156.15 62.6525 157.473C62.4456 158.184 61.7008 158.594 60.9891 158.387C60.7864 158.328 60.6079 158.225 60.4614 158.092ZM64.2291 147.705C63.8147 147.328 63.666 146.715 63.9033 146.173C64.4732 144.873 65.0831 143.57 65.7162 142.299C66.0464 141.636 66.8522 141.366 67.5154 141.696C68.1776 142.026 68.4487 142.833 68.1183 143.496C67.5048 144.727 66.9138 145.991 66.3616 147.251C66.064 147.93 65.2727 148.239 64.5938 147.942C64.4563 147.881 64.334 147.8 64.2291 147.705ZM69.304 137.89C68.8401 137.468 68.7227 136.764 69.0579 136.206C69.7917 134.986 70.5626 133.77 71.3497 132.595C71.7621 131.979 72.5954 131.814 73.2115 132.226C73.8275 132.639 73.9924 133.472 73.5802 134.088C72.8174 135.227 72.0697 136.406 71.3585 137.589C70.9767 138.224 70.1522 138.43 69.5169 138.048C69.4396 138.001 69.3684 137.948 69.304 137.89ZM75.5908 128.802C75.0734 128.332 75.0019 127.534 75.4427 126.977C76.3237 125.864 77.2448 124.758 78.1803 123.69C78.6684 123.132 79.5164 123.076 80.0739 123.564C80.6415 124.053 80.6876 124.9 80.1995 125.458C79.2931 126.493 78.4007 127.565 77.5469 128.643C77.0868 129.224 76.2428 129.323 75.6618 128.863C75.6373 128.843 75.6134 128.823 75.5908 128.802ZM82.9985 120.606C82.9778 120.587 82.9577 120.568 82.9381 120.548C82.4216 120.016 82.4337 119.167 82.9656 118.65C83.9839 117.661 85.043 116.682 86.1134 115.741C86.6697 115.252 87.5177 115.304 88.0074 115.863C88.4966 116.419 88.442 117.267 87.8855 117.757C86.8486 118.668 85.8223 119.617 84.8357 120.575C84.3242 121.072 83.5188 121.079 82.9985 120.606ZM91.4157 113.437C91.3526 113.379 91.2943 113.315 91.2415 113.244C90.7988 112.65 90.9218 111.809 91.5163 111.366C92.6556 110.518 93.8324 109.686 95.0133 108.894C95.6285 108.481 96.4616 108.647 96.8754 109.261C97.288 109.877 97.1238 110.71 96.5082 111.123C95.3637 111.891 94.2234 112.696 93.1192 113.519C92.5959 113.909 91.8812 113.86 91.4157 113.437ZM100.69 107.423C100.586 107.328 100.495 107.215 100.422 107.085C100.06 106.438 100.291 105.621 100.937 105.259C102.175 104.566 103.449 103.894 104.723 103.261C105.387 102.932 106.193 103.204 106.522 103.866C106.852 104.53 106.581 105.335 105.917 105.665C104.682 106.279 103.447 106.93 102.248 107.601C101.731 107.89 101.105 107.801 100.69 107.423ZM110.662 102.661C110.517 102.529 110.398 102.362 110.32 102.167C110.045 101.479 110.379 100.698 111.067 100.423C112.384 99.8955 113.734 99.3934 115.077 98.9306C115.778 98.6892 116.54 99.0608 116.783 99.7623C117.024 100.463 116.652 101.227 115.951 101.468C114.649 101.917 113.341 102.404 112.065 102.914C111.571 103.112 111.03 102.996 110.662 102.661ZM121.163 99.2234C120.976 99.0534 120.835 98.8288 120.767 98.5659C120.582 97.8481 121.015 97.1165 121.732 96.9317C123.105 96.5783 124.506 96.254 125.898 95.9675C126.624 95.8176 127.334 96.2855 127.483 97.0114C127.633 97.7372 127.165 98.447 126.439 98.5963C125.09 98.8741 123.732 99.1886 122.401 99.5311C121.946 99.6479 121.486 99.5174 121.163 99.2234ZM132.017 97.1642C131.788 96.9559 131.629 96.6679 131.589 96.3365C131.497 95.6011 132.02 94.9308 132.756 94.8399C134.163 94.6657 135.595 94.5244 137.01 94.4192C137.748 94.3648 138.392 94.9194 138.447 95.6586C138.502 96.3978 137.947 97.0415 137.208 97.0963C135.837 97.1978 134.45 97.3349 133.085 97.5036C132.681 97.5538 132.296 97.4183 132.017 97.1642ZM143.044 96.5197C142.772 96.2722 142.602 95.9147 142.604 95.5184C142.609 94.7771 143.214 94.1802 143.955 94.1846C145.37 94.1935 146.807 94.2379 148.225 94.3163C148.965 94.3576 149.532 94.9904 149.491 95.7308C149.45 96.4706 148.816 97.0374 148.076 96.9964C146.702 96.9202 145.31 96.8773 143.938 96.8688C143.594 96.8663 143.28 96.7344 143.044 96.5197ZM154.058 97.3048C153.742 97.0172 153.568 96.5841 153.63 96.1291C153.731 95.3947 154.408 94.8809 155.142 94.9817C156.545 95.1739 157.963 95.4043 159.356 95.6659C160.085 95.8026 160.564 96.5044 160.428 97.2324C160.291 97.9609 159.59 98.4405 158.861 98.3037C157.511 98.0502 156.137 97.8271 154.778 97.6406C154.498 97.6026 154.251 97.4808 154.058 97.3048ZM164.871 99.5131C164.51 99.1843 164.341 98.6695 164.479 98.1657C164.674 97.4509 165.412 97.0297 166.127 97.2249C167.498 97.5994 168.876 98.0128 170.224 98.4544C170.929 98.6842 171.312 99.4428 171.082 100.147C170.852 100.852 170.094 101.236 169.389 101.005C168.083 100.578 166.748 100.177 165.42 99.8141C165.209 99.7561 165.023 99.651 164.871 99.5131ZM175.314 103.111C174.906 102.739 174.754 102.137 174.98 101.599C175.266 100.916 176.052 100.594 176.736 100.88C178.046 101.429 179.359 102.018 180.638 102.63C181.307 102.949 181.59 103.751 181.27 104.419C180.95 105.088 180.149 105.371 179.48 105.051C178.24 104.458 176.968 103.888 175.698 103.356C175.553 103.295 175.424 103.211 175.314 103.111ZM212.502 133.131C212.428 133.063 212.361 132.988 212.302 132.902C211.516 131.77 210.692 130.645 209.854 129.557C209.401 128.97 209.51 128.128 210.097 127.675C210.684 127.223 211.527 127.331 211.98 127.919C212.845 129.041 213.695 130.203 214.506 131.371C214.929 131.98 214.779 132.816 214.17 133.239C213.646 133.603 212.955 133.542 212.502 133.131ZM185.205 108.025C184.748 107.61 184.625 106.918 184.947 106.361C185.318 105.72 186.139 105.501 186.781 105.872L187.253 106.148C188.318 106.774 189.388 107.433 190.429 108.106C191.054 108.51 191.23 109.339 190.828 109.962C190.426 110.584 189.595 110.763 188.973 110.361C187.963 109.708 186.926 109.069 185.891 108.46L185.437 108.195C185.352 108.146 185.274 108.089 185.205 108.025ZM205.622 124.485C205.591 124.456 205.56 124.426 205.531 124.394C204.605 123.375 203.642 122.367 202.668 121.397C202.143 120.873 202.141 120.023 202.664 119.498C203.187 118.973 204.04 118.978 204.562 119.495C205.568 120.497 206.562 121.538 207.517 122.589C208.016 123.137 207.975 123.986 207.427 124.484C206.91 124.954 206.128 124.945 205.622 124.485ZM194.392 114.164C193.882 113.7 193.804 112.915 194.231 112.357C194.681 111.768 195.524 111.657 196.112 112.107C197.238 112.97 198.359 113.872 199.444 114.791C200.004 115.27 200.079 116.117 199.6 116.682C199.121 117.247 198.274 117.318 197.709 116.839C196.658 115.949 195.572 115.074 194.48 114.238C194.45 114.215 194.42 114.19 194.392 114.164Z" fill="white"/>
<path d="M217.253 140.814C217.146 140.717 217.053 140.6 216.979 140.466C216.641 139.849 216.295 139.235 215.942 138.626C215.569 137.985 215.787 137.164 216.428 136.792C217.069 136.42 217.89 136.638 218.262 137.278C218.627 137.907 218.984 138.54 219.333 139.177C219.689 139.827 219.451 140.642 218.801 140.998C218.285 141.281 217.665 141.189 217.253 140.814Z" fill="white"/>
</g>
<g opacity="0.64">
<path d="M229.489 206.799C229.12 206.464 228.953 205.935 229.104 205.425C229.304 204.749 229.495 204.071 229.677 203.392C229.869 202.676 230.605 202.252 231.321 202.444C232.037 202.635 232.462 203.371 232.27 204.088C232.082 204.788 231.885 205.488 231.678 206.186C231.468 206.897 230.722 207.303 230.011 207.093C229.81 207.033 229.634 206.931 229.489 206.799Z" fill="white"/>
<path d="M90.2801 245.878C89.733 245.38 89.6915 244.533 90.1882 243.984C90.6857 243.435 91.5342 243.393 92.0838 243.89C93.1428 244.849 94.2427 245.794 95.3535 246.7C95.9275 247.165 96.0132 248.014 95.5449 248.588C95.0764 249.163 94.231 249.248 93.6566 248.78C92.5108 247.845 91.3754 246.869 90.2824 245.88C90.2818 245.879 90.2809 245.878 90.2801 245.878ZM85.2109 240.885C85.1836 240.861 85.157 240.835 85.1316 240.807C84.124 239.728 83.131 238.607 82.1802 237.477C81.7032 236.91 81.7761 236.063 82.3434 235.586C82.9105 235.109 83.7567 235.182 84.2344 235.749C85.1553 236.845 86.1175 237.93 87.0936 238.976C87.5992 239.518 87.5701 240.367 87.0282 240.873C86.5138 241.353 85.7222 241.35 85.2109 240.885ZM99.298 252.996C98.8097 252.552 98.712 251.805 99.0956 251.246C99.5147 250.634 100.35 250.478 100.961 250.898C102.141 251.706 103.357 252.496 104.579 253.245C105.209 253.634 105.408 254.459 105.021 255.091C104.633 255.723 103.807 255.921 103.175 255.533C101.915 254.76 100.66 253.945 99.4433 253.111C99.3915 253.076 99.3429 253.037 99.298 252.996ZM77.9571 231.973C77.8862 231.908 77.8211 231.835 77.7636 231.754C76.9125 230.55 76.0805 229.305 75.2898 228.055C74.8937 227.429 75.0808 226.6 75.7072 226.204C76.3337 225.808 77.1609 225.996 77.5587 226.621C78.3243 227.832 79.1308 229.038 79.955 230.204C80.383 230.81 80.2391 231.647 79.6339 232.075C79.1103 232.445 78.4125 232.387 77.9571 231.973ZM109.186 258.851C108.751 258.455 108.614 257.804 108.892 257.253C109.227 256.592 110.034 256.327 110.695 256.661C111.973 257.308 113.284 257.929 114.59 258.508C115.268 258.809 115.573 259.601 115.273 260.279C114.973 260.957 114.18 261.262 113.502 260.962C112.154 260.365 110.802 259.723 109.484 259.057C109.373 259 109.274 258.931 109.186 258.851ZM119.762 263.337C119.377 262.987 119.216 262.428 119.397 261.905C119.64 261.204 120.404 260.834 121.104 261.076C122.455 261.544 123.837 261.984 125.212 262.382C125.924 262.588 126.334 263.332 126.127 264.044C125.921 264.756 125.177 265.166 124.465 264.96C123.046 264.549 121.62 264.095 120.226 263.612C120.049 263.551 119.892 263.456 119.762 263.337ZM130.847 266.355C130.51 266.048 130.337 265.577 130.433 265.098C130.579 264.371 131.286 263.9 132.013 264.046C133.414 264.327 134.84 264.575 136.252 264.783C136.985 264.891 137.492 265.573 137.384 266.306C137.276 267.039 136.594 267.546 135.861 267.438C134.404 267.223 132.932 266.968 131.486 266.678C131.239 266.628 131.021 266.514 130.847 266.355ZM142.23 267.844C141.939 267.58 141.767 267.19 141.793 266.767C141.839 266.028 142.477 265.466 143.216 265.512C144.639 265.601 146.087 265.654 147.519 265.67C148.261 265.678 148.855 266.286 148.846 267.027C148.838 267.768 148.231 268.362 147.49 268.354C146.012 268.337 144.517 268.283 143.049 268.19C142.732 268.171 142.448 268.043 142.23 267.844ZM153.713 267.786C153.468 267.563 153.304 267.248 153.278 266.891C153.225 266.151 153.781 265.509 154.52 265.455C155.944 265.352 157.387 265.211 158.808 265.034C159.544 264.943 160.213 265.466 160.305 266.201C160.396 266.936 159.874 267.606 159.138 267.698C157.672 267.88 156.183 268.026 154.713 268.132C154.332 268.16 153.976 268.025 153.713 267.786ZM165.088 266.189C164.886 266.006 164.739 265.76 164.678 265.472C164.527 264.747 164.991 264.036 165.717 263.884C167.116 263.591 168.527 263.258 169.912 262.893C170.628 262.705 171.363 263.133 171.552 263.849C171.74 264.566 171.312 265.3 170.595 265.488C169.167 265.864 167.71 266.209 166.267 266.511C165.829 266.603 165.396 266.469 165.088 266.189ZM176.151 263.087C175.992 262.943 175.866 262.759 175.789 262.543C175.542 261.844 175.908 261.077 176.606 260.83C177.955 260.352 179.31 259.833 180.633 259.287C181.318 259.004 182.102 259.331 182.386 260.015C182.668 260.7 182.342 261.485 181.657 261.768C180.292 262.331 178.894 262.867 177.502 263.36C177.02 263.531 176.504 263.409 176.151 263.087ZM186.701 258.534C186.585 258.429 186.486 258.302 186.41 258.154C186.072 257.495 186.331 256.686 186.991 256.348C188.262 255.694 189.535 254.998 190.776 254.278C191.416 253.906 192.238 254.125 192.61 254.765C192.982 255.406 192.764 256.227 192.123 256.599C190.843 257.342 189.529 258.061 188.217 258.735C187.706 258.998 187.103 258.9 186.701 258.534ZM196.546 252.605C196.473 252.539 196.407 252.463 196.348 252.379C195.924 251.772 196.072 250.935 196.68 250.511C197.854 249.69 199.023 248.828 200.153 247.949C200.737 247.493 201.58 247.597 202.036 248.183C202.491 248.768 202.386 249.611 201.801 250.066C200.635 250.974 199.429 251.864 198.217 252.711C197.693 253.077 196.999 253.017 196.546 252.605ZM205.501 245.398C205.472 245.372 205.444 245.344 205.417 245.315C204.914 244.77 204.948 243.921 205.493 243.418C206.543 242.448 207.583 241.437 208.582 240.414C209.1 239.884 209.938 239.869 210.48 240.391C211.01 240.909 211.021 241.759 210.503 242.289C209.471 243.346 208.398 244.389 207.314 245.39C206.798 245.866 206.01 245.861 205.501 245.398ZM213.392 237.048C212.866 236.57 212.803 235.757 213.261 235.202C214.169 234.102 215.062 232.96 215.918 231.807C216.359 231.212 217.2 231.087 217.795 231.529C218.392 231.973 218.515 232.811 218.073 233.406C217.191 234.596 216.268 235.775 215.331 236.91C214.86 237.482 214.014 237.563 213.442 237.092C213.425 237.078 213.408 237.063 213.392 237.048ZM220.091 227.712C219.622 227.285 219.509 226.571 219.856 226.013C220.221 225.425 220.579 224.831 220.931 224.232C221.31 223.588 221.679 222.942 222.038 222.293C222.397 221.644 223.213 221.409 223.862 221.768C224.509 222.127 224.745 222.943 224.386 223.592C224.016 224.262 223.636 224.929 223.245 225.592C222.882 226.21 222.512 226.823 222.136 227.429C221.745 228.058 220.917 228.251 220.288 227.86C220.217 227.817 220.151 227.767 220.091 227.712ZM225.494 217.571C225.076 217.191 224.929 216.571 225.173 216.028C225.76 214.722 226.321 213.384 226.84 212.052C227.109 211.361 227.887 211.019 228.577 211.288C229.268 211.558 229.61 212.335 229.341 213.026C228.806 214.4 228.227 215.781 227.621 217.129C227.317 217.805 226.523 218.106 225.847 217.802C225.714 217.743 225.596 217.664 225.494 217.571Z" fill="white"/>
<path d="M71.9492 222.117C71.8351 222.013 71.7374 221.888 71.662 221.744C71.3266 221.099 70.9994 220.45 70.6805 219.798C70.3552 219.132 70.631 218.328 71.297 218.003C71.9628 217.678 72.7672 217.953 73.0918 218.619C73.4008 219.251 73.7178 219.88 74.043 220.505C74.3851 221.163 74.1293 221.973 73.4718 222.315C72.9591 222.582 72.3532 222.485 71.9492 222.117Z" fill="white"/>
</g>
<path d="M74.559 203.178C74.6648 203.646 75.0559 203.996 75.5331 204.049L89.1451 205.551C91.9397 211.303 95.6716 216.652 100.288 221.342L97.1526 234.664C97.0424 235.131 97.2412 235.617 97.6469 235.873L111.536 244.644C111.942 244.9 112.466 244.871 112.84 244.571L123.521 236.013C129.74 238.165 136.174 239.236 142.569 239.287L149.776 250.932C150.028 251.34 150.512 251.543 150.98 251.437L167.003 247.818C167.472 247.712 167.821 247.321 167.874 246.844L169.376 233.232C175.128 230.438 180.477 226.705 185.167 222.089L198.489 225.225C198.957 225.335 199.442 225.136 199.698 224.73L208.469 210.841C208.726 210.435 208.696 209.911 208.396 209.537L199.838 198.856C201.991 192.636 203.062 186.203 203.112 179.808L214.757 172.601C215.165 172.349 215.368 171.865 215.263 171.397L211.643 155.374C211.538 154.905 211.146 154.556 210.669 154.503L197.057 153.001C194.263 147.249 190.531 141.9 185.914 137.21L189.05 123.888C189.16 123.421 188.961 122.935 188.556 122.679L174.666 113.908C174.26 113.652 173.737 113.681 173.362 113.981L162.682 122.539C156.462 120.386 150.029 119.315 143.633 119.265L136.426 107.62C136.174 107.212 135.69 107.009 135.222 107.115L119.199 110.734C118.731 110.84 118.381 111.231 118.328 111.708L116.826 125.32C111.074 128.114 105.725 131.846 101.035 136.463L87.7128 133.327C87.2459 133.217 86.76 133.416 86.5039 133.822L77.7332 147.711C77.477 148.116 77.5063 148.64 77.8063 149.015L86.3638 159.695C84.2116 165.915 83.1407 172.348 83.0899 178.743L71.4452 185.951C71.037 186.203 70.8342 186.687 70.9397 187.155L74.559 203.178Z" fill="url(#paint2_linear_6343_4780)"/>
<path d="M132.491 190.948C131.092 189.675 129.922 188.145 129.04 186.407C127.135 182.651 126.807 178.379 128.116 174.376C129.424 170.374 132.213 167.12 135.969 165.215C139.724 163.31 143.997 162.982 148 164.29C156.263 166.991 160.787 175.911 158.085 184.174C155.384 192.437 146.464 196.962 138.202 194.26C136.051 193.557 134.116 192.426 132.491 190.948ZM152.106 169.345C150.75 168.111 149.119 167.138 147.267 166.532C143.863 165.42 140.23 165.699 137.036 167.319C133.842 168.939 131.471 171.706 130.358 175.109C129.245 178.513 129.524 182.146 131.144 185.34C132.765 188.534 135.531 190.905 138.934 192.018C145.961 194.315 153.546 190.467 155.843 183.441C157.534 178.267 155.894 172.79 152.106 169.345Z" fill="#91B3FA"/>
<path d="M116.321 208.896C116.198 208.783 116.075 208.67 115.952 208.556C115.951 208.552 115.947 208.55 115.944 208.548C115.884 208.492 115.825 208.437 115.766 208.381C115.761 208.378 115.762 208.376 115.759 208.375C115.755 208.37 115.749 208.365 115.745 208.361C115.591 208.215 115.439 208.069 115.287 207.921C115.27 207.905 115.254 207.888 115.237 207.872C115.01 207.649 115.001 207.288 115.213 207.054C115.218 207.049 115.223 207.043 115.229 207.037C115.457 206.805 115.834 206.805 116.063 207.029C118.033 208.962 120.228 210.697 122.585 212.185C138.825 222.441 159.807 219.204 172.308 205.462C173.82 203.799 175.209 201.983 176.449 200.019C187.945 181.815 182.491 157.652 164.282 146.155C148.042 135.9 127.06 139.136 114.559 152.879C113.047 154.541 111.659 156.357 110.419 158.321C106.639 164.307 104.555 171.19 104.392 178.229C104.389 178.376 104.332 178.51 104.239 178.611C104.129 178.733 103.967 178.809 103.789 178.805C103.463 178.796 103.206 178.527 103.213 178.201C103.381 170.95 105.528 163.857 109.421 157.691C110.699 155.667 112.129 153.797 113.687 152.084C126.565 137.927 148.182 134.592 164.912 145.157C183.666 157 189.289 181.894 177.446 200.649C176.168 202.672 174.738 204.543 173.181 206.256C160.302 220.413 138.686 223.748 121.955 213.182C119.952 211.918 118.062 210.479 116.321 208.896Z" fill="#91B3FA"/>
<g opacity="0.64">
<path d="M202.471 307.537C201.251 307.275 200.297 306.236 200.201 304.929C200.084 303.362 199.998 301.773 199.945 300.204C199.891 298.611 201.138 297.275 202.731 297.221C204.324 297.169 205.661 298.415 205.714 300.008C205.765 301.5 205.847 303.012 205.957 304.501C206.075 306.091 204.882 307.475 203.292 307.593C203.011 307.614 202.735 307.594 202.471 307.537Z" fill="white"/>
<path d="M206.148 300.043C204.737 299.74 203.745 298.424 203.884 296.953C204.175 293.85 204.594 290.718 205.128 287.643C205.401 286.072 206.896 285.02 208.466 285.293C210.027 285.547 211.089 287.061 210.816 288.631C210.307 291.558 209.908 294.539 209.631 297.492C209.482 299.079 208.075 300.245 206.488 300.096C206.372 300.085 206.259 300.067 206.148 300.043ZM210.834 276.479C210.753 276.461 210.672 276.441 210.591 276.416C209.067 275.949 208.21 274.335 208.677 272.81C209.592 269.824 210.634 266.843 211.772 263.949C212.356 262.466 214.028 261.738 215.515 262.32C216.998 262.904 217.728 264.58 217.144 266.063C216.06 268.818 215.068 271.658 214.196 274.502C213.754 275.946 212.283 276.79 210.834 276.479ZM220.169 254.351C219.901 254.294 219.637 254.197 219.385 254.059C217.988 253.292 217.477 251.537 218.243 250.14C219.746 247.404 221.374 244.696 223.083 242.092C223.957 240.759 225.747 240.388 227.079 241.263C228.412 242.137 228.783 243.927 227.908 245.259C226.282 247.737 224.733 250.313 223.304 252.918C222.675 254.062 221.383 254.612 220.169 254.351ZM233.837 234.592C233.383 234.495 232.945 234.285 232.568 233.962C231.357 232.924 231.217 231.102 232.255 229.892C234.283 227.525 236.433 225.208 238.644 223.004C239.774 221.879 241.6 221.882 242.726 223.01C243.852 224.14 243.848 225.967 242.72 227.093C240.615 229.19 238.568 231.396 236.637 233.649C235.924 234.481 234.839 234.808 233.837 234.592ZM251.267 218.05C250.623 217.911 250.023 217.553 249.589 216.99C248.616 215.728 248.85 213.915 250.113 212.942C252.586 211.036 255.161 209.206 257.768 207.503C259.103 206.63 260.892 207.005 261.763 208.34C262.635 209.675 262.26 211.463 260.926 212.335C258.444 213.956 255.992 215.699 253.637 217.514C252.937 218.053 252.068 218.222 251.267 218.05ZM271.692 205.398C270.854 205.218 270.105 204.668 269.701 203.838C269.004 202.404 269.6 200.677 271.034 199.98C273.838 198.616 276.73 197.346 279.63 196.205C281.114 195.621 282.79 196.351 283.373 197.834C283.956 199.318 283.227 200.993 281.744 201.576C278.983 202.663 276.228 203.872 273.559 205.171C272.956 205.464 272.301 205.528 271.692 205.398ZM294.246 197.15C293.207 196.927 292.331 196.136 292.053 195.036C291.661 193.491 292.596 191.921 294.142 191.53C297.164 190.763 300.253 190.108 303.323 189.581C304.896 189.313 306.386 190.367 306.656 191.937C306.926 193.508 305.87 195.001 304.299 195.271C301.377 195.772 298.436 196.396 295.559 197.125C295.114 197.238 294.667 197.241 294.246 197.15ZM394.089 217.594C393.686 217.508 393.296 217.333 392.947 217.067C390.589 215.268 388.128 213.539 385.632 211.928C384.292 211.065 383.907 209.278 384.771 207.939C385.634 206.6 387.42 206.211 388.761 207.078C391.384 208.771 393.971 210.587 396.448 212.478C397.716 213.445 397.959 215.256 396.992 216.523C396.291 217.441 395.148 217.822 394.089 217.594ZM318.005 193.673C316.751 193.404 315.787 192.314 315.73 190.972C315.663 189.38 316.9 188.034 318.492 187.967C321.605 187.836 324.764 187.828 327.883 187.942C329.47 188.001 330.72 189.338 330.662 190.932C330.604 192.524 329.266 193.769 327.672 193.711C324.704 193.602 321.697 193.61 318.735 193.735C318.484 193.745 318.24 193.724 318.005 193.673ZM373.589 205.071C373.373 205.024 373.159 204.952 372.951 204.853C370.27 203.575 367.506 202.387 364.736 201.322C363.248 200.751 362.505 199.08 363.077 197.593C363.649 196.106 365.323 195.368 366.807 195.934C369.716 197.053 372.62 198.3 375.435 199.643C376.874 200.328 377.485 202.051 376.798 203.49C376.212 204.72 374.867 205.345 373.589 205.071ZM341.979 195.141C340.481 194.819 339.487 193.375 339.74 191.848C340.001 190.275 341.486 189.212 343.059 189.473C346.134 189.982 349.209 190.616 352.255 191.365C353.803 191.746 354.749 193.31 354.368 194.858C353.986 196.406 352.436 197.347 350.875 196.971C347.972 196.256 345.043 195.653 342.115 195.167C342.069 195.16 342.024 195.151 341.979 195.141Z" fill="white"/>
<path d="M405.109 218.724C404.554 218.605 404.027 218.321 403.609 217.874C402.582 216.775 401.526 215.689 400.472 214.646C399.339 213.525 399.328 211.698 400.449 210.564C401.57 209.43 403.397 209.42 404.531 210.541C405.638 211.637 406.748 212.778 407.827 213.932C408.915 215.096 408.854 216.923 407.689 218.012C406.971 218.683 406.002 218.916 405.109 218.724Z" fill="white"/>
</g>
<g opacity="0.64">
<path d="M438.745 312.606C437.386 312.314 436.399 311.071 436.473 309.637C436.549 308.139 436.596 306.625 436.613 305.137C436.631 303.543 437.938 302.266 439.531 302.283C441.129 302.302 442.402 303.608 442.385 305.202C442.367 306.766 442.318 308.357 442.238 309.931C442.157 311.523 440.8 312.748 439.208 312.666C439.05 312.658 438.895 312.638 438.745 312.606Z" fill="white"/>
<path d="M296.094 421.21C296.086 421.208 296.078 421.207 296.07 421.205C293.672 420.669 291.259 420.052 288.897 419.37C288.308 419.2 287.719 419.026 287.132 418.847C285.608 418.381 284.75 416.767 285.215 415.243C285.681 413.718 287.295 412.858 288.819 413.326C289.376 413.496 289.935 413.662 290.496 413.823C292.747 414.473 295.045 415.061 297.329 415.571C298.885 415.919 299.864 417.462 299.516 419.018C299.171 420.565 297.642 421.542 296.094 421.21ZM310.555 423.51C309.143 423.206 308.151 421.887 308.292 420.414C308.444 418.827 309.853 417.664 311.44 417.816C314.344 418.093 317.297 418.261 320.217 418.313C321.81 418.339 323.08 419.657 323.052 421.25C323.023 422.844 321.708 424.113 320.114 424.085C317.045 424.029 313.942 423.854 310.89 423.562C310.776 423.551 310.665 423.533 310.555 423.51ZM273.648 413.782C273.455 413.741 273.263 413.679 273.076 413.595C270.268 412.342 267.479 410.966 264.785 409.505C263.384 408.745 262.864 406.993 263.624 405.591C264.384 404.191 266.133 403.67 267.538 404.431C270.101 405.821 272.756 407.131 275.428 408.323C276.884 408.973 277.537 410.68 276.888 412.136C276.322 413.404 274.954 414.063 273.648 413.782ZM334.191 423.36C333.008 423.106 332.067 422.118 331.929 420.849C331.757 419.264 332.903 417.84 334.487 417.668C337.389 417.354 340.314 416.922 343.181 416.384C344.749 416.092 346.256 417.122 346.55 418.689C346.843 420.256 345.812 421.764 344.245 422.058C341.232 422.622 338.159 423.077 335.109 423.407C334.794 423.441 334.485 423.423 334.191 423.36ZM253.141 402.01C252.765 401.929 252.398 401.771 252.066 401.532C249.576 399.744 247.122 397.834 244.773 395.853C243.554 394.826 243.398 393.005 244.425 391.786C245.452 390.567 247.272 390.412 248.492 391.439C250.729 393.323 253.064 395.142 255.433 396.843C256.727 397.773 257.023 399.576 256.093 400.871C255.403 401.833 254.23 402.244 253.141 402.01ZM357.301 418.453C356.324 418.243 355.483 417.531 355.156 416.511C354.669 414.993 355.505 413.368 357.023 412.881C359.801 411.99 362.582 410.98 365.289 409.877C366.765 409.275 368.45 409.985 369.051 411.461C369.652 412.937 368.943 414.621 367.467 415.223C364.624 416.381 361.703 417.443 358.786 418.378C358.288 418.538 357.778 418.555 357.301 418.453ZM378.967 409.013C378.186 408.845 377.477 408.356 377.055 407.604C376.275 406.213 376.77 404.454 378.16 403.674C380.71 402.243 383.234 400.697 385.663 399.079C386.989 398.195 388.782 398.555 389.665 399.881C390.549 401.208 390.19 403 388.863 403.884C386.313 405.582 383.663 407.206 380.985 408.708C380.346 409.066 379.631 409.156 378.967 409.013ZM398.318 395.44C397.726 395.312 397.168 394.998 396.742 394.504C395.7 393.298 395.834 391.475 397.041 390.434C399.253 388.524 401.417 386.505 403.474 384.431C404.598 383.301 406.427 383.294 407.557 384.416C408.688 385.539 408.694 387.366 407.572 388.498C405.41 390.676 403.136 392.797 400.813 394.803C400.1 395.418 399.172 395.623 398.318 395.44ZM414.565 378.258C414.158 378.171 413.764 377.994 413.413 377.724C412.15 376.751 411.914 374.939 412.886 373.676C414.67 371.36 416.384 368.945 417.98 366.5C418.851 365.164 420.641 364.79 421.975 365.661C423.31 366.533 423.685 368.32 422.813 369.655C421.136 372.225 419.334 374.763 417.461 377.197C416.759 378.109 415.62 378.485 414.565 378.258ZM427.014 358.16C426.79 358.112 426.57 358.036 426.356 357.932C424.922 357.235 424.325 355.508 425.022 354.074C426.297 351.453 427.488 348.744 428.562 346.023C429.147 344.541 430.824 343.81 432.306 344.398C433.789 344.983 434.516 346.66 433.932 348.142C432.804 351 431.553 353.846 430.214 356.599C429.621 357.818 428.282 358.432 427.014 358.16ZM435.167 335.975C435.128 335.966 435.089 335.957 435.05 335.947C433.506 335.549 432.578 333.975 432.976 332.431C433.369 330.911 433.736 329.359 434.066 327.819C434.352 326.491 434.613 325.162 434.849 323.834C435.129 322.265 436.628 321.219 438.197 321.498C439.784 321.772 440.812 323.276 440.533 324.846C440.284 326.241 440.01 327.636 439.71 329.031C439.363 330.648 438.978 332.277 438.566 333.873C438.178 335.378 436.672 336.298 435.167 335.975Z" fill="white"/>
<path d="M235.383 386.285C234.821 386.164 234.288 385.875 233.869 385.419C232.805 384.264 231.75 383.073 230.734 381.879C229.701 380.665 229.848 378.844 231.062 377.811C232.276 376.777 234.098 376.924 235.13 378.138C236.097 379.274 237.101 380.408 238.115 381.508C239.195 382.68 239.12 384.507 237.948 385.587C237.23 386.247 236.269 386.475 235.383 386.285Z" fill="white"/>
</g>
<path d="M240.813 367.472C241.152 368.075 241.836 368.396 242.517 368.272L261.93 364.733C268.16 371.522 275.518 377.368 283.827 381.94L284.991 401.626C285.032 402.317 285.506 402.905 286.172 403.092L308.965 409.474C309.631 409.66 310.342 409.403 310.736 408.835L321.953 392.615C331.428 393.022 340.751 391.848 349.602 389.28L364.354 402.385C364.871 402.845 365.623 402.926 366.226 402.586L386.855 390.982C387.458 390.643 387.78 389.958 387.655 389.278L384.116 369.865C390.906 363.635 396.751 356.277 401.323 347.968L421.01 346.804C421.7 346.763 422.289 346.289 422.475 345.623L428.857 322.83C429.043 322.164 428.787 321.452 428.218 321.059L411.998 309.842C412.405 300.367 411.231 291.044 408.663 282.193L421.769 267.44C422.228 266.924 422.309 266.172 421.97 265.569L410.365 244.94C410.027 244.336 409.342 244.015 408.662 244.139L389.249 247.679C383.018 240.889 375.66 235.044 367.351 230.472L366.187 210.785C366.147 210.095 365.672 209.506 365.006 209.32L342.213 202.938C341.547 202.752 340.836 203.008 340.443 203.577L329.226 219.797C319.751 219.39 310.427 220.564 301.577 223.132L286.824 210.026C286.307 209.567 285.555 209.486 284.953 209.825L264.323 221.43C263.72 221.769 263.399 222.453 263.523 223.134L267.062 242.546C260.272 248.777 254.427 256.136 249.855 264.444L230.169 265.608C229.479 265.648 228.89 266.123 228.704 266.789L222.322 289.582C222.135 290.248 222.392 290.959 222.961 291.353L239.18 302.57C238.773 312.045 239.948 321.368 242.515 330.219L229.41 344.971C228.95 345.488 228.87 346.24 229.209 346.843L240.813 367.472Z" fill="url(#paint3_linear_6343_4780)"/>
<path d="M321.291 330.842C309.282 328.755 300.268 318.103 300.59 305.563C300.762 298.886 303.524 292.675 308.367 288.075C313.21 283.475 319.555 281.036 326.231 281.209C340.021 281.563 350.941 293.066 350.586 306.849C350.415 313.527 347.653 319.737 342.81 324.337C337.967 328.937 331.622 331.376 324.945 331.203C323.702 331.172 322.481 331.049 321.291 330.842ZM328.54 289.433C327.716 289.29 326.877 289.206 326.027 289.184C316.641 288.942 308.807 296.382 308.565 305.768C308.449 310.315 310.109 314.635 313.242 317.933C316.375 321.232 320.607 323.111 325.15 323.229C329.698 323.345 334.018 321.684 337.315 318.553C340.613 315.42 342.494 311.191 342.611 306.645C342.728 302.097 341.067 297.777 337.935 294.479C335.389 291.798 332.117 290.054 328.54 289.433Z" fill="#91B3FA"/>
<path d="M316.042 363.516C314.108 363.18 312.178 362.744 310.248 362.204L310.248 362.204C306.711 361.213 303.274 359.895 300.011 358.28C299.639 358.095 299.269 357.908 298.902 357.716C298.83 357.679 298.759 357.641 298.688 357.603C298.165 357.328 297.902 356.753 297.997 356.201C298.02 356.066 298.065 355.934 298.132 355.807C298.474 355.158 299.279 354.909 299.928 355.251C303.414 357.09 307.128 358.568 310.965 359.642C311.282 359.731 311.598 359.817 311.914 359.9C333.376 365.515 355.328 357.757 368.786 341.722C373.645 335.932 377.396 329.062 379.614 321.351C379.651 321.223 379.688 321.093 379.723 320.965C380.24 319.121 380.657 317.272 380.977 315.424C385.809 287.592 368.822 259.984 341.046 252.206C311.424 243.914 280.581 261.264 272.288 290.883C271.776 292.709 271.359 294.554 271.037 296.41C269.642 304.455 270.021 312.716 272.178 320.597C272.231 320.792 272.238 320.989 272.205 321.176C272.119 321.668 271.759 322.09 271.246 322.231C270.536 322.424 269.807 322.008 269.612 321.299C267.352 313.04 266.954 304.385 268.417 295.957C268.754 294.012 269.191 292.08 269.726 290.167C278.415 259.134 310.739 240.958 341.763 249.645C370.864 257.793 388.66 286.717 383.599 315.877C383.262 317.813 382.826 319.75 382.285 321.681C374.136 350.784 345.203 368.583 316.042 363.516Z" fill="#91B3FA"/>
<path d="M203.46 279.676C188.403 282.312 178.374 272.609 170.926 266.749C161.094 259.011 153.631 263.007 153.631 263.007L164.344 283.267C180.05 298.066 195.799 294.417 205.675 289.338C205.753 285.384 204.674 282.097 203.46 279.676Z" fill="url(#paint4_linear_6343_4780)"/>
<path d="M224.508 269.924L219.553 272.815C213.619 276.724 208.282 278.831 203.46 279.675C204.674 282.097 205.753 285.384 205.675 289.337C211.961 286.105 215.869 282.293 215.869 282.293C227.081 275.058 224.508 269.924 224.508 269.924Z" fill="url(#paint5_linear_6343_4780)"/>
<path d="M168.099 411.228L166.984 417.003C165.072 426.913 168.938 435.992 175.62 437.281L183.564 438.814C190.246 440.104 197.213 433.116 199.125 423.206L200.24 417.431C200.314 417.048 200.38 416.664 200.437 416.279L226.088 243.639L208.781 240.299L168.345 410.086C168.255 410.464 168.173 410.845 168.099 411.228ZM176.23 412.326C177.67 404.865 182.431 399.51 186.864 400.365C191.298 401.221 193.724 407.963 192.284 415.424C190.844 422.886 186.083 428.24 181.65 427.385C177.216 426.529 174.79 419.787 176.23 412.326Z" fill="url(#paint6_linear_6343_4780)"/>
<path d="M211.347 180.105L204.88 213.615C204.419 216.001 205.092 218.465 206.702 220.286L214.951 229.619C217.305 232.283 221.159 233.027 224.336 231.43L235.466 225.837C237.637 224.746 239.179 222.709 239.639 220.323L246.107 186.813C247.082 181.759 253.598 180.129 256.743 184.205C264.265 193.956 267.718 206.996 265.145 220.329C260.494 244.428 238.504 257.379 215.324 252.905C192.144 248.432 176.553 228.228 181.204 204.129C183.777 190.796 191.835 179.977 202.445 173.726C206.881 171.113 212.322 175.05 211.347 180.105Z" fill="url(#paint7_linear_6343_4780)"/>
<path d="M214.505 180.714L208.038 214.224C207.577 216.61 208.25 219.075 209.86 220.895L218.109 230.229C220.464 232.892 224.317 233.636 227.494 232.04L238.624 226.447C240.795 225.356 242.337 223.319 242.797 220.933L249.265 187.422C250.24 182.368 256.756 180.739 259.901 184.814C267.423 194.565 270.876 207.606 268.303 220.939C263.652 245.037 241.662 257.988 218.482 253.515C195.302 249.041 179.711 228.837 184.362 204.738C186.935 191.405 194.993 180.586 205.603 174.335C210.039 171.722 215.481 175.659 214.505 180.714Z" fill="#91B3FA"/>
<path d="M170.618 411.714L169.504 417.489C167.591 427.399 171.457 436.478 178.139 437.768L186.083 439.301C192.765 440.59 199.732 433.602 201.645 423.692L202.76 417.917C202.833 417.534 202.899 417.15 202.956 416.765L228.607 244.125L211.3 240.785L170.864 410.572C170.774 410.95 170.692 411.331 170.618 411.714ZM178.749 412.812C180.189 405.351 184.95 399.996 189.384 400.852C193.817 401.707 196.244 408.449 194.804 415.911C193.364 423.372 188.603 428.727 184.169 427.871C179.736 427.015 177.309 420.273 178.749 412.812Z" fill="#91B3FA"/>
<path d="M225.153 277.398C225.338 276.315 225.021 275.216 224.303 274.385C222.911 272.776 220.507 270.57 218.763 272.057C216.166 274.271 219.012 281.843 219.012 281.843L221.891 286.241L221.932 289.047C223.49 287.223 224.421 282.736 225.153 277.398Z" fill="url(#paint8_linear_6343_4780)"/>
<path d="M126.352 313.682C124.19 316.078 120.98 318.175 118.718 319.487C122.211 323.642 126.91 327.781 133.104 331.801L134.928 335.696L140.409 328.869C140.409 328.869 130.252 324.052 126.352 313.682Z" fill="url(#paint9_linear_6343_4780)"/>
<path d="M158.769 440.587C158.769 440.467 158.758 440.346 158.725 440.224C156.773 433.057 147.673 428.742 147.673 428.742L144.106 429.09C142.172 435.475 142.51 439.363 142.872 441.09C142.882 441.139 142.898 441.185 142.912 441.231C145.864 441.439 151.932 441.496 158.769 440.587Z" fill="url(#paint10_linear_6343_4780)"/>
<path d="M142.912 441.232C143.082 441.808 143.518 442.251 144.067 442.356C148.276 443.158 154.925 442.323 157.715 441.904C158.331 441.812 158.771 441.233 158.769 440.588C151.932 441.497 145.864 441.44 142.912 441.232Z" fill="url(#paint11_linear_6343_4780)"/>
<path d="M142.569 423.797L144.22 431.052C144.341 431.583 144.759 431.975 145.256 432.012C145.865 432.058 146.731 432.075 147.599 431.931C148.378 431.801 148.906 430.998 148.752 430.149L147.578 423.702L142.569 423.797Z" fill="url(#paint12_linear_6343_4780)"/>
<path d="M174.245 440.567C170.298 440.531 168.249 440.105 167.186 439.694C167.19 440.086 167.2 440.485 167.221 440.899C167.243 441.34 167.577 441.687 167.979 441.677L189.639 441.128C190.33 441.11 190.719 440.301 190.407 439.673C187.571 439.961 180.347 440.623 174.245 440.567Z" fill="url(#paint13_linear_6343_4780)"/>
<path d="M190.407 439.673C190.38 439.618 190.356 439.563 190.318 439.511C188.355 436.874 183.382 431.643 173.71 429.517L169.088 429.458C169.088 429.458 167.099 433.072 167.185 439.694C168.248 440.105 170.298 440.531 174.245 440.567C180.347 440.623 187.571 439.961 190.407 439.673Z" fill="url(#paint14_linear_6343_4780)"/>
<path d="M168.1 422.473C168.157 422.817 168.889 428.038 169.173 430.062C169.24 430.543 169.596 430.909 170.037 430.954C170.826 431.033 172.1 431.094 173.209 430.845C173.808 430.71 174.231 430.125 174.219 429.454L174.064 421.24L168.1 422.473Z" fill="url(#paint15_linear_6343_4780)"/>
<path d="M162.591 327.05C162.591 327.05 174.531 369.177 175.335 422.458C175.35 423.43 174.684 424.281 173.737 424.499C172.342 424.82 170.289 425.21 168.584 425.194C167.673 425.186 166.9 424.525 166.73 423.631C164.995 414.5 155.056 363.064 149.791 354.782C149.791 354.782 147.298 400.808 148.822 424.633C148.86 425.225 148.436 425.748 147.848 425.827C146.955 425.947 145.526 426.053 143.701 425.894C143.009 425.833 142.441 425.321 142.329 424.635C141.07 416.903 133.795 370.877 133.44 337.629C133.419 335.754 138.208 327.51 138.208 327.51L162.591 327.05Z" fill="url(#paint16_linear_6343_4780)"/>
<path d="M177.117 275.519C175.266 273.286 173.637 270.887 172.264 268.409C170.348 264.947 172.158 270.675 171.578 266.736C157.532 256.998 136.761 262.454 128.708 263.623C126.068 264.006 123.672 265.357 121.966 267.408C115.201 275.543 100.437 297.743 118.719 319.487C120.98 318.175 124.191 316.079 126.352 313.682C124.271 308.148 123.975 301.032 127.952 292.223C128.106 292.912 128.294 293.594 128.519 294.264C134.57 312.242 135.159 327.287 135.211 330.756C135.218 331.227 135.509 331.645 135.95 331.812C143.52 334.681 157.949 332.616 162.791 331.801C163.678 331.651 164.261 330.811 164.122 329.922C161.413 312.705 173.105 284.076 176.201 276.902C176.424 276.386 176.736 275.919 177.117 275.519Z" fill="url(#paint17_linear_6343_4780)"/>
<path d="M141.42 248.841L140.251 263.663C140.251 263.663 148.621 266.013 154.593 261.627L150.084 248.262L141.42 248.841Z" fill="url(#paint18_linear_6343_4780)"/>
<path d="M150.759 231.797C150.963 231.982 159.522 248.034 159.522 248.034L150.253 252.727L139.88 238.718C139.88 238.718 147.346 228.704 150.759 231.797Z" fill="url(#paint19_linear_6343_4780)"/>
<path d="M144.026 239.033C143.867 239.468 143.917 239.949 144.163 240.341L148.975 248.031C149.048 248.147 149.134 248.252 149.237 248.344C149.802 248.851 151.731 250.318 153.161 248.243C154.38 246.475 155.525 244.866 156.772 244.188C157.499 243.792 158.41 244.08 158.797 244.813C159.594 246.322 161.142 249.4 162.133 252.327C162.381 253.061 162.015 253.86 161.303 254.165C159.424 254.968 155.706 256.426 152.393 256.948C151.848 257.033 151.304 256.813 150.971 256.374C149.504 254.443 145.373 249.048 143.972 247.704C142.671 246.456 140.322 246.98 139.266 247.305C138.865 247.429 138.434 247.381 138.071 247.172C136.981 246.543 135.069 244.962 136.738 242.192C137.153 241.504 136.918 240.601 136.238 240.172C135.02 239.404 133.686 237.942 134.884 235.513C136.098 233.053 138.343 232.792 139.878 232.951C140.557 233.021 141.238 232.652 141.486 232.016C141.597 231.733 141.821 231.489 142.245 231.395C143.045 231.217 143.558 230.473 143.385 229.672C143.089 228.299 143.258 226.504 145.436 225.253C149.431 222.957 153.034 226.507 153.991 229.542C154.948 232.577 150.476 234.82 147.644 235.233C145.564 235.537 144.463 237.835 144.026 239.033Z" fill="url(#paint20_linear_6343_4780)"/>
<path d="M145.778 250.527C145.778 250.527 143.884 245.31 141.59 245.546C139.297 245.782 137.532 248.105 140.427 250.624C144.029 253.757 145.778 250.527 145.778 250.527Z" fill="url(#paint21_linear_6343_4780)"/>
<path d="M127.168 290.885C123.984 282.655 124.893 272.627 124.903 272.526L125.739 272.606C125.73 272.704 124.84 282.54 127.952 290.582L127.168 290.885Z" fill="url(#paint22_linear_6343_4780)"/>
<path d="M149.361 353.71C149.174 353.714 149.001 353.592 148.949 353.403C147.958 349.858 140.966 346.073 140.896 346.035C140.691 345.925 140.614 345.67 140.724 345.466C140.834 345.261 141.087 345.184 141.293 345.294C141.593 345.455 148.671 349.287 149.758 353.177C149.82 353.401 149.69 353.632 149.467 353.695C149.432 353.705 149.396 353.71 149.361 353.71Z" fill="url(#paint23_linear_6343_4780)"/>
<path d="M155.578 226.926L134.151 243.613C133.841 243.854 133.387 243.672 133.33 243.283L133.108 241.754C133.108 241.754 124.191 232.787 133.353 224.681C142.515 216.575 153.325 225.758 153.325 225.758L155.398 226.168C155.758 226.24 155.867 226.701 155.578 226.926Z" fill="url(#paint24_linear_6343_4780)"/>
</g>
<defs>
<linearGradient id="paint0_linear_6343_4780" x1="488.192" y1="552.725" x2="148.299" y2="130.598" gradientUnits="userSpaceOnUse">
<stop stop-color="#DAE3FE"/>
<stop offset="1" stop-color="#E9EFFD"/>
</linearGradient>
<linearGradient id="paint1_linear_6343_4780" x1="266.166" y1="53.8901" x2="287.899" y2="210.585" gradientUnits="userSpaceOnUse">
<stop stop-color="#4F52FF"/>
<stop offset="1" stop-color="#4042E2"/>
</linearGradient>
<linearGradient id="paint2_linear_6343_4780" x1="209.09" y1="224.457" x2="4.8365" y2="84.6081" gradientUnits="userSpaceOnUse">
<stop stop-color="#4F52FF"/>
<stop offset="1" stop-color="#4042E2"/>
</linearGradient>
<linearGradient id="paint3_linear_6343_4780" x1="257.395" y1="226.225" x2="406.445" y2="401.037" gradientUnits="userSpaceOnUse">
<stop stop-color="#4F52FF"/>
<stop offset="1" stop-color="#4042E2"/>
</linearGradient>
<linearGradient id="paint4_linear_6343_4780" x1="389.586" y1="-7.95165" x2="315.114" y2="92.8386" gradientUnits="userSpaceOnUse">
<stop stop-color="#FF928E"/>
<stop offset="1" stop-color="#FE7062"/>
</linearGradient>
<linearGradient id="paint5_linear_6343_4780" x1="239.866" y1="242.402" x2="170.784" y2="334.315" gradientUnits="userSpaceOnUse">
<stop stop-color="#FEBBBA"/>
<stop offset="1" stop-color="#FF928E"/>
</linearGradient>
<linearGradient id="paint6_linear_6343_4780" x1="453.534" y1="1764.31" x2="384.493" y2="1380.41" gradientUnits="userSpaceOnUse">
<stop stop-color="#4F52FF"/>
<stop offset="1" stop-color="#4042E2"/>
</linearGradient>
<linearGradient id="paint7_linear_6343_4780" x1="-2872.3" y1="1614.24" x2="-2517.01" y2="1453.23" gradientUnits="userSpaceOnUse">
<stop stop-color="#4F52FF"/>
<stop offset="1" stop-color="#4042E2"/>
</linearGradient>
<linearGradient id="paint8_linear_6343_4780" x1="210.889" y1="269.128" x2="270.401" y2="330.286" gradientUnits="userSpaceOnUse">
<stop stop-color="#FEBBBA"/>
<stop offset="1" stop-color="#FF928E"/>
</linearGradient>
<linearGradient id="paint9_linear_6343_4780" x1="118.82" y1="324.912" x2="140.327" y2="324.506" gradientUnits="userSpaceOnUse">
<stop stop-color="#FEBBBA"/>
<stop offset="1" stop-color="#FF928E"/>
</linearGradient>
<linearGradient id="paint10_linear_6343_4780" x1="149.346" y1="391.774" x2="151.007" y2="451.095" gradientUnits="userSpaceOnUse">
<stop stop-color="#09005D"/>
<stop offset="1" stop-color="#1A0F91"/>
</linearGradient>
<linearGradient id="paint11_linear_6343_4780" x1="150.796" y1="417.097" x2="150.667" y2="349.464" gradientUnits="userSpaceOnUse">
<stop stop-color="#09005D"/>
<stop offset="1" stop-color="#1A0F91"/>
</linearGradient>
<linearGradient id="paint12_linear_6343_4780" x1="146.672" y1="416.706" x2="144.1" y2="443.649" gradientUnits="userSpaceOnUse">
<stop stop-color="#FEBBBA"/>
<stop offset="1" stop-color="#FF928E"/>
</linearGradient>
<linearGradient id="paint13_linear_6343_4780" x1="178.807" y1="417.044" x2="178.679" y2="349.411" gradientUnits="userSpaceOnUse">
<stop stop-color="#09005D"/>
<stop offset="1" stop-color="#1A0F91"/>
</linearGradient>
<linearGradient id="paint14_linear_6343_4780" x1="177.433" y1="390.988" x2="179.094" y2="450.31" gradientUnits="userSpaceOnUse">
<stop stop-color="#09005D"/>
<stop offset="1" stop-color="#1A0F91"/>
</linearGradient>
<linearGradient id="paint15_linear_6343_4780" x1="171.819" y1="419.107" x2="169.247" y2="446.049" gradientUnits="userSpaceOnUse">
<stop stop-color="#FEBBBA"/>
<stop offset="1" stop-color="#FF928E"/>
</linearGradient>
<linearGradient id="paint16_linear_6343_4780" x1="206.097" y1="295.479" x2="110.463" y2="450.225" gradientUnits="userSpaceOnUse">
<stop stop-color="#09005D"/>
<stop offset="1" stop-color="#1A0F91"/>
</linearGradient>
<linearGradient id="paint17_linear_6343_4780" x1="376.816" y1="-17.3868" x2="302.344" y2="83.4035" gradientUnits="userSpaceOnUse">
<stop stop-color="#FF928E"/>
<stop offset="1" stop-color="#FE7062"/>
</linearGradient>
<linearGradient id="paint18_linear_6343_4780" x1="150.232" y1="244.716" x2="139.431" y2="295.765" gradientUnits="userSpaceOnUse">
<stop stop-color="#FEBBBA"/>
<stop offset="1" stop-color="#FF928E"/>
</linearGradient>
<linearGradient id="paint19_linear_6343_4780" x1="148.098" y1="234.913" x2="154.54" y2="268.917" gradientUnits="userSpaceOnUse">
<stop stop-color="#FEBBBA"/>
<stop offset="1" stop-color="#FF928E"/>
</linearGradient>
<linearGradient id="paint20_linear_6343_4780" x1="142.306" y1="251.175" x2="159.048" y2="232.704" gradientUnits="userSpaceOnUse">
<stop stop-color="#09005D"/>
<stop offset="1" stop-color="#1A0F91"/>
</linearGradient>
<linearGradient id="paint21_linear_6343_4780" x1="143.634" y1="270.029" x2="142.15" y2="246.093" gradientUnits="userSpaceOnUse">
<stop stop-color="#FEBBBA"/>
<stop offset="1" stop-color="#FF928E"/>
</linearGradient>
<linearGradient id="paint22_linear_6343_4780" x1="166.403" y1="274.604" x2="91.8814" y2="287.714" gradientUnits="userSpaceOnUse">
<stop stop-color="#E1473D"/>
<stop offset="1" stop-color="#E9605A"/>
</linearGradient>
<linearGradient id="paint23_linear_6343_4780" x1="151.62" y1="337.574" x2="143.636" y2="352.433" gradientUnits="userSpaceOnUse">
<stop stop-color="#4F52FF"/>
<stop offset="1" stop-color="#4042E2"/>
</linearGradient>
<linearGradient id="paint24_linear_6343_4780" x1="157.699" y1="135.738" x2="142.518" y2="229.124" gradientUnits="userSpaceOnUse">
<stop stop-color="#FF928E"/>
<stop offset="1" stop-color="#FE7062"/>
</linearGradient>
<clipPath id="clip0_6343_4780">
<rect width="500" height="500" fill="white"/>
</clipPath>
</defs>
</svg>
