<svg width="500" height="500" viewBox="0 0 500 500" fill="none" xmlns="http://www.w3.org/2000/svg">
<g clip-path="url(#clip0_6343_3202)">
<path d="M500 0H0V500H500V0Z" fill="white"/>
<path d="M450.64 163.28V336.87C450.64 367.282 423.611 383.928 398.281 387.272C348.43 393.862 279.792 385.264 242.481 384.53C201.312 383.71 139.012 386.813 103.967 387.245C64.2319 387.716 49 356.988 49 336.87V163.28C49 135.344 72.5844 111.244 101.363 112.878C124.144 114.17 156.692 118.779 190.916 117.768C209.5 117.235 216.512 115.369 264.08 113.069C270.621 112.751 351.203 108.701 398.281 112.878C426.924 115.442 450.64 135.287 450.64 163.28Z" fill="#ACC9C5"/>
<mask id="mask0_6343_3202" style="mask-type:luminance" maskUnits="userSpaceOnUse" x="49" y="111" width="402" height="279">
<path d="M450.64 163.28V336.87C450.64 367.282 423.611 383.928 398.281 387.272C348.43 393.862 279.792 385.264 242.481 384.53C201.312 383.71 139.012 386.813 103.967 387.245C64.2319 387.716 49 356.988 49 336.87V163.28C49 135.344 72.5844 111.244 101.363 112.878C124.144 114.17 156.692 118.779 190.916 117.768C209.5 117.235 216.512 115.369 264.08 113.069C270.621 112.751 351.203 108.701 398.281 112.878C426.924 115.442 450.64 135.287 450.64 163.28Z" fill="white"/>
</mask>
<g mask="url(#mask0_6343_3202)">
<path d="M431.324 166.881V288.24C431.324 309.502 406.694 321.14 383.611 323.477C338.184 328.085 275.637 322.074 241.637 321.561C204.121 320.987 147.349 323.157 115.415 323.459C79.2055 323.788 65.3252 302.306 65.3252 288.24V166.881C65.3252 147.351 86.8168 130.502 113.042 131.644C133.801 132.547 163.461 135.769 194.648 135.062C211.582 134.69 217.973 133.385 261.319 131.777C267.28 131.555 340.711 128.724 383.611 131.644C409.713 133.437 431.324 147.31 431.324 166.881Z" fill="#DAEBE8"/>
<path d="M346.955 333.4C324.741 333.4 301.729 332.244 281.427 331.224C267.94 330.546 255.201 329.906 245.213 329.756C241.047 329.692 236.426 329.66 231.481 329.66C209.728 329.66 183.783 330.277 160.893 330.821C145.239 331.193 130.453 331.545 119.003 331.654C118.727 331.656 118.451 331.657 118.178 331.657C98.0284 331.658 86.2244 324.86 79.8702 319.157C72.7034 312.725 68.4248 304.05 68.4248 295.951V174.592C68.4248 169.88 69.6347 165.264 72.0209 160.873C74.3299 156.623 77.6228 152.79 81.8082 149.479C90.4999 142.603 101.971 138.816 114.109 138.816C114.95 138.816 115.803 138.835 116.646 138.872C122.84 139.141 129.912 139.623 137.399 140.133C152.937 141.191 170.547 142.39 189.157 142.39C192.232 142.39 195.281 142.357 198.22 142.29C205.649 142.127 211.014 141.786 218.439 141.314C227.78 140.72 240.572 139.907 264.885 139.005L265.225 138.992C276.708 138.561 306.724 137.559 337.353 137.559C357.639 137.559 374.419 138.001 387.227 138.872C400.301 139.77 412.337 143.691 421.119 149.912C425.606 153.091 429.112 156.766 431.538 160.834C434.095 165.121 435.391 169.75 435.391 174.592V295.951C435.391 305.849 430.059 314.536 419.97 321.073C411.379 326.639 399.756 330.403 387.243 331.67C375.767 332.834 362.589 333.4 346.955 333.4ZM231.481 328.692C236.431 328.692 241.056 328.724 245.228 328.788C255.233 328.939 267.98 329.579 281.475 330.257C301.767 331.276 324.765 332.432 346.955 332.432C362.556 332.432 375.703 331.868 387.146 330.707C399.509 329.455 410.98 325.745 419.444 320.26C429.244 313.911 434.424 305.504 434.424 295.951V174.592C434.424 156.335 414.547 141.719 387.161 139.838C374.376 138.967 357.618 138.526 337.353 138.526C306.741 138.526 276.739 139.529 265.261 139.96L264.921 139.972C240.621 140.874 227.836 141.686 218.501 142.279C211.064 142.752 205.691 143.094 198.242 143.257C195.296 143.324 192.24 143.358 189.157 143.358C170.514 143.358 152.886 142.157 137.333 141.098C129.852 140.588 122.786 140.107 116.604 139.838C115.775 139.802 114.935 139.784 114.109 139.784C102.188 139.784 90.9301 143.496 82.4085 150.238C74.0149 156.877 69.3924 165.527 69.3924 174.592V295.951C69.3924 303.78 73.5509 312.186 80.5164 318.437C86.7447 324.027 98.3345 330.69 118.178 330.69C118.448 330.69 118.721 330.689 118.994 330.686C130.437 330.578 145.219 330.226 160.87 329.854C183.766 329.309 209.717 328.692 231.481 328.692Z" fill="#331832"/>
<path d="M94.4893 161.347H89.5693V294.187H94.4893V161.347Z" fill="#73B3CE"/>
<path d="M95.3188 234.62H88.7407C86.9665 234.62 85.5283 233.182 85.5283 231.408V230.98C85.5283 229.206 86.9665 227.768 88.7407 227.768H95.3188C97.093 227.768 98.5312 229.206 98.5312 230.98V231.408C98.5312 233.182 97.093 234.62 95.3188 234.62Z" fill="#C0C0C0"/>
<path d="M109.015 161.347H104.095V294.187H109.015V161.347Z" fill="#73B3CE"/>
<path d="M109.844 280.791H103.266C101.492 280.791 100.054 279.353 100.054 277.579V277.151C100.054 275.377 101.492 273.938 103.266 273.938H109.844C111.618 273.938 113.057 275.377 113.057 277.151V277.579C113.057 279.353 111.618 280.791 109.844 280.791Z" fill="#C0C0C0"/>
<path d="M123.541 161.347H118.621V294.187H123.541V161.347Z" fill="#73B3CE"/>
<path d="M124.371 267.086H117.792C116.018 267.086 114.58 265.648 114.58 263.874V263.446C114.58 261.672 116.018 260.233 117.792 260.233H124.371C126.145 260.233 127.583 261.672 127.583 263.446V263.874C127.583 265.648 126.145 267.086 124.371 267.086Z" fill="#C0C0C0"/>
<path d="M138.066 161.347H133.146V294.187H138.066V161.347Z" fill="#73B3CE"/>
<path d="M138.896 194.08H132.318C130.544 194.08 129.105 192.642 129.105 190.868V190.44C129.105 188.666 130.544 187.228 132.318 187.228H138.896C140.67 187.228 142.108 188.666 142.108 190.44V190.868C142.108 192.642 140.67 194.08 138.896 194.08Z" fill="#C0C0C0"/>
<path d="M152.592 161.347H147.672V294.187H152.592V161.347Z" fill="#73B3CE"/>
<path d="M153.421 215.693H146.843C145.069 215.693 143.631 214.255 143.631 212.48V212.052C143.631 210.278 145.069 208.84 146.843 208.84H153.421C155.196 208.84 156.634 210.278 156.634 212.052V212.48C156.634 214.255 155.196 215.693 153.421 215.693Z" fill="#C0C0C0"/>
<path d="M167.118 161.347H162.198V294.187H167.118V161.347Z" fill="#73B3CE"/>
<path d="M167.948 256.233H161.37C159.595 256.233 158.157 254.795 158.157 253.02V252.592C158.157 250.818 159.595 249.38 161.37 249.38H167.948C169.722 249.38 171.16 250.818 171.16 252.592V253.02C171.16 254.795 169.722 256.233 167.948 256.233Z" fill="#C0C0C0"/>
<path d="M181.644 161.347H176.724V294.187H181.644V161.347Z" fill="#73B3CE"/>
<path d="M182.473 241.473H175.895C174.121 241.473 172.683 240.035 172.683 238.261V237.833C172.683 236.058 174.121 234.62 175.895 234.62H182.473C184.247 234.62 185.686 236.058 185.686 237.833V238.261C185.686 240.035 184.247 241.473 182.473 241.473Z" fill="#C0C0C0"/>
<path d="M217.312 161.347H207.928V170.731H217.312V161.347Z" fill="#EF8062"/>
<path d="M234.418 161.347H225.034V170.731H234.418V161.347Z" fill="#C25638"/>
<path d="M251.525 161.347H242.141V170.731H251.525V161.347Z" fill="#EF8062"/>
<path d="M231.215 184.005C232.039 183.181 232.039 181.846 231.215 181.022C230.392 180.199 229.056 180.199 228.233 181.022C227.409 181.846 227.409 183.181 228.233 184.005C229.056 184.829 230.392 184.829 231.215 184.005Z" fill="#C4CF7A"/>
<path d="M214.109 184.005C214.932 183.181 214.932 181.846 214.109 181.022C213.285 180.199 211.95 180.199 211.126 181.022C210.302 181.846 210.302 183.181 211.126 184.005C211.95 184.829 213.285 184.829 214.109 184.005Z" fill="#C4CF7A"/>
<path d="M248.323 184.005C249.146 183.181 249.146 181.846 248.323 181.022C247.499 180.199 246.164 180.199 245.34 181.022C244.516 181.846 244.516 183.181 245.34 184.005C246.164 184.829 247.499 184.829 248.323 184.005Z" fill="#C4CF7A"/>
<path d="M231.784 192.036C232.052 190.902 231.35 189.766 230.216 189.499C229.083 189.231 227.947 189.933 227.679 191.067C227.411 192.2 228.113 193.336 229.247 193.604C230.38 193.871 231.516 193.17 231.784 192.036Z" fill="#C4CF7A"/>
<path d="M214.677 192.034C214.944 190.9 214.242 189.764 213.109 189.497C211.975 189.229 210.839 189.931 210.572 191.065C210.304 192.198 211.006 193.334 212.139 193.602C213.273 193.87 214.409 193.168 214.677 192.034Z" fill="#C4CF7A"/>
<path d="M248.893 192.036C249.16 190.902 248.458 189.766 247.325 189.499C246.191 189.231 245.055 189.933 244.787 191.067C244.52 192.2 245.222 193.336 246.355 193.604C247.489 193.871 248.625 193.17 248.893 192.036Z" fill="#C4CF7A"/>
<path d="M229.726 202.666C230.891 202.666 231.835 201.722 231.835 200.557C231.835 199.393 230.891 198.448 229.726 198.448C228.561 198.448 227.617 199.393 227.617 200.557C227.617 201.722 228.561 202.666 229.726 202.666Z" fill="#C4CF7A"/>
<path d="M212.62 202.666C213.785 202.666 214.729 201.722 214.729 200.557C214.729 199.393 213.785 198.448 212.62 198.448C211.455 198.448 210.511 199.393 210.511 200.557C210.511 201.722 211.455 202.666 212.62 202.666Z" fill="#C4CF7A"/>
<path d="M246.834 202.666C247.999 202.666 248.943 201.722 248.943 200.557C248.943 199.393 247.999 198.448 246.834 198.448C245.669 198.448 244.725 199.393 244.725 200.557C244.725 201.722 245.669 202.666 246.834 202.666Z" fill="#C4CF7A"/>
<path d="M231.215 211.071C232.039 210.248 232.039 208.912 231.215 208.089C230.392 207.265 229.056 207.265 228.233 208.089C227.409 208.912 227.409 210.248 228.233 211.071C229.056 211.895 230.392 211.895 231.215 211.071Z" fill="#C4CF7A"/>
<path d="M214.109 211.07C214.932 210.247 214.932 208.911 214.109 208.088C213.285 207.264 211.95 207.264 211.126 208.088C210.302 208.911 210.302 210.247 211.126 211.07C211.95 211.894 213.285 211.894 214.109 211.07Z" fill="#C4CF7A"/>
<path d="M248.323 211.071C249.146 210.248 249.146 208.912 248.323 208.089C247.499 207.265 246.164 207.265 245.34 208.089C244.516 208.912 244.516 210.248 245.34 211.071C246.164 211.895 247.499 211.895 248.323 211.071Z" fill="#C4CF7A"/>
<path d="M229.726 267.121C230.891 267.121 231.835 266.177 231.835 265.012C231.835 263.848 230.891 262.903 229.726 262.903C228.561 262.903 227.617 263.848 227.617 265.012C227.617 266.177 228.561 267.121 229.726 267.121Z" fill="#EF8062"/>
<path d="M212.62 267.121C213.785 267.121 214.729 266.177 214.729 265.012C214.729 263.848 213.785 262.903 212.62 262.903C211.455 262.903 210.511 263.848 210.511 265.012C210.511 266.177 211.455 267.121 212.62 267.121Z" fill="#764678"/>
<path d="M246.834 267.121C247.999 267.121 248.943 266.177 248.943 265.012C248.943 263.848 247.999 262.903 246.834 262.903C245.669 262.903 244.725 263.848 244.725 265.012C244.725 266.177 245.669 267.121 246.834 267.121Z" fill="#498AA6"/>
<path d="M231.215 275.526C232.039 274.703 232.039 273.367 231.215 272.544C230.392 271.72 229.056 271.72 228.233 272.544C227.409 273.367 227.409 274.703 228.233 275.526C229.056 276.35 230.392 276.35 231.215 275.526Z" fill="#EF8062"/>
<path d="M214.109 275.526C214.932 274.703 214.932 273.367 214.109 272.544C213.285 271.72 211.95 271.72 211.126 272.544C210.302 273.367 210.302 274.703 211.126 275.526C211.95 276.35 213.285 276.35 214.109 275.526Z" fill="#764678"/>
<path d="M248.322 275.526C249.145 274.703 249.145 273.367 248.322 272.544C247.498 271.72 246.163 271.72 245.339 272.544C244.515 273.367 244.515 274.703 245.339 275.526C246.163 276.35 247.498 276.35 248.322 275.526Z" fill="#498AA6"/>
<path d="M231.78 283.561C232.048 282.428 231.346 281.292 230.212 281.024C229.079 280.756 227.943 281.458 227.675 282.592C227.407 283.726 228.109 284.862 229.243 285.129C230.377 285.397 231.513 284.695 231.78 283.561Z" fill="#EF8062"/>
<path d="M214.672 283.561C214.939 282.428 214.238 281.292 213.104 281.024C211.97 280.756 210.834 281.458 210.567 282.592C210.299 283.726 211.001 284.862 212.135 285.129C213.268 285.397 214.404 284.695 214.672 283.561Z" fill="#603961"/>
<path d="M248.889 283.562C249.156 282.429 248.454 281.293 247.321 281.025C246.187 280.757 245.051 281.459 244.783 282.593C244.516 283.727 245.218 284.863 246.351 285.13C247.485 285.398 248.621 284.696 248.889 283.562Z" fill="#73B3CE"/>
<path d="M231.78 292.584C232.048 291.45 231.346 290.314 230.212 290.047C229.079 289.779 227.943 290.481 227.675 291.614C227.407 292.748 228.109 293.884 229.243 294.152C230.377 294.419 231.513 293.717 231.78 292.584Z" fill="#C25638"/>
<path d="M214.672 292.584C214.939 291.45 214.238 290.314 213.104 290.047C211.97 289.779 210.834 290.481 210.567 291.614C210.299 292.748 211.001 293.884 212.135 294.152C213.268 294.419 214.404 293.717 214.672 292.584Z" fill="#603961"/>
<path d="M248.888 292.585C249.155 291.451 248.453 290.315 247.32 290.048C246.186 289.78 245.05 290.482 244.783 291.615C244.515 292.749 245.217 293.885 246.35 294.153C247.484 294.42 248.62 293.718 248.888 292.585Z" fill="#73B3CE"/>
<path d="M215.994 227.491H209.246V247.101H215.994V227.491Z" fill="#764678"/>
<g opacity="0.32">
<path d="M210.247 227.491V234.437C210.247 235.288 210.937 235.978 211.788 235.978H213.452C214.303 235.978 214.993 235.288 214.993 234.437V227.491H210.247Z" fill="#C0C0C0"/>
<path d="M213.452 238.614H211.788C210.937 238.614 210.247 239.304 210.247 240.155V247.101H214.992V240.155C214.993 239.304 214.303 238.614 213.452 238.614Z" fill="#C0C0C0"/>
</g>
<path d="M233.1 227.491H226.353V247.101H233.1V227.491Z" fill="#EF8062"/>
<g opacity="0.32">
<path d="M227.354 227.491V234.437C227.354 235.288 228.043 235.978 228.894 235.978H230.559C231.409 235.978 232.099 235.288 232.099 234.437V227.491H227.354Z" fill="#C0C0C0"/>
<path d="M230.558 238.614H228.894C228.043 238.614 227.354 239.304 227.354 240.155V247.101H232.099V240.155C232.099 239.304 231.409 238.614 230.558 238.614Z" fill="#C0C0C0"/>
</g>
<path d="M250.208 227.491H243.46V247.101H250.208V227.491Z" fill="#73B3CE"/>
<g opacity="0.32">
<path d="M244.461 227.491V234.437C244.461 235.288 245.151 235.978 246.002 235.978H247.666C248.517 235.978 249.207 235.288 249.207 234.437V227.491H244.461Z" fill="#C0C0C0"/>
<path d="M247.666 238.614H246.002C245.151 238.614 244.461 239.304 244.461 240.155V247.101H249.206V240.155C249.206 239.304 248.517 238.614 247.666 238.614Z" fill="#C0C0C0"/>
</g>
<path d="M296.33 197.631C296.124 197.631 295.917 197.628 295.708 197.624C290.032 197.496 284.567 195.192 281.09 191.46C278.251 188.414 276.858 184.56 277.063 180.315C277.604 169.051 283.519 162.706 294.644 161.455C299.242 160.938 303.485 162.285 306.915 165.35C308.88 167.107 310.509 169.395 311.626 171.967C312.717 174.479 313.294 177.193 313.294 179.816C313.294 182.514 312.908 185.013 312.147 187.242C311.318 189.668 310.061 191.716 308.409 193.331C305.49 196.186 301.428 197.631 296.33 197.631Z" fill="#E28569"/>
<path d="M278.45 180.276C278.865 171.651 282.803 164.195 294.687 162.858C305.158 161.681 311.906 171.178 311.906 179.813C311.906 188.448 307.567 196.524 295.668 196.257C287.035 196.062 277.968 190.296 278.45 180.276Z" fill="#BED5DC"/>
<path d="M295.146 179.708L295.174 179.709C295.417 179.716 295.868 179.699 295.862 179.942L295.358 188.93C295.351 189.173 295.149 189.364 294.906 189.358L294.877 189.357C294.635 189.35 294.443 189.148 294.45 188.905L294.699 180.294C294.705 180.051 294.903 179.701 295.146 179.708Z" fill="#6F4975"/>
<path d="M295.275 179.757C295.334 179.927 295.243 180.112 295.073 180.17L284.809 183.678C284.639 183.736 284.454 183.645 284.396 183.475C284.338 183.305 284.429 183.119 284.599 183.061L294.775 179.376C294.945 179.318 295.217 179.587 295.275 179.757Z" fill="#6F4975"/>
<path d="M294.27 179.813C294.27 179.267 294.713 178.824 295.258 178.824C295.804 178.824 296.247 179.267 296.247 179.813C296.247 180.359 295.804 180.801 295.258 180.801C294.713 180.801 294.27 180.359 294.27 179.813Z" fill="#503156"/>
<path d="M294.687 179.813C294.687 179.497 294.943 179.241 295.259 179.241C295.575 179.241 295.831 179.497 295.831 179.813C295.831 180.129 295.575 180.385 295.259 180.385C294.943 180.385 294.687 180.129 294.687 179.813Z" fill="#E28569"/>
<path d="M294.194 166.364C294.296 165.945 294.611 165.589 295.035 165.513C295.636 165.405 296.009 165.906 296.026 166.337C296.05 166.948 295.575 167.32 295.143 167.32C294.712 167.32 294.032 167.032 294.194 166.364Z" fill="#6F4975"/>
<path d="M301.761 168.154C301.816 167.928 301.985 167.736 302.214 167.695C302.538 167.636 302.74 167.907 302.749 168.139C302.762 168.469 302.505 168.67 302.273 168.67C302.04 168.67 301.673 168.514 301.761 168.154Z" fill="#6F4975"/>
<path d="M301.53 191.484C301.585 191.258 301.754 191.066 301.983 191.025C302.307 190.966 302.509 191.237 302.518 191.469C302.531 191.799 302.275 192 302.042 192C301.809 192 301.442 191.844 301.53 191.484Z" fill="#6F4975"/>
<path d="M305.099 173.609C305.154 173.383 305.323 173.191 305.552 173.15C305.876 173.091 306.078 173.362 306.087 173.594C306.1 173.924 305.843 174.125 305.611 174.125C305.378 174.125 305.011 173.969 305.099 173.609Z" fill="#6F4975"/>
<path d="M288.294 168.705C288.264 168.474 288.117 168.264 287.894 168.198C287.578 168.104 287.348 168.351 287.313 168.581C287.264 168.907 287.497 169.135 287.728 169.161C287.959 169.187 288.341 169.073 288.294 168.705Z" fill="#6F4975"/>
<path d="M284.374 173.758C284.344 173.528 284.197 173.318 283.974 173.252C283.658 173.158 283.428 173.405 283.393 173.635C283.344 173.961 283.577 174.189 283.808 174.215C284.04 174.241 284.421 174.126 284.374 173.758Z" fill="#6F4975"/>
<path d="M305.325 186.21C305.38 185.983 305.549 185.792 305.778 185.75C306.102 185.692 306.304 185.962 306.313 186.195C306.326 186.525 306.069 186.726 305.837 186.726C305.604 186.726 305.237 186.57 305.325 186.21Z" fill="#6F4975"/>
<path d="M289.32 190.993C289.265 190.767 289.095 190.575 288.866 190.533C288.542 190.475 288.341 190.746 288.332 190.978C288.318 191.308 288.575 191.509 288.808 191.509C289.04 191.509 289.407 191.353 289.32 190.993Z" fill="#6F4975"/>
<path d="M285.525 185.717C285.47 185.491 285.3 185.299 285.071 185.258C284.747 185.2 284.546 185.47 284.537 185.703C284.524 186.032 284.78 186.233 285.013 186.233C285.246 186.233 285.612 186.078 285.525 185.717Z" fill="#6F4975"/>
<path d="M294.194 193.055C294.296 192.636 294.611 192.281 295.035 192.204C295.636 192.096 296.009 192.597 296.026 193.028C296.05 193.639 295.575 194.012 295.143 194.012C294.712 194.012 294.032 193.723 294.194 193.055Z" fill="#6F4975"/>
<path d="M280.89 179.767C280.991 179.348 281.306 178.993 281.73 178.916C282.331 178.808 282.704 179.309 282.721 179.74C282.745 180.351 282.27 180.723 281.838 180.723C281.407 180.723 280.728 180.435 280.89 179.767Z" fill="#6F4975"/>
<path d="M306.337 179.767C306.439 179.348 306.753 178.993 307.178 178.916C307.778 178.808 308.151 179.309 308.168 179.74C308.192 180.351 307.717 180.723 307.286 180.723C306.854 180.723 306.175 180.435 306.337 179.767Z" fill="#6F4975"/>
<path d="M345.242 197.631C345.037 197.631 344.829 197.628 344.62 197.624C338.945 197.496 333.48 195.192 330.002 191.46C327.164 188.414 325.771 184.56 325.975 180.315C326.517 169.051 332.432 162.706 343.557 161.455C348.155 160.938 352.398 162.285 355.828 165.35C357.793 167.107 359.422 169.395 360.539 171.967C361.63 174.479 362.207 177.193 362.207 179.816C362.207 182.514 361.821 185.013 361.059 187.242C360.231 189.668 358.973 191.716 357.322 193.331C354.403 196.186 350.341 197.631 345.242 197.631Z" fill="#E28569"/>
<path d="M327.363 180.276C327.777 171.651 331.715 164.195 343.599 162.858C354.071 161.681 360.819 171.178 360.819 179.813C360.819 188.448 356.479 196.524 344.581 196.257C335.948 196.062 326.881 190.296 327.363 180.276Z" fill="#BED5DC"/>
<path d="M344.583 179.746L344.577 179.774C344.522 180.011 344.45 180.456 344.213 180.402L335.5 178.14C335.263 178.086 335.115 177.85 335.17 177.613L335.176 177.585C335.23 177.348 335.467 177.2 335.703 177.254L344.097 179.193C344.334 179.247 344.638 179.509 344.583 179.746Z" fill="#6F4975"/>
<path d="M344.09 180.025C343.934 179.935 343.881 179.736 343.971 179.58L349.394 170.187C349.484 170.032 349.683 169.978 349.839 170.068C349.994 170.158 350.048 170.357 349.958 170.513L344.717 179.983C344.627 180.138 344.246 180.115 344.09 180.025Z" fill="#6F4975"/>
<path d="M343.183 179.813C343.183 179.267 343.625 178.824 344.171 178.824C344.717 178.824 345.159 179.267 345.159 179.813C345.159 180.359 344.717 180.801 344.171 180.801C343.625 180.801 343.183 180.359 343.183 179.813Z" fill="#503156"/>
<path d="M343.599 179.813C343.599 179.497 343.855 179.241 344.171 179.241C344.487 179.241 344.743 179.497 344.743 179.813C344.743 180.129 344.487 180.385 344.171 180.385C343.855 180.385 343.599 180.129 343.599 179.813Z" fill="#E28569"/>
<path d="M343.107 166.364C343.208 165.945 343.523 165.589 343.947 165.513C344.548 165.405 344.921 165.906 344.938 166.337C344.962 166.948 344.487 167.32 344.055 167.32C343.624 167.32 342.944 167.032 343.107 166.364Z" fill="#6F4975"/>
<path d="M350.673 168.154C350.728 167.928 350.898 167.736 351.126 167.695C351.451 167.636 351.652 167.907 351.661 168.139C351.674 168.469 351.418 168.67 351.185 168.67C350.952 168.67 350.585 168.514 350.673 168.154Z" fill="#6F4975"/>
<path d="M350.442 191.484C350.497 191.258 350.667 191.066 350.896 191.025C351.22 190.966 351.421 191.237 351.431 191.469C351.444 191.799 351.187 192 350.954 192C350.722 192 350.355 191.844 350.442 191.484Z" fill="#6F4975"/>
<path d="M354.011 173.609C354.066 173.383 354.235 173.191 354.464 173.15C354.788 173.091 354.99 173.362 354.999 173.594C355.012 173.924 354.755 174.125 354.523 174.125C354.29 174.125 353.923 173.969 354.011 173.609Z" fill="#6F4975"/>
<path d="M337.206 168.705C337.177 168.474 337.029 168.264 336.806 168.198C336.491 168.104 336.261 168.351 336.226 168.581C336.176 168.907 336.409 169.135 336.641 169.161C336.872 169.187 337.253 169.073 337.206 168.705Z" fill="#6F4975"/>
<path d="M333.287 173.758C333.257 173.528 333.11 173.318 332.887 173.252C332.571 173.158 332.341 173.405 332.307 173.635C332.257 173.961 332.49 174.189 332.721 174.215C332.953 174.241 333.334 174.126 333.287 173.758Z" fill="#6F4975"/>
<path d="M354.237 186.21C354.292 185.983 354.461 185.792 354.69 185.75C355.014 185.692 355.216 185.962 355.225 186.195C355.238 186.525 354.982 186.726 354.749 186.726C354.516 186.726 354.149 186.57 354.237 186.21Z" fill="#6F4975"/>
<path d="M338.233 190.993C338.178 190.767 338.008 190.575 337.779 190.533C337.455 190.475 337.254 190.746 337.245 190.978C337.231 191.308 337.488 191.509 337.721 191.509C337.954 191.509 338.32 191.353 338.233 190.993Z" fill="#6F4975"/>
<path d="M334.438 185.717C334.383 185.491 334.213 185.299 333.984 185.258C333.66 185.2 333.459 185.47 333.449 185.703C333.436 186.032 333.693 186.233 333.925 186.233C334.158 186.233 334.525 186.078 334.438 185.717Z" fill="#6F4975"/>
<path d="M343.107 193.055C343.208 192.636 343.523 192.281 343.947 192.204C344.548 192.096 344.921 192.597 344.938 193.028C344.962 193.639 344.487 194.012 344.055 194.012C343.624 194.012 342.944 193.723 343.107 193.055Z" fill="#6F4975"/>
<path d="M329.803 179.767C329.905 179.348 330.219 178.993 330.643 178.916C331.244 178.808 331.617 179.309 331.634 179.74C331.658 180.351 331.183 180.723 330.752 180.723C330.32 180.723 329.641 180.435 329.803 179.767Z" fill="#6F4975"/>
<path d="M355.25 179.767C355.352 179.348 355.666 178.993 356.091 178.916C356.691 178.808 357.064 179.309 357.081 179.74C357.106 180.351 356.63 180.723 356.199 180.723C355.768 180.723 355.088 180.435 355.25 179.767Z" fill="#6F4975"/>
<path d="M394.156 197.631C393.95 197.631 393.743 197.628 393.534 197.624C387.858 197.496 382.393 195.192 378.916 191.46C376.077 188.414 374.685 184.56 374.889 180.315C375.43 169.051 381.346 162.706 392.47 161.455C397.068 160.938 401.311 162.285 404.741 165.35C406.706 167.107 408.335 169.395 409.452 171.967C410.544 174.479 411.121 177.193 411.121 179.816C411.121 182.514 410.734 185.013 409.973 187.242C409.145 189.668 407.887 191.716 406.235 193.331C403.316 196.186 399.254 197.631 394.156 197.631Z" fill="#E28569"/>
<path d="M376.276 180.276C376.69 171.651 380.628 164.195 392.512 162.858C402.984 161.681 409.732 171.178 409.732 179.813C409.732 188.448 405.392 196.524 393.494 196.257C384.861 196.062 375.794 190.296 376.276 180.276Z" fill="#BED5DC"/>
<path d="M392.828 179.732C392.922 179.667 393.338 179.416 393.403 179.51L399.69 189.345C399.755 189.44 399.731 189.57 399.636 189.635C399.541 189.7 399.412 189.676 399.347 189.581L392.774 180.022C392.709 179.927 392.733 179.797 392.828 179.732Z" fill="#6F4975"/>
<path d="M393.133 179.976L393.111 179.994C392.924 180.149 392.595 180.458 392.44 180.27L386.907 173.17C386.752 172.983 386.779 172.705 386.966 172.551L386.988 172.532C387.176 172.378 387.453 172.404 387.608 172.591L393.085 179.241C393.24 179.428 393.321 179.821 393.133 179.976Z" fill="#6F4975"/>
<path d="M392.096 179.813C392.096 179.267 392.538 178.824 393.084 178.824C393.63 178.824 394.072 179.267 394.072 179.813C394.072 180.359 393.63 180.801 393.084 180.801C392.538 180.801 392.096 180.359 392.096 179.813Z" fill="#503156"/>
<path d="M392.512 179.813C392.512 179.497 392.768 179.241 393.084 179.241C393.4 179.241 393.656 179.497 393.656 179.813C393.656 180.129 393.4 180.385 393.084 180.385C392.768 180.385 392.512 180.129 392.512 179.813Z" fill="#E28569"/>
<path d="M392.02 166.364C392.122 165.945 392.436 165.589 392.861 165.513C393.461 165.405 393.834 165.906 393.852 166.337C393.876 166.948 393.4 167.32 392.969 167.32C392.538 167.32 391.858 167.032 392.02 166.364Z" fill="#6F4975"/>
<path d="M399.586 168.154C399.641 167.928 399.811 167.736 400.039 167.695C400.363 167.636 400.565 167.907 400.574 168.139C400.587 168.469 400.331 168.67 400.098 168.67C399.865 168.67 399.499 168.514 399.586 168.154Z" fill="#6F4975"/>
<path d="M399.356 191.484C399.411 191.258 399.581 191.066 399.81 191.025C400.133 190.966 400.335 191.237 400.344 191.469C400.357 191.799 400.101 192 399.868 192C399.635 192 399.268 191.844 399.356 191.484Z" fill="#6F4975"/>
<path d="M402.924 173.609C402.979 173.383 403.148 173.191 403.377 173.15C403.701 173.091 403.903 173.362 403.912 173.594C403.925 173.924 403.668 174.125 403.436 174.125C403.203 174.125 402.836 173.969 402.924 173.609Z" fill="#6F4975"/>
<path d="M386.12 168.705C386.091 168.474 385.943 168.264 385.72 168.198C385.404 168.104 385.175 168.351 385.14 168.581C385.09 168.907 385.323 169.135 385.554 169.161C385.786 169.187 386.167 169.073 386.12 168.705Z" fill="#6F4975"/>
<path d="M382.2 173.758C382.17 173.528 382.023 173.318 381.8 173.252C381.484 173.158 381.254 173.405 381.22 173.635C381.17 173.961 381.403 174.189 381.634 174.215C381.865 174.241 382.247 174.126 382.2 173.758Z" fill="#6F4975"/>
<path d="M403.15 186.21C403.205 185.983 403.375 185.792 403.604 185.75C403.928 185.692 404.129 185.962 404.139 186.195C404.152 186.525 403.895 186.726 403.662 186.726C403.43 186.726 403.063 186.57 403.15 186.21Z" fill="#6F4975"/>
<path d="M387.145 190.993C387.09 190.767 386.92 190.575 386.691 190.533C386.367 190.475 386.166 190.746 386.157 190.978C386.144 191.308 386.4 191.509 386.633 191.509C386.866 191.509 387.232 191.353 387.145 190.993Z" fill="#6F4975"/>
<path d="M383.351 185.717C383.296 185.491 383.127 185.299 382.897 185.258C382.574 185.2 382.372 185.47 382.363 185.703C382.35 186.032 382.606 186.233 382.839 186.233C383.072 186.233 383.439 186.078 383.351 185.717Z" fill="#6F4975"/>
<path d="M392.02 193.055C392.122 192.636 392.436 192.281 392.861 192.204C393.461 192.096 393.834 192.597 393.852 193.028C393.876 193.639 393.4 194.012 392.969 194.012C392.538 194.012 391.858 193.723 392.02 193.055Z" fill="#6F4975"/>
<path d="M378.716 179.767C378.818 179.348 379.132 178.993 379.556 178.916C380.157 178.808 380.53 179.309 380.547 179.74C380.572 180.351 380.096 180.723 379.665 180.723C379.233 180.723 378.554 180.435 378.716 179.767Z" fill="#6F4975"/>
<path d="M404.163 179.767C404.264 179.348 404.579 178.993 405.003 178.916C405.604 178.808 405.977 179.309 405.994 179.74C406.018 180.351 405.543 180.723 405.111 180.723C404.68 180.723 404.001 180.435 404.163 179.767Z" fill="#6F4975"/>
<path d="M365.465 231.98C366.046 229.521 364.523 227.057 362.064 226.476C359.606 225.896 357.142 227.418 356.561 229.877C355.98 232.336 357.503 234.8 359.962 235.38C362.421 235.961 364.885 234.438 365.465 231.98Z" fill="#EF8062"/>
<path d="M327.129 234.141C328.916 232.354 328.916 229.458 327.129 227.672C325.343 225.885 322.446 225.885 320.66 227.672C318.873 229.458 318.873 232.354 320.66 234.141C322.446 235.927 325.343 235.927 327.129 234.141Z" fill="#EF8062"/>
<path d="M401.34 234.141C403.127 232.354 403.127 229.458 401.34 227.672C399.554 225.885 396.657 225.885 394.871 227.672C393.084 229.458 393.084 232.354 394.871 234.141C396.657 235.927 399.554 235.927 401.34 234.141Z" fill="#EF8062"/>
<path d="M364.235 253.709C366.021 251.923 366.021 249.026 364.235 247.24C362.448 245.453 359.552 245.453 357.765 247.24C355.979 249.026 355.979 251.923 357.765 253.709C359.552 255.496 362.448 255.496 364.235 253.709Z" fill="#EF8062"/>
<path d="M328.357 251.549C328.937 249.09 327.415 246.626 324.956 246.046C322.497 245.465 320.033 246.988 319.453 249.446C318.872 251.905 320.395 254.369 322.853 254.95C325.312 255.53 327.776 254.008 328.357 251.549Z" fill="#EF8062"/>
<path d="M402.572 251.552C403.153 249.093 401.63 246.629 399.171 246.049C396.712 245.468 394.249 246.991 393.668 249.449C393.087 251.908 394.61 254.372 397.069 254.953C399.528 255.533 401.991 254.011 402.572 251.552Z" fill="#EF8062"/>
<path d="M365.464 271.12C366.044 268.661 364.522 266.198 362.063 265.617C359.604 265.036 357.14 266.559 356.56 269.018C355.979 271.477 357.502 273.94 359.96 274.521C362.419 275.102 364.883 273.579 365.464 271.12Z" fill="#EF8062"/>
<path d="M327.129 273.279C328.915 271.492 328.916 268.596 327.129 266.809C325.343 265.023 322.446 265.023 320.66 266.809C318.873 268.596 318.873 271.492 320.66 273.279C322.446 275.065 325.343 275.065 327.129 273.279Z" fill="#EF8062"/>
<path d="M401.34 273.28C403.127 271.493 403.127 268.597 401.34 266.81C399.554 265.024 396.657 265.024 394.871 266.81C393.084 268.597 393.084 271.493 394.871 273.28C396.657 275.066 399.554 275.066 401.34 273.28Z" fill="#EF8062"/>
<path d="M364.234 292.849C366.021 291.063 366.021 288.166 364.234 286.38C362.448 284.593 359.551 284.593 357.765 286.38C355.978 288.166 355.979 291.062 357.765 292.849C359.551 294.635 362.448 294.636 364.234 292.849Z" fill="#EF8062"/>
<path d="M328.355 290.69C328.935 288.231 327.413 285.767 324.954 285.186C322.495 284.606 320.031 286.128 319.451 288.587C318.87 291.046 320.393 293.51 322.851 294.09C325.31 294.671 327.774 293.148 328.355 290.69Z" fill="#EF8062"/>
<path d="M288.517 235.129C290.851 234.162 291.96 231.486 290.993 229.152C290.026 226.818 287.35 225.709 285.016 226.676C282.681 227.643 281.573 230.319 282.54 232.653C283.507 234.988 286.183 236.096 288.517 235.129Z" fill="#EF8062"/>
<path d="M291.281 251.206C291.685 248.712 289.992 246.362 287.498 245.957C285.004 245.553 282.654 247.246 282.249 249.74C281.845 252.234 283.538 254.584 286.032 254.989C288.526 255.393 290.876 253.7 291.281 251.206Z" fill="#EF8062"/>
<path d="M288.517 274.27C290.851 273.303 291.96 270.627 290.993 268.292C290.026 265.958 287.35 264.85 285.016 265.817C282.681 266.784 281.573 269.46 282.54 271.794C283.507 274.128 286.183 275.237 288.517 274.27Z" fill="#EF8062"/>
<path d="M291.281 290.346C291.685 287.852 289.992 285.502 287.498 285.097C285.004 284.692 282.654 286.386 282.249 288.88C281.845 291.374 283.538 293.724 286.032 294.128C288.526 294.533 290.876 292.84 291.281 290.346Z" fill="#EF8062"/>
<path d="M402.57 290.692C403.151 288.234 401.628 285.77 399.169 285.189C396.71 284.609 394.247 286.131 393.666 288.59C393.085 291.049 394.608 293.513 397.067 294.093C399.526 294.674 401.989 293.151 402.57 290.692Z" fill="#EF8062"/>
<path d="M161.213 248.43C158.895 247.829 156.809 249.908 156.009 252.196C152.841 261.267 146.778 282.617 144.072 282.65C142.304 282.672 142.747 280.085 138.78 280.053C135.575 280.027 135.127 282.941 133.454 283.17C131.044 283.5 131.285 282.592 129.017 281.941C125.584 280.955 124.43 285.535 121.803 284.661C119.177 283.788 116.827 280.431 113.02 283.628C110.504 285.739 109.287 290.103 107 307.235C105.66 317.269 107.876 343.711 108.176 349.031C108.363 349.239 138.606 353.404 148.526 351.522C152.892 342.956 162.01 319.137 163.129 312.25C163.744 308.465 164.186 303.854 157.782 297.898C158.785 285.64 170.242 250.777 161.213 248.43Z" fill="#FFB27D"/>
<path d="M158.036 308.2L157.357 308.28C156.931 304.655 157.418 298.146 157.439 297.871L158.12 297.923C158.115 297.99 157.617 304.641 158.036 308.2Z" fill="#F59A6D"/>
<path d="M162.313 256.016C161.723 256.49 160.292 256.48 159.121 256.169C158.001 255.871 157.323 255.357 157.261 254.758C157.111 253.325 158.73 250.842 158.818 250.708C158.926 250.532 159.153 250.44 159.51 250.424C160.566 250.378 162.848 251.093 163.129 251.477C163.458 251.927 163.171 254.876 162.463 255.86C162.422 255.917 162.372 255.969 162.313 256.016ZM159.103 250.822C159.088 250.834 159.076 250.848 159.067 250.862L159.064 250.867C159.047 250.892 157.412 253.389 157.552 254.728C157.6 255.192 158.215 255.625 159.196 255.886C160.487 256.229 161.904 256.137 162.225 255.689C162.914 254.732 163.094 251.925 162.893 251.65C162.733 251.432 160.638 250.668 159.523 250.716C159.325 250.725 159.177 250.763 159.103 250.822Z" fill="#F59A6D"/>
<path d="M150.836 346.593C135.595 348.02 106.573 336.979 106.573 336.979C106.573 336.979 100.202 361.672 94.5586 391.185C104.38 393.501 123.541 388.977 158.12 388.977L155.195 345.894C153.811 346.224 152.352 346.452 150.836 346.593Z" fill="#764678"/>
<path d="M372.205 283.259C372.205 283.259 375.318 259.625 373.315 257.761C369.451 254.166 367.685 266.043 367.685 266.043L372.205 283.259Z" fill="#FFB27D"/>
<path d="M383.536 323.023C380.766 315.126 379.284 309.442 377.46 304.014C372.962 290.628 359.967 266.58 347.54 265.953C335.112 265.326 319.091 278.606 321.919 283.648C324.746 288.689 343.255 281.822 346.929 284.175C350.604 286.528 347.174 309.241 344.002 309.523C340.83 309.804 330.517 291.695 324.022 296.167C324.022 296.167 320.369 298.679 326.337 308.658C329.569 314.064 331.604 324.32 338.839 333.219C341.686 336.72 345.652 341.892 348.151 343.636C352.428 346.623 385.053 327.351 383.536 323.023Z" fill="#FFB27D"/>
<path d="M375.79 299.529C375.79 299.529 371.646 271.399 362.969 262.284C354.293 253.169 346.859 248.236 343.365 252.187C339.871 256.139 353.552 275.38 353.552 275.38L375.79 299.529Z" fill="#FFB27D"/>
<path d="M380.146 312.977C378.539 302.51 364.445 247.257 360.869 246.091C353.941 243.832 357.857 264.462 357.857 264.462L380.146 312.977Z" fill="#FFB27D"/>
<path d="M344.002 309.522C344.002 309.522 331.102 293.788 324.95 294.065C318.798 294.342 325.713 307.524 332.594 322.296C339.474 337.068 352.29 316.816 344.002 309.522Z" fill="#FFB27D"/>
<path d="M362.036 278.905C362.08 278.928 362.13 278.938 362.182 278.933C362.319 278.917 362.418 278.793 362.402 278.655C361.882 274.106 360.181 270.669 357.347 268.44C353.044 265.057 347.733 265.676 347.509 265.704C347.372 265.721 347.274 265.846 347.291 265.984C347.309 266.121 347.433 266.218 347.571 266.201C347.624 266.194 352.907 265.582 357.042 268.837C359.765 270.98 361.401 274.303 361.905 278.712C361.915 278.797 361.966 278.867 362.036 278.905Z" fill="#E9845C"/>
<path d="M367.765 278.466C367.809 278.489 367.86 278.5 367.913 278.494C368.05 278.477 368.148 278.352 368.131 278.215C368.122 278.141 367.223 270.754 365.768 266.585C365.149 264.812 363.485 262.525 360.823 259.789C358.85 257.762 357.032 256.228 357.014 256.213C356.909 256.124 356.751 256.138 356.661 256.243C356.572 256.349 356.586 256.507 356.692 256.596C356.763 256.656 363.871 262.671 365.295 266.75C366.732 270.869 367.625 278.201 367.634 278.275C367.644 278.36 367.696 278.429 367.765 278.466Z" fill="#E9845C"/>
<path d="M323.977 279.679C324.356 279.881 325.233 280.21 326.599 279.94C328.426 279.579 330.349 277.025 330.431 276.917C330.513 276.806 330.491 276.649 330.38 276.567C330.269 276.483 330.112 276.507 330.03 276.617C330.011 276.642 328.14 279.125 326.502 279.449C324.899 279.766 324.103 279.176 324.07 279.151C323.962 279.068 323.804 279.087 323.72 279.196C323.635 279.304 323.654 279.46 323.762 279.545C323.772 279.553 323.844 279.608 323.977 279.679Z" fill="#E9845C"/>
<path d="M351.321 255.608C352.662 256.322 353.867 256.575 353.942 256.59C354.078 256.618 354.21 256.53 354.237 256.395C354.265 256.259 354.177 256.127 354.042 256.1C354.015 256.094 351.364 255.534 349.629 253.753C349.532 253.654 349.374 253.652 349.275 253.749C349.176 253.845 349.174 254.004 349.27 254.103C349.899 254.748 350.628 255.24 351.321 255.608Z" fill="#E9845C"/>
<path d="M357.916 335.578C344.604 343.634 340.796 347.327 340.796 347.327C345.201 365.427 349.449 394.848 349.449 394.848L417.67 389.742C417.67 389.742 398.747 345.309 385.723 320.552C375.274 326.166 371.817 327.166 357.916 335.578Z" fill="#764678"/>
</g>
</g>
<defs>
<clipPath id="clip0_6343_3202">
<rect width="500" height="500" fill="white"/>
</clipPath>
</defs>
</svg>
