<svg width="500" height="500" viewBox="0 0 500 500" fill="none" xmlns="http://www.w3.org/2000/svg">
<g clip-path="url(#clip0_6343_1880)">
<path d="M500 0H0V500H500V0Z" fill="white"/>
<path d="M364.212 275.021L362.723 175.109H362.669V164.365L305.35 168.683V175.787H305.356L304.468 264.895H310.567L309.678 175.787H355.551L354.071 275.021H364.212Z" fill="#EAEAEA"/>
<path d="M214.117 204.163L210.019 74.4459H211.718V70.8369H188.931V74.4459H190.943L187.432 204.163H214.117Z" fill="#EAEAEA"/>
<path d="M174.669 232.195L171.768 102.479H172.971V98.8701H156.837V102.479H158.262L155.775 232.195H174.669Z" fill="#EAEAEA"/>
<path d="M246.256 152.928L241.294 186.165L211.233 152.928L206.582 184.088L178.399 152.928L173.437 186.165L143.376 152.928L138.415 186.165L108.353 152.928L103.392 186.165L73.3311 152.928L68.3691 186.165V318.892H103.392H138.415H173.437H206.271H208.46H241.294H276.317V186.165L246.256 152.928Z" fill="#CCCCCC"/>
<path d="M108.841 319.556H364.435V280.785H333.871L327.915 300.06C327.178 302.444 324.975 304.069 322.479 304.069H149.412C146.647 304.069 144.139 302.445 143.01 299.922L134.44 280.785H108.842L108.841 319.556Z" fill="#B7B7B7"/>
<path d="M441.639 312.957H60.7021V319.556H441.639V312.957Z" fill="#AAAAAA"/>
<path d="M149.209 241.401C149.209 243.133 147.805 244.538 146.072 244.538C144.339 244.538 142.935 243.134 142.935 241.401C142.935 239.669 144.34 238.264 146.072 238.264C147.805 238.265 149.209 239.669 149.209 241.401Z" fill="#353434"/>
<path d="M166.32 241.401C166.32 243.133 164.916 244.538 163.183 244.538C161.451 244.538 160.046 243.134 160.046 241.401C160.046 239.669 161.451 238.264 163.183 238.264C164.915 238.265 166.32 239.669 166.32 241.401Z" fill="#353434"/>
<path d="M178.617 241.401C178.617 243.133 177.212 244.538 175.48 244.538C173.748 244.538 172.343 243.134 172.343 241.401C172.343 239.669 173.747 238.264 175.48 238.264C177.212 238.265 178.617 239.669 178.617 241.401Z" fill="#353434"/>
<path d="M261.729 233.587H244.03H205.082V234.318H210.199V251.981H249.147H260.877H299.824V234.318H300.677V233.587H261.729Z" fill="#32438B"/>
<path d="M299.824 234.318H300.677V233.587H293.417V251.981H299.824V234.318Z" fill="#445AA0"/>
<path d="M133.729 220.83H133.15V241.976H133.729V220.83Z" fill="#32438B"/>
<path d="M217.162 235.049H214.117V245.769H217.162V235.049Z" fill="#F5FBFF"/>
<path d="M222.644 235.049H219.599V245.769H222.644V235.049Z" fill="#F5FBFF"/>
<path d="M227.924 235.049H224.878V245.769H227.924V235.049Z" fill="#F5FBFF"/>
<path d="M233.406 235.049H230.36V245.769H233.406V235.049Z" fill="#F5FBFF"/>
<path d="M256.11 235.049H253.064V245.769H256.11V235.049Z" fill="#F5FBFF"/>
<path d="M261.592 235.049H258.546V245.769H261.592V235.049Z" fill="#F5FBFF"/>
<path d="M266.872 235.049H263.826V245.769H266.872V235.049Z" fill="#F5FBFF"/>
<path d="M272.354 235.049H269.309V245.769H272.354V235.049Z" fill="#F5FBFF"/>
<path d="M217.162 235.049H216.162V245.769H217.162V235.049Z" fill="white"/>
<path d="M222.644 235.049H221.644V245.769H222.644V235.049Z" fill="white"/>
<path d="M227.924 235.049H226.924V245.769H227.924V235.049Z" fill="white"/>
<path d="M233.406 235.049H232.406V245.769H233.406V235.049Z" fill="white"/>
<path d="M256.11 235.049H255.11V245.769H256.11V235.049Z" fill="white"/>
<path d="M261.592 235.049H260.592V245.769H261.592V235.049Z" fill="white"/>
<path d="M266.872 235.049H265.872V245.769H266.872V235.049Z" fill="white"/>
<path d="M272.353 235.049H271.353V245.769H272.353V235.049Z" fill="white"/>
<path d="M230.628 209.972H235.029V201.518H230.628V200.07H222.174V201.518H217.773V209.972H222.174V225.132H211.172V233.587H222.174H230.628H241.631V225.132H230.628V209.972Z" fill="#87C8F9"/>
<path d="M298.919 225.132H249.828V233.587H298.919V225.132Z" fill="#87C8F9"/>
<path d="M230.628 209.973H227.628V225.133H230.628V209.973Z" fill="#A9DCFC"/>
<path d="M235.029 201.519H232.029V209.974H235.029V201.519Z" fill="#A9DCFC"/>
<path d="M241.631 225.133H238.631V233.588H241.631V225.133Z" fill="#A9DCFC"/>
<path d="M298.919 225.133H295.919V233.588H298.919V225.133Z" fill="#A9DCFC"/>
<path d="M235.029 200.128H217.773V201.518H235.029V200.128Z" fill="#3B9BFF"/>
<path d="M235.029 200.128H232.029V201.518H235.029V200.128Z" fill="#76BEFF"/>
<path d="M229.875 187.592C229.461 187.592 229.123 187.253 229.123 186.839V184.581C229.123 184.167 229.462 183.828 229.875 183.828C230.289 183.828 230.628 184.167 230.628 184.581V186.839C230.628 187.253 230.29 187.592 229.875 187.592Z" fill="#32438B"/>
<path d="M229.886 185.902L133.183 221.318L133.267 221.546L229.97 186.131L229.886 185.902Z" fill="#32438B"/>
<path d="M222.174 200.07H230.628V185.87H229.109L222.174 200.07Z" fill="#3B9BFF"/>
<path d="M310.753 249.434H256.465V251.564H310.753V249.434Z" fill="#3B9BFF"/>
<path d="M310.753 249.434H307.753V251.564H310.753V249.434Z" fill="#76BEFF"/>
<path d="M349.598 234.865L348.611 233.713L310.782 266.123L311.769 267.275L349.598 234.865Z" fill="#32438B"/>
<path d="M348.654 234.026L230.562 186.667L230.47 186.897L348.562 234.256L348.654 234.026Z" fill="#32438B"/>
<path d="M132.346 241.401L154.066 289.899C155.07 292.141 157.296 293.584 159.753 293.584H313.464C315.68 293.584 317.637 292.14 318.291 290.023L330.21 251.453H136.847L132.346 241.401Z" fill="#3B9BFF"/>
<path d="M318.557 251.453L306.515 291.09C306.211 292.086 305.676 292.93 305.003 293.584H313.463C315.679 293.584 317.636 292.14 318.29 290.023L330.209 251.453H318.557Z" fill="#76BEFF"/>
<path d="M132.346 241.401L136.845 251.453H189.207L185.388 241.401H132.346Z" fill="#F5FBFF"/>
<path d="M185.388 241.401H181.388L185.207 251.453H189.207L185.388 241.401Z" fill="white"/>
<path d="M258.728 245.688H222.644V251.453H258.728V245.688Z" fill="#87C8F9"/>
<path d="M258.728 245.688H255.728V251.453H258.728V245.688Z" fill="#A9DCFC"/>
<path d="M279.278 261.338C279.278 264.31 276.869 266.719 273.897 266.719C270.924 266.719 268.515 264.31 268.515 261.338C268.515 258.366 270.924 255.956 273.897 255.956C276.869 255.956 279.278 258.366 279.278 261.338Z" fill="#32438B"/>
<path d="M273.897 255.956C273.591 255.956 273.294 255.988 273.003 256.036C275.549 256.463 277.49 258.671 277.49 261.338C277.49 264.005 275.549 266.212 273.003 266.639C273.294 266.688 273.591 266.719 273.897 266.719C276.869 266.719 279.278 264.31 279.278 261.338C279.278 258.366 276.869 255.956 273.897 255.956Z" fill="#445AA0"/>
<path d="M277.702 261.338C277.702 263.44 275.998 265.143 273.897 265.143C271.795 265.143 270.091 263.44 270.091 261.338C270.091 259.236 271.795 257.532 273.897 257.532C275.998 257.532 277.702 259.236 277.702 261.338Z" fill="#CAE6FF"/>
<path d="M276.969 263.565C277.425 262.938 277.702 262.172 277.702 261.337C277.702 260.502 277.425 259.736 276.969 259.109C277.339 259.761 277.565 260.518 277.565 261.337C277.564 262.156 277.339 262.914 276.969 263.565Z" fill="#DEF1FF"/>
<path d="M263.197 261.338C263.197 264.31 260.788 266.719 257.815 266.719C254.843 266.719 252.434 264.31 252.434 261.338C252.434 258.366 254.843 255.956 257.815 255.956C260.788 255.956 263.197 258.366 263.197 261.338Z" fill="#32438B"/>
<path d="M257.815 255.956C257.51 255.956 257.213 255.988 256.922 256.036C259.467 256.463 261.409 258.671 261.409 261.338C261.409 264.005 259.467 266.212 256.922 266.639C257.213 266.688 257.51 266.719 257.815 266.719C260.788 266.719 263.197 264.31 263.197 261.338C263.197 258.366 260.788 255.956 257.815 255.956Z" fill="#445AA0"/>
<path d="M261.621 261.338C261.621 263.44 259.917 265.143 257.815 265.143C255.713 265.143 254.01 263.44 254.01 261.338C254.01 259.236 255.713 257.532 257.815 257.532C259.917 257.532 261.621 259.236 261.621 261.338Z" fill="#CAE6FF"/>
<path d="M260.888 263.565C261.344 262.938 261.621 262.172 261.621 261.337C261.621 260.502 261.344 259.736 260.888 259.109C261.258 259.761 261.483 260.518 261.483 261.337C261.482 262.156 261.258 262.914 260.888 263.565Z" fill="#DEF1FF"/>
<path d="M295.359 261.338C295.359 264.31 292.95 266.719 289.978 266.719C287.006 266.719 284.597 264.31 284.597 261.338C284.597 258.366 287.006 255.956 289.978 255.956C292.95 255.956 295.359 258.366 295.359 261.338Z" fill="#32438B"/>
<path d="M289.978 255.956C289.673 255.956 289.376 255.988 289.085 256.036C291.631 256.463 293.572 258.671 293.572 261.338C293.572 264.005 291.631 266.212 289.085 266.639C289.376 266.688 289.674 266.719 289.978 266.719C292.95 266.719 295.359 264.31 295.359 261.338C295.359 258.366 292.95 255.956 289.978 255.956Z" fill="#445AA0"/>
<path d="M293.783 261.338C293.783 263.44 292.08 265.143 289.978 265.143C287.877 265.143 286.173 263.44 286.173 261.338C286.173 259.236 287.876 257.532 289.978 257.532C292.08 257.532 293.783 259.236 293.783 261.338Z" fill="#CAE6FF"/>
<path d="M293.051 263.565C293.507 262.938 293.783 262.172 293.783 261.337C293.783 260.502 293.507 259.736 293.051 259.109C293.42 259.761 293.646 260.518 293.646 261.337C293.645 262.156 293.42 262.914 293.051 263.565Z" fill="#DEF1FF"/>
<path d="M211.843 261.338C211.843 264.31 209.434 266.719 206.462 266.719C203.49 266.719 201.081 264.31 201.081 261.338C201.081 258.366 203.49 255.956 206.462 255.956C209.434 255.956 211.843 258.366 211.843 261.338Z" fill="#32438B"/>
<path d="M206.461 255.956C206.156 255.956 205.859 255.988 205.568 256.036C208.114 256.463 210.055 258.671 210.055 261.338C210.055 264.005 208.114 266.212 205.568 266.639C205.859 266.688 206.156 266.719 206.461 266.719C209.433 266.719 211.842 264.31 211.842 261.338C211.843 258.366 209.434 255.956 206.461 255.956Z" fill="#445AA0"/>
<path d="M210.267 261.338C210.267 263.44 208.563 265.143 206.462 265.143C204.361 265.143 202.657 263.44 202.657 261.338C202.657 259.236 204.361 257.532 206.462 257.532C208.563 257.532 210.267 259.236 210.267 261.338Z" fill="#CAE6FF"/>
<path d="M209.534 263.565C209.99 262.938 210.267 262.172 210.267 261.337C210.267 260.502 209.99 259.736 209.534 259.109C209.904 259.761 210.129 260.518 210.129 261.337C210.128 262.156 209.904 262.914 209.534 263.565Z" fill="#DEF1FF"/>
<path d="M195.761 261.338C195.761 264.31 193.352 266.719 190.38 266.719C187.408 266.719 184.999 264.31 184.999 261.338C184.999 258.366 187.408 255.956 190.38 255.956C193.352 255.956 195.761 258.366 195.761 261.338Z" fill="#32438B"/>
<path d="M190.38 255.956C190.075 255.956 189.778 255.988 189.486 256.036C192.032 256.463 193.974 258.671 193.974 261.338C193.974 264.005 192.032 266.212 189.486 266.639C189.778 266.688 190.074 266.719 190.38 266.719C193.352 266.719 195.761 264.31 195.761 261.338C195.761 258.366 193.352 255.956 190.38 255.956Z" fill="#445AA0"/>
<path d="M194.185 261.338C194.185 263.44 192.481 265.143 190.38 265.143C188.278 265.143 186.575 263.44 186.575 261.338C186.575 259.236 188.279 257.532 190.38 257.532C192.481 257.532 194.185 259.236 194.185 261.338Z" fill="#CAE6FF"/>
<path d="M193.452 263.565C193.908 262.938 194.185 262.172 194.185 261.337C194.185 260.502 193.908 259.736 193.452 259.109C193.822 259.761 194.047 260.518 194.047 261.337C194.047 262.156 193.822 262.914 193.452 263.565Z" fill="#DEF1FF"/>
<path d="M227.924 261.338C227.924 264.31 225.514 266.719 222.543 266.719C219.571 266.719 217.162 264.31 217.162 261.338C217.162 258.366 219.571 255.956 222.543 255.956C225.515 255.956 227.924 258.366 227.924 261.338Z" fill="#32438B"/>
<path d="M222.543 255.956C222.238 255.956 221.941 255.988 221.649 256.036C224.195 256.463 226.137 258.671 226.137 261.338C226.137 264.005 224.195 266.212 221.649 266.639C221.941 266.688 222.237 266.719 222.543 266.719C225.515 266.719 227.924 264.31 227.924 261.338C227.924 258.366 225.515 255.956 222.543 255.956Z" fill="#445AA0"/>
<path d="M226.348 261.338C226.348 263.44 224.644 265.143 222.543 265.143C220.441 265.143 218.738 263.44 218.738 261.338C218.738 259.236 220.442 257.532 222.543 257.532C224.644 257.532 226.348 259.236 226.348 261.338Z" fill="#CAE6FF"/>
<path d="M225.615 263.565C226.071 262.938 226.348 262.172 226.348 261.337C226.348 260.502 226.071 259.736 225.615 259.109C225.985 259.761 226.21 260.518 226.21 261.337C226.21 262.156 225.985 262.914 225.615 263.565Z" fill="#DEF1FF"/>
<path d="M231.747 153.408L229.398 147.217L224.596 149.039C223.44 147.207 221.956 145.659 220.255 144.44L222.388 139.699L216.349 136.982L214.211 141.733C212.187 141.279 210.063 141.199 207.944 141.546L206.076 136.623L199.885 138.972L201.753 143.895C199.949 145.034 198.42 146.491 197.21 148.161L192.367 145.982L189.65 152.021L194.467 154.188C194.005 156.198 193.914 158.309 194.241 160.416L189.291 162.294L191.64 168.485L196.541 166.625C197.673 168.451 199.127 169.998 200.8 171.225L198.65 176.003L204.689 178.72L206.81 174.004C208.848 174.485 210.991 174.583 213.129 174.25L214.961 179.079L221.152 176.73L219.339 171.95C221.192 170.801 222.759 169.32 223.995 167.616L228.671 169.72L231.388 163.681L226.738 161.589C227.211 159.537 227.297 157.381 226.944 155.23L231.747 153.408ZM214.065 167.199C208.902 169.158 203.13 166.561 201.171 161.398C199.212 156.235 201.81 150.462 206.972 148.503C212.135 146.545 217.907 149.142 219.866 154.304C221.825 159.467 219.227 165.24 214.065 167.199Z" fill="#32438B"/>
<path opacity="0.25" d="M231.747 153.408L229.398 147.217L224.596 149.039C223.44 147.207 221.956 145.659 220.255 144.44L222.388 139.699L216.349 136.982L214.211 141.734C213.802 141.643 213.387 141.577 212.97 141.516C215.255 143.825 217.116 146.624 218.343 149.857C218.745 150.916 219.038 151.987 219.283 153.061C219.5 153.459 219.701 153.869 219.867 154.305C220.855 156.908 220.681 159.665 219.608 162.011C218.865 166.797 216.676 171.264 213.34 174.801L214.963 179.08L221.154 176.731L219.341 171.951C221.194 170.802 222.761 169.321 223.997 167.617L228.673 169.721L231.39 163.682L226.74 161.59C227.213 159.538 227.299 157.382 226.946 155.231L231.747 153.408Z" fill="#32438B"/>
<path d="M191.127 176.957L190.04 172.041L186.227 172.884C185.559 171.379 184.612 170.051 183.466 168.947L185.591 165.615L181.346 162.907L179.216 166.247C177.743 165.683 176.154 165.389 174.522 165.417L173.658 161.508L168.743 162.595L169.607 166.504C168.125 167.162 166.815 168.091 165.721 169.214L162.317 167.043L159.609 171.287L162.995 173.447C162.426 174.908 162.126 176.486 162.141 178.107L158.211 178.976L159.298 183.892L163.19 183.032C163.841 184.529 164.765 185.854 165.888 186.96L163.746 190.318L167.99 193.025L170.104 189.711C171.584 190.297 173.185 190.606 174.831 190.59L175.679 194.424L180.595 193.337L179.756 189.542C181.276 188.881 182.618 187.939 183.735 186.793L187.021 188.889L189.729 184.644L186.461 182.56C187.042 181.068 187.344 179.455 187.315 177.799L191.127 176.957ZM176.31 185.389C172.211 186.295 168.154 183.707 167.247 179.608C166.341 175.509 168.929 171.452 173.028 170.545C177.127 169.639 181.184 172.227 182.091 176.326C182.997 180.425 180.409 184.482 176.31 185.389Z" fill="#3B9BFF"/>
<path d="M191.126 176.956L190.039 172.041L186.226 172.884C185.558 171.379 184.611 170.051 183.465 168.947L185.59 165.615L181.345 162.907L179.215 166.247C178.918 166.133 178.612 166.038 178.306 165.947C179.771 167.934 180.864 170.245 181.431 172.812C181.617 173.653 181.72 174.491 181.786 175.326C181.906 175.649 182.012 175.98 182.089 176.326C182.546 178.393 182.112 180.448 181.047 182.095C179.962 185.614 177.825 188.733 174.926 191.028L175.677 194.426L180.593 193.339L179.754 189.544C181.274 188.883 182.616 187.941 183.733 186.795L187.019 188.891L189.727 184.646L186.459 182.562C187.04 181.07 187.342 179.457 187.313 177.801L191.126 176.956Z" fill="#76BEFF"/>
<path d="M133.291 276.704L132.885 274.868L131.461 275.182C131.212 274.619 130.857 274.123 130.43 273.711L131.224 272.466L129.639 271.455L128.843 272.702C128.293 272.492 127.699 272.382 127.089 272.392L126.766 270.932L124.93 271.338L125.253 272.798C124.699 273.044 124.21 273.391 123.801 273.811L122.529 273L121.518 274.585L122.783 275.393C122.571 275.939 122.458 276.528 122.464 277.133L120.996 277.458L121.402 279.294L122.856 278.973C123.099 279.533 123.444 280.027 123.864 280.441L123.064 281.695L124.649 282.707L125.439 281.469C125.992 281.688 126.59 281.803 127.205 281.797L127.522 283.23L129.358 282.824L129.045 281.406C129.612 281.16 130.114 280.807 130.531 280.38L131.759 281.163L132.77 279.577L131.549 278.799C131.766 278.241 131.879 277.639 131.868 277.02L133.291 276.704ZM127.756 279.853C126.225 280.192 124.709 279.225 124.371 277.694C124.033 276.163 124.999 274.647 126.531 274.308C128.062 273.97 129.578 274.937 129.916 276.468C130.254 278 129.288 279.516 127.756 279.853Z" fill="#088AFF"/>
<path d="M133.291 276.704L132.885 274.868L131.461 275.182C131.212 274.619 130.857 274.123 130.43 273.711L131.224 272.466L129.639 271.455L128.843 272.702C128.732 272.66 128.617 272.624 128.503 272.591C129.05 273.333 129.459 274.196 129.67 275.156C129.739 275.469 129.778 275.783 129.803 276.094C129.847 276.215 129.887 276.338 129.916 276.468C130.087 277.239 129.925 278.007 129.527 278.622C129.122 279.937 128.323 281.102 127.24 281.959L127.521 283.229L129.357 282.823L129.044 281.405C129.611 281.159 130.113 280.806 130.53 280.379L131.758 281.162L132.769 279.576L131.548 278.798C131.765 278.24 131.878 277.638 131.867 277.019L133.291 276.704Z" fill="#088AFF"/>
<path d="M356.019 181.23L355.416 178.504L353.303 178.971C352.932 178.137 352.408 177.401 351.773 176.789L352.951 174.942L350.598 173.441L349.416 175.293C348.6 174.98 347.719 174.817 346.814 174.833L346.335 172.666L343.609 173.268L344.089 175.435C343.267 175.8 342.541 176.315 341.935 176.938L340.047 175.734L338.547 178.087L340.424 179.284C340.108 180.095 339.942 180.969 339.95 181.867L337.771 182.349L338.373 185.074L340.531 184.597C340.891 185.427 341.404 186.161 342.026 186.775L340.838 188.637L343.191 190.138L344.363 188.301C345.183 188.626 346.071 188.797 346.983 188.788L347.454 190.913L350.179 190.31L349.714 188.206C350.557 187.84 351.301 187.318 351.919 186.682L353.741 187.844L355.242 185.491L353.43 184.335C353.752 183.508 353.919 182.614 353.904 181.696L356.019 181.23ZM347.805 185.905C345.533 186.407 343.283 184.972 342.781 182.7C342.279 180.428 343.714 178.179 345.986 177.676C348.258 177.173 350.507 178.609 351.01 180.881C351.512 183.153 350.077 185.402 347.805 185.905Z" fill="#088AFF"/>
<path d="M356.019 181.23L355.416 178.504L353.303 178.971C352.932 178.137 352.408 177.401 351.773 176.789L352.951 174.942L350.598 173.441L349.416 175.293C349.251 175.229 349.082 175.177 348.912 175.126C349.725 176.228 350.33 177.509 350.644 178.932C350.747 179.398 350.804 179.863 350.841 180.326C350.906 180.505 350.966 180.688 351.009 180.88C351.262 182.026 351.022 183.165 350.431 184.078C349.829 186.029 348.645 187.758 347.038 189.03L347.455 190.913L350.18 190.31L349.715 188.206C350.558 187.84 351.302 187.318 351.92 186.682L353.742 187.844L355.243 185.491L353.431 184.335C353.753 183.508 353.92 182.614 353.905 181.696L356.019 181.23Z" fill="#088AFF"/>
<path d="M378.944 154.08L377.314 149.783L373.982 151.048C373.179 149.777 372.149 148.702 370.968 147.857L372.448 144.567L368.257 142.681L366.774 145.979C365.369 145.664 363.895 145.608 362.424 145.849L361.128 142.432L356.831 144.062L358.127 147.479C356.875 148.269 355.814 149.281 354.975 150.439L351.614 148.927L349.728 153.118L353.072 154.622C352.751 156.017 352.687 157.482 352.915 158.944L349.479 160.247L351.11 164.544L354.511 163.254C355.296 164.521 356.306 165.595 357.466 166.446L355.975 169.761L360.165 171.647L361.638 168.374C363.052 168.709 364.539 168.775 366.024 168.545L367.296 171.896L371.593 170.266L370.334 166.949C371.62 166.152 372.708 165.124 373.565 163.941L376.81 165.401L378.695 161.21L375.468 159.758C375.796 158.334 375.856 156.838 375.611 155.345L378.944 154.08ZM366.674 163.651C363.091 165.01 359.084 163.208 357.725 159.625C356.366 156.042 358.168 152.036 361.751 150.677C365.334 149.318 369.34 151.12 370.699 154.703C372.059 158.285 370.257 162.292 366.674 163.651Z" fill="#32438B"/>
<path opacity="0.25" d="M378.944 154.08L377.314 149.783L373.982 151.048C373.179 149.777 372.149 148.702 370.968 147.857L372.448 144.567L368.257 142.681L366.774 145.979C366.49 145.916 366.202 145.87 365.913 145.828C367.499 147.43 368.791 149.373 369.642 151.616C369.921 152.351 370.124 153.095 370.294 153.84C370.445 154.116 370.585 154.401 370.699 154.704C371.385 156.51 371.264 158.424 370.519 160.052C370.003 163.373 368.485 166.473 366.168 168.929L367.295 171.899L371.592 170.269L370.333 166.952C371.619 166.155 372.707 165.127 373.564 163.944L376.809 165.404L378.694 161.213L375.467 159.761C375.795 158.337 375.855 156.841 375.61 155.348L378.944 154.08Z" fill="#32438B"/>
<path d="M410.078 182.598L406.619 176.668L402.02 179.351C400.525 177.675 398.744 176.346 396.795 175.39L398.166 170.178L391.528 168.431L390.153 173.655C388.005 173.536 385.82 173.817 383.713 174.534L380.962 169.819L375.032 173.278L377.783 177.993C376.133 179.466 374.819 181.217 373.866 183.131L368.542 181.73L366.795 188.369L372.091 189.762C371.961 191.897 372.229 194.07 372.923 196.168L368.183 198.934L371.642 204.864L376.336 202.126C377.805 203.799 379.557 205.133 381.476 206.102L380.093 211.354L386.732 213.101L388.096 207.917C390.262 208.062 392.47 207.795 394.6 207.089L397.298 211.714L403.227 208.255L400.557 203.677C402.255 202.186 403.606 200.404 404.578 198.451L409.718 199.803L411.465 193.164L406.354 191.819C406.487 189.64 406.207 187.421 405.48 185.281L410.078 182.598ZM394.353 199.718C389.408 202.602 383.062 200.932 380.177 195.987C377.293 191.043 378.963 184.697 383.907 181.812C388.851 178.928 395.198 180.598 398.082 185.542C400.968 190.488 399.297 196.834 394.353 199.718Z" fill="#3B9BFF"/>
<path d="M405.479 185.281L410.078 182.598L406.619 176.668L402.02 179.351C400.525 177.675 398.744 176.346 396.795 175.39L398.166 170.178L391.528 168.431L390.153 173.655C388.347 173.555 386.518 173.756 384.728 174.242C391.23 175.032 397.003 179.48 399.135 186.125C402.056 195.227 397.045 204.974 387.943 207.895C385.565 208.658 383.145 208.868 380.813 208.617L380.092 211.353L386.731 213.1L388.095 207.916C390.261 208.061 392.469 207.794 394.599 207.088L397.297 211.713L403.226 208.254L400.556 203.676C402.254 202.185 403.605 200.403 404.577 198.45L409.717 199.802L411.464 193.163L406.353 191.818C406.486 189.64 406.206 187.42 405.479 185.281Z" fill="#76BEFF"/>
<path d="M378.601 243.218C360.427 243.218 345.364 262.639 342.604 288.042L345.609 301.35C346.714 306.246 348.201 311.023 350.289 315.396C356.566 328.541 362.405 328.121 371.906 331.076C384.216 331.076 392.553 332.329 402.258 321.142C407.302 315.327 410.674 307.615 412.338 299.316L414.599 288.043C411.838 262.64 396.774 243.218 378.601 243.218Z" fill="#493927"/>
<path d="M368.613 330.217C368.404 331.298 368.256 332.415 368.256 333.593V352.788C368.256 359.597 372.001 369.705 376.578 369.705H380.621C385.198 369.705 388.943 359.597 388.943 352.788V333.593C388.943 331.894 388.71 330.273 388.288 328.794C382.942 330.565 377.427 331.522 371.904 331.522C370.824 331.12 369.722 330.681 368.613 330.217Z" fill="#8E6842"/>
<path d="M378.601 258.54C361.094 258.54 346.902 276.192 346.902 297.968C346.902 307.231 349.488 315.729 353.786 322.458C359.594 331.549 368.541 337.397 378.601 337.397C388.717 337.397 397.705 331.481 403.509 322.302C407.749 315.597 410.3 307.16 410.3 297.968C410.3 276.192 396.107 258.54 378.601 258.54Z" fill="#A0784D"/>
<path d="M361.309 291.791H371.941H374.232H391.995H394.826H412.912C410.281 267.578 395.924 249.067 378.602 249.067C361.28 249.067 346.922 267.578 344.291 291.791H359.383H361.309Z" fill="#493927"/>
<path d="M340.052 282.588C342.938 257.031 358.685 237.492 377.682 237.492C396.68 237.492 412.426 257.031 415.312 282.588" fill="#EAA813"/>
<path d="M392.547 241.775V263.487C392.547 265.937 390.872 267.941 388.826 267.941C386.779 267.941 385.105 265.937 385.105 263.487V238.534C382.702 237.867 380.224 237.492 377.681 237.492C374.973 237.492 372.341 237.93 369.792 238.686V263.488C369.792 265.938 368.118 267.942 366.072 267.942C364.025 267.942 362.351 265.938 362.351 263.488V242.057C350.71 249.264 342.107 264.376 340.05 282.588H415.31C413.228 264.135 404.423 248.864 392.547 241.775Z" fill="#F4B840"/>
<path d="M369.793 283.815V229.585C369.793 228.86 370.387 228.267 371.112 228.267H383.786C384.512 228.267 385.105 228.86 385.105 229.585V283.815C385.105 284.54 384.511 285.133 383.786 285.133H371.112C370.387 285.133 369.793 284.54 369.793 283.815Z" fill="#FFCE76"/>
<path d="M417.636 287.044H337.263C336.792 287.044 336.408 286.658 336.408 286.188V278.992C336.408 278.521 336.793 278.137 337.263 278.137H417.637C418.108 278.137 418.492 278.522 418.492 278.992V286.188C418.492 286.658 418.107 287.044 417.636 287.044Z" fill="#EAA813"/>
<path d="M457.576 409.518L439.398 368.653C431.81 360.56 415.96 353.771 399.805 350.585L378.864 368.732L357.786 350.585C341.968 353.756 326.166 360.47 318.591 368.374L318.488 368.272L299.928 409.519H457.576V409.518Z" fill="#32438B"/>
<path d="M396.577 376.163L399.806 350.583L391.715 345.272L378.865 368.73C379.182 368.638 396.577 376.163 396.577 376.163Z" fill="#445AA0"/>
<path d="M361.015 376.163L357.787 350.583L365.878 345.272L378.728 368.73C378.409 368.638 361.015 376.163 361.015 376.163Z" fill="#445AA0"/>
<path d="M232.623 340.785V391.475C232.623 394.581 230.105 397.1 226.998 397.1H151.416C148.31 397.1 145.791 394.581 145.791 391.475V340.785C145.791 337.68 148.309 335.161 151.416 335.161H226.998C230.104 335.161 232.623 337.68 232.623 340.785Z" fill="#088AFF"/>
<path d="M228.31 335.161H211.836V397.1H228.31C230.692 397.1 232.623 395.168 232.623 392.786V339.473C232.623 337.092 230.691 335.161 228.31 335.161Z" fill="#36A9FF"/>
<path d="M149.533 338.516V393.745H223.48V338.516H149.533Z" fill="#CAE6FF"/>
<path d="M223.48 338.518H211.835V393.747H223.48V338.518Z" fill="#DEF1FF"/>
<path d="M227.565 364.147C228.66 364.147 229.548 365.035 229.548 366.13C229.548 367.225 228.66 368.113 227.565 368.113C226.47 368.113 225.582 367.224 225.582 366.13C225.582 365.035 226.47 364.147 227.565 364.147Z" fill="#2E4480"/>
<path d="M225.582 366.131C225.582 366.325 225.619 366.509 225.67 366.686C225.911 365.863 226.663 365.257 227.565 365.257C228.466 365.257 229.218 365.862 229.46 366.686C229.512 366.509 229.548 366.326 229.548 366.131C229.548 365.035 228.66 364.148 227.565 364.148C226.47 364.147 225.582 365.035 225.582 366.131Z" fill="#38528E"/>
<path d="M216.175 347.021H156.466V348.586H216.175V347.021Z" fill="white"/>
<path d="M216.175 353.923H156.466V355.489H216.175V353.923Z" fill="white"/>
<path d="M216.175 360.823H156.466V362.389H216.175V360.823Z" fill="white"/>
<path d="M216.175 367.726H156.466V369.292H216.175V367.726Z" fill="white"/>
<path d="M216.175 373.86H156.466V375.426H216.175V373.86Z" fill="white"/>
<path d="M118.591 208.6C114.991 205.878 109.866 206.59 107.144 210.19C105.552 212.296 105.143 214.922 105.791 217.286L63.326 246.014L63.34 246.035C62.345 246.916 62.131 248.418 62.896 249.549C63.661 250.679 65.134 251.04 66.322 250.444L66.336 250.465L108.841 221.711C112.435 224.34 117.485 223.613 120.18 220.048C122.902 216.447 122.191 211.322 118.591 208.6ZM66.506 249.151C65.491 249.838 64.243 249.766 63.719 248.991C63.195 248.216 63.593 247.031 64.608 246.345C65.624 245.658 66.872 245.729 67.396 246.504C67.92 247.279 67.522 248.464 66.506 249.151ZM118.328 218.734L115.345 220.815L111.707 220.746L108.805 218.552L107.747 215.071L108.937 211.633L111.921 209.551L115.558 209.62L118.46 211.814L119.518 215.295L118.328 218.734Z" fill="#F4B840"/>
<path d="M119.574 209.489C121.382 212.29 121.361 216.031 119.233 218.845C116.538 222.409 111.488 223.137 107.894 220.508L67.5408 247.807C67.3888 248.305 67.0328 248.794 66.5058 249.151C65.8188 249.615 65.0298 249.725 64.4268 249.512C63.7958 249.571 63.1578 249.408 62.6328 249.041C62.7028 249.215 62.7868 249.386 62.8968 249.548C63.6618 250.678 65.1348 251.039 66.3228 250.443L66.3368 250.464L108.842 221.71C112.436 224.339 117.486 223.612 120.181 220.047C122.631 216.807 122.29 212.336 119.574 209.489Z" fill="#FFCE76"/>
<path d="M236.437 122.477L240.116 119.085C234.581 114.616 231.035 107.783 231.035 100.116C231.035 86.6486 241.952 75.7336 255.417 75.7336C268.882 75.7336 279.799 86.6486 279.799 100.116C279.799 107.783 276.253 114.615 270.718 119.085L274.397 122.477C280.732 117.094 284.764 109.081 284.764 100.116C284.764 83.9076 271.625 70.7686 255.417 70.7686C239.209 70.7686 226.07 83.9076 226.07 100.116C226.07 109.081 230.102 117.094 236.437 122.477Z" fill="#FFCE76"/>
<path d="M256.163 86.8467C248.022 86.8467 242.469 92.5707 242.469 100.674C242.469 102.706 242.907 104.976 243.922 107.172C245.853 111.353 248.534 118.017 249.173 120.747H263.229C264.318 116.565 266.989 110.981 268.922 106.318C269.742 104.34 270.17 102.139 270.17 100.381C270.17 92.7787 264.303 86.8467 256.163 86.8467Z" fill="#F4B840"/>
<path d="M249.12 105.466L248.396 105.62L253.13 127.891L253.854 127.738L249.12 105.466Z" fill="#F7BE59"/>
<path d="M262.553 106.204L261.815 106.14L259.823 128.823L260.561 128.888L262.553 106.204Z" fill="#F7BE59"/>
<path d="M248.742 105.827C252.51 109.713 258.481 110.025 262.092 106.523Z" fill="#F7BE59"/>
<path d="M262.552 131.01H249.878C249.878 133.698 251.798 135.963 254.425 136.685V137.343H254.759C254.931 137.701 255.313 137.953 255.758 137.953H256.856C257.301 137.953 257.683 137.701 257.855 137.343H258.189V136.632C260.722 135.856 262.552 133.634 262.552 131.01Z" fill="#EAA813"/>
<path d="M263.946 120.746H248.742V131.849H263.946V120.746Z" fill="#EAA813"/>
<path d="M248.602 126.054C248.026 126.082 247.582 126.541 247.613 127.08C247.643 127.618 248.135 128.032 248.712 128.004L260.717 127.415L248.602 126.054Z" fill="#F4B942"/>
<path d="M248.59 122.426C248.014 122.464 247.58 122.929 247.62 123.468C247.66 124.006 248.16 124.411 248.736 124.374L260.728 123.593L248.59 122.426Z" fill="#F4B942"/>
<path d="M263.646 124.102L251.543 125.543L263.55 126.052C264.128 126.076 264.615 125.66 264.644 125.121C264.67 124.583 264.224 124.127 263.646 124.102Z" fill="#F4B942"/>
<path d="M263.628 127.897L251.547 129.495L263.563 129.849C264.14 129.867 264.623 129.443 264.64 128.904C264.658 128.365 264.206 127.914 263.628 127.897Z" fill="#F4B942"/>
<path opacity="0.5" d="M270.17 100.381C270.17 92.7787 264.303 86.8467 256.163 86.8467C255.354 86.8467 254.58 86.9177 253.825 87.0277C260.74 88.0357 265.526 93.5207 265.526 100.381C265.526 102.138 265.097 104.339 264.277 106.318C262.343 110.981 259.672 116.565 258.585 120.747H259.301V131.85H257.836C257.511 133.979 255.971 135.731 253.895 136.499C254.07 136.564 254.242 136.635 254.425 136.686V137.344H254.759C254.931 137.702 255.313 137.954 255.758 137.954H256.856C257.301 137.954 257.683 137.702 257.855 137.344H258.189V136.633C260.446 135.943 262.136 134.1 262.48 131.851H263.946V120.748H263.229C264.318 116.566 266.989 110.982 268.922 106.319C269.742 104.34 270.17 102.139 270.17 100.381Z" fill="#FFCE76"/>
<path d="M281.62 235.772V193.166C281.62 186.575 288.469 181.241 296.933 181.241H334.34" stroke="#43B7FF" stroke-width="2" stroke-miterlimit="10"/>
<path d="M277.419 275.887V351.789C277.419 363.531 284.268 373.033 292.732 373.033H297.216" stroke="#43B7FF" stroke-width="2" stroke-miterlimit="10"/>
<path d="M162.152 262.797H107.446C98.9833 262.797 92.1343 255.948 92.1343 247.485V240.33" stroke="#43B7FF" stroke-width="2" stroke-miterlimit="10"/>
<path d="M189.117 271.241V329.098" stroke="#43B7FF" stroke-width="2" stroke-miterlimit="10"/>
<path d="M256.11 143.9V230.976" stroke="#43B7FF" stroke-width="2" stroke-miterlimit="10"/>
<path d="M199.255 185.568V245.566" stroke="#43B7FF" stroke-width="2" stroke-miterlimit="10"/>
</g>
<defs>
<clipPath id="clip0_6343_1880">
<rect width="500" height="500" fill="white"/>
</clipPath>
</defs>
</svg>
