<svg width="500" height="500" viewBox="0 0 500 500" fill="none" xmlns="http://www.w3.org/2000/svg">
<g clip-path="url(#clip0_6343_6052)">
<path d="M500 0H0V500H500V0Z" fill="white"/>
<path d="M275.98 242.318L321.581 174.427L253.53 219.92L185.48 174.427L231.08 242.318L185.48 310.209L253.53 264.715L321.581 310.209L275.98 242.318Z" fill="#656669"/>
<path d="M240.088 254.086L321.581 308.566L185.48 172.784L240.088 254.086Z" fill="#14294C"/>
<path d="M185.48 172.784L321.581 308.566L266.973 227.265L185.48 172.784Z" fill="#2E4160"/>
<path d="M240.088 227.265L185.48 308.566L321.581 172.784L240.088 227.265Z" fill="#14294C"/>
<path d="M321.581 172.784L185.48 308.566L266.973 254.086L321.581 172.784Z" fill="#2E4160"/>
<path d="M274.174 240.674C274.174 252.049 264.932 261.27 253.53 261.27C242.129 261.27 232.886 252.049 232.886 240.674C232.886 229.3 242.129 220.078 253.53 220.078C264.932 220.079 274.174 229.3 274.174 240.674Z" fill="#14294C"/>
<path d="M254.066 290.96C225.825 290.96 202.848 268.037 202.848 239.861C202.848 211.686 225.825 188.764 254.066 188.764C282.308 188.764 305.284 211.686 305.284 239.861C305.284 268.037 282.308 290.96 254.066 290.96ZM254.066 189.508C226.236 189.508 203.594 212.096 203.594 239.861C203.594 267.627 226.236 290.216 254.066 290.216C281.897 290.216 304.538 267.627 304.538 239.861C304.538 212.096 281.897 189.508 254.066 189.508Z" fill="#14294C"/>
<path d="M254.066 299.655C221.017 299.655 194.13 272.83 194.13 239.859C194.13 206.888 221.017 180.064 254.066 180.064C287.115 180.064 314.002 206.888 314.002 239.859C314.002 272.831 287.115 299.655 254.066 299.655ZM254.066 183.56C222.949 183.56 197.634 208.816 197.634 239.859C197.634 270.904 222.949 296.16 254.066 296.16C285.183 296.16 310.499 270.904 310.499 239.859C310.499 208.816 285.183 183.56 254.066 183.56Z" fill="#14294C"/>
<path d="M254.066 380.23C216.985 380.23 182.123 365.823 155.903 339.665C129.683 313.506 115.243 278.727 115.243 241.732C115.243 204.738 129.683 169.958 155.903 143.799C182.123 117.641 216.985 103.234 254.066 103.234C291.147 103.234 326.009 117.641 352.229 143.799C378.449 169.958 392.89 204.738 392.89 241.732C392.89 278.726 378.449 313.506 352.229 339.665C326.009 365.823 291.147 380.23 254.066 380.23ZM254.066 105.717C217.65 105.717 183.413 119.865 157.663 145.555C131.912 171.245 117.731 205.402 117.731 241.733C117.731 278.064 131.912 312.22 157.663 337.91C183.413 363.6 217.65 377.748 254.066 377.748C290.483 377.748 324.72 363.6 350.47 337.91C376.22 312.22 390.401 278.064 390.401 241.733C390.401 205.402 376.22 171.245 350.47 145.555C324.719 119.865 290.483 105.717 254.066 105.717Z" fill="#14294C"/>
<path d="M255.13 88.0576H253.001V104.476H255.13V88.0576Z" fill="#14294C"/>
<path d="M255.13 378.989H253.001V395.408H255.13V378.989Z" fill="#14294C"/>
<path d="M229.254 96.596L227.621 96.8848L229.355 106.695L230.988 106.406L229.254 96.596Z" fill="#14294C"/>
<path d="M278.761 376.745L277.127 377.033L278.861 386.843L280.494 386.555L278.761 376.745Z" fill="#14294C"/>
<path d="M206.232 113.038L202.817 103.676L204.376 103.11L207.791 112.472L206.232 113.038Z" fill="#14294C"/>
<path d="M303.757 380.357L300.341 370.996L301.9 370.43L305.315 379.791L303.757 380.357Z" fill="#14294C"/>
<path d="M184.559 123.28L179.566 114.652L181.002 113.825L185.995 122.452L184.559 123.28Z" fill="#14294C"/>
<path d="M327.131 369.641L322.138 361.014L323.575 360.187L328.567 368.814L327.131 369.641Z" fill="#14294C"/>
<path d="M164.997 137.12L158.578 129.488L159.849 128.425L166.268 136.056L164.997 137.12Z" fill="#14294C"/>
<path d="M348.284 355.041L341.866 347.409L343.136 346.346L349.555 353.977L348.284 355.041Z" fill="#14294C"/>
<path d="M148.142 154.141L140.493 147.737L141.559 146.47L149.209 152.873L148.142 154.141Z" fill="#14294C"/>
<path d="M366.575 336.997L358.925 330.594L359.991 329.326L367.641 335.73L366.575 336.997Z" fill="#14294C"/>
<path d="M134.506 173.821L125.857 168.84L126.687 167.407L135.335 172.388L134.506 173.821Z" fill="#14294C"/>
<path d="M381.448 316.06L372.8 311.078L373.629 309.646L382.277 314.626L381.448 316.06Z" fill="#14294C"/>
<path d="M124.501 195.566L115.118 192.159L115.685 190.604L125.068 194.011L124.501 195.566Z" fill="#14294C"/>
<path d="M392.449 292.862L383.066 289.454L383.633 287.899L393.017 291.307L392.449 292.862Z" fill="#14294C"/>
<path d="M108.887 215.356L108.601 216.986L118.434 218.715L118.721 217.085L108.887 215.356Z" fill="#14294C"/>
<path d="M389.699 264.743L389.412 266.373L399.246 268.102L399.533 266.472L389.699 264.743Z" fill="#14294C"/>
<path d="M116.489 240.67H100.031V242.794H116.489V240.67Z" fill="#14294C"/>
<path d="M408.105 240.671H391.647V242.795H408.105V240.671Z" fill="#14294C"/>
<path d="M118.449 264.757L108.615 266.494L108.903 268.124L118.736 266.386L118.449 264.757Z" fill="#14294C"/>
<path d="M399.272 215.346L389.439 217.083L389.727 218.713L399.56 216.975L399.272 215.346Z" fill="#14294C"/>
<path d="M115.685 292.862L115.118 291.307L124.502 287.898L125.069 289.453L115.685 292.862Z" fill="#14294C"/>
<path d="M383.633 195.565L383.066 194.01L392.449 190.603L393.017 192.158L383.633 195.565Z" fill="#14294C"/>
<path d="M126.688 316.058L125.858 314.624L134.506 309.644L135.335 311.077L126.688 316.058Z" fill="#14294C"/>
<path d="M373.629 173.819L372.8 172.386L381.448 167.405L382.277 168.838L373.629 173.819Z" fill="#14294C"/>
<path d="M141.56 336.995L140.494 335.728L148.143 329.324L149.209 330.592L141.56 336.995Z" fill="#14294C"/>
<path d="M359.993 154.139L358.927 152.871L366.576 146.468L367.643 147.735L359.993 154.139Z" fill="#14294C"/>
<path d="M159.85 355.039L158.579 353.975L164.998 346.343L166.269 347.406L159.85 355.039Z" fill="#14294C"/>
<path d="M343.137 137.117L341.866 136.054L348.284 128.422L349.555 129.486L343.137 137.117Z" fill="#14294C"/>
<path d="M181.003 369.641L179.567 368.813L184.559 360.185L185.996 361.012L181.003 369.641Z" fill="#14294C"/>
<path d="M323.576 123.276L322.139 122.448L327.132 113.822L328.568 114.65L323.576 123.276Z" fill="#14294C"/>
<path d="M204.377 380.355L202.818 379.789L206.233 370.427L207.792 370.993L204.377 380.355Z" fill="#14294C"/>
<path d="M301.901 113.035L300.343 112.469L303.758 103.108L305.316 103.674L301.901 113.035Z" fill="#14294C"/>
<path d="M229.365 376.763L227.639 386.576L229.273 386.863L230.999 377.05L229.365 376.763Z" fill="#14294C"/>
<path d="M278.876 96.6024L277.15 106.415L278.784 106.702L280.509 96.8897L278.876 96.6024Z" fill="#14294C"/>
<path d="M249.421 98.7565L248.712 98.7812L248.884 103.702L249.593 103.677L249.421 98.7565Z" fill="#14294C"/>
<path d="M259.255 379.762L258.545 379.787L258.718 384.708L259.427 384.683L259.255 379.762Z" fill="#14294C"/>
<path d="M244.424 99.0237L243.716 99.0732L244.06 103.984L244.768 103.935L244.424 99.0237Z" fill="#14294C"/>
<path d="M264.096 379.504L263.388 379.554L263.732 384.465L264.44 384.415L264.096 379.504Z" fill="#14294C"/>
<path d="M239.426 99.4423L238.72 99.5166L239.235 104.412L239.941 104.338L239.426 99.4423Z" fill="#14294C"/>
<path d="M268.876 379.069L268.17 379.144L268.686 384.04L269.392 383.966L268.876 379.069Z" fill="#14294C"/>
<path d="M234.457 100.018L233.754 100.117L234.441 104.991L235.143 104.892L234.457 100.018Z" fill="#14294C"/>
<path d="M273.677 378.454L272.974 378.553L273.661 383.429L274.364 383.33L273.677 378.454Z" fill="#14294C"/>
<path d="M224.934 106.703L223.909 101.887L224.603 101.74L225.629 106.556L224.934 106.703Z" fill="#14294C"/>
<path d="M283.185 376.748L282.491 376.896L283.517 381.711L284.211 381.563L283.185 376.748Z" fill="#14294C"/>
<path d="M220.228 107.799L219.035 103.024L219.724 102.853L220.917 107.628L220.228 107.799Z" fill="#14294C"/>
<path d="M288.409 380.614L287.215 375.837L287.904 375.666L289.097 380.442L288.409 380.614Z" fill="#14294C"/>
<path d="M215.564 109.06L214.204 104.327L214.886 104.132L216.246 108.864L215.564 109.06Z" fill="#14294C"/>
<path d="M293.246 379.334L291.885 374.6L292.568 374.405L293.929 379.139L293.246 379.334Z" fill="#14294C"/>
<path d="M210.945 110.481L209.421 105.8L210.096 105.581L211.62 110.263L210.945 110.481Z" fill="#14294C"/>
<path d="M298.035 377.886L296.51 373.203L297.185 372.984L298.71 377.667L298.035 377.886Z" fill="#14294C"/>
<path d="M201.874 113.801L200.025 109.236L200.683 108.971L202.532 113.536L201.874 113.801Z" fill="#14294C"/>
<path d="M307.449 374.494L305.601 369.929L306.259 369.664L308.107 374.229L307.449 374.494Z" fill="#14294C"/>
<path d="M197.43 115.697L195.424 111.2L196.073 110.912L198.079 115.409L197.43 115.697Z" fill="#14294C"/>
<path d="M312.061 372.554L310.053 368.056L310.702 367.768L312.709 372.265L312.061 372.554Z" fill="#14294C"/>
<path d="M193.056 117.745L190.893 113.321L191.531 113.011L193.694 117.435L193.056 117.745Z" fill="#14294C"/>
<path d="M316.602 370.456L314.438 366.03L315.076 365.72L317.24 370.145L316.602 370.456Z" fill="#14294C"/>
<path d="M188.755 119.946L186.44 115.599L187.067 115.267L189.382 119.613L188.755 119.946Z" fill="#14294C"/>
<path d="M321.066 368.2L318.749 363.853L319.376 363.521L321.693 367.868L321.066 368.2Z" fill="#14294C"/>
<path d="M180.4 124.788L177.785 120.612L178.387 120.236L181.003 124.412L180.4 124.788Z" fill="#14294C"/>
<path d="M329.747 363.229L327.131 359.053L327.733 358.678L330.349 362.853L329.747 363.229Z" fill="#14294C"/>
<path d="M176.354 127.423L173.595 123.342L174.184 122.946L176.942 127.027L176.354 127.423Z" fill="#14294C"/>
<path d="M333.951 360.519L331.191 356.438L331.779 356.042L334.539 360.124L333.951 360.519Z" fill="#14294C"/>
<path d="M172.402 130.198L169.502 126.216L170.077 125.8L172.976 129.782L172.402 130.198Z" fill="#14294C"/>
<path d="M338.057 357.666L335.156 353.683L335.73 353.267L338.631 357.25L338.057 357.666Z" fill="#14294C"/>
<path d="M168.55 133.109L165.513 129.231L166.072 128.795L169.109 132.674L168.55 133.109Z" fill="#14294C"/>
<path d="M342.061 354.672L339.023 350.792L339.582 350.356L342.62 354.236L342.061 354.672Z" fill="#14294C"/>
<path d="M161.164 139.325L157.862 135.666L158.39 135.192L161.692 138.851L161.164 139.325Z" fill="#14294C"/>
<path d="M349.744 348.273L346.441 344.614L346.969 344.14L350.272 347.799L349.744 348.273Z" fill="#14294C"/>
<path d="M157.638 142.623L154.211 139.082L154.721 138.59L158.149 142.131L157.638 142.623Z" fill="#14294C"/>
<path d="M353.413 344.877L349.984 341.335L350.495 340.843L353.924 344.385L353.413 344.877Z" fill="#14294C"/>
<path d="M154.229 146.041L150.681 142.621L151.174 142.111L154.722 145.531L154.229 146.041Z" fill="#14294C"/>
<path d="M356.96 341.355L353.41 337.935L353.903 337.426L357.454 340.845L356.96 341.355Z" fill="#14294C"/>
<path d="M150.942 149.576L147.277 146.281L147.752 145.755L151.417 149.05L150.942 149.576Z" fill="#14294C"/>
<path d="M360.381 337.711L356.714 334.417L357.19 333.891L360.856 337.185L360.381 337.711Z" fill="#14294C"/>
<path d="M144.751 156.976L140.863 153.944L141.3 153.387L145.188 156.418L144.751 156.976Z" fill="#14294C"/>
<path d="M366.835 330.079L362.945 327.047L363.382 326.489L367.272 329.52L366.835 330.079Z" fill="#14294C"/>
<path d="M141.852 160.833L137.861 157.939L138.278 157.366L142.27 160.26L141.852 160.833Z" fill="#14294C"/>
<path d="M369.856 326.098L365.864 323.205L366.281 322.632L370.273 325.525L369.856 326.098Z" fill="#14294C"/>
<path d="M139.09 164.79L135 162.037L135.398 161.45L139.488 164.204L139.09 164.79Z" fill="#14294C"/>
<path d="M372.738 322.015L368.646 319.263L369.042 318.676L373.135 321.428L372.738 322.015Z" fill="#14294C"/>
<path d="M136.469 168.841L132.286 166.231L132.662 165.631L136.845 168.24L136.469 168.841Z" fill="#14294C"/>
<path d="M375.473 317.836L371.289 315.226L371.665 314.626L375.85 317.236L375.473 317.836Z" fill="#14294C"/>
<path d="M131.659 177.202L127.303 174.891L127.636 174.266L131.993 176.577L131.659 177.202Z" fill="#14294C"/>
<path d="M380.499 309.201L376.142 306.89L376.475 306.265L380.833 308.576L380.499 309.201Z" fill="#14294C"/>
<path d="M129.476 181.503L125.042 179.345L125.353 178.708L129.788 180.867L129.476 181.503Z" fill="#14294C"/>
<path d="M382.783 304.758L378.347 302.599L378.658 301.962L383.094 304.121L382.783 304.758Z" fill="#14294C"/>
<path d="M127.445 185.877L122.938 183.874L123.227 183.228L127.734 185.23L127.445 185.877Z" fill="#14294C"/>
<path d="M384.909 300.237L380.4 298.235L380.689 297.588L385.197 299.59L384.909 300.237Z" fill="#14294C"/>
<path d="M125.568 190.32L120.994 188.475L121.26 187.818L125.834 189.664L125.568 190.32Z" fill="#14294C"/>
<path d="M386.875 295.646L382.3 293.801L382.566 293.145L387.141 294.99L386.875 295.646Z" fill="#14294C"/>
<path d="M122.287 199.387L117.595 197.865L117.814 197.191L122.507 198.714L122.287 199.387Z" fill="#14294C"/>
<path d="M390.321 286.273L385.628 284.752L385.847 284.078L390.541 285.599L390.321 286.273Z" fill="#14294C"/>
<path d="M120.886 204.001L116.143 202.645L116.339 201.964L121.081 203.321L120.886 204.001Z" fill="#14294C"/>
<path d="M387.254 279.462L387.06 280.143L391.803 281.5L391.998 280.82L387.254 279.462Z" fill="#14294C"/>
<path d="M115.032 206.785L114.861 207.473L119.648 208.664L119.819 207.977L115.032 206.785Z" fill="#14294C"/>
<path d="M393.104 276.682L388.315 275.492L388.487 274.805L393.276 275.995L393.104 276.682Z" fill="#14294C"/>
<path d="M113.894 211.642L113.747 212.335L118.573 213.36L118.72 212.667L113.894 211.642Z" fill="#14294C"/>
<path d="M394.241 271.82L389.414 270.795L389.562 270.103L394.389 271.127L394.241 271.82Z" fill="#14294C"/>
<path d="M112.13 221.476L112.031 222.178L116.918 222.863L117.016 222.162L112.13 221.476Z" fill="#14294C"/>
<path d="M391.216 260.607L391.117 261.309L396.004 261.994L396.102 261.293L391.216 260.607Z" fill="#14294C"/>
<path d="M111.502 226.424L111.428 227.128L116.335 227.644L116.409 226.939L111.502 226.424Z" fill="#14294C"/>
<path d="M391.779 255.819L391.705 256.523L396.612 257.039L396.686 256.335L391.779 255.819Z" fill="#14294C"/>
<path d="M111.069 231.402L111.02 232.108L115.942 232.452L115.991 231.746L111.069 231.402Z" fill="#14294C"/>
<path d="M392.22 251.018L392.17 251.725L397.093 252.068L397.142 251.361L392.22 251.018Z" fill="#14294C"/>
<path d="M110.786 236.374L110.761 237.082L115.691 237.255L115.716 236.547L110.786 236.374Z" fill="#14294C"/>
<path d="M392.43 246.188L392.406 246.896L397.337 247.067L397.362 246.359L392.43 246.188Z" fill="#14294C"/>
<path d="M115.696 246.2L110.764 246.372L110.788 247.08L115.72 246.908L115.696 246.2Z" fill="#14294C"/>
<path d="M397.354 236.387L392.421 236.56L392.446 237.267L397.378 237.095L397.354 236.387Z" fill="#14294C"/>
<path d="M115.931 251.023L111.008 251.367L111.058 252.074L115.98 251.73L115.931 251.023Z" fill="#14294C"/>
<path d="M397.082 231.417L392.158 231.761L392.208 232.467L397.131 232.123L397.082 231.417Z" fill="#14294C"/>
<path d="M116.329 255.818L111.423 256.334L111.497 257.038L116.403 256.522L116.329 255.818Z" fill="#14294C"/>
<path d="M396.65 226.426L391.742 226.945L391.816 227.65L396.724 227.13L396.65 226.426Z" fill="#14294C"/>
<path d="M116.912 260.6L112.026 261.288L112.125 261.989L117.01 261.301L116.912 260.6Z" fill="#14294C"/>
<path d="M395.992 221.475L391.106 222.163L391.205 222.864L396.091 222.176L395.992 221.475Z" fill="#14294C"/>
<path d="M113.893 271.819L113.746 271.126L118.572 270.103L118.72 270.795L113.893 271.819Z" fill="#14294C"/>
<path d="M389.563 213.361L389.415 212.668L394.242 211.645L394.39 212.337L389.563 213.361Z" fill="#14294C"/>
<path d="M119.643 274.811L114.856 276.007L115.028 276.694L119.815 275.498L119.643 274.811Z" fill="#14294C"/>
<path d="M388.487 208.66L388.315 207.973L393.104 206.783L393.276 207.47L388.487 208.66Z" fill="#14294C"/>
<path d="M116.339 281.501L116.143 280.82L120.886 279.463L121.082 280.144L116.339 281.501Z" fill="#14294C"/>
<path d="M387.249 204.001L387.054 203.32L391.797 201.963L391.993 202.643L387.249 204.001Z" fill="#14294C"/>
<path d="M117.814 286.272L117.595 285.598L122.287 284.078L122.506 284.752L117.814 286.272Z" fill="#14294C"/>
<path d="M385.847 199.386L385.628 198.712L390.32 197.191L390.54 197.865L385.847 199.386Z" fill="#14294C"/>
<path d="M121.26 295.645L120.994 294.989L125.569 293.145L125.836 293.801L121.26 295.645Z" fill="#14294C"/>
<path d="M382.566 190.318L382.3 189.661L386.876 187.817L387.142 188.474L382.566 190.318Z" fill="#14294C"/>
<path d="M123.227 300.237L122.938 299.59L127.447 297.587L127.735 298.234L123.227 300.237Z" fill="#14294C"/>
<path d="M380.689 185.877L380.4 185.23L384.909 183.228L385.197 183.875L380.689 185.877Z" fill="#14294C"/>
<path d="M125.353 304.756L125.042 304.12L129.477 301.962L129.788 302.599L125.353 304.756Z" fill="#14294C"/>
<path d="M378.659 181.502L378.348 180.866L382.783 178.707L383.095 179.344L378.659 181.502Z" fill="#14294C"/>
<path d="M127.637 309.2L127.304 308.575L131.66 306.265L131.994 306.89L127.637 309.2Z" fill="#14294C"/>
<path d="M376.476 177.2L376.143 176.575L380.499 174.264L380.832 174.889L376.476 177.2Z" fill="#14294C"/>
<path d="M132.662 317.834L132.286 317.234L136.471 314.625L136.847 315.226L132.662 317.834Z" fill="#14294C"/>
<path d="M371.665 168.839L371.289 168.238L375.474 165.629L375.851 166.23L371.665 168.839Z" fill="#14294C"/>
<path d="M135.398 322.014L135.001 321.427L139.092 318.675L139.488 319.262L135.398 322.014Z" fill="#14294C"/>
<path d="M369.042 164.789L368.646 164.202L372.738 161.449L373.135 162.036L369.042 164.789Z" fill="#14294C"/>
<path d="M138.278 326.097L137.861 325.525L141.853 322.631L142.27 323.204L138.278 326.097Z" fill="#14294C"/>
<path d="M366.282 160.833L365.864 160.26L369.857 157.365L370.275 157.938L366.282 160.833Z" fill="#14294C"/>
<path d="M141.301 330.077L140.864 329.518L144.752 326.488L145.189 327.047L141.301 330.077Z" fill="#14294C"/>
<path d="M363.384 156.974L362.947 156.417L366.834 153.387L367.271 153.944L363.384 156.974Z" fill="#14294C"/>
<path d="M147.752 337.71L147.277 337.183L150.944 333.889L151.419 334.415L147.752 337.71Z" fill="#14294C"/>
<path d="M357.191 149.573L356.716 149.047L360.382 145.752L360.857 146.279L357.191 149.573Z" fill="#14294C"/>
<path d="M151.175 341.352L150.682 340.843L154.232 337.424L154.725 337.933L151.175 341.352Z" fill="#14294C"/>
<path d="M353.902 146.039L353.41 145.529L356.961 142.109L357.454 142.619L353.902 146.039Z" fill="#14294C"/>
<path d="M154.722 344.874L154.211 344.382L157.639 340.841L158.15 341.333L154.722 344.874Z" fill="#14294C"/>
<path d="M350.496 142.622L349.986 142.13L353.414 138.588L353.925 139.08L350.496 142.622Z" fill="#14294C"/>
<path d="M158.391 348.271L157.863 347.797L161.165 344.139L161.693 344.613L158.391 348.271Z" fill="#14294C"/>
<path d="M346.97 139.323L346.443 138.849L349.744 135.192L350.272 135.666L346.97 139.323Z" fill="#14294C"/>
<path d="M166.073 354.669L165.513 354.234L168.552 350.354L169.111 350.79L166.073 354.669Z" fill="#14294C"/>
<path d="M339.583 133.108L339.024 132.672L342.062 128.792L342.622 129.228L339.583 133.108Z" fill="#14294C"/>
<path d="M170.078 357.665L169.503 357.248L172.404 353.266L172.979 353.682L170.078 357.665Z" fill="#14294C"/>
<path d="M335.73 130.198L335.156 129.781L338.058 125.798L338.632 126.215L335.73 130.198Z" fill="#14294C"/>
<path d="M174.184 360.518L173.596 360.122L176.355 356.042L176.944 356.438L174.184 360.518Z" fill="#14294C"/>
<path d="M331.781 127.422L331.192 127.026L333.951 122.943L334.54 123.339L331.781 127.422Z" fill="#14294C"/>
<path d="M178.388 363.228L177.786 362.853L180.401 358.678L181.003 359.053L178.388 363.228Z" fill="#14294C"/>
<path d="M327.734 124.785L327.132 124.41L329.747 120.236L330.349 120.612L327.734 124.785Z" fill="#14294C"/>
<path d="M187.067 368.198L186.44 367.865L188.758 363.518L189.385 363.85L187.067 368.198Z" fill="#14294C"/>
<path d="M319.377 119.944L318.75 119.611L321.067 115.264L321.694 115.596L319.377 119.944Z" fill="#14294C"/>
<path d="M191.533 370.454L190.895 370.143L193.058 365.719L193.696 366.029L191.533 370.454Z" fill="#14294C"/>
<path d="M315.076 117.745L314.438 117.434L316.603 113.008L317.241 113.318L315.076 117.745Z" fill="#14294C"/>
<path d="M196.073 372.552L195.425 372.265L197.432 367.768L198.081 368.056L196.073 372.552Z" fill="#14294C"/>
<path d="M310.704 115.694L310.055 115.406L312.062 110.908L312.711 111.196L310.704 115.694Z" fill="#14294C"/>
<path d="M200.685 374.492L200.027 374.227L201.876 369.663L202.534 369.929L200.685 374.492Z" fill="#14294C"/>
<path d="M306.259 113.799L305.601 113.533L307.45 108.971L308.108 109.236L306.259 113.799Z" fill="#14294C"/>
<path d="M210.097 377.884L209.422 377.665L210.947 372.982L211.622 373.201L210.097 377.884Z" fill="#14294C"/>
<path d="M297.187 110.479L296.512 110.26L298.037 105.577L298.712 105.796L297.187 110.479Z" fill="#14294C"/>
<path d="M214.888 379.332L214.206 379.137L215.566 374.404L216.248 374.6L214.888 379.332Z" fill="#14294C"/>
<path d="M292.568 109.059L291.886 108.863L293.247 104.13L293.929 104.325L292.568 109.059Z" fill="#14294C"/>
<path d="M219.725 380.611L219.036 380.44L220.23 375.663L220.919 375.834L219.725 380.611Z" fill="#14294C"/>
<path d="M287.906 107.799L287.217 107.627L288.411 102.85L289.1 103.021L287.906 107.799Z" fill="#14294C"/>
<path d="M224.938 376.761L223.915 381.576L224.609 381.724L225.632 376.908L224.938 376.761Z" fill="#14294C"/>
<path d="M283.198 106.701L282.503 106.554L283.531 101.74L284.225 101.888L283.198 106.701Z" fill="#14294C"/>
<path d="M234.442 378.455L233.758 383.332L234.461 383.431L235.145 378.554L234.442 378.455Z" fill="#14294C"/>
<path d="M273.665 100.03L272.981 104.906L273.684 105.005L274.368 100.129L273.665 100.03Z" fill="#14294C"/>
<path d="M239.261 379.055L238.748 383.952L239.454 384.026L239.967 379.129L239.261 379.055Z" fill="#14294C"/>
<path d="M268.708 99.4229L268.195 104.321L268.9 104.395L269.414 99.4969L268.708 99.4229Z" fill="#14294C"/>
<path d="M244.05 379.471L243.708 384.382L244.416 384.431L244.758 379.52L244.05 379.471Z" fill="#14294C"/>
<path d="M263.704 99.0008L263.362 103.913L264.07 103.962L264.412 99.0501L263.704 99.0008Z" fill="#14294C"/>
<path d="M248.892 379.771L248.721 384.689L249.431 384.714L249.602 379.795L248.892 379.771Z" fill="#14294C"/>
<path d="M258.724 98.7573L258.55 103.677L259.26 103.702L259.434 98.7823L258.724 98.7573Z" fill="#14294C"/>
<path d="M254.067 396.236C233.161 396.236 212.879 392.151 193.786 384.094C175.345 376.313 158.783 365.172 144.561 350.983C130.338 336.795 119.172 320.271 111.372 301.873C103.296 282.825 99.2012 262.591 99.2012 241.733C99.2012 220.876 103.296 200.642 111.372 181.594C119.172 163.196 130.338 146.673 144.561 132.484C158.783 118.295 175.345 107.155 193.786 99.3726C212.879 91.3157 233.161 87.2305 254.067 87.2305C274.974 87.2305 295.256 91.3157 314.349 99.3726C332.79 107.154 349.352 118.294 363.574 132.484C377.797 146.673 388.963 163.196 396.763 181.594C404.839 200.642 408.934 220.876 408.934 241.733C408.934 262.591 404.839 282.825 396.763 301.873C388.963 320.271 377.797 336.795 363.574 350.983C349.352 365.172 332.79 376.313 314.349 384.094C295.255 392.151 274.974 396.236 254.067 396.236ZM254.067 88.8854C233.384 88.8854 213.32 92.9267 194.432 100.897C176.188 108.595 159.804 119.616 145.733 133.654C131.663 147.691 120.616 164.038 112.9 182.239C104.911 201.082 100.86 221.099 100.86 241.733C100.86 262.368 104.911 282.385 112.9 301.229C120.616 319.43 131.663 335.776 145.733 349.813C159.804 363.851 176.188 374.872 194.432 382.57C213.32 390.54 233.384 394.581 254.067 394.581C274.751 394.581 294.815 390.54 313.703 382.57C331.947 374.872 348.331 363.851 362.402 349.813C376.472 335.776 387.519 319.43 395.236 301.229C403.225 282.386 407.275 262.368 407.275 241.733C407.275 221.099 403.225 201.082 395.236 182.239C387.519 164.037 376.472 147.691 362.402 133.654C348.331 119.616 331.947 108.595 313.703 100.897C294.815 92.9263 274.751 88.8854 254.067 88.8854Z" fill="#14294C"/>
<path d="M254.126 336.006H254.068C253.173 336.006 252.269 335.994 251.38 335.969C250.753 335.952 250.259 335.43 250.276 334.805C250.294 334.18 250.804 333.687 251.443 333.704C252.311 333.729 253.194 333.741 254.068 333.741H254.126C254.753 333.741 255.262 334.248 255.262 334.874C255.262 335.499 254.753 336.006 254.126 336.006ZM259.553 335.848C258.956 335.848 258.455 335.383 258.42 334.781C258.384 334.156 258.862 333.621 259.489 333.585C260.378 333.533 261.278 333.468 262.164 333.391C262.792 333.339 263.339 333.799 263.393 334.422C263.448 335.045 262.985 335.595 262.361 335.648C261.453 335.727 260.53 335.794 259.62 335.846C259.597 335.847 259.575 335.848 259.553 335.848ZM245.993 335.663C245.96 335.663 245.928 335.662 245.894 335.659C244.983 335.58 244.063 335.489 243.161 335.385C242.538 335.314 242.09 334.752 242.162 334.13C242.233 333.509 242.799 333.064 243.42 333.134C244.301 333.236 245.199 333.325 246.088 333.401C246.713 333.454 247.177 334.003 247.123 334.627C247.072 335.217 246.576 335.663 245.993 335.663ZM267.653 335.028C267.099 335.028 266.613 334.622 266.531 334.058C266.441 333.439 266.87 332.864 267.491 332.774C268.369 332.646 269.26 332.503 270.138 332.349C270.754 332.242 271.345 332.652 271.453 333.269C271.562 333.885 271.149 334.472 270.531 334.581C269.631 334.739 268.718 334.885 267.818 335.016C267.763 335.024 267.708 335.028 267.653 335.028ZM237.919 334.618C237.854 334.618 237.788 334.612 237.722 334.601C236.822 334.444 235.913 334.273 235.022 334.091C234.408 333.965 234.012 333.367 234.137 332.754C234.263 332.14 234.863 331.745 235.477 331.871C236.347 332.048 237.233 332.216 238.112 332.369C238.73 332.477 239.144 333.063 239.036 333.68C238.94 334.23 238.46 334.618 237.919 334.618ZM275.651 333.505C275.137 333.505 274.671 333.154 274.547 332.633C274.403 332.024 274.781 331.413 275.391 331.269C276.26 331.064 277.135 330.844 277.992 330.615C278.597 330.454 279.22 330.812 279.382 331.416C279.544 332.02 279.185 332.641 278.579 332.803C277.701 333.038 276.804 333.263 275.914 333.474C275.826 333.495 275.738 333.505 275.651 333.505ZM229.966 332.873C229.869 332.873 229.77 332.861 229.672 332.835C228.796 332.601 227.906 332.351 227.028 332.09C226.427 331.911 226.085 331.28 226.263 330.681C226.442 330.082 227.075 329.74 227.676 329.919C228.534 330.174 229.402 330.419 230.257 330.646C230.863 330.807 231.223 331.428 231.062 332.032C230.926 332.538 230.467 332.873 229.966 332.873ZM283.486 331.289C283.01 331.289 282.567 330.988 282.408 330.512C282.211 329.919 282.533 329.278 283.128 329.081C283.973 328.801 284.825 328.505 285.661 328.201C286.25 327.986 286.902 328.289 287.117 328.877C287.332 329.465 287.028 330.115 286.439 330.33C285.582 330.641 284.709 330.944 283.843 331.231C283.725 331.27 283.605 331.289 283.486 331.289ZM222.196 330.439C222.068 330.439 221.937 330.417 221.809 330.37C220.947 330.058 220.08 329.729 219.232 329.394C218.649 329.163 218.364 328.504 218.595 327.923C218.827 327.341 219.487 327.057 220.069 327.288C220.897 327.615 221.743 327.936 222.584 328.241C223.173 328.454 223.478 329.105 223.264 329.693C223.096 330.152 222.66 330.439 222.196 330.439ZM291.086 328.398C290.647 328.398 290.229 328.143 290.043 327.715C289.794 327.141 290.059 326.474 290.634 326.226C291.451 325.873 292.272 325.505 293.073 325.131C293.641 324.866 294.317 325.111 294.583 325.678C294.848 326.245 294.603 326.919 294.035 327.184C293.214 327.567 292.373 327.944 291.536 328.305C291.389 328.368 291.236 328.398 291.086 328.398ZM214.656 327.326C214.496 327.326 214.332 327.292 214.177 327.22C213.349 326.834 212.515 326.431 211.698 326.022C211.138 325.741 210.912 325.06 211.193 324.501C211.475 323.942 212.157 323.717 212.718 323.997C213.515 324.397 214.329 324.79 215.137 325.166C215.705 325.43 215.951 326.104 215.686 326.671C215.493 327.084 215.084 327.326 214.656 327.326ZM298.398 324.858C297.994 324.858 297.603 324.643 297.398 324.264C297.1 323.714 297.305 323.026 297.857 322.729C298.638 322.308 299.424 321.869 300.193 321.425C300.736 321.112 301.43 321.297 301.744 321.839C302.058 322.38 301.872 323.073 301.33 323.386C300.542 323.841 299.737 324.29 298.937 324.722C298.765 324.814 298.58 324.858 298.398 324.858ZM207.423 323.568C207.23 323.568 207.035 323.519 206.856 323.415C206.063 322.959 205.268 322.485 204.493 322.007C203.96 321.678 203.794 320.98 204.124 320.448C204.453 319.915 205.153 319.75 205.687 320.079C206.443 320.545 207.218 321.007 207.992 321.454C208.535 321.767 208.721 322.46 208.407 323.001C208.197 323.364 207.816 323.568 207.423 323.568ZM305.376 320.692C305.007 320.692 304.645 320.513 304.427 320.182C304.082 319.66 304.227 318.957 304.751 318.613C305.49 318.127 306.235 317.621 306.965 317.111C307.479 316.752 308.187 316.876 308.547 317.388C308.907 317.9 308.783 318.607 308.269 318.966C307.522 319.489 306.758 320.007 306 320.505C305.808 320.632 305.591 320.692 305.376 320.692ZM200.55 319.195C200.325 319.195 200.098 319.129 199.9 318.99C199.151 318.467 198.401 317.926 197.67 317.383C197.167 317.009 197.063 316.299 197.438 315.797C197.813 315.296 198.524 315.192 199.027 315.566C199.74 316.096 200.472 316.624 201.203 317.135C201.716 317.494 201.841 318.2 201.481 318.712C201.26 319.027 200.908 319.195 200.55 319.195ZM311.969 315.935C311.634 315.935 311.302 315.788 311.078 315.506C310.689 315.015 310.772 314.303 311.263 313.914C311.962 313.362 312.661 312.794 313.341 312.224C313.82 311.822 314.537 311.884 314.94 312.364C315.344 312.842 315.281 313.557 314.801 313.96C314.105 314.543 313.389 315.126 312.674 315.691C312.465 315.855 312.216 315.935 311.969 315.935ZM194.088 314.245C193.83 314.245 193.571 314.158 193.358 313.98C192.658 313.394 191.959 312.791 191.278 312.186C190.809 311.771 190.768 311.055 191.185 310.587C191.601 310.12 192.319 310.078 192.788 310.494C193.452 311.083 194.135 311.672 194.818 312.244C195.298 312.647 195.361 313.361 194.958 313.841C194.734 314.108 194.412 314.245 194.088 314.245ZM318.126 310.623C317.824 310.623 317.523 310.504 317.3 310.268C316.87 309.813 316.891 309.096 317.347 308.666C317.993 308.059 318.64 307.431 319.27 306.802C319.714 306.36 320.433 306.36 320.876 306.802C321.319 307.245 321.319 307.962 320.876 308.405C320.23 309.049 319.567 309.691 318.905 310.314C318.685 310.521 318.405 310.623 318.126 310.623ZM188.082 308.756C187.792 308.756 187.501 308.646 187.28 308.425C186.634 307.781 185.989 307.12 185.365 306.46C184.934 306.005 184.954 305.288 185.41 304.859C185.866 304.429 186.584 304.449 187.015 304.904C187.625 305.549 188.254 306.194 188.885 306.822C189.329 307.264 189.329 307.982 188.885 308.424C188.664 308.646 188.373 308.756 188.082 308.756ZM323.8 304.798C323.531 304.798 323.262 304.703 323.045 304.511C322.577 304.095 322.535 303.379 322.953 302.911C323.544 302.249 324.135 301.568 324.708 300.887C325.112 300.408 325.827 300.346 326.308 300.748C326.788 301.151 326.85 301.866 326.447 302.344C325.859 303.042 325.254 303.74 324.648 304.419C324.424 304.669 324.113 304.798 323.8 304.798ZM182.578 302.772C182.254 302.772 181.933 302.635 181.708 302.368C181.122 301.673 180.538 300.959 179.972 300.246C179.583 299.756 179.665 299.043 180.156 298.655C180.648 298.266 181.362 298.349 181.752 298.839C182.304 299.535 182.875 300.231 183.447 300.911C183.851 301.389 183.788 302.104 183.308 302.507C183.095 302.685 182.836 302.772 182.578 302.772ZM328.95 298.5C328.714 298.5 328.475 298.427 328.272 298.275C327.769 297.901 327.666 297.191 328.04 296.69C328.574 295.976 329.103 295.246 329.614 294.52C329.974 294.008 330.682 293.884 331.195 294.243C331.709 294.603 331.833 295.309 331.473 295.821C330.949 296.565 330.407 297.313 329.86 298.044C329.638 298.343 329.296 298.5 328.95 298.5ZM177.616 296.337C177.259 296.337 176.907 296.169 176.686 295.855C176.162 295.11 175.642 294.349 175.141 293.592C174.796 293.07 174.94 292.367 175.464 292.023C175.987 291.678 176.692 291.822 177.037 292.344C177.525 293.083 178.033 293.826 178.544 294.553C178.905 295.066 178.781 295.772 178.268 296.131C178.069 296.271 177.842 296.337 177.616 296.337ZM333.533 291.778C333.329 291.778 333.123 291.723 332.937 291.608C332.404 291.279 332.239 290.581 332.568 290.049C333.037 289.292 333.501 288.518 333.947 287.749C334.262 287.208 334.956 287.022 335.499 287.336C336.042 287.649 336.227 288.342 335.913 288.884C335.456 289.672 334.98 290.465 334.5 291.24C334.285 291.587 333.913 291.778 333.533 291.778ZM173.235 289.5C172.843 289.5 172.462 289.298 172.251 288.935C171.794 288.149 171.343 287.345 170.911 286.548C170.612 285.998 170.817 285.31 171.369 285.012C171.92 284.714 172.61 284.919 172.908 285.469C173.33 286.247 173.771 287.031 174.216 287.799C174.531 288.34 174.346 289.033 173.803 289.346C173.624 289.451 173.428 289.5 173.235 289.5ZM337.513 284.679C337.342 284.679 337.168 284.64 337.004 284.558C336.444 284.276 336.218 283.595 336.5 283.036C336.9 282.245 337.294 281.434 337.673 280.624C337.938 280.057 338.614 279.811 339.183 280.077C339.751 280.342 339.996 281.016 339.731 281.583C339.342 282.413 338.938 283.244 338.529 284.055C338.329 284.451 337.929 284.679 337.513 284.679ZM169.469 282.311C169.042 282.311 168.633 282.07 168.44 281.659C168.055 280.838 167.676 279.999 167.314 279.166C167.065 278.592 167.33 277.925 167.905 277.676C168.481 277.427 169.149 277.691 169.398 278.265C169.751 279.079 170.12 279.897 170.496 280.698C170.762 281.264 170.518 281.939 169.95 282.204C169.794 282.277 169.63 282.311 169.469 282.311ZM340.858 277.256C340.718 277.256 340.576 277.23 340.438 277.175C339.856 276.944 339.571 276.285 339.803 275.704C340.132 274.877 340.454 274.033 340.76 273.196C340.974 272.608 341.626 272.305 342.215 272.519C342.804 272.733 343.108 273.383 342.894 273.971C342.581 274.829 342.251 275.694 341.913 276.541C341.736 276.985 341.309 277.256 340.858 277.256ZM166.349 274.828C165.886 274.828 165.451 274.543 165.282 274.083C164.969 273.227 164.664 272.355 164.377 271.494C164.179 270.9 164.501 270.259 165.096 270.062C165.691 269.865 166.334 270.186 166.532 270.78C166.812 271.62 167.109 272.47 167.415 273.306C167.63 273.894 167.328 274.544 166.738 274.758C166.61 274.805 166.478 274.828 166.349 274.828ZM343.533 269.575C343.425 269.575 343.316 269.559 343.208 269.527C342.607 269.348 342.265 268.717 342.445 268.117C342.699 267.269 342.945 266.403 343.175 265.543C343.337 264.938 343.96 264.58 344.565 264.741C345.171 264.902 345.531 265.523 345.369 266.128C345.133 267.01 344.881 267.897 344.621 268.766C344.474 269.257 344.022 269.575 343.533 269.575ZM163.893 267.082C163.392 267.082 162.933 266.749 162.797 266.243C162.561 265.365 162.334 264.47 162.123 263.584C161.978 262.976 162.356 262.365 162.966 262.221C163.577 262.075 164.188 262.452 164.333 263.061C164.538 263.925 164.76 264.798 164.99 265.655C165.153 266.259 164.794 266.881 164.188 267.043C164.089 267.07 163.99 267.082 163.893 267.082ZM345.521 261.696C345.445 261.696 345.368 261.689 345.291 261.672C344.677 261.546 344.281 260.948 344.407 260.335C344.586 259.466 344.754 258.582 344.908 257.707C345.015 257.09 345.601 256.678 346.222 256.786C346.84 256.894 347.253 257.481 347.145 258.097C346.988 258.994 346.815 259.9 346.631 260.79C346.522 261.327 346.048 261.696 345.521 261.696ZM162.128 259.152C161.587 259.152 161.108 258.765 161.011 258.215C160.853 257.324 160.706 256.414 160.573 255.509C160.482 254.89 160.912 254.315 161.532 254.223C162.152 254.134 162.729 254.561 162.82 255.18C162.95 256.063 163.094 256.952 163.248 257.822C163.357 258.438 162.945 259.025 162.327 259.134C162.26 259.146 162.193 259.152 162.128 259.152ZM346.808 253.675C346.764 253.675 346.72 253.672 346.676 253.667C346.053 253.596 345.606 253.033 345.678 252.412C345.781 251.531 345.871 250.636 345.947 249.75C346.001 249.127 346.548 248.667 347.176 248.719C347.8 248.773 348.263 249.321 348.21 249.945C348.131 250.852 348.038 251.769 347.934 252.672C347.867 253.249 347.377 253.675 346.808 253.675ZM161.065 251.098C160.483 251.098 159.987 250.654 159.935 250.064C159.856 249.158 159.789 248.239 159.736 247.33C159.699 246.706 160.177 246.169 160.803 246.133C161.432 246.094 161.966 246.573 162.003 247.197C162.054 248.084 162.12 248.982 162.198 249.867C162.253 250.49 161.791 251.039 161.166 251.094C161.132 251.096 161.099 251.098 161.065 251.098ZM347.39 245.573C347.379 245.573 347.368 245.573 347.357 245.572C346.73 245.554 346.237 245.033 346.254 244.408C346.28 243.521 346.293 242.62 346.293 241.732L346.292 241.503C346.291 240.878 346.798 240.369 347.425 240.367C348.032 240.362 348.562 240.872 348.563 241.497L348.564 241.728C348.564 242.642 348.55 243.564 348.525 244.472C348.507 245.087 348.002 245.573 347.39 245.573ZM160.707 242.982C160.08 242.982 159.572 242.474 159.572 241.849V241.738C159.572 240.864 159.584 239.981 159.607 239.109C159.625 238.484 160.156 238 160.773 238.008C161.4 238.025 161.895 238.546 161.878 239.171C161.854 240.022 161.842 240.884 161.842 241.732L161.843 241.849C161.842 242.474 161.334 242.982 160.707 242.982ZM347.258 237.219C346.662 237.219 346.162 236.755 346.126 236.153C346.072 235.264 346.006 234.366 345.927 233.485C345.872 232.861 346.333 232.311 346.958 232.256C347.58 232.199 348.134 232.661 348.189 233.284C348.27 234.187 348.338 235.107 348.393 236.018C348.43 236.643 347.953 237.179 347.327 237.216C347.304 237.218 347.281 237.219 347.258 237.219ZM161.048 234.866C161.015 234.866 160.983 234.865 160.95 234.862C160.325 234.809 159.862 234.26 159.915 233.637C159.992 232.733 160.083 231.815 160.187 230.909C160.258 230.287 160.824 229.843 161.444 229.912C162.067 229.983 162.515 230.545 162.443 231.166C162.342 232.051 162.253 232.947 162.177 233.829C162.127 234.42 161.631 234.866 161.048 234.866ZM346.42 229.139C345.867 229.139 345.382 228.734 345.298 228.171C345.168 227.293 345.023 226.405 344.867 225.53C344.758 224.914 345.169 224.326 345.787 224.217C346.405 224.107 346.994 224.518 347.103 225.134C347.263 226.029 347.411 226.94 347.544 227.84C347.636 228.459 347.207 229.035 346.587 229.126C346.531 229.135 346.476 229.139 346.42 229.139ZM162.09 226.81C162.025 226.81 161.96 226.804 161.894 226.793C161.276 226.686 160.863 226.099 160.97 225.483C161.126 224.588 161.298 223.681 161.48 222.789C161.605 222.175 162.205 221.781 162.819 221.905C163.434 222.03 163.83 222.629 163.705 223.241C163.526 224.113 163.359 224.998 163.207 225.87C163.111 226.421 162.632 226.81 162.09 226.81ZM344.879 221.163C344.366 221.163 343.9 220.813 343.776 220.292C343.57 219.433 343.348 218.56 343.115 217.7C342.952 217.095 343.31 216.474 343.916 216.311C344.522 216.148 345.145 216.505 345.308 217.11C345.546 217.992 345.774 218.886 345.985 219.767C346.131 220.376 345.754 220.987 345.144 221.132C345.055 221.153 344.967 221.163 344.879 221.163ZM163.834 218.875C163.737 218.875 163.639 218.862 163.541 218.837C162.936 218.676 162.574 218.055 162.736 217.451C162.97 216.573 163.22 215.686 163.48 214.811C163.659 214.212 164.29 213.869 164.892 214.049C165.493 214.227 165.836 214.858 165.657 215.458C165.403 216.31 165.158 217.177 164.93 218.033C164.795 218.54 164.336 218.875 163.834 218.875ZM342.644 213.352C342.169 213.352 341.726 213.052 341.567 212.578C341.286 211.736 340.987 210.887 340.681 210.052C340.465 209.465 340.767 208.814 341.356 208.599C341.945 208.383 342.597 208.685 342.813 209.272C343.127 210.127 343.433 210.998 343.721 211.86C343.92 212.454 343.599 213.095 343.004 213.293C342.885 213.333 342.763 213.352 342.644 213.352ZM166.269 211.123C166.14 211.123 166.009 211.102 165.882 211.055C165.292 210.842 164.987 210.192 165.201 209.604C165.512 208.748 165.841 207.883 166.179 207.032C166.41 206.451 167.069 206.166 167.652 206.396C168.235 206.626 168.521 207.285 168.29 207.867C167.96 208.696 167.64 209.541 167.336 210.376C167.169 210.837 166.733 211.123 166.269 211.123ZM339.734 205.776C339.295 205.776 338.877 205.521 338.691 205.094C338.337 204.282 337.967 203.464 337.59 202.663C337.324 202.097 337.567 201.422 338.135 201.156C338.702 200.89 339.379 201.134 339.646 201.7C340.032 202.52 340.411 203.359 340.774 204.191C341.024 204.765 340.761 205.432 340.185 205.681C340.038 205.746 339.884 205.776 339.734 205.776ZM169.383 203.599C169.223 203.599 169.06 203.565 168.905 203.493C168.336 203.229 168.09 202.555 168.354 201.988C168.742 201.158 169.145 200.325 169.554 199.514C169.835 198.955 170.517 198.729 171.077 199.01C171.638 199.291 171.864 199.971 171.583 200.531C171.184 201.322 170.791 202.134 170.413 202.945C170.221 203.357 169.811 203.599 169.383 203.599ZM336.172 198.488C335.769 198.488 335.378 198.274 335.173 197.895C334.748 197.115 334.307 196.332 333.862 195.567C333.546 195.026 333.73 194.333 334.273 194.019C334.815 193.705 335.51 193.888 335.825 194.429C336.281 195.212 336.733 196.015 337.168 196.814C337.468 197.364 337.263 198.052 336.712 198.35C336.54 198.444 336.354 198.488 336.172 198.488ZM173.145 196.381C172.953 196.381 172.758 196.332 172.579 196.23C172.036 195.917 171.849 195.224 172.163 194.682C172.62 193.891 173.095 193.098 173.573 192.324C173.903 191.791 174.602 191.626 175.136 191.954C175.669 192.283 175.835 192.98 175.506 193.513C175.039 194.268 174.576 195.042 174.13 195.814C173.919 196.178 173.538 196.381 173.145 196.381ZM331.984 191.533C331.615 191.533 331.254 191.354 331.036 191.025C330.544 190.284 330.036 189.542 329.525 188.818C329.164 188.307 329.287 187.6 329.8 187.24C330.312 186.88 331.021 187.002 331.382 187.514C331.905 188.256 332.426 189.016 332.929 189.775C333.275 190.297 333.132 191 332.609 191.345C332.416 191.472 332.199 191.533 331.984 191.533ZM177.524 189.522C177.299 189.522 177.072 189.456 176.874 189.317C176.36 188.959 176.235 188.252 176.594 187.74C177.116 186.997 177.657 186.248 178.204 185.515C178.578 185.013 179.289 184.909 179.793 185.282C180.296 185.655 180.4 186.364 180.026 186.867C179.493 187.583 178.964 188.313 178.455 189.039C178.234 189.353 177.882 189.522 177.524 189.522ZM327.203 184.965C326.868 184.965 326.537 184.818 326.313 184.537C325.761 183.843 325.19 183.147 324.615 182.467C324.211 181.989 324.272 181.274 324.751 180.871C325.231 180.468 325.948 180.529 326.351 181.007C326.94 181.704 327.525 182.417 328.09 183.127C328.48 183.616 328.399 184.329 327.908 184.718C327.7 184.884 327.45 184.965 327.203 184.965ZM182.482 183.071C182.224 183.071 181.966 182.984 181.753 182.806C181.273 182.404 181.21 181.69 181.612 181.211C182.199 180.512 182.804 179.814 183.408 179.134C183.825 178.667 184.543 178.625 185.011 179.04C185.48 179.456 185.522 180.171 185.106 180.639C184.515 181.302 183.925 181.984 183.353 182.666C183.128 182.933 182.806 183.071 182.482 183.071ZM321.866 178.831C321.565 178.831 321.265 178.713 321.041 178.477C320.429 177.832 319.799 177.187 319.169 176.561C318.725 176.12 318.724 175.402 319.167 174.96C319.609 174.516 320.328 174.515 320.773 174.957C321.418 175.598 322.063 176.258 322.691 176.92C323.122 177.374 323.102 178.091 322.647 178.521C322.427 178.728 322.146 178.831 321.866 178.831ZM187.98 177.076C187.69 177.076 187.4 176.965 187.178 176.745C186.734 176.303 186.733 175.585 187.176 175.142C187.819 174.5 188.482 173.856 189.145 173.23C189.601 172.801 190.319 172.821 190.75 173.275C191.181 173.73 191.161 174.446 190.705 174.876C190.058 175.487 189.411 176.115 188.783 176.743C188.562 176.964 188.271 177.076 187.98 177.076ZM316.015 173.18C315.747 173.18 315.478 173.086 315.262 172.894C314.595 172.304 313.911 171.716 313.23 171.146C312.749 170.745 312.685 170.031 313.088 169.551C313.49 169.071 314.207 169.008 314.687 169.409C315.385 169.992 316.086 170.595 316.769 171.2C317.238 171.615 317.281 172.331 316.865 172.799C316.641 173.051 316.329 173.18 316.015 173.18ZM193.976 171.58C193.652 171.58 193.331 171.443 193.107 171.177C192.703 170.699 192.764 169.984 193.244 169.581C193.939 168.998 194.654 168.414 195.37 167.847C195.861 167.458 196.575 167.54 196.965 168.03C197.355 168.52 197.273 169.233 196.781 169.622C196.082 170.175 195.384 170.745 194.706 171.314C194.494 171.493 194.234 171.58 193.976 171.58ZM309.693 168.054C309.457 168.054 309.22 167.982 309.017 167.831C308.303 167.302 307.57 166.775 306.839 166.265C306.325 165.907 306.199 165.2 306.559 164.688C306.918 164.175 307.625 164.049 308.14 164.408C308.889 164.93 309.64 165.47 310.371 166.012C310.875 166.386 310.98 167.095 310.606 167.597C310.383 167.896 310.04 168.054 309.693 168.054ZM200.423 166.625C200.066 166.625 199.715 166.458 199.494 166.144C199.133 165.633 199.256 164.926 199.769 164.566C200.513 164.044 201.276 163.525 202.037 163.024C202.561 162.679 203.265 162.822 203.61 163.344C203.956 163.866 203.812 164.569 203.289 164.914C202.546 165.403 201.801 165.91 201.076 166.419C200.877 166.559 200.649 166.625 200.423 166.625ZM302.946 163.494C302.743 163.494 302.538 163.439 302.352 163.325C301.59 162.858 300.813 162.396 300.044 161.954C299.501 161.642 299.314 160.949 299.627 160.407C299.941 159.865 300.635 159.678 301.178 159.991C301.967 160.444 302.762 160.917 303.543 161.396C304.077 161.724 304.243 162.422 303.914 162.954C303.699 163.302 303.327 163.494 302.946 163.494ZM207.274 162.25C206.883 162.25 206.502 162.048 206.291 161.686C205.977 161.145 206.161 160.451 206.703 160.138C207.492 159.681 208.296 159.231 209.095 158.799C209.646 158.501 210.336 158.705 210.634 159.255C210.933 159.805 210.729 160.493 210.177 160.791C209.398 161.213 208.613 161.652 207.843 162.098C207.664 162.201 207.468 162.25 207.274 162.25ZM295.823 159.536C295.652 159.536 295.478 159.498 295.315 159.416C294.518 159.018 293.704 158.626 292.895 158.25C292.326 157.987 292.079 157.313 292.343 156.746C292.607 156.178 293.282 155.932 293.851 156.196C294.681 156.581 295.516 156.982 296.332 157.39C296.892 157.671 297.119 158.352 296.838 158.911C296.64 159.307 296.239 159.536 295.823 159.536ZM214.477 158.489C214.05 158.489 213.641 158.248 213.448 157.837C213.182 157.271 213.427 156.596 213.994 156.33C214.819 155.944 215.659 155.566 216.492 155.206C217.068 154.957 217.736 155.22 217.986 155.794C218.235 156.368 217.971 157.035 217.396 157.284C216.583 157.636 215.763 158.005 214.959 158.382C214.802 158.454 214.638 158.489 214.477 158.489ZM288.377 156.214C288.238 156.214 288.097 156.189 287.959 156.135C287.13 155.808 286.284 155.488 285.444 155.185C284.854 154.972 284.549 154.323 284.762 153.735C284.976 153.146 285.627 152.843 286.216 153.055C287.077 153.366 287.945 153.693 288.794 154.028C289.377 154.258 289.663 154.917 289.433 155.498C289.256 155.943 288.829 156.214 288.377 156.214ZM221.976 155.372C221.513 155.372 221.078 155.088 220.91 154.628C220.694 154.041 220.997 153.39 221.586 153.175C222.44 152.863 223.313 152.559 224.18 152.271C224.776 152.073 225.418 152.393 225.616 152.987C225.815 153.58 225.493 154.222 224.898 154.42C224.052 154.701 223.2 154.998 222.366 155.303C222.237 155.35 222.106 155.372 221.976 155.372ZM280.673 153.56C280.566 153.56 280.457 153.544 280.349 153.513C279.496 153.26 278.628 153.017 277.767 152.789C277.161 152.629 276.8 152.009 276.961 151.404C277.122 150.799 277.744 150.44 278.35 150.599C279.231 150.833 280.121 151.082 280.995 151.34C281.597 151.518 281.939 152.149 281.761 152.749C281.615 153.241 281.163 153.56 280.673 153.56ZM229.737 152.918C229.237 152.918 228.778 152.585 228.642 152.079C228.479 151.475 228.837 150.854 229.443 150.691C230.326 150.454 231.222 150.227 232.107 150.017C232.717 149.871 233.329 150.249 233.474 150.857C233.62 151.466 233.242 152.077 232.632 152.222C231.769 152.426 230.895 152.647 230.033 152.879C229.934 152.905 229.835 152.918 229.737 152.918ZM272.773 151.593C272.698 151.593 272.622 151.586 272.546 151.57C271.674 151.394 270.787 151.227 269.91 151.076C269.292 150.969 268.878 150.383 268.985 149.766C269.092 149.149 269.681 148.737 270.297 148.843C271.196 148.998 272.105 149.169 272.998 149.35C273.613 149.475 274.01 150.073 273.884 150.686C273.775 151.223 273.302 151.593 272.773 151.593ZM237.684 151.153C237.144 151.153 236.665 150.767 236.568 150.217C236.458 149.601 236.87 149.013 237.488 148.904C238.383 148.746 239.295 148.599 240.201 148.466C240.822 148.375 241.398 148.803 241.489 149.421C241.581 150.04 241.152 150.616 240.532 150.707C239.648 150.837 238.757 150.981 237.884 151.135C237.817 151.147 237.75 151.153 237.684 151.153ZM264.732 150.324C264.689 150.324 264.645 150.322 264.602 150.317C263.715 150.216 262.817 150.128 261.933 150.053C261.308 150 260.844 149.453 260.897 148.829C260.95 148.206 261.498 147.743 262.124 147.796C263.03 147.872 263.95 147.963 264.858 148.065C265.482 148.136 265.93 148.697 265.859 149.319C265.793 149.897 265.301 150.324 264.732 150.324ZM245.756 150.087C245.174 150.087 244.679 149.644 244.626 149.054C244.571 148.431 245.033 147.881 245.658 147.826C246.568 147.746 247.49 147.678 248.398 147.625C249.023 147.585 249.561 148.064 249.598 148.689C249.635 149.313 249.157 149.849 248.532 149.886C247.645 149.939 246.745 150.004 245.857 150.083C245.823 150.086 245.79 150.087 245.756 150.087ZM256.608 149.757C256.598 149.757 256.588 149.757 256.578 149.757C255.745 149.735 254.9 149.724 254.068 149.724H253.897C253.896 149.724 253.894 149.724 253.893 149.724C253.268 149.724 252.76 149.219 252.758 148.595C252.756 147.969 253.262 147.46 253.889 147.458H254.072C254.921 147.458 255.786 147.47 256.638 147.492C257.265 147.509 257.76 148.029 257.743 148.654C257.726 149.27 257.222 149.757 256.608 149.757Z" fill="#14294C"/>
<path d="M421.617 241.02H415.594V246.594H422.307V248.268H413.593V232.809H421.962V234.483H415.594V239.369H421.617V241.02Z" fill="#14294C"/>
<path d="M422.722 248.681H413.179V232.395H422.377V234.897H416.008V238.954H422.032V241.434H416.008V246.18H422.722V248.681ZM414.008 247.854H421.892V247.007H415.179V240.606H421.203V239.782H415.179V234.069H421.547V233.222H414.008V247.854Z" fill="#14294C"/>
<path d="M248.808 81.874V66.415H250.993L255.959 74.2364C257.108 76.0485 258.004 77.6764 258.74 79.2592L258.786 79.2364C258.602 77.1722 258.556 75.2913 258.556 72.8829V66.415H260.441V81.874H258.418L253.498 74.0299C252.418 72.3095 251.383 70.543 250.601 68.8686L250.532 68.8918C250.647 70.8411 250.693 72.6996 250.693 75.2676V81.8736H248.808V81.874Z" fill="#14294C"/>
<path d="M260.856 82.2862H258.189L253.147 74.248C252.294 72.8908 251.602 71.7136 251.033 70.6496C251.086 72.0167 251.108 73.4623 251.108 75.2669V82.2862H248.394V66H251.221L256.309 74.0138C257.035 75.1595 257.673 76.2509 258.235 77.3132C258.16 75.8752 258.141 74.4545 258.141 72.8817V66H260.856V82.2862H260.856ZM258.648 81.4586H260.027V66.8272H258.972V72.8813C258.972 75.1362 259.01 77.0739 259.2 79.1983L259.225 79.4802L258.543 79.8157L258.364 79.4313C257.626 77.8427 256.724 76.2152 255.608 74.4558L250.765 66.8268H249.223V81.4582H250.279V75.266C250.279 72.6848 250.233 70.8449 250.119 68.9142L250.1 68.5999L250.821 68.3557L250.978 68.6924C251.651 70.135 252.564 71.7605 253.85 73.8085L258.648 81.4586Z" fill="#14294C"/>
<path d="M250.428 415.389C251.325 415.94 252.636 416.399 254.015 416.399C256.061 416.399 257.257 415.321 257.257 413.761C257.257 412.316 256.429 411.49 254.337 410.687C251.808 409.793 250.245 408.485 250.245 406.307C250.245 403.898 252.245 402.109 255.257 402.109C256.843 402.109 257.993 402.476 258.682 402.867L258.13 404.495C257.624 404.219 256.59 403.761 255.187 403.761C253.072 403.761 252.268 405.022 252.268 406.077C252.268 407.522 253.21 408.234 255.349 409.059C257.97 410.068 259.303 411.329 259.303 413.6C259.303 415.986 257.533 418.05 253.878 418.05C252.383 418.05 250.751 417.614 249.923 417.063L250.428 415.389Z" fill="#14294C"/>
<path d="M253.877 418.463C252.348 418.463 250.627 418.029 249.692 417.407L249.437 417.237L250.187 414.755L250.645 415.037C251.613 415.63 252.872 415.985 254.014 415.985C255.758 415.985 256.842 415.132 256.842 413.761C256.842 412.704 256.407 411.925 254.187 411.073C251.258 410.037 249.829 408.477 249.829 406.306C249.829 403.592 252.061 401.695 255.256 401.695C257.167 401.695 258.35 402.204 258.886 402.506L259.184 402.675L258.364 405.093L257.931 404.857C257.358 404.545 256.417 404.174 255.187 404.174C253.338 404.174 252.682 405.199 252.682 406.077C252.682 407.219 253.366 407.85 255.498 408.673C258.455 409.811 259.717 411.285 259.717 413.6C259.718 415.843 258.188 418.463 253.877 418.463ZM250.413 416.873C251.261 417.323 252.653 417.635 253.877 417.635C256.921 417.635 258.888 416.051 258.888 413.599C258.888 411.63 257.854 410.465 255.199 409.444C253.08 408.625 251.853 407.812 251.853 406.075C251.853 404.76 252.896 403.345 255.187 403.345C256.314 403.345 257.23 403.619 257.889 403.913L258.174 403.071C257.622 402.819 256.671 402.521 255.256 402.521C252.549 402.521 250.659 404.077 250.659 406.305C250.659 408.107 251.871 409.375 254.475 410.295C256.397 411.033 257.671 411.903 257.671 413.759C257.671 415.613 256.236 416.811 254.015 416.811C252.884 416.811 251.694 416.519 250.676 416.001L250.413 416.873Z" fill="#14294C"/>
<path d="M79.6273 237.165L81.0985 242.808C81.4207 244.047 81.7192 245.193 81.9261 246.34H81.995C82.2479 245.216 82.6157 244.023 82.9835 242.831L84.7998 237.165H86.5011L88.2253 242.716C88.6391 244.046 88.9609 245.216 89.2138 246.34H89.2831C89.4672 245.216 89.7657 244.047 90.1335 242.739L91.72 237.165H93.7204L90.1335 248.267H88.2945L86.5936 242.968C86.2026 241.73 85.8808 240.628 85.605 239.322H85.559C85.2832 240.652 84.9383 241.798 84.5476 242.991L82.7542 248.267H80.9148L77.5581 237.165H79.6273Z" fill="#14294C"/>
<path d="M90.4363 248.681H87.9923L86.1989 243.095C85.9695 242.369 85.7659 241.695 85.5818 241.007C85.377 241.766 85.1568 242.464 84.9416 243.121L83.0512 248.681H80.6067L77 236.752H79.9474L81.4995 242.704C81.6761 243.383 81.8457 244.035 81.9971 244.674C82.1829 244.021 82.3869 243.359 82.5871 242.709L84.4967 236.752H86.8063L88.6213 242.594C88.8469 243.319 89.0414 243.984 89.2114 244.613C89.3718 243.937 89.5535 243.269 89.7338 242.627L91.4066 236.752H94.2893L90.4363 248.681ZM88.5973 247.854H89.8321L93.1515 237.58H92.034L90.5329 242.852C90.2119 243.993 89.8877 245.214 89.6928 246.407L89.636 246.754H88.8825L88.81 246.431C88.5645 245.342 88.2531 244.2 87.8301 242.84L86.1964 237.58H85.1033L83.3796 242.957C83.0217 244.118 82.6502 245.323 82.4006 246.431L82.328 246.754H81.5804L81.519 246.414C81.3162 245.29 81.0185 244.146 80.7038 242.935L79.3072 237.579H78.1171L81.2233 247.853H82.4574L84.1554 242.859C84.5045 241.792 84.8686 240.611 85.1531 239.238L85.2215 238.909H85.9418L86.011 239.237C86.2797 240.51 86.5965 241.6 86.9892 242.845L88.5973 247.854Z" fill="#14294C"/>
<path d="M375.868 113.147L381.964 107.093L382.971 108.101L382.174 113.457C381.989 114.698 381.761 115.75 381.476 116.709L381.506 116.721C382.235 115.827 382.956 115.07 383.906 114.127L386.456 111.594L387.324 112.464L381.228 118.518L380.296 117.585L381.123 112.241C381.303 111.068 381.523 109.899 381.823 108.882L381.782 108.859C381.066 109.676 380.355 110.425 379.342 111.431L376.737 114.018L375.868 113.147Z" fill="#14294C"/>
<path d="M389.392 120.997L386.618 118.216L384.42 120.399L387.513 123.499L386.853 124.155L382.838 120.131L388.934 114.077L392.789 117.941L392.129 118.597L389.195 115.657L387.269 117.57L390.043 120.351L389.392 120.997Z" fill="#14294C"/>
<path d="M124.011 123.349L117.942 117.267L118.953 116.263L124.322 117.057C125.566 117.242 126.62 117.47 127.581 117.754L127.594 117.724C126.698 116.996 125.939 116.278 124.993 115.33L122.454 112.786L123.327 111.919L129.395 118.001L128.459 118.931L123.102 118.107C121.927 117.926 120.755 117.707 119.736 117.408L119.713 117.448C120.531 118.163 121.282 118.872 122.291 119.883L124.883 122.482L124.011 123.349Z" fill="#14294C"/>
<path d="M132.183 115.234L124.294 110.959L125.273 109.986L129.195 112.218C130.164 112.765 131.112 113.333 131.825 113.792L131.846 113.771C131.36 113.05 130.864 112.107 130.325 111.079L128.221 107.059L129.189 106.098L133.141 108.317C134.064 108.839 134.975 109.37 135.721 109.905L135.742 109.884C135.225 109.069 134.752 108.191 134.219 107.211L132.105 103.203L133.052 102.262L137.088 110.362L136.12 111.324L132.055 109.055C131.058 108.501 130.314 108.053 129.607 107.535L129.586 107.556C130.061 108.287 130.495 109.041 131.013 110.091L133.152 114.272L132.183 115.234Z" fill="#14294C"/>
<path d="M138.566 368.438C138.37 367.809 137.947 367.024 137.311 366.387C136.369 365.442 135.393 365.313 134.778 365.923C134.208 366.49 134.264 367.195 134.911 368.475C135.723 369.993 135.928 371.227 135.069 372.081C134.119 373.024 132.492 372.801 131.104 371.41C130.373 370.678 129.988 370.003 129.824 369.532L130.721 369.149C130.845 369.49 131.141 370.148 131.787 370.795C132.761 371.772 133.63 371.65 134.046 371.236C134.616 370.67 134.462 369.956 133.802 368.646C132.993 367.041 132.876 365.931 133.771 365.041C134.712 364.107 136.341 364.116 138.025 365.804C138.714 366.494 139.294 367.419 139.458 368.016L138.566 368.438Z" fill="#14294C"/>
<path d="M133.011 360.959L128.727 368.829L127.752 367.853L129.989 363.94C130.537 362.973 131.106 362.028 131.566 361.317L131.545 361.296C130.822 361.781 129.877 362.276 128.846 362.814L124.818 364.912L123.854 363.946L126.079 360.003C126.601 359.083 127.134 358.174 127.67 357.43L127.649 357.408C126.831 357.924 125.952 358.396 124.969 358.928L120.952 361.037L120.009 360.092L128.128 356.065L129.092 357.032L126.818 361.087C126.263 362.082 125.814 362.824 125.295 363.53L125.316 363.551C126.049 363.077 126.805 362.643 127.856 362.127L132.048 359.993L133.011 360.959Z" fill="#14294C"/>
<path d="M374.754 123.844L365.084 133.49L366.264 134.668L375.934 125.021L374.754 123.844Z" fill="#14294C"/>
<path d="M147.149 350.913L137.48 360.559L138.66 361.737L148.33 352.09L147.149 350.913Z" fill="#14294C"/>
<path d="M364.163 348.817L362.983 349.995L372.653 359.642L373.833 358.464L364.163 348.817Z" fill="#14294C"/>
<path d="M135.38 122.923L145.049 132.57L146.229 131.393L136.56 121.746L135.38 122.923Z" fill="#14294C"/>
<path d="M385.202 357.968C384.571 358.164 383.784 358.585 383.146 359.219C382.199 360.16 382.069 361.134 382.681 361.747C383.248 362.316 383.955 362.26 385.239 361.614C386.76 360.803 387.997 360.599 388.853 361.457C389.798 362.404 389.575 364.027 388.18 365.412C387.446 366.141 386.77 366.525 386.298 366.689L385.914 365.795C386.256 365.67 386.915 365.375 387.564 364.731C388.543 363.759 388.42 362.892 388.006 362.477C387.439 361.909 386.723 362.063 385.41 362.72C383.8 363.528 382.688 363.645 381.797 362.751C380.86 361.813 380.87 360.187 382.561 358.507C383.253 357.82 384.18 357.241 384.779 357.077L385.202 357.968Z" fill="#14294C"/>
<path d="M378.006 368.886L380.794 366.118L378.606 363.925L375.499 367.011L374.842 366.352L378.874 362.347L384.943 368.429L381.07 372.275L380.412 371.616L383.359 368.689L381.442 366.767L378.654 369.536L378.006 368.886Z" fill="#14294C"/>
<path d="M271.397 240.66C271.397 239.443 271.252 238.26 270.988 237.123L255.772 111.123L240.557 237.121C240.292 238.258 240.147 239.442 240.147 240.66C240.147 240.94 240.156 241.219 240.171 241.496C240.156 241.773 240.147 242.052 240.147 242.331C240.147 243.549 240.292 244.732 240.557 245.869L255.772 371.869V371.868L270.988 245.871C271.252 244.733 271.397 243.549 271.397 242.331C271.397 242.052 271.389 241.773 271.374 241.496C271.388 241.219 271.397 240.94 271.397 240.66ZM255.772 248.925C251.64 248.925 248.288 245.607 248.237 241.497C248.288 237.386 251.64 234.068 255.772 234.068C259.904 234.068 263.257 237.386 263.307 241.497C263.257 245.607 259.904 248.925 255.772 248.925Z" fill="#1A1A1A"/>
<path d="M253.107 257.54C254.328 257.54 255.513 257.396 256.653 257.132L382.949 241.952L382.948 241.952L256.655 226.772C255.514 226.508 254.328 226.363 253.107 226.363C252.826 226.363 252.547 226.372 252.27 226.387C251.993 226.372 251.713 226.363 251.432 226.363C250.212 226.363 249.026 226.508 247.886 226.772L121.589 241.952H121.591L247.884 257.132C249.025 257.396 250.211 257.54 251.431 257.54C251.713 257.54 251.992 257.532 252.269 257.517C252.547 257.532 252.826 257.54 253.107 257.54ZM244.824 241.952C244.824 237.829 248.149 234.486 252.27 234.434C256.39 234.486 259.716 237.829 259.716 241.952C259.716 246.075 256.39 249.419 252.27 249.47C248.149 249.419 244.824 246.075 244.824 241.952Z" fill="#1A1A1A"/>
<path d="M253.792 247.238C249.628 247.238 246.252 243.871 246.252 239.716H123.019L249.312 254.896C250.452 255.16 251.639 255.305 252.859 255.305C261.489 255.305 268.484 248.325 268.484 239.716H261.331C261.331 243.871 257.956 247.238 253.792 247.238Z" fill="#2E4160"/>
<path d="M252.859 224.128C251.639 224.128 250.453 224.272 249.313 224.536L123.017 239.715H123.018H246.251C246.251 235.561 249.627 232.194 253.791 232.194C257.955 232.194 261.331 235.561 261.331 239.715H268.484C268.484 231.107 261.489 224.128 252.859 224.128Z" fill="#14294C"/>
<path d="M253.501 232.194C257.665 232.194 261.041 235.561 261.041 239.715H384.274L257.981 224.536C256.84 224.273 255.654 224.128 254.433 224.128C245.804 224.128 238.809 231.107 238.808 239.715H245.961C245.961 235.561 249.337 232.194 253.501 232.194Z" fill="#14294C"/>
<path d="M254.433 255.304C255.653 255.304 256.839 255.159 257.979 254.896L384.275 239.716H384.274H261.041C261.041 243.87 257.665 247.238 253.5 247.238C249.336 247.238 245.961 243.871 245.961 239.716H238.808C238.808 248.325 245.804 255.304 254.433 255.304Z" fill="#2E4160"/>
<path d="M261.071 239.978C261.071 244.132 257.695 247.5 253.531 247.5V370.443L268.746 244.447C269.01 243.309 269.155 242.126 269.155 240.907C269.155 232.298 262.16 225.319 253.531 225.319V232.455C257.695 232.455 261.071 235.823 261.071 239.978Z" fill="#3A6477"/>
<path d="M237.906 240.908C237.906 242.126 238.05 243.308 238.315 244.445L253.53 370.445L253.53 370.443V247.5C249.366 247.5 245.99 244.132 245.99 239.978C245.99 235.823 249.366 232.455 253.53 232.455V225.319H253.53C244.901 225.32 237.906 232.299 237.906 240.908Z" fill="#4C819E"/>
<path d="M245.99 240.266C245.99 236.111 249.366 232.743 253.531 232.743V109.8L238.315 235.796C238.05 236.935 237.906 238.118 237.906 239.336C237.906 247.945 244.901 254.923 253.531 254.923V247.788C249.366 247.788 245.99 244.421 245.99 240.266Z" fill="#892121"/>
<path d="M269.155 239.337C269.155 238.12 269.011 236.937 268.746 235.8L253.53 109.8V109.801V232.744C257.695 232.744 261.07 236.113 261.07 240.267C261.07 244.422 257.695 247.789 253.53 247.789V254.925C262.16 254.925 269.155 247.946 269.155 239.337Z" fill="#682121"/>
<path d="M262.283 239.939C262.283 244.76 258.364 248.67 253.531 248.67C248.697 248.67 244.779 244.76 244.779 239.939C244.779 235.117 248.698 231.208 253.531 231.208C258.364 231.208 262.283 235.117 262.283 239.939Z" fill="#CFD1D2"/>
<path d="M261.789 239.939C261.789 244.489 258.092 248.177 253.531 248.177C248.97 248.177 245.273 244.489 245.273 239.939C245.273 235.389 248.97 231.699 253.531 231.699C258.091 231.7 261.789 235.389 261.789 239.939Z" fill="#919395"/>
<path d="M253.531 244.596C256.109 244.596 258.199 242.511 258.199 239.939C258.199 237.367 256.109 235.282 253.531 235.282C250.953 235.282 248.864 237.367 248.864 239.939C248.864 242.511 250.953 244.596 253.531 244.596Z" fill="#CFD1D2"/>
<path d="M253.53 243.984C255.77 243.984 257.586 242.173 257.586 239.938C257.586 237.704 255.77 235.893 253.53 235.893C251.291 235.893 249.475 237.704 249.475 239.938C249.475 242.173 251.291 243.984 253.53 243.984Z" fill="#A5A6A9"/>
<path d="M256.942 239.939C256.942 241.818 255.414 243.341 253.531 243.341C251.647 243.341 250.12 241.818 250.12 239.939C250.12 238.06 251.647 236.536 253.531 236.536C255.414 236.536 256.942 238.06 256.942 239.939Z" fill="#1A1A1A"/>
<path d="M255.927 239.94C255.927 241.26 254.855 242.33 253.531 242.33C252.208 242.33 251.135 241.26 251.135 239.94C251.135 238.62 252.207 237.55 253.531 237.55C254.854 237.55 255.927 238.62 255.927 239.94Z" fill="#14294C"/>
</g>
<defs>
<clipPath id="clip0_6343_6052">
<rect width="500" height="500" fill="white"/>
</clipPath>
</defs>
</svg>
