<?xml version="1.0" encoding="utf-8"?>
<!-- Generator: Adobe Illustrator 27.5.0, SVG Export Plug-In . SVG Version: 6.00 Build 0)  -->
<svg version="1.1" id="Layer_1" xmlns="http://www.w3.org/2000/svg" xmlns:xlink="http://www.w3.org/1999/xlink" x="0px" y="0px"
	 viewBox="0 0 3000 2000" style="enable-background:new 0 0 3000 2000;" xml:space="preserve">
<g>
	<rect x="0" y="0" style="fill:#FFFFFF;" width="3000" height="2000"/>
	<g>
		<defs>
			<path id="SVGID_1_" d="M2745.531,459.839v1076.643c0,188.624-167.638,291.869-324.745,312.605
				c-309.183,40.877-734.892-12.45-966.306-17.002c-255.339-5.087-641.739,14.16-859.091,16.839
				c-246.449,2.921-340.921-187.663-340.921-312.442V459.839c0-173.263,146.276-322.735,324.767-312.605
				c141.294,8.015,343.163,36.599,555.427,30.328c115.262-3.304,158.755-14.879,453.782-29.143
				c40.568-1.974,540.354-27.092,832.342-1.186C2598.439,163.139,2745.531,286.219,2745.531,459.839z"/>
		</defs>
		<use xlink:href="#SVGID_1_"  style="overflow:visible;fill:#ACC9C5;"/>
		<clipPath id="SVGID_00000087390594344043000820000000784426634778532788_">
			<use xlink:href="#SVGID_1_"  style="overflow:visible;"/>
		</clipPath>
		<g style="clip-path:url(#SVGID_00000087390594344043000820000000784426634778532788_);">
			<g>
				<path style="fill:#DAEBE8;" d="M2625.729,482.172v752.7c0,131.87-152.762,204.051-295.928,218.548
					c-281.746,28.578-669.679-8.704-880.557-11.887c-232.681-3.556-584.792,9.899-782.856,11.773
					c-224.579,2.042-310.668-131.198-310.668-218.434v-752.7c0-121.131,133.296-225.63,295.948-218.548
					c128.756,5.603,312.711,25.587,506.139,21.203c105.034-2.31,144.667-10.402,413.514-20.374
					c36.968-1.38,492.404-18.941,758.481-0.829C2491.69,274.743,2625.729,360.791,2625.729,482.172z"/>
			</g>
			<g>
				<g>
					<path style="fill:#331832;" d="M2102.455,1514.964c-137.778,0-280.5-7.169-406.421-13.495
						c-83.649-4.202-162.659-8.171-224.606-9.106c-25.841-0.396-54.497-0.596-85.172-0.596c-134.913,0-295.828,3.828-437.801,7.205
						c-97.088,2.309-188.792,4.491-259.81,5.163c-1.71,0.016-3.422,0.023-5.115,0.023c-124.975,0.002-198.186-42.16-237.596-77.529
						c-44.45-39.893-70.987-93.698-70.987-143.93V530.002c0-29.223,7.504-57.851,22.304-85.089
						c14.321-26.357,34.744-50.134,60.703-70.669c53.908-42.645,125.056-66.13,200.336-66.13c5.214,0,10.508,0.115,15.737,0.343
						c38.416,1.672,82.277,4.659,128.714,7.821c96.367,6.564,205.593,14.002,321.017,14.002c19.071,0,37.983-0.209,56.209-0.622
						c46.078-1.013,79.351-3.128,125.403-6.055c57.933-3.682,137.275-8.725,288.067-14.318l2.108-0.079
						c71.224-2.674,257.391-8.893,447.356-8.893c125.821,0,229.895,2.742,309.332,8.149c81.086,5.569,155.736,29.886,210.203,68.471
						c27.832,19.717,49.575,42.508,64.625,67.741c15.857,26.586,23.897,55.295,23.897,85.329v752.699
						c0,61.387-33.074,115.264-95.646,155.808c-53.284,34.525-125.371,57.868-202.981,65.726
						C2281.156,1511.455,2199.421,1514.964,2102.455,1514.964z M1386.256,1485.765c30.705,0,59.392,0.2,85.263,0.596
						c62.053,0.937,141.114,4.908,224.816,9.113c125.851,6.321,268.493,13.487,406.12,13.487c96.761,0,178.299-3.499,249.273-10.698
						c76.681-7.765,147.823-30.775,200.322-64.792c60.781-39.383,92.908-91.519,92.908-150.771V530.002
						c0-113.234-123.28-203.887-293.133-215.553c-79.3-5.398-183.237-8.135-308.923-8.135c-189.863,0-375.941,6.217-447.13,8.89
						l-2.11,0.079c-150.714,5.59-230.01,10.63-287.91,14.309c-46.125,2.932-79.45,5.05-125.65,6.065
						c-18.27,0.414-37.227,0.624-56.344,0.624c-115.629,0-224.962-7.446-321.425-14.016c-46.399-3.16-90.225-6.145-128.568-7.813
						c-5.142-0.224-10.349-0.337-15.476-0.337c-73.935,0-143.759,23.025-196.612,64.836c-52.059,41.182-80.729,94.826-80.729,151.05
						v752.699c0,48.554,25.792,100.69,68.994,139.464c38.629,34.669,110.512,75.995,233.587,75.993c1.675,0,3.369-0.008,5.059-0.023
						c70.974-0.671,162.657-2.853,259.723-5.161C1090.319,1489.595,1251.272,1485.765,1386.256,1485.765z"/>
				</g>
			</g>
			<g>
				<g>
					<rect x="506.091" y="447.853" style="fill:#73B3CE;" width="30.515" height="823.908"/>
					<path style="fill:#C0C0C0;" d="M541.748,902.311h-40.799c-11.004,0-19.924-8.92-19.924-19.924v-2.655
						c0-11.004,8.92-19.924,19.924-19.924h40.799c11.004,0,19.924,8.92,19.924,19.924v2.655
						C561.672,893.391,552.752,902.311,541.748,902.311z"/>
					<rect x="596.183" y="447.853" style="fill:#73B3CE;" width="30.515" height="823.908"/>
					<path style="fill:#C0C0C0;" d="M631.84,1188.672h-40.799c-11.004,0-19.924-8.92-19.924-19.924v-2.655
						c0-11.004,8.92-19.924,19.924-19.924h40.799c11.004,0,19.924,8.92,19.924,19.924v2.655
						C651.764,1179.752,642.844,1188.672,631.84,1188.672z"/>
					<rect x="686.275" y="447.853" style="fill:#73B3CE;" width="30.515" height="823.908"/>
					<path style="fill:#C0C0C0;" d="M721.932,1103.67h-40.799c-11.004,0-19.924-8.92-19.924-19.924v-2.655
						c0-11.004,8.92-19.924,19.924-19.924h40.799c11.004,0,19.924,8.92,19.924,19.924v2.655
						C741.856,1094.75,732.936,1103.67,721.932,1103.67z"/>
					<rect x="776.367" y="447.853" style="fill:#73B3CE;" width="30.515" height="823.908"/>
					<path style="fill:#C0C0C0;" d="M812.025,650.871h-40.799c-11.004,0-19.924-8.92-19.924-19.924v-2.655
						c0-11.004,8.92-19.924,19.924-19.924h40.799c11.004,0,19.924,8.92,19.924,19.924v2.655
						C831.949,641.951,823.028,650.871,812.025,650.871z"/>
					<rect x="866.46" y="447.853" style="fill:#73B3CE;" width="30.515" height="823.908"/>
					<path style="fill:#C0C0C0;" d="M902.117,784.913h-40.799c-11.004,0-19.924-8.92-19.924-19.924v-2.655
						c0-11.004,8.92-19.924,19.924-19.924h40.799c11.004,0,19.924,8.92,19.924,19.924v2.655
						C922.041,775.993,913.121,784.913,902.117,784.913z"/>
					<rect x="956.552" y="447.853" style="fill:#73B3CE;" width="30.515" height="823.908"/>
					<path style="fill:#C0C0C0;" d="M992.209,1036.354H951.41c-11.004,0-19.924-8.92-19.924-19.924v-2.655
						c0-11.004,8.92-19.924,19.924-19.924h40.799c11.004,0,19.924,8.92,19.924,19.924v2.655
						C1012.133,1027.434,1003.213,1036.354,992.209,1036.354z"/>
					<rect x="1046.644" y="447.853" style="fill:#73B3CE;" width="30.515" height="823.908"/>
					<path style="fill:#C0C0C0;" d="M1082.301,944.814h-40.799c-11.004,0-19.924-8.92-19.924-19.924v-2.655
						c0-11.004,8.92-19.924,19.924-19.924h40.799c11.004,0,19.924,8.92,19.924,19.924v2.655
						C1102.225,935.894,1093.305,944.814,1082.301,944.814z"/>
				</g>
				<rect x="1240.175" y="447.853" style="fill:#EF8062;" width="58.203" height="58.203"/>
				<rect x="1346.276" y="447.853" style="fill:#C25638;" width="58.203" height="58.203"/>
				<rect x="1452.377" y="447.853" style="fill:#EF8062;" width="58.203" height="58.203"/>
				<g>
					<g>
						
							<ellipse transform="matrix(0.7071 -0.7071 0.7071 0.7071 -6.6646 1142.1609)" style="fill:#C4CF7A;" cx="1375.378" cy="579.125" rx="13.081" ry="13.081"/>
						
							<ellipse transform="matrix(0.7071 -0.7071 0.7071 0.7071 -37.7408 1067.1361)" style="fill:#C4CF7A;" cx="1269.277" cy="579.125" rx="13.081" ry="13.081"/>
						
							<ellipse transform="matrix(0.7071 -0.7071 0.7071 0.7071 24.4117 1217.1855)" style="fill:#C4CF7A;" cx="1481.479" cy="579.125" rx="13.081" ry="13.081"/>
						
							<ellipse transform="matrix(0.2298 -0.9732 0.9732 0.2298 441.2881 1827.7563)" style="fill:#C4CF7A;" cx="1375.378" cy="635.083" rx="13.081" ry="13.081"/>
						
							<ellipse transform="matrix(0.2298 -0.9732 0.9732 0.2298 359.5641 1724.4937)" style="fill:#C4CF7A;" cx="1269.277" cy="635.083" rx="13.081" ry="13.081"/>
						
							<ellipse transform="matrix(0.2298 -0.9732 0.9732 0.2298 523.0122 1931.019)" style="fill:#C4CF7A;" cx="1481.479" cy="635.083" rx="13.081" ry="13.081"/>
						<circle style="fill:#C4CF7A;" cx="1375.378" cy="691.04" r="13.081"/>
						<circle style="fill:#C4CF7A;" cx="1269.277" cy="691.04" r="13.081"/>
						<circle style="fill:#C4CF7A;" cx="1481.479" cy="691.04" r="13.081"/>
						
							<ellipse transform="matrix(0.7071 -0.7071 0.7071 0.7071 -125.3681 1191.3295)" style="fill:#C4CF7A;" cx="1375.378" cy="746.997" rx="13.081" ry="13.081"/>
						
							<ellipse transform="matrix(0.7071 -0.7071 0.7071 0.7071 -156.4443 1116.3047)" style="fill:#C4CF7A;" cx="1269.277" cy="746.997" rx="13.081" ry="13.081"/>
						
							<ellipse transform="matrix(0.7071 -0.7071 0.7071 0.7071 -94.2918 1266.3542)" style="fill:#C4CF7A;" cx="1481.479" cy="746.997" rx="13.081" ry="13.081"/>
					</g>
					<g>
						<circle style="fill:#EF8062;" cx="1375.378" cy="1090.809" r="13.081"/>
						<circle style="fill:#764678;" cx="1269.277" cy="1090.809" r="13.081"/>
						<circle style="fill:#498AA6;" cx="1481.479" cy="1090.809" r="13.081"/>
						
							<ellipse transform="matrix(0.7071 -0.7071 0.7071 0.7071 -408.0472 1308.4189)" style="fill:#EF8062;" cx="1375.378" cy="1146.766" rx="13.081" ry="13.081"/>
						
							<ellipse transform="matrix(0.7071 -0.7071 0.7071 0.7071 -439.1235 1233.3943)" style="fill:#764678;" cx="1269.277" cy="1146.766" rx="13.081" ry="13.081"/>
						
							<ellipse transform="matrix(0.7071 -0.7071 0.7071 0.7071 -376.971 1383.4437)" style="fill:#498AA6;" cx="1481.479" cy="1146.766" rx="13.081" ry="13.081"/>
						
							<ellipse transform="matrix(0.2298 -0.9732 0.9732 0.2298 -111.1678 2264.9805)" style="fill:#EF8062;" cx="1375.378" cy="1202.723" rx="13.081" ry="13.081"/>
						
							<ellipse transform="matrix(0.2298 -0.9732 0.9732 0.2298 -192.8919 2161.7178)" style="fill:#603961;" cx="1269.277" cy="1202.723" rx="13.081" ry="13.081"/>
						
							<ellipse transform="matrix(0.2298 -0.9732 0.9732 0.2298 -29.4437 2368.2432)" style="fill:#73B3CE;" cx="1481.479" cy="1202.723" rx="13.081" ry="13.081"/>
						
							<ellipse transform="matrix(0.2298 -0.9732 0.9732 0.2298 -165.6283 2308.0815)" style="fill:#C25638;" cx="1375.378" cy="1258.681" rx="13.081" ry="13.081"/>
						
							<ellipse transform="matrix(0.2298 -0.9732 0.9732 0.2298 -247.3523 2204.8188)" style="fill:#603961;" cx="1269.277" cy="1258.681" rx="13.081" ry="13.081"/>
						
							<ellipse transform="matrix(0.2298 -0.9732 0.9732 0.2298 -83.9042 2411.3442)" style="fill:#73B3CE;" cx="1481.479" cy="1258.681" rx="13.081" ry="13.081"/>
					</g>
				</g>
				<g>
					<g>
						<rect x="1248.351" y="858.092" style="fill:#764678;" width="41.852" height="121.622"/>
						<g style="opacity:0.32;">
							<path style="fill:#C0C0C0;" d="M1254.561,858.092v43.081c0,5.277,4.278,9.555,9.555,9.555h10.323
								c5.277,0,9.555-4.278,9.555-9.555v-43.081H1254.561z"/>
							<path style="fill:#C0C0C0;" d="M1274.438,927.079h-10.323c-5.277,0-9.555,4.278-9.555,9.555v43.081h29.432v-43.081
								C1283.993,931.356,1279.715,927.079,1274.438,927.079z"/>
						</g>
					</g>
					<g>
						<rect x="1354.452" y="858.092" style="fill:#EF8062;" width="41.852" height="121.622"/>
						<g style="opacity:0.32;">
							<path style="fill:#C0C0C0;" d="M1360.662,858.092v43.081c0,5.277,4.278,9.555,9.555,9.555h10.323
								c5.277,0,9.555-4.278,9.555-9.555v-43.081H1360.662z"/>
							<path style="fill:#C0C0C0;" d="M1380.539,927.079h-10.323c-5.277,0-9.555,4.278-9.555,9.555v43.081h29.432v-43.081
								C1390.094,931.356,1385.816,927.079,1380.539,927.079z"/>
						</g>
					</g>
					<g>
						<rect x="1460.553" y="858.092" style="fill:#73B3CE;" width="41.852" height="121.622"/>
						<g style="opacity:0.32;">
							<path style="fill:#C0C0C0;" d="M1466.763,858.092v43.081c0,5.277,4.278,9.555,9.555,9.555h10.323
								c5.277,0,9.555-4.278,9.555-9.555v-43.081H1466.763z"/>
							<path style="fill:#C0C0C0;" d="M1486.64,927.079h-10.323c-5.277,0-9.555,4.278-9.555,9.555v43.081h29.432v-43.081
								C1496.195,931.356,1491.917,927.079,1486.64,927.079z"/>
						</g>
					</g>
				</g>
				<g>
					<g>
						<path style="fill:#E28569;" d="M1788.465,672.895c-1.275,0-2.56-0.015-3.856-0.044c-35.203-0.792-69.096-15.083-90.664-38.228
							c-17.606-18.894-26.244-42.797-24.978-69.125l0.147,0.008l-0.147-0.008c3.358-69.861,40.046-109.217,109.046-116.976
							c28.517-3.206,54.833,5.149,76.105,24.163c12.188,10.894,22.293,25.084,29.221,41.035
							c6.768,15.583,10.346,32.416,10.346,48.682c0,16.737-2.395,32.234-7.118,46.061c-5.138,15.043-12.938,27.75-23.182,37.766
							C1845.281,663.932,1820.089,672.895,1788.465,672.895z"/>
					</g>
					<g>
						<path style="fill:#BED5DC;" d="M1677.57,565.25c2.572-53.494,26.995-99.74,100.704-108.028
							c64.945-7.303,106.8,51.603,106.8,105.159c0,53.556-26.916,103.645-100.713,101.986
							C1730.818,663.162,1674.582,627.4,1677.57,565.25z"/>
					</g>
					<g>
						<path style="fill:#6F4975;" d="M1781.121,561.733l0.179,0.005c1.506,0.042,4.304-0.059,4.262,1.448l-3.122,55.744
							c-0.042,1.506-1.297,2.694-2.803,2.652l-0.179-0.005c-1.506-0.042-2.693-1.297-2.652-2.803l1.543-53.408
							C1778.39,563.859,1779.614,561.691,1781.121,561.733z"/>
					</g>
					<g>
						<path style="fill:#6F4975;" d="M1781.924,562.032L1781.924,562.032c0.361,1.055-0.203,2.204-1.258,2.564l-63.654,21.752
							c-1.055,0.36-2.203-0.203-2.564-1.258l0,0c-0.361-1.055,0.203-2.203,1.258-2.564l63.116-22.855
							C1779.878,559.309,1781.564,560.976,1781.924,562.032z"/>
					</g>
					<g>
						<path style="fill:#503156;" d="M1775.691,562.38c0-3.386,2.745-6.13,6.13-6.13s6.13,2.745,6.13,6.13
							c0,3.386-2.745,6.13-6.13,6.13S1775.691,565.766,1775.691,562.38z"/>
					</g>
					<g>
						<path style="fill:#E28569;" d="M1778.274,562.38c0-1.96,1.589-3.548,3.548-3.548c1.96,0,3.548,1.588,3.548,3.548
							c0,1.959-1.588,3.548-3.548,3.548C1779.862,565.928,1778.274,564.34,1778.274,562.38z"/>
					</g>
					<g>
						<path style="fill:#6F4975;" d="M1775.219,478.97c0.631-2.6,2.582-4.805,5.214-5.279c3.724-0.67,6.038,2.438,6.145,5.11
							c0.151,3.79-2.799,6.098-5.474,6.098C1778.428,484.9,1774.213,483.112,1775.219,478.97z"/>
					</g>
					<g>
						<path style="fill:#6F4975;" d="M1822.149,490.066c0.341-1.403,1.393-2.593,2.813-2.849c2.009-0.362,3.258,1.315,3.316,2.757
							c0.082,2.045-1.511,3.291-2.954,3.291C1823.88,493.266,1821.606,492.302,1822.149,490.066z"/>
					</g>
					<g>
						<path style="fill:#6F4975;" d="M1820.719,634.769c0.341-1.403,1.393-2.593,2.813-2.849c2.009-0.362,3.258,1.316,3.316,2.758
							c0.082,2.045-1.51,3.291-2.954,3.291C1822.451,637.968,1820.177,637.004,1820.719,634.769z"/>
					</g>
					<g>
						<path style="fill:#6F4975;" d="M1842.85,523.906c0.34-1.403,1.393-2.593,2.813-2.849c2.01-0.362,3.258,1.316,3.316,2.758
							c0.082,2.045-1.511,3.291-2.954,3.291C1844.581,527.106,1842.307,526.141,1842.85,523.906z"/>
					</g>
					<g>
						<path style="fill:#6F4975;" d="M1738.624,493.485c-0.183-1.432-1.098-2.731-2.481-3.142c-1.957-0.581-3.383,0.948-3.6,2.375
							c-0.307,2.023,1.138,3.438,2.573,3.597C1736.55,496.474,1738.917,495.767,1738.624,493.485z"/>
					</g>
					<g>
						<path style="fill:#6F4975;" d="M1714.315,524.833c-0.184-1.432-1.098-2.731-2.482-3.142c-1.958-0.581-3.384,0.948-3.6,2.375
							c-0.307,2.023,1.138,3.437,2.573,3.597C1712.241,527.823,1714.607,527.115,1714.315,524.833z"/>
					</g>
					<g>
						<path style="fill:#6F4975;" d="M1844.252,602.055c0.34-1.403,1.393-2.593,2.813-2.849c2.009-0.362,3.258,1.315,3.316,2.758
							c0.081,2.045-1.511,3.291-2.954,3.291C1845.983,605.255,1843.709,604.291,1844.252,602.055z"/>
					</g>
					<g>
						<path style="fill:#6F4975;" d="M1744.986,631.719c-0.341-1.403-1.393-2.593-2.813-2.849c-2.009-0.362-3.258,1.316-3.315,2.758
							c-0.082,2.045,1.51,3.291,2.954,3.291C1743.254,634.919,1745.528,633.955,1744.986,631.719z"/>
					</g>
					<g>
						<path style="fill:#6F4975;" d="M1721.453,599.006c-0.341-1.403-1.393-2.593-2.814-2.849c-2.009-0.362-3.258,1.315-3.316,2.758
							c-0.081,2.045,1.511,3.291,2.954,3.291C1719.721,602.206,1721.995,601.241,1721.453,599.006z"/>
					</g>
					<g>
						<path style="fill:#6F4975;" d="M1775.219,644.519c0.631-2.599,2.582-4.805,5.214-5.279c3.724-0.67,6.038,2.438,6.145,5.11
							c0.151,3.79-2.799,6.099-5.474,6.099C1778.428,650.449,1774.213,648.661,1775.219,644.519z"/>
					</g>
					<g>
						<path style="fill:#6F4975;" d="M1692.705,562.101c0.631-2.599,2.581-4.805,5.213-5.279c3.724-0.67,6.038,2.438,6.145,5.11
							c0.151,3.79-2.799,6.099-5.474,6.099S1691.7,566.243,1692.705,562.101z"/>
					</g>
					<g>
						<path style="fill:#6F4975;" d="M1850.536,562.101c0.631-2.599,2.581-4.805,5.213-5.279c3.724-0.67,6.038,2.438,6.144,5.11
							c0.151,3.79-2.799,6.099-5.474,6.099C1853.744,568.031,1849.53,566.243,1850.536,562.101z"/>
					</g>
				</g>
				<g>
					<g>
						<path style="fill:#E28569;" d="M2091.835,672.895c-1.275,0-2.56-0.015-3.856-0.044c-35.203-0.792-69.096-15.083-90.664-38.228
							c-17.606-18.894-26.244-42.797-24.978-69.125l0.147,0.008l-0.147-0.008c3.358-69.861,40.047-109.217,109.046-116.976
							c28.517-3.206,54.833,5.149,76.105,24.163c12.188,10.894,22.293,25.084,29.221,41.035
							c6.768,15.583,10.346,32.416,10.346,48.682c0,16.737-2.395,32.234-7.117,46.061c-5.138,15.043-12.938,27.75-23.182,37.766
							C2148.65,663.932,2123.458,672.895,2091.835,672.895z"/>
					</g>
					<g>
						<path style="fill:#BED5DC;" d="M1980.939,565.25c2.572-53.494,26.995-99.74,100.704-108.028
							c64.946-7.303,106.8,51.603,106.8,105.159c0,53.556-26.916,103.645-100.712,101.986
							C2034.187,663.162,1977.952,627.4,1980.939,565.25z"/>
					</g>
					<g>
						<path style="fill:#6F4975;" d="M2087.748,561.964l-0.04,0.174c-0.338,1.468-0.789,4.231-2.258,3.894l-54.041-14.029
							c-1.469-0.337-2.386-1.802-2.048-3.27l0.04-0.175c0.337-1.469,1.802-2.386,3.27-2.048l52.06,12.021
							C2086.2,558.868,2088.085,560.495,2087.748,561.964z"/>
					</g>
					<g>
						<path style="fill:#6F4975;" d="M2084.69,563.696L2084.69,563.696c-0.966-0.558-1.297-1.793-0.739-2.758l33.634-58.256
							c0.558-0.965,1.793-1.297,2.759-0.739l0,0c0.966,0.558,1.297,1.793,0.739,2.759l-32.503,58.733
							C2088.022,564.401,2085.656,564.254,2084.69,563.696z"/>
					</g>
					<g>
						<path style="fill:#503156;" d="M2079.061,562.38c0-3.386,2.745-6.13,6.13-6.13s6.13,2.745,6.13,6.13
							c0,3.386-2.745,6.13-6.13,6.13S2079.061,565.766,2079.061,562.38z"/>
					</g>
					<g>
						<path style="fill:#E28569;" d="M2081.643,562.38c0-1.96,1.589-3.548,3.548-3.548c1.96,0,3.548,1.588,3.548,3.548
							c0,1.959-1.588,3.548-3.548,3.548C2083.232,565.928,2081.643,564.34,2081.643,562.38z"/>
					</g>
					<g>
						<path style="fill:#6F4975;" d="M2078.588,478.97c0.631-2.6,2.582-4.805,5.214-5.279c3.724-0.67,6.038,2.438,6.145,5.11
							c0.152,3.79-2.799,6.098-5.474,6.098C2081.797,484.9,2077.583,483.112,2078.588,478.97z"/>
					</g>
					<g>
						<path style="fill:#6F4975;" d="M2125.518,490.066c0.341-1.403,1.393-2.593,2.813-2.849c2.01-0.362,3.258,1.315,3.316,2.757
							c0.082,2.045-1.51,3.291-2.954,3.291S2124.975,492.302,2125.518,490.066z"/>
					</g>
					<g>
						<path style="fill:#6F4975;" d="M2124.089,634.769c0.341-1.403,1.393-2.593,2.813-2.849c2.009-0.362,3.258,1.316,3.316,2.758
							c0.082,2.045-1.51,3.291-2.954,3.291S2123.546,637.004,2124.089,634.769z"/>
					</g>
					<g>
						<path style="fill:#6F4975;" d="M2146.219,523.906c0.34-1.403,1.393-2.593,2.813-2.849c2.01-0.362,3.258,1.316,3.316,2.758
							c0.082,2.045-1.511,3.291-2.954,3.291S2145.677,526.141,2146.219,523.906z"/>
					</g>
					<g>
						<path style="fill:#6F4975;" d="M2041.994,493.485c-0.183-1.432-1.098-2.731-2.481-3.142c-1.957-0.581-3.383,0.948-3.6,2.375
							c-0.307,2.023,1.138,3.438,2.573,3.597C2039.92,496.474,2042.286,495.767,2041.994,493.485z"/>
					</g>
					<g>
						<path style="fill:#6F4975;" d="M2017.684,524.833c-0.184-1.432-1.098-2.731-2.482-3.142c-1.958-0.581-3.384,0.948-3.6,2.375
							c-0.307,2.023,1.138,3.437,2.573,3.597C2015.61,527.823,2017.976,527.115,2017.684,524.833z"/>
					</g>
					<g>
						<path style="fill:#6F4975;" d="M2147.621,602.055c0.34-1.403,1.393-2.593,2.813-2.849c2.01-0.362,3.258,1.315,3.316,2.758
							c0.081,2.045-1.51,3.291-2.954,3.291C2149.352,605.255,2147.078,604.291,2147.621,602.055z"/>
					</g>
					<g>
						<path style="fill:#6F4975;" d="M2048.355,631.719c-0.341-1.403-1.393-2.593-2.813-2.849c-2.009-0.362-3.258,1.316-3.315,2.758
							c-0.082,2.045,1.51,3.291,2.954,3.291S2048.897,633.955,2048.355,631.719z"/>
					</g>
					<g>
						<path style="fill:#6F4975;" d="M2024.823,599.006c-0.341-1.403-1.393-2.593-2.814-2.849c-2.009-0.362-3.258,1.315-3.316,2.758
							c-0.081,2.045,1.511,3.291,2.954,3.291C2023.091,602.206,2025.365,601.241,2024.823,599.006z"/>
					</g>
					<g>
						<path style="fill:#6F4975;" d="M2078.588,644.519c0.631-2.599,2.582-4.805,5.214-5.279c3.724-0.67,6.038,2.438,6.145,5.11
							c0.152,3.79-2.799,6.099-5.474,6.099C2081.797,650.449,2077.583,648.661,2078.588,644.519z"/>
					</g>
					<g>
						<path style="fill:#6F4975;" d="M1996.075,562.101c0.631-2.599,2.581-4.805,5.213-5.279c3.724-0.67,6.038,2.438,6.145,5.11
							c0.151,3.79-2.799,6.099-5.474,6.099S1995.069,566.243,1996.075,562.101z"/>
					</g>
					<g>
						<path style="fill:#6F4975;" d="M2153.905,562.101c0.631-2.599,2.581-4.805,5.213-5.279c3.724-0.67,6.038,2.438,6.145,5.11
							c0.151,3.79-2.799,6.099-5.474,6.099C2157.114,568.031,2152.899,566.243,2153.905,562.101z"/>
					</g>
				</g>
				<g>
					<g>
						<path style="fill:#E28569;" d="M2395.204,672.895c-1.275,0-2.56-0.015-3.856-0.044c-35.203-0.792-69.096-15.083-90.664-38.228
							c-17.606-18.894-26.243-42.797-24.978-69.125l0.147,0.008l-0.147-0.008c3.358-69.861,40.047-109.217,109.046-116.976
							c28.517-3.206,54.833,5.149,76.105,24.163c12.188,10.894,22.293,25.084,29.221,41.035
							c6.768,15.583,10.346,32.416,10.346,48.682c0,16.737-2.395,32.234-7.117,46.061c-5.138,15.043-12.938,27.75-23.182,37.766
							C2452.02,663.932,2426.827,672.895,2395.204,672.895z"/>
					</g>
					<g>
						<path style="fill:#BED5DC;" d="M2284.308,565.25c2.572-53.494,26.995-99.74,100.704-108.028
							c64.946-7.303,106.8,51.603,106.8,105.159c0,53.556-26.916,103.645-100.713,101.986
							C2337.557,663.162,2281.321,627.4,2284.308,565.25z"/>
					</g>
					<g>
						<path style="fill:#6F4975;" d="M2386.969,561.881L2386.969,561.881c0.588-0.404,3.164-1.963,3.568-1.375l38.992,60.998
							c0.404,0.588,0.255,1.391-0.332,1.795l0,0c-0.587,0.404-1.391,0.255-1.795-0.332l-40.764-59.29
							C2386.232,563.088,2386.381,562.285,2386.969,561.881z"/>
					</g>
					<g>
						<path style="fill:#6F4975;" d="M2388.861,563.393l-0.138,0.114c-1.162,0.959-3.203,2.875-4.162,1.713l-34.318-44.039
							c-0.959-1.162-0.795-2.882,0.367-3.841l0.138-0.114c1.162-0.959,2.882-0.795,3.841,0.367l33.97,41.241
							C2389.52,559.994,2390.024,562.433,2388.861,563.393z"/>
					</g>
					<g>
						<path style="fill:#503156;" d="M2382.43,562.38c0-3.386,2.745-6.13,6.13-6.13s6.13,2.745,6.13,6.13
							c0,3.386-2.745,6.13-6.13,6.13S2382.43,565.766,2382.43,562.38z"/>
					</g>
					<g>
						<path style="fill:#E28569;" d="M2385.012,562.38c0-1.96,1.589-3.548,3.548-3.548c1.96,0,3.548,1.588,3.548,3.548
							c0,1.959-1.588,3.548-3.548,3.548C2386.601,565.928,2385.012,564.34,2385.012,562.38z"/>
					</g>
					<g>
						<path style="fill:#6F4975;" d="M2381.958,478.97c0.631-2.6,2.582-4.805,5.214-5.279c3.724-0.67,6.038,2.438,6.145,5.11
							c0.151,3.79-2.799,6.098-5.474,6.098C2385.167,484.9,2380.952,483.112,2381.958,478.97z"/>
					</g>
					<g>
						<path style="fill:#6F4975;" d="M2428.887,490.066c0.341-1.403,1.393-2.593,2.813-2.849c2.009-0.362,3.258,1.315,3.316,2.757
							c0.082,2.045-1.51,3.291-2.954,3.291S2428.345,492.302,2428.887,490.066z"/>
					</g>
					<g>
						<path style="fill:#6F4975;" d="M2427.458,634.769c0.341-1.403,1.393-2.593,2.813-2.849c2.009-0.362,3.258,1.316,3.316,2.758
							c0.082,2.045-1.51,3.291-2.954,3.291S2426.915,637.004,2427.458,634.769z"/>
					</g>
					<g>
						<path style="fill:#6F4975;" d="M2449.588,523.906c0.34-1.403,1.393-2.593,2.813-2.849c2.01-0.362,3.258,1.316,3.316,2.758
							c0.082,2.045-1.511,3.291-2.954,3.291S2449.046,526.141,2449.588,523.906z"/>
					</g>
					<g>
						<path style="fill:#6F4975;" d="M2345.363,493.485c-0.183-1.432-1.098-2.731-2.482-3.142c-1.957-0.581-3.383,0.948-3.6,2.375
							c-0.307,2.023,1.138,3.438,2.573,3.597C2343.289,496.474,2345.656,495.767,2345.363,493.485z"/>
					</g>
					<g>
						<path style="fill:#6F4975;" d="M2321.054,524.833c-0.184-1.432-1.098-2.731-2.481-3.142c-1.958-0.581-3.384,0.948-3.6,2.375
							c-0.307,2.023,1.138,3.437,2.573,3.597C2318.979,527.823,2321.346,527.115,2321.054,524.833z"/>
					</g>
					<g>
						<path style="fill:#6F4975;" d="M2450.99,602.055c0.34-1.403,1.393-2.593,2.813-2.849c2.009-0.362,3.258,1.315,3.316,2.758
							c0.081,2.045-1.51,3.291-2.954,3.291C2452.722,605.255,2450.448,604.291,2450.99,602.055z"/>
					</g>
					<g>
						<path style="fill:#6F4975;" d="M2351.724,631.719c-0.341-1.403-1.393-2.593-2.813-2.849c-2.009-0.362-3.258,1.316-3.315,2.758
							c-0.082,2.045,1.51,3.291,2.954,3.291S2352.267,633.955,2351.724,631.719z"/>
					</g>
					<g>
						<path style="fill:#6F4975;" d="M2328.192,599.006c-0.341-1.403-1.393-2.593-2.814-2.849c-2.009-0.362-3.258,1.315-3.316,2.758
							c-0.082,2.045,1.511,3.291,2.954,3.291C2326.46,602.206,2328.734,601.241,2328.192,599.006z"/>
					</g>
					<g>
						<path style="fill:#6F4975;" d="M2381.958,644.519c0.631-2.599,2.582-4.805,5.214-5.279c3.724-0.67,6.038,2.438,6.145,5.11
							c0.151,3.79-2.799,6.099-5.474,6.099C2385.167,650.449,2380.952,648.661,2381.958,644.519z"/>
					</g>
					<g>
						<path style="fill:#6F4975;" d="M2299.444,562.101c0.631-2.599,2.581-4.805,5.213-5.279c3.724-0.67,6.038,2.438,6.145,5.11
							c0.152,3.79-2.799,6.099-5.474,6.099S2298.439,566.243,2299.444,562.101z"/>
					</g>
					<g>
						<path style="fill:#6F4975;" d="M2457.274,562.101c0.631-2.599,2.581-4.805,5.213-5.279c3.724-0.67,6.038,2.438,6.145,5.11
							c0.151,3.79-2.799,6.099-5.474,6.099C2460.483,568.031,2456.269,566.243,2457.274,562.101z"/>
					</g>
				</g>
				<g>
					
						<ellipse transform="matrix(0.2298 -0.9732 0.9732 0.2298 830.7802 2808.2639)" style="fill:#EF8062;" cx="2189.588" cy="879.264" rx="28.373" ry="28.373"/>
					
						<ellipse transform="matrix(0.7071 -0.7071 0.7071 0.7071 -47.8243 1643.0696)" style="fill:#EF8062;" cx="1959.448" cy="879.264" rx="28.373" ry="28.373"/>
					
						<ellipse transform="matrix(0.7071 -0.7071 0.7071 0.7071 86.9882 1968.5358)" style="fill:#EF8062;" cx="2419.727" cy="879.264" rx="28.373" ry="28.373"/>
					
						<ellipse transform="matrix(0.7071 -0.7071 0.7071 0.7071 -66.243 1841.3525)" style="fill:#EF8062;" cx="2189.588" cy="1000.639" rx="28.373" ry="28.373"/>
					
						<ellipse transform="matrix(0.2298 -0.9732 0.9732 0.2298 535.3893 2677.7708)" style="fill:#EF8062;" cx="1959.448" cy="1000.639" rx="28.373" ry="28.373"/>
					
						<ellipse transform="matrix(0.2298 -0.9732 0.9732 0.2298 889.9178 3125.7366)" style="fill:#EF8062;" cx="2419.727" cy="1000.639" rx="28.373" ry="28.373"/>
					
						<ellipse transform="matrix(0.2298 -0.9732 0.9732 0.2298 594.5243 2995.2412)" style="fill:#EF8062;" cx="2189.588" cy="1122.014" rx="28.373" ry="28.373"/>
					
						<ellipse transform="matrix(0.7071 -0.7071 0.7071 0.7071 -219.4743 1714.1693)" style="fill:#EF8062;" cx="1959.448" cy="1122.014" rx="28.373" ry="28.373"/>
					
						<ellipse transform="matrix(0.7071 -0.7071 0.7071 0.7071 -84.6618 2039.6355)" style="fill:#EF8062;" cx="2419.727" cy="1122.014" rx="28.373" ry="28.373"/>
					
						<ellipse transform="matrix(0.7071 -0.7071 0.7071 0.7071 -237.893 1912.4523)" style="fill:#EF8062;" cx="2189.588" cy="1243.388" rx="28.373" ry="28.373"/>
					
						<ellipse transform="matrix(0.2298 -0.9732 0.9732 0.2298 299.1334 2864.748)" style="fill:#EF8062;" cx="1959.448" cy="1243.388" rx="28.373" ry="28.373"/>
					
						<ellipse transform="matrix(0.9239 -0.3827 0.3827 0.9239 -204.8599 728.6283)" style="fill:#EF8062;" cx="1729.1" cy="879.264" rx="28.373" ry="28.373"/>
					
						<ellipse transform="matrix(0.1602 -0.9871 0.9871 0.1602 464.4111 2547.1272)" style="fill:#EF8062;" cx="1729.1" cy="1000.639" rx="28.373" ry="28.373"/>
					
						<ellipse transform="matrix(0.9239 -0.3827 0.3827 0.9239 -297.7562 747.1065)" style="fill:#EF8062;" cx="1729.1" cy="1122.014" rx="28.373" ry="28.373"/>
					
						<ellipse transform="matrix(0.1602 -0.9871 0.9871 0.1602 224.7959 2750.9927)" style="fill:#EF8062;" cx="1729.1" cy="1243.388" rx="28.373" ry="28.373"/>
					
						<ellipse transform="matrix(0.2298 -0.9732 0.9732 0.2298 653.6619 3312.7139)" style="fill:#EF8062;" cx="2419.727" cy="1243.388" rx="28.373" ry="28.373"/>
				</g>
			</g>
			<g>
				<g>
					<g>
						<path style="fill:#FFB27D;" d="M950.44,987.963c-14.374-3.732-27.316,9.166-32.275,23.356
							c-19.652,56.259-57.252,188.677-74.04,188.883c-10.965,0.134-8.218-15.912-32.817-16.108
							c-19.883-0.16-22.657,17.912-33.033,19.333c-14.951,2.047-13.453-3.585-27.521-7.622
							c-21.295-6.114-28.453,22.293-44.745,16.872c-16.284-5.416-30.863-26.236-54.476-6.407
							c-15.599,13.093-23.153,40.157-37.335,146.411c-8.308,62.237,5.433,226.235,7.292,259.228
							c1.164,1.295,188.737,27.124,250.263,15.455c27.076-53.132,83.632-200.863,90.568-243.575
							c3.82-23.474,6.561-52.074-33.162-89.013C935.379,1218.748,1006.443,1002.517,950.44,987.963z"/>
					</g>
					<g>
						<path style="fill:#F59A6D;" d="M930.733,1358.668l-4.209,0.495c-2.644-22.483,0.376-62.853,0.506-64.56l4.226,0.321
							C931.224,1295.338,928.137,1336.593,930.733,1358.668z"/>
					</g>
					<g>
						<path style="fill:#F59A6D;" d="M957.263,1035.015c-3.658,2.939-12.536,2.876-19.8,0.945
							c-6.943-1.845-11.148-5.034-11.535-8.748c-0.929-8.892,9.112-24.291,9.659-25.121c0.668-1.09,2.075-1.664,4.294-1.761
							c6.544-0.285,20.703,4.15,22.444,6.529c2.042,2.79,0.261,21.083-4.132,27.188
							C957.94,1034.4,957.627,1034.723,957.263,1035.015z M937.356,1002.798c-0.096,0.078-0.172,0.161-0.226,0.25l-0.019,0.029
							c-0.102,0.156-10.244,15.645-9.377,23.946c0.301,2.88,4.112,5.564,10.196,7.181c8.01,2.129,16.795,1.561,18.789-1.218
							c4.273-5.939,5.39-23.348,4.141-25.055c-0.989-1.351-13.986-6.089-20.9-5.787
							C938.729,1002.198,937.812,1002.432,937.356,1002.798z"/>
					</g>
				</g>
				<path style="fill:#764678;" d="M886.077,1596.795c-94.528,8.846-274.524-59.634-274.524-59.634s-39.519,153.156-74.519,336.202
					c60.916,14.363,179.757-13.694,394.222-13.694l-18.14-267.21C904.531,1594.503,895.481,1595.918,886.077,1596.795z"/>
			</g>
			<g>
				<g>
					<g>
						<path style="fill:#FFB27D;" d="M2259.063,1203.983c0,0,19.313-146.587,6.887-158.149
							c-23.963-22.295-34.921,51.37-34.921,51.37L2259.063,1203.983z"/>
					</g>
					<g>
						<path style="fill:#FFB27D;" d="M2329.342,1450.604c-17.175-48.98-26.367-84.231-37.681-117.896
							c-27.901-83.024-108.495-232.177-185.574-236.065s-176.444,78.476-158.907,109.746
							c17.536,31.269,132.331-11.321,155.122,3.271c22.791,14.592,1.518,155.463-18.156,157.211
							c-19.675,1.748-83.635-110.572-123.922-82.835c0,0-22.655,15.58,14.358,77.475c20.049,33.526,32.67,97.137,77.542,152.328
							c17.655,21.715,42.256,53.793,57.754,64.613C2136.406,1596.975,2338.753,1477.444,2329.342,1450.604z"/>
					</g>
					<g>
						<path style="fill:#FFB27D;" d="M2281.301,1304.888c0,0-25.699-174.47-79.514-231.004
							c-53.815-56.534-99.92-87.128-121.591-62.621c-21.671,24.507,63.181,143.846,63.181,143.846L2281.301,1304.888z"/>
					</g>
					<g>
						<path style="fill:#FFB27D;" d="M2308.315,1388.294c-9.971-64.916-97.38-407.608-119.563-414.841
							c-42.968-14.011-18.68,113.943-18.68,113.943L2308.315,1388.294z"/>
					</g>
					<g>
						<path style="fill:#FFB27D;" d="M2084.145,1366.871c0,0-80.005-97.588-118.161-95.869
							c-38.156,1.719,4.728,83.473,47.404,175.092C2056.063,1537.714,2135.547,1412.11,2084.145,1366.871z"/>
					</g>
					<g>
						<path style="fill:#E9845C;" d="M2195.999,1176.976c0.268,0.142,0.58,0.208,0.904,0.172c0.852-0.097,1.463-0.867,1.366-1.719
							c-3.226-28.219-13.775-49.536-31.357-63.36c-26.683-20.979-59.628-17.14-61.017-16.966c-0.85,0.106-1.453,0.881-1.347,1.732
							c0.106,0.85,0.88,1.455,1.732,1.348c0.328-0.04,33.097-3.837,58.741,16.347c16.89,13.293,27.039,33.901,30.165,61.251
							C2195.245,1176.309,2195.564,1176.744,2195.999,1176.976z"/>
					</g>
					<g>
						<path style="fill:#E9845C;" d="M2231.532,1174.251c0.271,0.144,0.586,0.209,0.913,0.17c0.851-0.103,1.458-0.875,1.356-1.727
							c-0.055-0.46-5.635-46.273-14.66-72.134c-3.838-10.998-14.157-25.178-30.669-42.147
							c-12.235-12.573-23.511-22.086-23.623-22.181c-0.653-0.551-1.634-0.468-2.187,0.189c-0.552,0.656-0.468,1.635,0.188,2.187
							c0.444,0.373,44.531,37.676,53.359,62.975c8.916,25.546,14.455,71.026,14.51,71.482
							C2230.782,1173.59,2231.099,1174.02,2231.532,1174.251z"/>
					</g>
				</g>
				<g>
					<path style="fill:#E9845C;" d="M1959.944,1181.78c2.351,1.251,7.788,3.292,16.261,1.619
						c11.332-2.24,23.262-18.079,23.765-18.752c0.513-0.687,0.372-1.66-0.315-2.172c-0.685-0.515-1.659-0.372-2.172,0.315
						c-0.116,0.155-11.72,15.556-21.879,17.563c-9.944,1.965-14.878-1.693-15.083-1.85c-0.671-0.514-1.65-0.395-2.173,0.279
						c-0.523,0.674-0.408,1.64,0.263,2.167C1958.674,1181,1959.119,1181.341,1959.944,1181.78z"/>
				</g>
				<g>
					<path style="fill:#E9845C;" d="M2129.537,1032.484c8.316,4.424,15.789,5.993,16.257,6.088c0.84,0.171,1.659-0.371,1.83-1.211
						c0.172-0.84-0.371-1.662-1.21-1.831c-0.166-0.033-16.613-3.505-27.373-14.551c-0.598-0.615-1.581-0.627-2.195-0.029
						s-0.627,1.581-0.029,2.195C2120.716,1027.148,2125.24,1030.198,2129.537,1032.484z"/>
				</g>
			</g>
			<path style="fill:#764678;" d="M2170.439,1528.474c-82.565,49.966-106.184,72.87-106.184,72.87
				c27.321,112.262,53.669,294.734,53.669,294.734l423.12-31.666c0,0-117.364-275.582-198.139-429.135
				C2278.095,1470.098,2256.654,1476.298,2170.439,1528.474z"/>
		</g>
	</g>
</g>
</svg>
