<?xml version="1.0" encoding="utf-8"?>
<!-- Generator: Adobe Illustrator 27.5.0, SVG Export Plug-In . SVG Version: 6.00 Build 0)  -->
<svg version="1.1" xmlns="http://www.w3.org/2000/svg" xmlns:xlink="http://www.w3.org/1999/xlink" x="0px" y="0px"
	 viewBox="0 0 500 500" style="enable-background:new 0 0 500 500;" xml:space="preserve">
<g id="BACKGROUND">
	<rect style="fill:#FFFFFF;" width="500" height="500"/>
</g>
<g id="OBJECTS">
	<g>
		<polygon style="fill:#EAEAEA;" points="364.212,275.021 362.723,175.109 362.669,175.109 362.669,164.365 305.35,168.683 
			305.35,175.787 305.356,175.787 304.468,264.895 310.567,264.895 309.678,175.787 355.551,175.787 354.071,275.021 		"/>
		<polygon style="fill:#EAEAEA;" points="214.117,204.163 210.019,74.446 211.718,74.446 211.718,70.837 188.931,70.837 
			188.931,74.446 190.943,74.446 187.432,204.163 		"/>
		<polygon style="fill:#EAEAEA;" points="174.669,232.195 171.768,102.479 172.971,102.479 172.971,98.87 156.837,98.87 
			156.837,102.479 158.262,102.479 155.775,232.195 		"/>
		<polygon style="fill:#CCCCCC;" points="246.256,152.928 241.294,186.165 211.233,152.928 206.582,184.088 178.399,152.928 
			173.437,186.165 143.376,152.928 138.415,186.165 108.353,152.928 103.392,186.165 73.331,152.928 68.369,186.165 68.369,318.892 
			103.392,318.892 138.415,318.892 173.437,318.892 206.271,318.892 208.46,318.892 241.294,318.892 276.317,318.892 
			276.317,186.165 		"/>
		<path style="fill:#B7B7B7;" d="M108.841,319.556h255.594v-38.771h-30.564l-5.956,19.275c-0.737,2.384-2.94,4.009-5.436,4.009
			H149.412c-2.765,0-5.273-1.624-6.402-4.147l-8.57-19.137h-25.598V319.556z"/>
		<rect x="60.702" y="312.957" style="fill:#AAAAAA;" width="380.937" height="6.599"/>
	</g>
	<g>
		<g>
			<path style="fill:#353434;" d="M149.209,241.402c0,1.732-1.404,3.137-3.137,3.137c-1.733,0-3.137-1.404-3.137-3.137
				c0-1.732,1.405-3.137,3.137-3.137C147.805,238.266,149.209,239.67,149.209,241.402z"/>
			<path style="fill:#353434;" d="M166.32,241.402c0,1.732-1.404,3.137-3.137,3.137c-1.732,0-3.137-1.404-3.137-3.137
				c0-1.732,1.405-3.137,3.137-3.137C164.915,238.266,166.32,239.67,166.32,241.402z"/>
			<path style="fill:#353434;" d="M178.617,241.402c0,1.732-1.405,3.137-3.137,3.137c-1.732,0-3.137-1.404-3.137-3.137
				c0-1.732,1.404-3.137,3.137-3.137C177.212,238.266,178.617,239.67,178.617,241.402z"/>
		</g>
		<polygon style="fill:#32438B;" points="261.729,233.588 244.03,233.588 205.082,233.588 205.082,234.319 210.199,234.319 
			210.199,251.982 249.147,251.982 260.877,251.982 299.824,251.982 299.824,234.319 300.677,234.319 300.677,233.588 		"/>
		<polygon style="fill:#445AA0;" points="299.824,234.319 300.677,234.319 300.677,233.588 293.417,233.588 293.417,251.982 
			299.824,251.982 		"/>
		<rect x="133.15" y="220.831" style="fill:#32438B;" width="0.579" height="21.146"/>
		<g>
			<rect x="214.117" y="235.05" style="fill:#F5FBFF;" width="3.045" height="10.72"/>
			<rect x="219.599" y="235.05" style="fill:#F5FBFF;" width="3.045" height="10.72"/>
			<rect x="224.878" y="235.05" style="fill:#F5FBFF;" width="3.046" height="10.72"/>
			<rect x="230.36" y="235.05" style="fill:#F5FBFF;" width="3.046" height="10.72"/>
			<rect x="253.064" y="235.05" style="fill:#F5FBFF;" width="3.046" height="10.72"/>
			<rect x="258.546" y="235.05" style="fill:#F5FBFF;" width="3.046" height="10.72"/>
			<rect x="263.826" y="235.05" style="fill:#F5FBFF;" width="3.046" height="10.72"/>
			<rect x="269.309" y="235.05" style="fill:#F5FBFF;" width="3.045" height="10.72"/>
		</g>
		<g>
			<rect x="216.162" y="235.05" style="fill:#FFFFFF;" width="1" height="10.72"/>
			<rect x="221.644" y="235.05" style="fill:#FFFFFF;" width="1" height="10.72"/>
			<rect x="226.924" y="235.05" style="fill:#FFFFFF;" width="1" height="10.72"/>
			<rect x="232.406" y="235.05" style="fill:#FFFFFF;" width="1" height="10.72"/>
			<rect x="255.11" y="235.05" style="fill:#FFFFFF;" width="1" height="10.72"/>
			<rect x="260.592" y="235.05" style="fill:#FFFFFF;" width="1" height="10.72"/>
			<rect x="265.872" y="235.05" style="fill:#FFFFFF;" width="1" height="10.72"/>
			<rect x="271.353" y="235.05" style="fill:#FFFFFF;" width="1" height="10.72"/>
		</g>
		<polygon style="fill:#87C8F9;" points="230.628,209.973 235.029,209.973 235.029,201.519 230.628,201.519 230.628,200.071 
			222.174,200.071 222.174,201.519 217.773,201.519 217.773,209.973 222.174,209.973 222.174,225.133 211.172,225.133 
			211.172,233.588 222.174,233.588 230.628,233.588 241.631,233.588 241.631,225.133 230.628,225.133 		"/>
		<rect x="249.828" y="225.133" style="fill:#87C8F9;" width="49.091" height="8.455"/>
		<g>
			<g>
				<g>
					<rect x="227.628" y="209.973" style="fill:#A9DCFC;" width="3" height="15.16"/>
				</g>
				<g>
					<rect x="232.029" y="201.519" style="fill:#A9DCFC;" width="3" height="8.455"/>
				</g>
				<g>
					<rect x="238.631" y="225.133" style="fill:#A9DCFC;" width="3" height="8.455"/>
				</g>
				<g>
					<rect x="295.919" y="225.133" style="fill:#A9DCFC;" width="3" height="8.455"/>
				</g>
			</g>
		</g>
		<rect x="217.773" y="200.129" style="fill:#3B9BFF;" width="17.256" height="1.39"/>
		<rect x="232.029" y="200.129" style="fill:#76BEFF;" width="3" height="1.39"/>
		<path style="fill:#32438B;" d="M229.875,187.593L229.875,187.593c-0.414,0-0.752-0.339-0.752-0.753v-2.258
			c0-0.414,0.339-0.753,0.752-0.753l0,0c0.414,0,0.753,0.339,0.753,0.753v2.258C230.628,187.254,230.29,187.593,229.875,187.593z"/>
		<polygon style="fill:#32438B;" points="229.886,185.903 133.183,221.319 133.267,221.547 229.97,186.132 		"/>
		<polygon style="fill:#3B9BFF;" points="222.174,200.071 230.628,200.071 230.628,185.871 229.109,185.871 		"/>
		<rect x="256.465" y="249.434" style="fill:#3B9BFF;" width="54.288" height="2.13"/>
		<rect x="307.753" y="249.434" style="fill:#76BEFF;" width="3" height="2.13"/>
		
			<rect x="329.451" y="225.592" transform="matrix(0.6506 0.7594 -0.7594 0.6506 305.5849 -163.2418)" style="fill:#32438B;" width="1.517" height="49.815"/>
		
			<rect x="225.944" y="210.357" transform="matrix(0.9281 0.3722 -0.3722 0.9281 99.1584 -92.6611)" style="fill:#32438B;" width="127.24" height="0.248"/>
		<path style="fill:#3B9BFF;" d="M132.346,241.402L132.346,241.402l21.72,48.498c1.004,2.242,3.23,3.685,5.687,3.685h153.711
			c2.216,0,4.173-1.444,4.827-3.561l11.919-38.57H136.847L132.346,241.402z"/>
		<path style="fill:#76BEFF;" d="M318.557,251.454l-12.042,39.637c-0.304,0.996-0.839,1.84-1.512,2.494h8.46
			c2.216,0,4.173-1.444,4.827-3.561l11.919-38.57H318.557z"/>
		<polygon style="fill:#F5FBFF;" points="132.346,241.402 136.845,251.454 189.207,251.454 185.388,241.402 		"/>
		<polygon style="fill:#FFFFFF;" points="185.388,241.402 181.388,241.402 185.207,251.454 189.207,251.454 		"/>
		<rect x="222.644" y="245.689" style="fill:#87C8F9;" width="36.084" height="5.765"/>
		<rect x="255.728" y="245.689" style="fill:#A9DCFC;" width="3" height="5.765"/>
		<g>
			<g>
				<path style="fill:#32438B;" d="M279.278,261.339c0,2.972-2.409,5.381-5.381,5.381c-2.973,0-5.382-2.409-5.382-5.381
					c0-2.972,2.409-5.382,5.382-5.382C276.869,255.957,279.278,258.367,279.278,261.339z"/>
				<path style="fill:#445AA0;" d="M273.897,255.957c-0.306,0-0.603,0.032-0.894,0.08c2.546,0.427,4.487,2.635,4.487,5.302
					s-1.941,4.874-4.487,5.301c0.291,0.049,0.588,0.08,0.894,0.08c2.972,0,5.381-2.409,5.381-5.381
					C279.278,258.367,276.869,255.957,273.897,255.957z"/>
				<path style="fill:#CAE6FF;" d="M277.702,261.339c0,2.102-1.704,3.805-3.805,3.805c-2.102,0-3.806-1.703-3.806-3.805
					c0-2.102,1.704-3.806,3.806-3.806C275.998,257.533,277.702,259.237,277.702,261.339z"/>
				<path style="fill:#DEF1FF;" d="M276.969,263.566c0.456-0.627,0.733-1.393,0.733-2.228c0-0.835-0.277-1.601-0.733-2.228
					c0.37,0.652,0.596,1.409,0.596,2.228C277.564,262.157,277.339,262.915,276.969,263.566z"/>
			</g>
			<g>
				<path style="fill:#32438B;" d="M263.197,261.339c0,2.972-2.409,5.381-5.382,5.381c-2.972,0-5.381-2.409-5.381-5.381
					c0-2.972,2.409-5.382,5.381-5.382C260.788,255.957,263.197,258.367,263.197,261.339z"/>
				<path style="fill:#445AA0;" d="M257.815,255.957c-0.305,0-0.602,0.032-0.893,0.08c2.545,0.427,4.487,2.635,4.487,5.302
					s-1.942,4.874-4.487,5.301c0.291,0.049,0.588,0.08,0.893,0.08c2.973,0,5.382-2.409,5.382-5.381
					C263.197,258.367,260.788,255.957,257.815,255.957z"/>
				<path style="fill:#CAE6FF;" d="M261.621,261.339c0,2.102-1.704,3.805-3.806,3.805c-2.102,0-3.805-1.703-3.805-3.805
					c0-2.102,1.703-3.806,3.805-3.806C259.917,257.533,261.621,259.237,261.621,261.339z"/>
				<path style="fill:#DEF1FF;" d="M260.888,263.566c0.456-0.627,0.733-1.393,0.733-2.228c0-0.835-0.277-1.601-0.733-2.228
					c0.37,0.652,0.595,1.409,0.595,2.228C261.482,262.157,261.258,262.915,260.888,263.566z"/>
			</g>
			<g>
				<path style="fill:#32438B;" d="M295.359,261.339c0,2.972-2.409,5.381-5.381,5.381s-5.381-2.409-5.381-5.381
					c0-2.972,2.409-5.382,5.381-5.382S295.359,258.367,295.359,261.339z"/>
				<path style="fill:#445AA0;" d="M289.978,255.957c-0.305,0-0.602,0.032-0.893,0.08c2.546,0.427,4.487,2.635,4.487,5.302
					s-1.941,4.874-4.487,5.301c0.291,0.049,0.589,0.08,0.893,0.08c2.972,0,5.381-2.409,5.381-5.381
					C295.359,258.367,292.95,255.957,289.978,255.957z"/>
				<path style="fill:#CAE6FF;" d="M293.783,261.339c0,2.102-1.703,3.805-3.805,3.805c-2.101,0-3.805-1.703-3.805-3.805
					c0-2.102,1.703-3.806,3.805-3.806C292.08,257.533,293.783,259.237,293.783,261.339z"/>
				<path style="fill:#DEF1FF;" d="M293.051,263.566c0.456-0.627,0.732-1.393,0.732-2.228c0-0.835-0.276-1.601-0.732-2.228
					c0.369,0.652,0.595,1.409,0.595,2.228C293.645,262.157,293.42,262.915,293.051,263.566z"/>
			</g>
			<g>
				<path style="fill:#32438B;" d="M211.843,261.339c0,2.972-2.409,5.381-5.381,5.381c-2.972,0-5.381-2.409-5.381-5.381
					c0-2.972,2.409-5.382,5.381-5.382C209.434,255.957,211.843,258.367,211.843,261.339z"/>
				<path style="fill:#445AA0;" d="M206.461,255.957c-0.305,0-0.602,0.032-0.893,0.08c2.546,0.427,4.487,2.635,4.487,5.302
					s-1.941,4.874-4.487,5.301c0.291,0.049,0.588,0.08,0.893,0.08c2.972,0,5.381-2.409,5.381-5.381
					C211.843,258.367,209.434,255.957,206.461,255.957z"/>
				<path style="fill:#CAE6FF;" d="M210.267,261.339c0,2.102-1.704,3.805-3.805,3.805c-2.101,0-3.805-1.703-3.805-3.805
					c0-2.102,1.704-3.806,3.805-3.806C208.563,257.533,210.267,259.237,210.267,261.339z"/>
				<path style="fill:#DEF1FF;" d="M209.534,263.566c0.456-0.627,0.733-1.393,0.733-2.228c0-0.835-0.277-1.601-0.733-2.228
					c0.37,0.652,0.595,1.409,0.595,2.228C210.128,262.157,209.904,262.915,209.534,263.566z"/>
			</g>
			<g>
				<path style="fill:#32438B;" d="M195.761,261.339c0,2.972-2.409,5.381-5.381,5.381c-2.972,0-5.381-2.409-5.381-5.381
					c0-2.972,2.409-5.382,5.381-5.382C193.352,255.957,195.761,258.367,195.761,261.339z"/>
				<path style="fill:#445AA0;" d="M190.38,255.957c-0.305,0-0.602,0.032-0.894,0.08c2.546,0.427,4.488,2.635,4.488,5.302
					s-1.942,4.874-4.488,5.301c0.292,0.049,0.588,0.08,0.894,0.08c2.972,0,5.381-2.409,5.381-5.381
					C195.761,258.367,193.352,255.957,190.38,255.957z"/>
				<path style="fill:#CAE6FF;" d="M194.185,261.339c0,2.102-1.704,3.805-3.805,3.805c-2.102,0-3.805-1.703-3.805-3.805
					c0-2.102,1.704-3.806,3.805-3.806C192.481,257.533,194.185,259.237,194.185,261.339z"/>
				<path style="fill:#DEF1FF;" d="M193.452,263.566c0.456-0.627,0.733-1.393,0.733-2.228c0-0.835-0.277-1.601-0.733-2.228
					c0.37,0.652,0.595,1.409,0.595,2.228C194.047,262.157,193.822,262.915,193.452,263.566z"/>
			</g>
			<g>
				<path style="fill:#32438B;" d="M227.924,261.339c0,2.972-2.41,5.381-5.381,5.381c-2.972,0-5.381-2.409-5.381-5.381
					c0-2.972,2.409-5.382,5.381-5.382C225.515,255.957,227.924,258.367,227.924,261.339z"/>
				<path style="fill:#445AA0;" d="M222.543,255.957c-0.305,0-0.602,0.032-0.894,0.08c2.546,0.427,4.488,2.635,4.488,5.302
					s-1.942,4.874-4.488,5.301c0.292,0.049,0.588,0.08,0.894,0.08c2.972,0,5.381-2.409,5.381-5.381
					C227.924,258.367,225.515,255.957,222.543,255.957z"/>
				<path style="fill:#CAE6FF;" d="M226.348,261.339c0,2.102-1.704,3.805-3.805,3.805c-2.102,0-3.805-1.703-3.805-3.805
					c0-2.102,1.704-3.806,3.805-3.806C224.644,257.533,226.348,259.237,226.348,261.339z"/>
				<path style="fill:#DEF1FF;" d="M225.615,263.566c0.456-0.627,0.733-1.393,0.733-2.228c0-0.835-0.277-1.601-0.733-2.228
					c0.37,0.652,0.595,1.409,0.595,2.228C226.21,262.157,225.985,262.915,225.615,263.566z"/>
			</g>
		</g>
	</g>
	<g>
		<path style="fill:#32438B;" d="M231.747,153.408l-2.349-6.191l-4.802,1.822c-1.156-1.832-2.64-3.38-4.341-4.599l2.133-4.741
			l-6.039-2.717l-2.138,4.751c-2.024-0.454-4.148-0.534-6.267-0.187l-1.868-4.923l-6.191,2.349l1.868,4.923
			c-1.804,1.139-3.333,2.596-4.543,4.266l-4.843-2.179l-2.717,6.039l4.817,2.167c-0.462,2.01-0.553,4.121-0.226,6.228l-4.95,1.878
			l2.349,6.191l4.901-1.86c1.132,1.826,2.586,3.373,4.259,4.6l-2.15,4.778l6.039,2.717l2.121-4.716
			c2.038,0.481,4.181,0.579,6.319,0.246l1.832,4.829l6.191-2.349l-1.813-4.78c1.853-1.149,3.42-2.63,4.656-4.334l4.676,2.104
			l2.717-6.039l-4.65-2.092c0.473-2.052,0.559-4.208,0.206-6.359L231.747,153.408z M214.065,167.199
			c-5.163,1.959-10.935-0.638-12.894-5.801c-1.959-5.163,0.639-10.936,5.801-12.895c5.163-1.958,10.935,0.639,12.894,5.801
			C221.825,159.467,219.227,165.24,214.065,167.199z"/>
		<path style="opacity:0.25;fill:#32438B;" d="M231.747,153.408l-2.349-6.191l-4.802,1.822c-1.156-1.832-2.64-3.38-4.341-4.599
			l2.133-4.741l-6.039-2.717l-2.138,4.752c-0.409-0.091-0.824-0.157-1.241-0.218c2.285,2.309,4.146,5.108,5.373,8.341
			c0.402,1.059,0.695,2.13,0.94,3.204c0.217,0.398,0.418,0.808,0.584,1.244c0.988,2.603,0.814,5.36-0.259,7.706
			c-0.743,4.786-2.932,9.253-6.268,12.79l1.623,4.279l6.191-2.349l-1.813-4.78c1.853-1.149,3.42-2.63,4.656-4.334l4.676,2.104
			l2.717-6.039l-4.65-2.092c0.473-2.052,0.559-4.208,0.206-6.359L231.747,153.408z"/>
	</g>
	<g>
		<path style="fill:#3B9BFF;" d="M191.127,176.957l-1.087-4.916l-3.813,0.843c-0.668-1.505-1.615-2.833-2.761-3.937l2.125-3.332
			l-4.245-2.708l-2.13,3.34c-1.473-0.564-3.062-0.858-4.694-0.83l-0.864-3.909l-4.915,1.087l0.864,3.909
			c-1.482,0.658-2.792,1.587-3.886,2.71l-3.404-2.171l-2.708,4.244l3.386,2.16c-0.569,1.461-0.869,3.039-0.854,4.66l-3.93,0.869
			l1.087,4.916l3.892-0.86c0.651,1.497,1.575,2.822,2.698,3.928l-2.142,3.358l4.244,2.707l2.114-3.314
			c1.48,0.586,3.081,0.895,4.727,0.879l0.848,3.834l4.916-1.087l-0.839-3.795c1.52-0.661,2.862-1.603,3.979-2.749l3.286,2.096
			l2.708-4.245l-3.268-2.084c0.581-1.492,0.883-3.105,0.854-4.761L191.127,176.957z M176.31,185.389
			c-4.099,0.906-8.156-1.682-9.063-5.781c-0.906-4.099,1.682-8.156,5.781-9.063c4.099-0.906,8.156,1.682,9.063,5.781
			C182.997,180.425,180.409,184.482,176.31,185.389z"/>
		<path style="fill:#76BEFF;" d="M191.126,176.956l-1.087-4.915l-3.813,0.843c-0.668-1.505-1.615-2.833-2.761-3.937l2.125-3.332
			l-4.245-2.708l-2.13,3.34c-0.297-0.114-0.603-0.209-0.909-0.3c1.465,1.987,2.558,4.298,3.125,6.865
			c0.186,0.841,0.289,1.679,0.355,2.514c0.12,0.323,0.226,0.654,0.303,1c0.457,2.067,0.023,4.122-1.042,5.769
			c-1.085,3.519-3.222,6.638-6.121,8.933l0.751,3.398l4.916-1.087l-0.839-3.795c1.52-0.661,2.862-1.603,3.979-2.749l3.286,2.096
			l2.708-4.245l-3.268-2.084c0.581-1.492,0.883-3.105,0.854-4.761L191.126,176.956z"/>
	</g>
	<g>
		<path style="fill:#088AFF;" d="M133.291,276.704l-0.406-1.836l-1.424,0.314c-0.249-0.563-0.604-1.059-1.031-1.471l0.794-1.245
			l-1.585-1.011l-0.796,1.247c-0.55-0.21-1.144-0.32-1.754-0.31l-0.323-1.46l-1.836,0.406l0.323,1.46
			c-0.554,0.246-1.043,0.593-1.452,1.013l-1.272-0.811l-1.011,1.585l1.265,0.808c-0.212,0.546-0.325,1.135-0.319,1.74l-1.468,0.325
			l0.406,1.836l1.454-0.321c0.243,0.56,0.588,1.054,1.008,1.468l-0.8,1.254l1.585,1.012l0.79-1.238
			c0.553,0.219,1.151,0.334,1.766,0.328l0.317,1.433l1.836-0.406l-0.313-1.418c0.567-0.246,1.069-0.599,1.486-1.026l1.228,0.783
			l1.011-1.586l-1.221-0.778c0.217-0.558,0.33-1.16,0.319-1.779L133.291,276.704z M127.756,279.853
			c-1.531,0.339-3.047-0.628-3.385-2.159c-0.338-1.531,0.628-3.047,2.16-3.386c1.531-0.338,3.047,0.629,3.385,2.16
			C130.254,278,129.288,279.516,127.756,279.853z"/>
		<path style="fill:#088AFF;" d="M133.291,276.704l-0.406-1.836l-1.424,0.314c-0.249-0.563-0.604-1.059-1.031-1.471l0.794-1.245
			l-1.585-1.011l-0.796,1.247c-0.111-0.042-0.226-0.078-0.34-0.111c0.547,0.742,0.956,1.605,1.167,2.565
			c0.069,0.313,0.108,0.627,0.133,0.938c0.044,0.121,0.084,0.244,0.113,0.374c0.171,0.771,0.009,1.539-0.389,2.154
			c-0.405,1.315-1.204,2.48-2.287,3.337l0.281,1.27l1.836-0.406l-0.313-1.418c0.567-0.246,1.069-0.599,1.486-1.026l1.228,0.783
			l1.011-1.586l-1.221-0.778c0.217-0.558,0.33-1.16,0.319-1.779L133.291,276.704z"/>
	</g>
	<g>
		<path style="fill:#088AFF;" d="M356.019,181.23l-0.603-2.726l-2.113,0.467c-0.371-0.834-0.895-1.57-1.53-2.182l1.178-1.847
			l-2.353-1.501l-1.182,1.852c-0.816-0.313-1.697-0.476-2.602-0.46l-0.479-2.167l-2.726,0.602l0.48,2.167
			c-0.822,0.365-1.548,0.88-2.154,1.503l-1.888-1.204l-1.5,2.353l1.877,1.197c-0.316,0.811-0.482,1.685-0.474,2.583l-2.179,0.482
			l0.602,2.725l2.158-0.477c0.36,0.83,0.873,1.564,1.495,2.178l-1.188,1.862l2.353,1.501l1.172-1.837
			c0.82,0.325,1.708,0.496,2.62,0.487l0.471,2.125l2.725-0.603l-0.465-2.104c0.843-0.366,1.587-0.888,2.205-1.524l1.822,1.162
			l1.501-2.353l-1.812-1.156c0.322-0.827,0.489-1.721,0.474-2.639L356.019,181.23z M347.805,185.905
			c-2.272,0.502-4.522-0.933-5.024-3.205c-0.502-2.272,0.933-4.521,3.205-5.024c2.272-0.503,4.521,0.933,5.024,3.205
			C351.512,183.153,350.077,185.402,347.805,185.905z"/>
		<path style="fill:#088AFF;" d="M356.019,181.23l-0.603-2.726l-2.113,0.467c-0.371-0.834-0.895-1.57-1.53-2.182l1.178-1.847
			l-2.353-1.501l-1.182,1.852c-0.165-0.064-0.334-0.116-0.504-0.167c0.813,1.102,1.418,2.383,1.732,3.806
			c0.103,0.466,0.16,0.931,0.197,1.394c0.065,0.179,0.125,0.362,0.168,0.554c0.253,1.146,0.013,2.285-0.578,3.198
			c-0.602,1.951-1.786,3.68-3.393,4.952l0.417,1.883l2.725-0.603l-0.465-2.104c0.843-0.366,1.587-0.888,2.205-1.524l1.822,1.162
			l1.501-2.353l-1.812-1.156c0.322-0.827,0.489-1.721,0.474-2.639L356.019,181.23z"/>
	</g>
	<g>
		<path style="fill:#32438B;" d="M378.944,154.08l-1.63-4.297l-3.332,1.265c-0.803-1.271-1.833-2.346-3.014-3.191l1.48-3.29
			l-4.191-1.886l-1.483,3.298c-1.405-0.315-2.879-0.371-4.35-0.13l-1.296-3.417l-4.297,1.63l1.296,3.417
			c-1.252,0.79-2.313,1.802-3.152,2.96l-3.361-1.512l-1.886,4.191l3.344,1.504c-0.321,1.395-0.385,2.86-0.157,4.322l-3.436,1.303
			l1.631,4.297l3.401-1.29c0.785,1.267,1.795,2.341,2.955,3.192l-1.491,3.315l4.19,1.886l1.473-3.273
			c1.414,0.335,2.901,0.401,4.386,0.171l1.272,3.351l4.297-1.63l-1.259-3.317c1.286-0.797,2.374-1.825,3.231-3.008l3.245,1.46
			l1.885-4.191l-3.227-1.452c0.328-1.424,0.388-2.92,0.143-4.413L378.944,154.08z M366.674,163.651
			c-3.583,1.359-7.59-0.443-8.949-4.026c-1.359-3.583,0.443-7.589,4.026-8.948c3.583-1.359,7.589,0.443,8.948,4.026
			C372.059,158.285,370.257,162.292,366.674,163.651z"/>
		<path style="opacity:0.25;fill:#32438B;" d="M378.944,154.08l-1.63-4.297l-3.332,1.265c-0.803-1.271-1.833-2.346-3.014-3.191
			l1.48-3.29l-4.191-1.886l-1.483,3.298c-0.284-0.063-0.572-0.109-0.861-0.151c1.586,1.602,2.878,3.545,3.729,5.788
			c0.279,0.735,0.482,1.479,0.652,2.224c0.151,0.276,0.291,0.561,0.405,0.864c0.686,1.806,0.565,3.72-0.18,5.348
			c-0.516,3.321-2.034,6.421-4.351,8.877l1.127,2.97l4.297-1.63l-1.259-3.317c1.286-0.797,2.374-1.825,3.231-3.008l3.245,1.46
			l1.885-4.191l-3.227-1.452c0.328-1.424,0.388-2.92,0.143-4.413L378.944,154.08z"/>
	</g>
	<g>
		<path style="fill:#3B9BFF;" d="M410.078,182.598l-3.459-5.93l-4.599,2.683c-1.495-1.676-3.276-3.005-5.225-3.961l1.371-5.212
			l-6.638-1.747l-1.375,5.224c-2.148-0.119-4.333,0.162-6.44,0.879l-2.751-4.715l-5.93,3.459l2.751,4.715
			c-1.65,1.473-2.964,3.224-3.917,5.138l-5.324-1.401l-1.747,6.639l5.296,1.393c-0.13,2.135,0.138,4.308,0.832,6.406l-4.74,2.766
			l3.459,5.93l4.694-2.738c1.469,1.673,3.221,3.007,5.14,3.976l-1.383,5.252l6.639,1.747l1.364-5.184
			c2.166,0.145,4.374-0.122,6.504-0.828l2.698,4.625l5.929-3.459l-2.67-4.578c1.698-1.491,3.049-3.273,4.021-5.226l5.14,1.352
			l1.747-6.639l-5.111-1.345c0.133-2.179-0.147-4.398-0.874-6.538L410.078,182.598z M394.353,199.718
			c-4.945,2.884-11.291,1.214-14.176-3.731c-2.884-4.944-1.214-11.29,3.73-14.175c4.944-2.884,11.291-1.214,14.175,3.73
			C400.968,190.488,399.297,196.834,394.353,199.718z"/>
		<path style="fill:#76BEFF;" d="M405.479,185.281l4.599-2.683l-3.459-5.93l-4.599,2.683c-1.495-1.676-3.276-3.005-5.225-3.961
			l1.371-5.212l-6.638-1.747l-1.375,5.224c-1.806-0.1-3.635,0.101-5.425,0.587c6.502,0.79,12.275,5.238,14.407,11.883
			c2.921,9.102-2.09,18.849-11.192,21.77c-2.378,0.763-4.798,0.973-7.13,0.722l-0.721,2.736l6.639,1.747l1.364-5.184
			c2.166,0.145,4.374-0.122,6.504-0.828l2.698,4.625l5.929-3.459l-2.67-4.578c1.698-1.491,3.049-3.273,4.021-5.226l5.14,1.352
			l1.747-6.639l-5.111-1.345C406.486,189.64,406.206,187.42,405.479,185.281z"/>
	</g>
	<g>
		<g>
			<g>
				<path style="fill:#493927;" d="M378.601,243.218c-18.174,0-33.237,19.421-35.997,44.824l3.005,13.308
					c1.105,4.896,2.592,9.673,4.68,14.046c6.277,13.145,12.116,12.725,21.617,15.68c12.31,0,20.647,1.253,30.352-9.934
					c5.044-5.815,8.416-13.527,10.08-21.826l2.261-11.273C411.838,262.64,396.774,243.218,378.601,243.218z"/>
				<path style="fill:#8E6842;" d="M368.613,330.217c-0.209,1.081-0.357,2.198-0.357,3.376v19.195
					c0,6.809,3.745,16.917,8.322,16.917h4.043c4.577,0,8.322-10.108,8.322-16.917v-19.195c0-1.699-0.233-3.32-0.655-4.799
					c-5.346,1.771-10.861,2.728-16.384,2.728C370.824,331.12,369.722,330.681,368.613,330.217z"/>
				<path style="fill:#A0784D;" d="M378.601,258.54c-17.507,0-31.699,17.652-31.699,39.428c0,9.263,2.586,17.761,6.884,24.49
					c5.808,9.091,14.755,14.939,24.815,14.939c10.116,0,19.104-5.916,24.908-15.095c4.24-6.705,6.791-15.142,6.791-24.334
					C410.3,276.192,396.107,258.54,378.601,258.54z"/>
				<path style="fill:#493927;" d="M361.309,291.792h10.632h2.291h17.763h2.831h18.086c-2.631-24.213-16.988-42.724-34.31-42.724
					s-31.68,18.511-34.311,42.724h15.092H361.309z"/>
				<g>
					<path style="fill:#EAA813;" d="M340.052,282.589c2.886-25.557,18.633-45.096,37.63-45.096c18.998,0,34.744,19.539,37.63,45.096
						"/>
					<path style="fill:#F4B840;" d="M392.547,241.776v21.712c0,2.45-1.675,4.454-3.721,4.454c-2.047,0-3.721-2.004-3.721-4.454
						v-24.953c-2.403-0.667-4.881-1.042-7.424-1.042c-2.708,0-5.34,0.438-7.889,1.194v24.802c0,2.45-1.674,4.454-3.72,4.454
						c-2.047,0-3.721-2.004-3.721-4.454v-21.431c-11.641,7.207-20.244,22.319-22.301,40.531h75.26
						C413.228,264.136,404.423,248.865,392.547,241.776z"/>
					<path style="fill:#FFCE76;" d="M369.793,283.815v-54.23c0-0.725,0.594-1.318,1.319-1.318h12.674
						c0.726,0,1.319,0.593,1.319,1.318v54.23c0,0.725-0.594,1.318-1.319,1.318h-12.674
						C370.387,285.133,369.793,284.54,369.793,283.815z"/>
					<path style="fill:#EAA813;" d="M417.636,287.044h-80.373c-0.471,0-0.855-0.386-0.855-0.856v-7.196
						c0-0.471,0.385-0.855,0.855-0.855h80.374c0.471,0,0.855,0.385,0.855,0.855v7.196
						C418.492,286.658,418.107,287.044,417.636,287.044z"/>
				</g>
			</g>
			<path style="fill:#32438B;" d="M457.576,409.518l-18.178-40.865c-7.588-8.093-23.438-14.882-39.593-18.068l-20.941,18.147
				l-21.078-18.147c-15.818,3.171-31.62,9.885-39.195,17.789l-0.103-0.102l-18.56,41.247H457.576z"/>
			<path style="fill:#445AA0;" d="M396.577,376.164l3.229-25.58l-8.091-5.311l-12.85,23.458
				C379.182,368.639,396.577,376.164,396.577,376.164z"/>
			<path style="fill:#445AA0;" d="M361.015,376.164l-3.228-25.58l8.091-5.311l12.85,23.458
				C378.409,368.639,361.015,376.164,361.015,376.164z"/>
		</g>
	</g>
	<g>
		<g>
			<path style="fill:#088AFF;" d="M232.623,340.786v50.69c0,3.106-2.518,5.625-5.625,5.625h-75.582
				c-3.106,0-5.625-2.519-5.625-5.625v-50.69c0-3.105,2.518-5.624,5.625-5.624h75.582
				C230.104,335.162,232.623,337.681,232.623,340.786z"/>
			<path style="fill:#36A9FF;" d="M228.31,335.162h-16.474v61.939h16.474c2.382,0,4.313-1.932,4.313-4.314v-53.313
				C232.623,337.093,230.691,335.162,228.31,335.162z"/>
		</g>
		<g>
			
				<rect x="158.893" y="329.158" transform="matrix(6.123234e-17 -1 1 6.123234e-17 -179.6248 552.6389)" style="fill:#CAE6FF;" width="55.229" height="73.947"/>
			<rect x="211.835" y="338.518" style="fill:#DEF1FF;" width="11.645" height="55.229"/>
		</g>
		<g>
			<path style="fill:#2E4480;" d="M227.565,364.148c1.095,0,1.983,0.888,1.983,1.983c0,1.095-0.888,1.983-1.983,1.983
				c-1.095,0-1.983-0.889-1.983-1.983C225.582,365.036,226.47,364.148,227.565,364.148z"/>
			<path style="fill:#38528E;" d="M225.582,366.132c0,0.194,0.037,0.378,0.088,0.555c0.241-0.823,0.993-1.429,1.895-1.429
				c0.901,0,1.653,0.605,1.895,1.429c0.052-0.177,0.088-0.36,0.088-0.555c0-1.096-0.888-1.983-1.983-1.983
				C226.47,364.148,225.582,365.036,225.582,366.132z"/>
		</g>
		<g>
			<rect x="156.466" y="347.022" style="fill:#FFFFFF;" width="59.709" height="1.565"/>
			<rect x="156.466" y="353.923" style="fill:#FFFFFF;" width="59.709" height="1.566"/>
			<rect x="156.466" y="360.824" style="fill:#FFFFFF;" width="59.709" height="1.566"/>
			<rect x="156.466" y="367.726" style="fill:#FFFFFF;" width="59.709" height="1.566"/>
			<rect x="156.466" y="373.861" style="fill:#FFFFFF;" width="59.709" height="1.566"/>
		</g>
	</g>
	<g>
		<path style="fill:#F4B840;" d="M118.591,208.601c-3.6-2.722-8.725-2.01-11.447,1.59c-1.592,2.106-2.001,4.732-1.353,7.096
			l-42.465,28.728l0.014,0.021c-0.995,0.881-1.209,2.383-0.444,3.514c0.765,1.13,2.238,1.491,3.426,0.895l0.014,0.021l42.505-28.754
			c3.594,2.629,8.644,1.902,11.339-1.663C122.902,216.448,122.191,211.323,118.591,208.601z M66.506,249.152
			c-1.015,0.687-2.263,0.615-2.787-0.16c-0.524-0.775-0.126-1.96,0.889-2.646c1.016-0.687,2.264-0.616,2.788,0.159
			C67.92,247.28,67.522,248.465,66.506,249.152z M118.328,218.735l-2.983,2.081l-3.638-0.069l-2.902-2.194l-1.058-3.481l1.19-3.438
			l2.984-2.082l3.637,0.069l2.902,2.194l1.058,3.481L118.328,218.735z"/>
		<path style="fill:#FFCE76;" d="M119.574,209.49c1.808,2.801,1.787,6.542-0.341,9.356c-2.695,3.564-7.745,4.292-11.339,1.663
			l-40.353,27.299c-0.152,0.498-0.508,0.987-1.035,1.344c-0.687,0.464-1.476,0.574-2.079,0.361
			c-0.631,0.059-1.269-0.104-1.794-0.471c0.07,0.174,0.154,0.345,0.264,0.507c0.765,1.13,2.238,1.491,3.426,0.895l0.014,0.021
			l42.505-28.754c3.594,2.629,8.644,1.902,11.339-1.663C122.631,216.808,122.29,212.337,119.574,209.49z"/>
	</g>
	<g>
		<g>
			<path style="fill:#FFCE76;" d="M236.437,122.477l3.679-3.392c-5.535-4.469-9.081-11.302-9.081-18.969
				c0-13.467,10.917-24.382,24.382-24.382c13.465,0,24.382,10.915,24.382,24.382c0,7.667-3.546,14.499-9.081,18.969l3.679,3.392
				c6.335-5.383,10.367-13.396,10.367-22.361c0-16.208-13.139-29.347-29.347-29.347s-29.347,13.139-29.347,29.347
				C226.07,109.081,230.102,117.094,236.437,122.477z"/>
			<path style="fill:#F4B840;" d="M256.163,86.847c-8.141,0-13.694,5.724-13.694,13.827c0,2.032,0.438,4.302,1.453,6.498
				c1.931,4.181,4.612,10.845,5.251,13.575h14.056c1.089-4.182,3.76-9.766,5.693-14.429c0.82-1.978,1.248-4.179,1.248-5.937
				C270.17,92.779,264.303,86.847,256.163,86.847z"/>
			
				<rect x="250.768" y="105.299" transform="matrix(0.9781 -0.2079 0.2079 0.9781 -18.7715 54.7622)" style="fill:#F7BE59;" width="0.74" height="22.77"/>
			
				<rect x="260.813" y="106.115" transform="matrix(0.9962 0.0875 -0.0875 0.9962 11.2776 -22.3931)" style="fill:#F7BE59;" width="0.741" height="22.77"/>
			<path style="fill:#F7BE59;" d="M248.742,105.828c3.768,3.886,9.739,4.198,13.35,0.696"/>
			<path style="fill:#EAA813;" d="M262.552,131.01h-12.674c0,2.688,1.92,4.953,4.547,5.675v0.658h0.334
				c0.172,0.358,0.554,0.61,0.999,0.61h1.098c0.445,0,0.827-0.252,0.999-0.61h0.334v-0.711
				C260.722,135.856,262.552,133.634,262.552,131.01z"/>
			<rect x="248.742" y="120.747" style="fill:#EAA813;" width="15.204" height="11.103"/>
			<path style="fill:#F4B942;" d="M248.602,126.054c-0.576,0.028-1.02,0.487-0.989,1.026c0.03,0.538,0.522,0.952,1.099,0.924
				l12.005-0.589L248.602,126.054z"/>
			<path style="fill:#F4B942;" d="M248.59,122.426c-0.576,0.038-1.01,0.503-0.97,1.042c0.04,0.538,0.54,0.943,1.116,0.906
				l11.992-0.781L248.59,122.426z"/>
			<path style="fill:#F4B942;" d="M263.646,124.102l-12.103,1.441l12.007,0.509c0.578,0.024,1.065-0.392,1.094-0.931
				C264.67,124.583,264.224,124.127,263.646,124.102z"/>
			<path style="fill:#F4B942;" d="M263.628,127.898l-12.081,1.598l12.016,0.354c0.577,0.018,1.06-0.406,1.077-0.945
				C264.658,128.366,264.206,127.915,263.628,127.898z"/>
			<path style="opacity:0.5;fill:#FFCE76;" d="M270.17,100.381c0-7.602-5.867-13.534-14.007-13.534
				c-0.809,0-1.583,0.071-2.338,0.181c6.915,1.008,11.701,6.493,11.701,13.353c0,1.757-0.429,3.958-1.249,5.937
				c-1.934,4.663-4.605,10.247-5.692,14.429h0.716v11.103h-1.465c-0.325,2.129-1.865,3.881-3.941,4.649
				c0.175,0.065,0.347,0.136,0.53,0.187v0.658h0.334c0.172,0.358,0.554,0.61,0.999,0.61h1.098c0.445,0,0.827-0.252,0.999-0.61h0.334
				v-0.711c2.257-0.69,3.947-2.533,4.291-4.782h1.466v-11.103h-0.717c1.089-4.182,3.76-9.766,5.693-14.429
				C269.742,104.34,270.17,102.139,270.17,100.381z"/>
		</g>
	</g>
	<g>
		<path style="fill:none;stroke:#43B7FF;stroke-width:2;stroke-miterlimit:10;" d="M281.62,235.773v-42.606
			c0-6.591,6.849-11.925,15.313-11.925h37.407"/>
		<path style="fill:none;stroke:#43B7FF;stroke-width:2;stroke-miterlimit:10;" d="M277.419,275.887v75.902
			c0,11.742,6.849,21.244,15.313,21.244h4.484"/>
		<path style="fill:none;stroke:#43B7FF;stroke-width:2;stroke-miterlimit:10;" d="M162.152,262.798h-54.706
			c-8.463,0-15.312-6.849-15.312-15.312v-7.155"/>
		
			<line style="fill:none;stroke:#43B7FF;stroke-width:2;stroke-miterlimit:10;" x1="189.117" y1="271.242" x2="189.117" y2="329.099"/>
		
			<line style="fill:none;stroke:#43B7FF;stroke-width:2;stroke-miterlimit:10;" x1="256.11" y1="143.901" x2="256.11" y2="230.977"/>
		
			<line style="fill:none;stroke:#43B7FF;stroke-width:2;stroke-miterlimit:10;" x1="199.255" y1="185.569" x2="199.255" y2="245.567"/>
	</g>
</g>
<g id="DESIGNED_BY_FREEPIK">
	<g>
		<g id="XMLID_319_">
			<g id="XMLID_338_">
				<path id="XMLID_346_" style="fill:#1D262D;" d="M260.104,459.759c-0.433,0.443-0.804,0.931-1.109,1.453l-0.465-0.241
					c-0.066-0.297-0.349-0.502-0.659-0.466c-0.33,0.039-0.567,0.339-0.528,0.67c0.039,0.331,0.339,0.567,0.67,0.528
					c0.065-0.008,0.127-0.025,0.184-0.052l0.451,0.234c-0.251,0.554-0.433,1.139-0.539,1.743l0.746,0.132
					c0.23-1.306,0.85-2.507,1.792-3.473L260.104,459.759z"/>
				<path id="XMLID_345_" style="fill:#1D262D;" d="M265.592,457.457c-0.171,0-0.341,0.006-0.51,0.017l-0.073-0.626
					c0.188-0.149,0.296-0.389,0.266-0.645c-0.046-0.393-0.402-0.674-0.795-0.628c-0.394,0.046-0.675,0.402-0.629,0.796
					c0.03,0.254,0.189,0.461,0.405,0.564l0.073,0.624c-0.714,0.116-1.403,0.332-2.06,0.646l0.327,0.685
					c0.934-0.447,1.941-0.674,2.995-0.674c0.496,0,0.993,0.053,1.475,0.158l0.161-0.741
					C266.692,457.516,266.143,457.457,265.592,457.457z"/>
				<path id="XMLID_344_" style="fill:#1D262D;" d="M272.194,460.004c0.331-0.04,0.566-0.341,0.525-0.672
					c-0.04-0.331-0.342-0.566-0.672-0.525c-0.31,0.038-0.536,0.304-0.53,0.608l-0.416,0.363c-0.418-0.431-0.89-0.813-1.408-1.14
					l-0.403,0.642c1.134,0.715,2.02,1.727,2.563,2.925l0.69-0.313c-0.251-0.554-0.567-1.071-0.942-1.545l0.402-0.351
					C272.064,460.009,272.129,460.013,272.194,460.004z"/>
				<path id="XMLID_343_" style="fill:#1D262D;" d="M265.044,467.665c-0.386,0.023-0.774,0.035-1.157,0.035
					c-0.88,0-1.732-0.061-2.478-0.18c-0.39-0.061-0.846-0.154-1.27-0.292c1.046,1.861,3.069,3.125,5.388,3.125
					c2.855,0,5.263-1.916,5.95-4.503c-0.682,0.449-1.506,0.825-2.459,1.122C267.839,467.341,266.463,467.58,265.044,467.665z"/>
				<path id="XMLID_339_" style="fill:#1D262D;" d="M265.592,458.973c-3.353,0-6.08,2.667-6.08,5.944
					c0,0.425,0.047,0.849,0.138,1.261c0.674,0.482,2.706,0.891,5.348,0.732c2.879-0.174,5.297-0.958,6.672-2.159
					c-0.006-0.194-0.021-0.39-0.045-0.581C271.243,461.207,268.65,458.973,265.592,458.973z M263.433,465.488
					c-1.021,0-1.85-0.83-1.85-1.85c0-1.021,0.829-1.851,1.85-1.851c1.02,0,1.85,0.83,1.85,1.851
					C265.282,464.658,264.452,465.488,263.433,465.488z M268.17,464.58c-0.75,0-1.36-0.61-1.36-1.36s0.61-1.36,1.36-1.36
					s1.36,0.61,1.36,1.36S268.92,464.58,268.17,464.58z"/>
			</g>
			<path id="XMLID_336_" style="fill:#1D262D;" d="M281.595,460.84c-0.294-0.115-0.805-0.309-1.382-0.236
				c-0.551,0.068-0.844,0.34-0.844,1.006v0.866h2.228v1.717h-2.228v5.455h-1.932v-5.455h-1.34v-1.717h1.34v-0.889
				c0-1.68,0.896-2.782,2.568-2.782c0.642,0,1.157,0.121,1.59,0.308L281.595,460.84z"/>
			<path id="XMLID_334_" style="fill:#1D262D;" d="M286.298,464.172c-0.177-0.029-0.357-0.046-0.526-0.046
				c-0.895,0-1.51,0.548-1.51,1.613v3.908h-1.932v-7.172h1.872v0.784c0.452-0.673,1.141-0.977,2.022-0.977
				c0.414,0,0.848,0.127,1.094,0.337L286.298,464.172z"/>
			<path id="XMLID_331_" style="fill:#1D262D;" d="M293.965,466.051c0,0.222-0.015,0.488-0.037,0.651h-5.084
				c0.207,1.036,0.933,1.487,1.843,1.487c0.621,0,1.295-0.252,1.813-0.689l1.133,1.243c-0.814,0.748-1.85,1.089-3.057,1.089
				c-2.198,0-3.723-1.495-3.723-3.753c0-2.258,1.481-3.797,3.627-3.797C292.544,462.283,293.958,463.815,293.965,466.051z
				 M288.851,465.385h3.175c-0.177-0.918-0.732-1.437-1.561-1.437C289.554,463.948,289.021,464.496,288.851,465.385z"/>
			<path id="XMLID_328_" style="fill:#1D262D;" d="M301.618,466.051c0,0.222-0.015,0.488-0.037,0.651h-5.085
				c0.208,1.036,0.933,1.487,1.844,1.487c0.621,0,1.295-0.252,1.814-0.689l1.132,1.243c-0.814,0.748-1.851,1.089-3.057,1.089
				c-2.198,0-3.723-1.495-3.723-3.753c0-2.258,1.48-3.797,3.626-3.797C300.197,462.283,301.611,463.815,301.618,466.051z
				 M296.504,465.385h3.176c-0.178-0.918-0.733-1.437-1.563-1.437C297.207,463.948,296.674,464.496,296.504,465.385z"/>
			<path id="XMLID_325_" style="fill:#1D262D;" d="M309.964,466.058c0,2.154-1.495,3.775-3.472,3.775
				c-0.962,0-1.643-0.378-2.108-0.933v3.708h-1.925v-10.133h1.888v0.792c0.466-0.585,1.154-0.984,2.139-0.984
				C308.469,462.283,309.964,463.904,309.964,466.058z M304.287,466.058c0,1.133,0.747,1.977,1.843,1.977
				c1.14,0,1.851-0.881,1.851-1.977c0-1.095-0.711-1.976-1.851-1.976C305.034,464.082,304.287,464.926,304.287,466.058z"/>
			<path id="XMLID_322_" style="fill:#1D262D;" d="M313.067,460.129c0,0.696-0.54,1.228-1.236,1.228
				c-0.695,0-1.229-0.532-1.229-1.228c0-0.695,0.533-1.243,1.229-1.243C312.527,458.886,313.067,459.434,313.067,460.129z
				 M312.809,469.647h-1.932v-7.172h1.932V469.647z"/>
			<path id="XMLID_320_" style="fill:#1D262D;" d="M316.032,465.029l2.701-2.554h2.369l-3.479,3.375l3.501,3.797h-2.376
				l-2.716-2.901v2.901h-1.932v-10.658h1.932V465.029z"/>
		</g>
		<g>
			<path style="fill:#1D262D;" d="M184.413,469.582v-1.055c-0.527,0.719-1.392,1.23-2.388,1.23c-1.846,0-3.149-1.405-3.149-3.705
				c0-2.256,1.289-3.721,3.149-3.721c0.952,0,1.816,0.469,2.388,1.245v-3.765h1.099v9.77H184.413z M184.413,467.664v-3.208
				c-0.396-0.615-1.245-1.143-2.124-1.143c-1.421,0-2.27,1.172-2.27,2.739c0,1.567,0.85,2.725,2.27,2.725
				C183.167,468.777,184.017,468.279,184.413,467.664z"/>
			<path style="fill:#1D262D;" d="M186.932,466.038c0-2.051,1.465-3.706,3.486-3.706c2.139,0,3.398,1.67,3.398,3.794v0.278h-5.727
				c0.088,1.333,1.025,2.446,2.549,2.446c0.806,0,1.626-0.323,2.183-0.894l0.527,0.718c-0.703,0.703-1.655,1.083-2.813,1.083
				C188.44,469.758,186.932,468.25,186.932,466.038z M190.403,463.24c-1.509,0-2.256,1.274-2.314,2.358h4.643
				C192.718,464.544,192.015,463.24,190.403,463.24z"/>
			<path style="fill:#1D262D;" d="M194.607,468.645l0.571-0.79c0.469,0.542,1.362,1.011,2.329,1.011c1.084,0,1.67-0.513,1.67-1.216
				c0-1.714-4.38-0.659-4.38-3.281c0-1.099,0.952-2.036,2.637-2.036c1.201,0,2.051,0.454,2.622,1.025l-0.513,0.762
				c-0.424-0.513-1.201-0.894-2.109-0.894c-0.967,0-1.567,0.483-1.567,1.113c0,1.553,4.379,0.527,4.379,3.281
				c0,1.187-0.952,2.138-2.783,2.138C196.306,469.758,195.325,469.407,194.607,468.645z"/>
			<path style="fill:#1D262D;" d="M201.477,460.765c0-0.41,0.337-0.747,0.732-0.747c0.41,0,0.747,0.337,0.747,0.747
				c0,0.41-0.337,0.733-0.747,0.733C201.814,461.497,201.477,461.175,201.477,460.765z M201.667,469.582v-7.074h1.099v7.074H201.667
				z"/>
			<path style="fill:#1D262D;" d="M204.582,471.398l0.557-0.82c0.586,0.703,1.289,0.968,2.3,0.968c1.172,0,2.27-0.571,2.27-2.124
				v-1.012c-0.512,0.719-1.376,1.261-2.373,1.261c-1.845,0-3.149-1.378-3.149-3.662c0-2.27,1.289-3.677,3.149-3.677
				c0.952,0,1.802,0.469,2.373,1.245v-1.069h1.099v6.87c0,2.344-1.641,3.075-3.369,3.075
				C206.237,472.453,205.417,472.219,204.582,471.398z M209.708,467.547v-3.091c-0.381-0.615-1.23-1.143-2.109-1.143
				c-1.421,0-2.271,1.128-2.271,2.695c0,1.553,0.849,2.695,2.271,2.695C208.478,468.704,209.328,468.162,209.708,467.547z"/>
			<path style="fill:#1D262D;" d="M217.413,469.582v-4.628c0-1.245-0.629-1.641-1.582-1.641c-0.865,0-1.685,0.527-2.095,1.099v5.17
				h-1.099v-7.074h1.099v1.025c0.498-0.586,1.464-1.201,2.519-1.201c1.48,0,2.256,0.747,2.256,2.285v4.965H217.413z"/>
			<path style="fill:#1D262D;" d="M219.933,466.038c0-2.051,1.465-3.706,3.486-3.706c2.138,0,3.399,1.67,3.399,3.794v0.278h-5.728
				c0.088,1.333,1.025,2.446,2.549,2.446c0.806,0,1.626-0.323,2.183-0.894l0.527,0.718c-0.703,0.703-1.655,1.083-2.813,1.083
				C221.441,469.758,219.933,468.25,219.933,466.038z M223.404,463.24c-1.509,0-2.256,1.274-2.314,2.358h4.643
				C225.718,464.544,225.015,463.24,223.404,463.24z"/>
			<path style="fill:#1D262D;" d="M233.35,469.582v-1.055c-0.527,0.719-1.392,1.23-2.388,1.23c-1.845,0-3.149-1.405-3.149-3.705
				c0-2.256,1.289-3.721,3.149-3.721c0.952,0,1.817,0.469,2.388,1.245v-3.765h1.098v9.77H233.35z M233.35,467.664v-3.208
				c-0.396-0.615-1.245-1.143-2.124-1.143c-1.421,0-2.27,1.172-2.27,2.739c0,1.567,0.85,2.725,2.27,2.725
				C232.105,468.777,232.954,468.279,233.35,467.664z"/>
			<path style="fill:#1D262D;" d="M239.692,469.582v-9.77h1.099v3.765c0.572-0.776,1.421-1.245,2.388-1.245
				c1.846,0,3.149,1.465,3.149,3.721c0,2.3-1.304,3.705-3.149,3.705c-0.996,0-1.86-0.512-2.388-1.23v1.055H239.692z M242.9,468.777
				c1.436,0,2.286-1.157,2.286-2.725c0-1.567-0.85-2.739-2.286-2.739c-0.864,0-1.729,0.527-2.109,1.143v3.208
				C241.171,468.279,242.036,468.777,242.9,468.777z"/>
			<path style="fill:#1D262D;" d="M247.528,471.355c0.161,0.073,0.425,0.117,0.601,0.117c0.483,0,0.805-0.161,1.055-0.747
				l0.468-1.069l-2.959-7.148h1.187l2.358,5.801l2.344-5.801h1.201l-3.545,8.511c-0.425,1.024-1.143,1.421-2.08,1.435
				c-0.234,0-0.601-0.043-0.806-0.103L247.528,471.355z"/>
		</g>
	</g>
</g>
</svg>
