<svg width="868" height="208" viewBox="0 0 868 208" fill="none" xmlns="http://www.w3.org/2000/svg">
<path d="M0 168.728C50.0483 135.464 179.92 72.3749 297.573 88.313C276.02 112.582 243.601 149.167 242.513 150.073C215.044 140.837 135.474 127.253 75.344 145.364C127.867 129.544 158.476 121.638 214.622 115.48C180.572 114.575 92.5862 123.522 0 168.728ZM210.275 62.4135C199.529 65.6131 177.529 72.1938 175.501 72.9182C172.965 73.8238 174.052 76.3594 176.587 75.635C179.123 74.9105 194.156 71.1071 207.739 68.2092C218.606 65.891 221.866 68.3903 224.04 69.8393C228.93 72.556 234.363 75.8161 237.986 78.1706C167.568 83.2418 115.793 103.165 99.0701 112.583C112.654 96.2821 135.112 84.3285 163.185 70.926C185.643 60.2039 196.933 56.6783 199.77 56.2556L210.275 62.4135Z" fill="url(#paint0_linear_6341_1633)"/>
<path d="M202.604 2.47601C253.207 -8.81277 305.362 19.3565 322.854 69.5043C324.112 73.1081 325.155 76.7352 325.997 80.3705C326.014 80.4418 326.03 80.513 326.047 80.5844C326.124 80.9212 326.199 81.2582 326.272 81.5951C326.29 81.6746 326.308 81.754 326.325 81.8335C326.395 82.1557 326.463 82.4779 326.529 82.8002C326.555 82.9238 326.58 83.0475 326.605 83.1713C326.66 83.4382 326.713 83.7051 326.765 83.9721C326.798 84.1445 326.832 84.317 326.864 84.4896C326.908 84.7227 326.952 84.9558 326.994 85.1889C327.027 85.3703 327.06 85.552 327.092 85.7338C327.142 86.0173 327.191 86.3008 327.238 86.5844C327.263 86.7327 327.288 86.8811 327.312 87.0297C327.348 87.2484 327.383 87.4672 327.417 87.6859C327.459 87.9529 327.5 88.2201 327.54 88.4877C327.558 88.6055 327.575 88.7234 327.592 88.8412C327.637 89.1491 327.681 89.4573 327.723 89.766C327.732 89.8357 327.742 89.9053 327.751 89.975C327.8 90.3383 327.846 90.7023 327.891 91.0668C327.899 91.1375 327.908 91.2081 327.917 91.2787C328.419 95.4121 328.679 99.6204 328.679 103.889C328.679 157 288.712 200.775 237.214 206.783C237.214 206.697 237.214 206.611 237.214 206.526C197.509 211.263 158.353 192.475 137.192 158.584L176.604 165.547C196.962 181.439 224.726 186.982 250.925 177.843C287.634 165.039 308.82 127.755 302.575 90.6654C296.288 53.5501 263.986 25.2847 225.081 25.2846C197.334 25.2846 172.945 39.6618 158.956 61.3725L124.037 80.9271C132.855 41.9581 163.638 11.3216 202.688 2.71723C202.66 2.63718 202.632 2.55675 202.604 2.47601Z" fill="#D45F28"/>
<path d="M36.9475 162.933C65.5637 150.979 156.303 132.324 201.038 150.979C126.419 148.624 75.5251 157.258 36.9475 162.933Z" fill="#D45F28"/>
<path d="M393.073 66.6371L372.469 122.125H359.617L380.935 64.8011C383.587 56.9471 387.973 52.0511 397.153 52.0511C407.353 52.0511 412.453 58.0691 412.453 67.0451V107.743C412.453 110.089 413.881 111.619 415.921 111.619C417.757 111.619 419.185 110.497 419.797 108.763L436.525 64.8011C439.177 56.9471 443.563 52.0511 452.743 52.0511C462.943 52.0511 468.043 58.0691 468.043 67.0451V122.125H455.905V67.6571C455.905 65.2091 454.477 63.6791 452.437 63.6791C450.703 63.6791 449.275 64.9031 448.663 66.6371L431.935 110.599C429.283 118.453 424.795 123.349 415.615 123.349C405.517 123.349 400.417 117.331 400.417 108.253V67.6571C400.417 65.2091 398.887 63.6791 396.847 63.6791C395.011 63.6791 393.787 64.9031 393.073 66.6371ZM486.208 68.2691H518.542C532.006 68.2691 537.31 75.8171 537.31 86.0171V111.313C537.31 119.065 535.27 122.125 526.192 122.125H500.998C488.248 122.125 482.944 115.903 482.944 105.703C482.944 95.9111 487.84 90.1991 501.1 90.1991H526.702V86.1191C526.702 81.9371 524.356 78.6731 518.44 78.6731H486.208V68.2691ZM523.744 111.619C525.886 111.619 526.702 110.803 526.702 108.865V98.7671H501.304C495.592 98.7671 493.552 101.113 493.552 105.091C493.552 109.069 495.694 111.619 501.1 111.619H523.744ZM567.081 68.2691H589.215V78.6731H570.243C565.449 78.6731 563.307 80.9171 563.307 85.6091V122.125H552.495V83.9771C552.495 73.1651 556.473 68.2691 567.081 68.2691ZM617.458 68.2691H634.9C647.65 68.2691 653.056 74.3891 653.056 84.7931C653.056 94.6871 648.058 100.297 634.798 100.297H609.196V104.173C609.196 108.457 611.542 111.619 617.458 111.619H650.404V122.125H617.458C603.994 122.125 598.69 114.577 598.69 104.377V86.0171C598.69 75.8171 603.994 68.2691 617.458 68.2691ZM609.196 86.1191V91.8311H634.492C640.306 91.8311 642.448 89.3831 642.448 85.4051C642.448 81.3251 640.102 78.6731 634.798 78.6731H617.458C611.542 78.6731 609.196 81.9371 609.196 86.1191ZM673.899 68.2691H696.135C714.393 68.2691 723.267 76.9391 723.267 91.8311V122.125H712.353V91.8311C712.353 83.3651 707.457 78.6731 696.135 78.6731H678.489C677.571 78.6731 677.163 79.1831 677.163 80.2031V122.125H666.351V76.6331C666.351 70.3091 668.493 68.2691 673.899 68.2691ZM756.114 68.2691H773.556C786.306 68.2691 791.712 74.3891 791.712 84.7931C791.712 94.6871 786.714 100.297 773.454 100.297H747.852V104.173C747.852 108.457 750.198 111.619 756.114 111.619H789.06V122.125H756.114C742.65 122.125 737.346 114.577 737.346 104.377V86.0171C737.346 75.8171 742.65 68.2691 756.114 68.2691ZM747.852 86.1191V91.8311H773.148C778.962 91.8311 781.104 89.3831 781.104 85.4051C781.104 81.3251 778.758 78.6731 773.454 78.6731H756.114C750.198 78.6731 747.852 81.9371 747.852 86.1191ZM800.927 68.2691H814.595L832.445 87.7511L851.009 68.2691H864.473L839.177 95.0951L864.779 122.125H851.009L832.037 101.419L812.657 122.125H799.193L825.407 94.0751L800.927 68.2691Z" fill="url(#paint1_linear_6341_1633)"/>
<path d="M440.163 138.425H455.211V143.617H439.987C437.303 143.617 436.115 145.069 436.115 147.137C436.115 148.941 437.039 150.657 440.515 150.657H447.467C455.563 150.657 457.455 155.145 457.455 159.413C457.455 164.429 454.771 168.125 447.995 168.125H431.451V162.933H448.171C450.987 162.933 452.263 161.393 452.263 159.237C452.263 157.301 451.251 155.541 447.599 155.541H440.691C432.771 155.541 430.923 151.097 430.923 146.961C430.923 142.033 433.563 138.425 440.163 138.425ZM493.892 144.893H501.416C506.916 144.893 509.248 147.533 509.248 152.021C509.248 156.289 507.092 158.709 501.372 158.709H490.328V160.381C490.328 162.229 491.34 163.593 493.892 163.593H508.104V168.125H493.892C488.084 168.125 485.796 164.869 485.796 160.469V152.549C485.796 148.149 488.084 144.893 493.892 144.893ZM490.328 152.593V155.057H501.24C503.748 155.057 504.672 154.001 504.672 152.285C504.672 150.525 503.66 149.381 501.372 149.381H493.892C491.34 149.381 490.328 150.789 490.328 152.593ZM544.552 144.893H554.1V149.381H545.916C543.848 149.381 542.924 150.349 542.924 152.373V168.125H538.26V151.669C538.26 147.005 539.976 144.893 544.552 144.893ZM580.342 144.893H585.27L593.014 163.549C593.19 164.033 593.586 164.253 594.158 164.253C594.774 164.253 595.17 164.033 595.39 163.549L603.442 144.893H608.458L599.482 165.617C598.514 167.817 596.798 168.653 594.158 168.653C591.474 168.653 589.758 167.773 588.878 165.617L580.342 144.893ZM635.947 144.893H640.611V168.125H635.947V144.893ZM635.947 136.137H640.655V141.549H635.947V136.137ZM679.587 144.893H691.555V149.381H680.027C675.979 149.381 674.219 151.493 674.219 156.509C674.219 161.525 675.979 163.593 680.027 163.593H691.555V168.125H679.587C673.383 168.125 669.511 164.341 669.511 156.509C669.511 148.677 673.383 144.893 679.587 144.893ZM728.012 144.893H735.536C741.036 144.893 743.368 147.533 743.368 152.021C743.368 156.289 741.212 158.709 735.492 158.709H724.448V160.381C724.448 162.229 725.46 163.593 728.012 163.593H742.224V168.125H728.012C722.204 168.125 719.916 164.869 719.916 160.469V152.549C719.916 148.149 722.204 144.893 728.012 144.893ZM724.448 152.593V155.057H735.36C737.868 155.057 738.792 154.001 738.792 152.285C738.792 150.525 737.78 149.381 735.492 149.381H728.012C725.46 149.381 724.448 150.789 724.448 152.593ZM778.891 144.893H791.783V149.381H778.935C776.779 149.381 775.899 150.261 775.899 152.021C775.899 153.649 776.603 154.529 779.199 154.529H784.655C791.079 154.529 792.707 157.477 792.707 161.085C792.707 165.221 790.551 168.125 785.095 168.125H771.587V163.593H785.095C787.251 163.593 788.131 162.845 788.131 161.041C788.131 159.193 787.163 158.445 784.831 158.445H779.331C772.907 158.445 771.323 155.233 771.323 151.669C771.323 147.489 773.479 144.893 778.891 144.893Z" fill="#E68127"/>
<defs>
<linearGradient id="paint0_linear_6341_1633" x1="9.418" y1="168.728" x2="288.879" y2="100.991" gradientUnits="userSpaceOnUse">
<stop stop-color="#536DDB"/>
<stop offset="1" stop-color="#2A3A8F"/>
</linearGradient>
<linearGradient id="paint1_linear_6341_1633" x1="624.679" y1="122.125" x2="624.679" y2="64.6251" gradientUnits="userSpaceOnUse">
<stop stop-color="#29509F"/>
<stop offset="1" stop-color="#274395"/>
</linearGradient>
</defs>
</svg>
